<?xml version="1.0" encoding="utf-8"?>
<!-- Generator: Adobe Illustrator 19.2.1, SVG Export Plug-In . SVG Version: 6.00 Build 0)  -->
<!DOCTYPE svg PUBLIC "-//W3C//DTD SVG 1.1//EN" "http://www.w3.org/Graphics/SVG/1.1/DTD/svg11.dtd">
<svg version="1.1" id="Layer_1" xmlns="http://www.w3.org/2000/svg" xmlns:xlink="http://www.w3.org/1999/xlink" x="0px" y="0px"
	 viewBox="0 0 841.89 1190.551" enable-background="new 0 0 841.89 1190.551" xml:space="preserve">
<rect x="0" y="85.039" fill="#BCBEC0" width="841.89" height="1105.512"/>
<g>
	<rect x="0" fill="#FFFFFF" width="841.89" height="85.039"/>
	<g>
		<path fill="#0087CD" d="M27.001,29.172c0-2.7,2.25-4.951,4.95-4.951h30.002c2.8,0,5.05,2.251,5.05,4.951v30.001
			c0,2.801-2.25,5.051-5.05,5.051H31.951c-2.7,0-4.95-2.25-4.95-5.051V29.172z M47.052,28.521c-4.15,0-7.75,0.2-11.701,0.75
			c-1.2,0.15-1.9,0.85-1.9,1.9v23.401c0,0.75,0.55,1.25,1.05,1.399l1.5,0.25v3.15c0,0.351,0.3,0.601,0.7,0.601h2.4
			c0.3,0,0.6-0.25,0.6-0.601v-2.8c1.95,0.25,4.6,0.35,7.25,0.35c2.7,0,5.45-0.1,7.35-0.35v2.8c0,0.351,0.35,0.601,0.65,0.601h2.4
			c0.4,0,0.7-0.25,0.7-0.601v-3.15l1.5-0.25c0.55-0.149,1.05-0.6,1.05-1.399V31.172c0-1.051-0.7-1.75-1.9-1.9
			C54.703,28.771,51.052,28.521,47.052,28.521z M57.403,48.473c-2.851,0.5-6.601,1-10.251,1c-3.85,0-7.5-0.45-10.4-1.1
			c-0.8-0.15-1.1-0.45-1.1-1.101V32.672c0-0.65,0.3-1.101,1.1-1.101l20.651,0.101c0.8,0,1.05,0.45,1.05,1.1v14.602
			C58.453,48.022,58.203,48.373,57.403,48.473z M36.451,52.473c0.05-0.649,0.65-1.25,1.35-1.25c0.7,0,1.3,0.601,1.3,1.25
			c0,0.75-0.6,1.351-1.3,1.351C37.051,53.773,36.451,53.173,36.451,52.473z M54.752,52.473c0.05-0.649,0.65-1.25,1.3-1.25
			c0.7,0,1.3,0.601,1.3,1.25c0,0.75-0.6,1.351-1.3,1.351C55.353,53.773,54.752,53.173,54.752,52.473z"/>
	</g>
	<text transform="matrix(1 0 0 1 81.3335 58.2229)" fill="#0087CD" font-family="'GothamXNarrow-Medium'" font-size="40px">14</text>
	<text transform="matrix(1 0 0 1 124.8335 41.2229)" fill="#58595B" font-family="'GothamRounded-Medium'" font-size="16px">Hernesaari - Kamppi - Pajamäki</text>
	<text transform="matrix(1 0 0 1 124.8335 58.2229)" fill="#58595B" font-family="'GothamRounded-Book'" font-size="12px">Voimassa alkaen 14.4.2016</text>
	<text transform="matrix(1 0 0 1 750.5077 36.4169)"><tspan x="0" y="0" fill="#58595B" font-family="'GothamRounded-Book'" font-size="10px">Taukotila</tspan><tspan x="27.269" y="20" fill="#58595B" font-family="'GothamRounded-Book'" font-size="10px">WC</tspan></text>
	<g>
		<path fill="#786756" d="M817.5,60.384h-10c-1.657,0-3-1.343-3-3v-10c0-1.657,1.343-3,3-3h10c1.657,0,3,1.343,3,3v10
			C820.5,59.041,819.157,60.384,817.5,60.384z"/>
		<path fill="#FFFFFF" d="M815.5,48.029c0-0.742-1.343-1.344-3-1.344s-3,0.602-3,1.344l0,9.856c0,0.276,0.224,0.5,0.5,0.5h5
			c0.276,0,0.5-0.224,0.5-0.5V48.029z"/>
		<path fill="#786756" d="M813.535,50.06c-0.286-0.286-0.75-0.286-1.036,0c-0.286-0.286-0.75-0.286-1.036,0
			c-0.286,0.286-0.286,0.75,0,1.036l1.036,1.036l1.036-1.036C813.821,50.81,813.821,50.346,813.535,50.06z"/>
		<circle fill="#786756" cx="810.76" cy="53.384" r="0.5"/>
		<path fill="#786756" d="M814.75,48.375h-4.5c-0.138,0-0.25-0.112-0.25-0.25l0,0c0-0.138,0.112-0.25,0.25-0.25h4.5
			c0.138,0,0.25,0.112,0.25,0.25l0,0C815,48.263,814.888,48.375,814.75,48.375z"/>
		<path fill="#786756" d="M814.75,57.884h-4.5c-0.138,0-0.25-0.112-0.25-0.25l0,0c0-0.138,0.112-0.25,0.25-0.25h4.5
			c0.138,0,0.25,0.112,0.25,0.25l0,0C815,57.772,814.888,57.884,814.75,57.884z"/>
	</g>
	<g>
		<path fill="#207ABF" d="M817.5,40.244h-10c-1.657,0-3-1.343-3-3v-10c0-1.657,1.343-3,3-3h10c1.657,0,3,1.343,3,3v10
			C820.5,38.901,819.157,40.244,817.5,40.244z"/>
		<g>
			<g>
				<g>
					<path fill="#FFFFFF" d="M813.059,28.166c0.104-0.61,0.091-1.532-0.571-1.532c-0.286,0.026-0.286,0.247-0.286,0.273
						c0.013,0.039,0.13,0.506,0.156,0.584c0.039,0.273-0.052,0.493-0.052,0.506c-0.182,0.402-0.415,0.649-0.545,1.168
						c-0.35,1.363,1.025,1.596,0.844,1.168C812.086,29.243,812.956,28.789,813.059,28.166z"/>
					<path fill="#FFFFFF" d="M811.099,28.231c0.078-0.519,0.078-1.311-0.493-1.311c-0.247,0.026-0.247,0.208-0.247,0.234
						c0.013,0.039,0.117,0.428,0.13,0.506c0.039,0.234-0.039,0.415-0.052,0.428c-0.156,0.35-0.35,0.558-0.467,0.999
						c-0.299,1.168,0.883,1.376,0.727,0.999C810.269,29.152,811.009,28.75,811.099,28.231z"/>
					<path fill="#FFFFFF" d="M814.838,28.231c0.078-0.519,0.078-1.311-0.493-1.311c-0.247,0.026-0.247,0.208-0.247,0.234
						c0.013,0.039,0.117,0.428,0.13,0.506c0.039,0.234-0.039,0.415-0.052,0.428c-0.156,0.35-0.35,0.558-0.467,0.999
						c-0.299,1.168,0.883,1.376,0.727,0.999C814.02,29.152,814.76,28.75,814.838,28.231z"/>
				</g>
				<path fill="#FFFFFF" d="M815.526,31.878h-0.039v-0.312v-0.156v-0.143c0-0.117-0.091-0.208-0.208-0.208h-5.867
					c-0.117,0-0.208,0.091-0.208,0.208v6.01c0,0.117,0.091,0.208,0.208,0.208h0.389l0.117,0.35h4.841l0.117-0.35h0.389
					c0.117,0,0.208-0.091,0.208-0.208v-0.973h0.039c1.22,0,2.22-0.999,2.22-2.22C817.732,32.865,816.746,31.878,815.526,31.878z
					 M815.526,35.266h-0.039v-0.649v-1.674h0.039c0.636,0,1.168,0.519,1.168,1.168C816.681,34.747,816.161,35.266,815.526,35.266z"
					/>
			</g>
		</g>
	</g>
</g>
</svg>
