<?xml version="1.0" encoding="UTF-8"?>
<svg width="24px" height="24px" viewBox="0 0 24 24" version="1.1" xmlns="http://www.w3.org/2000/svg" xmlns:xlink="http://www.w3.org/1999/xlink">
    <title>icon-ship_terminal-24</title>
    <defs>
        <polygon id="path-1" points="0 0.0456338028 23.9543662 0.0456338028 23.9543662 24 0 24"></polygon>
    </defs>
    <g id="Page-1" stroke="none" stroke-width="1" fill="none" fill-rule="evenodd">
        <g id="icons" transform="translate(-226.000000, -218.000000)">
            <g id="icon-shipterminal" transform="translate(226.000000, 218.000000)">
                <g id="Laivaterminaali" transform="translate(0.000000, -0.000000)">
                    <g id="Group-3" transform="translate(0.000000, 0.038873)">
                        <mask id="mask-2" fill="white">
                            <use xlink:href="#path-1"></use>
                        </mask>
                        <g id="Clip-2"></g>
                        <path d="M0,20.960968 C0,22.6109495 1.35000794,23.9610421 3.00007408,23.9610421 L20.9999259,23.9610421 C22.6499921,23.9610421 24,22.6109495 24,20.960968 L24,2.96103151 C24,1.31105003 22.6499921,-0.0388732394 20.9999259,-0.0388732394 L3.00007408,-0.0388732394 C1.35000794,-0.0388732394 0,1.31105003 0,2.96103151 L0,20.960968 Z" id="Fill-1" fill="#007AC9" mask="url(#mask-2)"></path>
                    </g>
                    <path d="M15.072769,13.5147296 C14.7474169,13.5147296 14.4836704,13.2509831 14.4836704,12.9258845 C14.4836704,12.6004479 14.7474169,12.3368704 15.072769,12.3368704 C15.3978676,12.3368704 15.6616141,12.6004479 15.6616141,12.9258845 C15.6616141,13.2509831 15.3978676,13.5147296 15.072769,13.5147296 M13.7171915,11.0558282 C13.7171915,10.7304761 13.981107,10.4668141 14.3063746,10.4668141 C14.6315577,10.4668141 14.8953042,10.7304761 14.8953042,11.0558282 C14.8953042,11.3810113 14.6315577,11.6446732 14.3063746,11.6446732 C13.981107,11.6446732 13.7171915,11.3810113 13.7171915,11.0558282 M13.5261211,13.5147296 C13.200938,13.5147296 12.9371915,13.2509831 12.9371915,12.9258845 C12.9371915,12.6004479 13.200938,12.3368704 13.5261211,12.3368704 C13.8513887,12.3368704 14.1151352,12.6004479 14.1151352,12.9258845 C14.1151352,13.2509831 13.8513887,13.5147296 13.5261211,13.5147296 M12.1707127,11.0558282 C12.1707127,10.7304761 12.4345437,10.4668141 12.7598958,10.4668141 C13.0850789,10.4668141 13.3488254,10.7304761 13.3488254,11.0558282 C13.3488254,11.3810113 13.0850789,11.6446732 12.7598958,11.6446732 C12.4345437,11.6446732 12.1707127,11.3810113 12.1707127,11.0558282 M11.9796423,13.5147296 C11.6543746,13.5147296 11.3904592,13.2509831 11.3904592,12.9258845 C11.3904592,12.6004479 11.6543746,12.3368704 11.9796423,12.3368704 C12.3048254,12.3368704 12.5686563,12.6004479 12.5686563,12.9258845 C12.5686563,13.2509831 12.3048254,13.5147296 11.9796423,13.5147296 M10.6242338,11.0558282 C10.6242338,10.7304761 10.8880648,10.4668141 11.2133324,10.4668141 C11.538431,10.4668141 11.802262,10.7304761 11.802262,11.0558282 C11.802262,11.3810113 11.538431,11.6446732 11.2133324,11.6446732 C10.8880648,11.6446732 10.6242338,11.3810113 10.6242338,11.0558282 M10.4331634,13.5147296 C10.1078113,13.5147296 9.84431831,13.2509831 9.84431831,12.9258845 C9.84431831,12.6004479 10.1078113,12.3368704 10.4331634,12.3368704 C10.7583465,12.3368704 11.022093,12.6004479 11.022093,12.9258845 C11.022093,13.2509831 10.7583465,13.5147296 10.4331634,13.5147296 M9.07775493,11.0558282 C9.07775493,10.7304761 9.34150141,10.4668141 9.66676901,10.4668141 C9.99195211,10.4668141 10.2556986,10.7304761 10.2556986,11.0558282 C10.2556986,11.3810113 9.99195211,11.6446732 9.66676901,11.6446732 C9.34150141,11.6446732 9.07775493,11.3810113 9.07775493,11.0558282 M8.8866,13.5147296 C8.5614169,13.5147296 8.29767042,13.2509831 8.29767042,12.9258845 C8.29767042,12.6004479 8.5614169,12.3368704 8.8866,12.3368704 C9.21195211,12.3368704 9.47552958,12.6004479 9.47552958,12.9258845 C9.47552958,13.2509831 9.21195211,13.5147296 8.8866,13.5147296 M7.53127606,11.0558282 C7.53127606,10.7304761 7.79493803,10.4668141 8.12020563,10.4668141 C8.44547324,10.4668141 8.70913521,10.7304761 8.70913521,11.0558282 C8.70913521,11.3810113 8.44547324,11.6446732 8.12020563,11.6446732 C7.79493803,11.6446732 7.53127606,11.3810113 7.53127606,11.0558282 M7.34020563,13.5147296 C7.01485352,13.5147296 6.75136056,13.2509831 6.75136056,12.9258845 C6.75136056,12.6004479 7.01485352,12.3368704 7.34020563,12.3368704 C7.66547324,12.3368704 7.9290507,12.6004479 7.9290507,12.9258845 C7.9290507,13.2509831 7.66547324,13.5147296 7.34020563,13.5147296 M5.98479718,11.0558282 C5.98479718,10.7304761 6.24845915,10.4668141 6.57381127,10.4668141 C6.89890986,10.4668141 7.16265634,10.7304761 7.16265634,11.0558282 C7.16265634,11.3810113 6.89890986,11.6446732 6.57381127,11.6446732 C6.24845915,11.6446732 5.98479718,11.3810113 5.98479718,11.0558282 M5.79355775,13.5147296 C5.46837465,13.5147296 5.20445915,13.2509831 5.20445915,12.9258845 C5.20445915,12.6004479 5.46837465,12.3368704 5.79355775,12.3368704 C6.11890986,12.3368704 6.38265634,12.6004479 6.38265634,12.9258845 C6.38265634,13.2509831 6.11890986,13.5147296 5.79355775,13.5147296 M4.4382338,11.0558282 C4.4382338,10.7304761 4.70206479,10.4668141 5.02724789,10.4668141 C5.35251549,10.4668141 5.61609296,10.7304761 5.61609296,11.0558282 C5.61609296,11.3810113 5.35251549,11.6446732 5.02724789,11.6446732 C4.70206479,11.6446732 4.4382338,11.3810113 4.4382338,11.0558282 M4.24716338,13.5147296 C3.92189577,13.5147296 3.65798028,13.2509831 3.65798028,12.9258845 C3.65798028,12.6004479 3.92189577,12.3368704 4.24716338,12.3368704 C4.57243099,12.3368704 4.83617746,12.6004479 4.83617746,12.9258845 C4.83617746,13.2509831 4.57243099,13.5147296 4.24716338,13.5147296 M4.24716338,8.59684225 C4.57243099,8.59684225 4.83617746,8.86033521 4.83617746,9.18568732 C4.83617746,9.51095493 4.57243099,9.77453239 4.24716338,9.77453239 C3.92189577,9.77453239 3.65798028,9.51095493 3.65798028,9.18568732 C3.65798028,8.86033521 3.92189577,8.59684225 4.24716338,8.59684225 M5.79355775,8.59684225 C6.11890986,8.59684225 6.38265634,8.86033521 6.38265634,9.18568732 C6.38265634,9.51095493 6.11890986,9.77453239 5.79355775,9.77453239 C5.46837465,9.77453239 5.20445915,9.51095493 5.20445915,9.18568732 C5.20445915,8.86033521 5.46837465,8.59684225 5.79355775,8.59684225 M7.34020563,8.59684225 C7.66547324,8.59684225 7.9290507,8.86033521 7.9290507,9.18568732 C7.9290507,9.51095493 7.66547324,9.77453239 7.34020563,9.77453239 C7.01485352,9.77453239 6.75136056,9.51095493 6.75136056,9.18568732 C6.75136056,8.86033521 7.01485352,8.59684225 7.34020563,8.59684225 M8.8866,8.59684225 C9.21195211,8.59684225 9.47552958,8.86033521 9.47552958,9.18568732 C9.47552958,9.51095493 9.21195211,9.77453239 8.8866,9.77453239 C8.5614169,9.77453239 8.29767042,9.51095493 8.29767042,9.18568732 C8.29767042,8.86033521 8.5614169,8.59684225 8.8866,8.59684225 M10.4331634,8.59684225 C10.7583465,8.59684225 11.022093,8.86033521 11.022093,9.18568732 C11.022093,9.51095493 10.7583465,9.77453239 10.4331634,9.77453239 C10.1078113,9.77453239 9.84431831,9.51095493 9.84431831,9.18568732 C9.84431831,8.86033521 10.1078113,8.59684225 10.4331634,8.59684225 M11.9796423,8.59684225 C12.3048254,8.59684225 12.5686563,8.86033521 12.5686563,9.18568732 C12.5686563,9.51095493 12.3048254,9.77453239 11.9796423,9.77453239 C11.6543746,9.77453239 11.3904592,9.51095493 11.3904592,9.18568732 C11.3904592,8.86033521 11.6543746,8.59684225 11.9796423,8.59684225 M13.5261211,8.59684225 C13.8513887,8.59684225 14.1151352,8.86033521 14.1151352,9.18568732 C14.1151352,9.51095493 13.8513887,9.77453239 13.5261211,9.77453239 C13.200938,9.77453239 12.9371915,9.51095493 12.9371915,9.18568732 C12.9371915,8.86033521 13.200938,8.59684225 13.5261211,8.59684225 M21.7034451,13.9577155 L17.3912197,13.9577155 C17.1906845,13.9577155 17.0324028,13.8639972 16.9366563,13.6933775 C16.7789662,13.4120535 14.629107,8.13974366 14.629107,8.13974366 L15.5175296,8.13974366 C15.8579239,8.13974366 16.3192479,7.67799718 16.3192479,7.10867324 C16.3192479,6.5394338 15.8579239,6.07760282 15.2883465,6.07760282 L8.26648732,6.07760282 L6.64699437,2.98464507 C6.61834648,2.93005352 6.54490986,2.8853493 6.48330423,2.8853493 L6.15871268,2.8842507 C6.09752958,2.8842507 6.06102254,2.9321662 6.07792394,2.99123662 L6.32569859,3.84839155 L5.64102254,3.84839155 C5.54806479,3.84839155 5.4726,3.92394085 5.4726,4.01723662 C5.4726,4.11044789 5.54806479,4.18591268 5.64102254,4.18591268 L6.42347324,4.18591268 L6.97040282,6.07760282 L2.99426197,6.07760282 L2.99426197,19.1529549 L17.9576704,19.1529549 C17.9576704,19.1529549 21.5835296,14.593462 21.8098394,14.3141662 C21.9636423,14.1241099 21.9220648,13.9577155 21.7034451,13.9577155" id="Fill-4" fill="#FFFFFF"></path>
                </g>
            </g>
        </g>
    </g>
</svg>