<?xml version="1.0" encoding="UTF-8"?>
<svg xmlns="http://www.w3.org/2000/svg" xmlns:xlink="http://www.w3.org/1999/xlink" width="16px" height="16px" viewBox="0 0 16 16" version="1.1">
<g id="surface1">
<path style=" stroke:none;fill-rule:nonzero;fill:rgb(0%,47.843137%,78.823531%);fill-opacity:1;" d="M 0 14 C 0 15.101562 0.898438 16 2 16 L 14 16 C 15.101562 16 16 15.101562 16 14 L 16 2 C 16 0.898438 15.101562 0 14 0 L 2 0 C 0.898438 0 0 0.898438 0 2 Z M 0 14 "/>
<path style=" stroke:none;fill-rule:nonzero;fill:rgb(100%,100%,100%);fill-opacity:1;" d="M 8.023438 5.964844 L 5.875 13.304688 C 5.714844 13.851562 5.28125 14.171875 4.730469 14.171875 C 4.207031 14.171875 3.75 13.875 3.632812 13.304688 L 1.621094 3.542969 C 1.441406 2.675781 1.804688 1.941406 2.695312 1.941406 C 3.429688 1.941406 3.726562 2.378906 3.886719 3.269531 L 4.972656 10.203125 L 6.925781 2.765625 C 7.0625 2.238281 7.496094 1.898438 8.023438 1.898438 C 8.570312 1.898438 9.003906 2.238281 9.144531 2.765625 L 11.097656 10.203125 L 12.183594 3.269531 C 12.34375 2.378906 12.640625 1.941406 13.371094 1.941406 C 14.261719 1.941406 14.628906 2.675781 14.445312 3.542969 L 12.433594 13.304688 C 12.320312 13.875 11.863281 14.171875 11.335938 14.171875 C 10.789062 14.171875 10.355469 13.851562 10.195312 13.304688 Z M 8.023438 5.964844 "/>
</g>
</svg>
