<?xml version="1.0" encoding="utf-8"?>
<!-- Generator: Adobe Illustrator 19.2.1, SVG Export Plug-In . SVG Version: 6.00 Build 0)  -->
<!DOCTYPE svg PUBLIC "-//W3C//DTD SVG 1.1//EN" "http://www.w3.org/Graphics/SVG/1.1/DTD/svg11.dtd">
<svg version="1.1" id="Layer_1" xmlns="http://www.w3.org/2000/svg" xmlns:xlink="http://www.w3.org/1999/xlink" x="0px" y="0px"
	 viewBox="0 0 16 16" enable-background="new 0 0 16 16" xml:space="preserve">
<path fill="#776655" d="M13,16H3c-1.657,0-3-1.343-3-3L0,3c0-1.657,1.343-3,3-3l10,0c1.657,0,3,1.343,3,3v10
	C16,14.657,14.657,16,13,16z"/>
<path fill="#FFFFFF" d="M11,3.644C11,2.902,9.657,2.3,8,2.3c-1.657,0-3,0.602-3,1.344L5,13.5C5,13.776,5.224,14,5.5,14h5
	c0.276,0,0.5-0.224,0.5-0.5V3.644z"/>
<path fill="#776655" d="M9.036,5.676C8.75,5.39,8.286,5.39,8,5.676c-0.286-0.286-0.75-0.286-1.036,0
	c-0.286,0.286-0.286,0.75,0,1.036L8,7.747l1.036-1.036C9.321,6.425,9.321,5.962,9.036,5.676z"/>
<circle fill="#776655" cx="6.26" cy="9" r="0.5"/>
<path fill="#776655" d="M10.25,3.991h-4.5c-0.138,0-0.25-0.112-0.25-0.25v0c0-0.138,0.112-0.25,0.25-0.25h4.5
	c0.138,0,0.25,0.112,0.25,0.25v0C10.5,3.879,10.388,3.991,10.25,3.991z"/>
<path fill="#776655" d="M10.25,13.5h-4.5c-0.138,0-0.25-0.112-0.25-0.25l0,0C5.5,13.112,5.612,13,5.75,13h4.5
	c0.138,0,0.25,0.112,0.25,0.25l0,0C10.5,13.388,10.388,13.5,10.25,13.5z"/>
</svg>
