<?xml version="1.0" encoding="UTF-8"?>
<svg width="20px" height="20px" viewBox="0 0 20 20" version="1.1" xmlns="http://www.w3.org/2000/svg" xmlns:xlink="http://www.w3.org/1999/xlink">
    <title>icon-train-20</title>
    <g id="Page-1" stroke="none" stroke-width="1" fill="none" fill-rule="evenodd">
        <g id="icons" transform="translate(-26.000000, -168.000000)">
            <g id="icon-train" transform="translate(26.000000, 168.000000)">
                <g id="icon_rail">
                    <path d="M17.2,19.6 L3.2,19.6 C1.874375,19.6 0.8,18.525625 0.8,17.2 L0.8,3.2 C0.8,1.874375 1.874375,0.8 3.2,0.8 L17.2,0.8 C18.525625,0.8 19.6,1.874375 19.6,3.2 L19.6,17.2 C19.6,18.525625 18.525625,19.6 17.2,19.6 Z" id="Shape" fill="#FFFFFF" fill-rule="nonzero"></path>
                    <path d="M0,2.4751547 C0,1.12507032 1.12507032,0 2.4751547,0 L17.4748422,0 C18.8749297,0 20,1.12507032 20,2.4751547 L20,17.4748422 C20,18.8749297 18.8749297,20 17.4748422,20 L2.4751547,20 C1.12507032,20 0,18.8749297 0,17.4748422 L0,2.4751547 Z M15.3497094,2.55015938 C14.799675,2.05012813 12.4245265,1.47509219 10,1.47509219 C7.64985312,1.47509219 5.22532658,2.05012813 4.70029377,2.55015938 C4.32527033,2.8751797 3.95024689,3.62522658 3.50021876,4.57528596 C3.12519532,5.40033752 2.82517657,6.17538596 2.82517657,6.62541409 L2.82517657,13.8502406 C2.82517657,14.4252766 3.02518907,14.6752922 3.80023751,15.2753297 C4.37527345,15.7253578 4.62528908,15.9253703 5.50034377,15.9253703 L7.1504469,15.9253703 L7.1504469,17.0004375 L12.9251828,17.0004375 L12.9251828,15.9253703 L14.5502844,15.9253703 C15.4253391,15.9253703 15.6753547,15.7253578 16.2253891,15.2753297 C17.0004375,14.6502906 17.1754485,14.4252766 17.1754485,13.8502406 L17.1754485,6.62541409 C17.1754485,6.17538596 16.8754297,5.40033752 16.5254078,4.57528596 C16.0753797,3.62522658 15.7253578,2.8751797 15.3503344,2.55015938 L15.3497094,2.55015938 Z M14.6746672,17.7498594 L14.6746672,16.6997937 L13.7496094,16.6997937 L13.7496094,17.7498594 L6.29976874,17.7498594 L6.29976874,16.6997937 L5.34970936,16.6997937 L5.34970936,17.7498594 L4.19963748,17.7498594 C3.92462029,17.7498594 3.69960623,17.9748734 3.69960623,18.2248891 C3.69960623,18.4999062 3.92462029,18.7249203 4.19963748,18.7249203 L15.8491156,18.7249203 C16.1241328,18.7249203 16.3241453,18.4999062 16.3241453,18.2248891 C16.3241453,17.9748734 16.1241328,17.7498594 15.8491156,17.7498594 L14.6740421,17.7498594 L14.6746672,17.7498594 Z M14.1496344,11.3750859 C14.0746297,11.8001125 13.6496031,12.1251328 13.2245765,12.1251328 L6.82480155,12.1251328 C6.39977499,12.1251328 5.97474842,11.8001125 5.89974373,11.3750859 L4.72467029,6.40040003 C4.6496656,5.97537346 4.92468279,5.65035315 5.34970936,5.65035315 L14.6746672,5.65035315 C15.0996937,5.65035315 15.3997125,5.97537346 15.2997062,6.40040003 L14.1496344,11.3750859 Z M13.7996125,3.42521408 L13.7996125,3.85024064 C13.7996125,4.17526095 13.5495968,4.45027814 13.2245765,4.45027814 L6.82480155,4.45027814 C6.49978124,4.45027814 6.22476405,4.17526095 6.22476405,3.85024064 L6.22476405,3.42521408 L13.7996125,3.42521408 L13.7996125,3.42521408 Z M6.22476405,13.9752485 C6.22476405,13.6252266 6.47477967,13.3502094 6.82480155,13.3502094 C7.17482343,13.3502094 7.47484218,13.6252266 7.47484218,13.9752485 C7.47484218,14.3252703 7.17482343,14.575286 6.82480155,14.575286 C6.47477967,14.575286 6.22476405,14.3252703 6.22476405,13.9752485 Z M12.5995375,13.9002438 C12.5995375,13.5502219 12.8745547,13.2752047 13.2245765,13.2752047 C13.5745984,13.2752047 13.8496156,13.5502219 13.8496156,13.9002438 C13.8496156,14.2502656 13.5745984,14.5002813 13.2245765,14.5002813 C12.8745547,14.5002813 12.5995375,14.2502656 12.5995375,13.9002438 Z" id="Shape" fill="#8C4799" fill-rule="nonzero"></path>
                </g>
            </g>
        </g>
    </g>
</svg>