<?xml version="1.0" encoding="UTF-8"?>
<svg xmlns="http://www.w3.org/2000/svg" xmlns:xlink="http://www.w3.org/1999/xlink" width="16px" height="16px" viewBox="0 0 16 16" version="1.1">
<g id="surface1">
<path style=" stroke:none;fill-rule:nonzero;fill:#007AC9;fill-opacity:1;" d="M 0 14 C 0 15.101562 0.898438 16 2 16 L 14 16 C 15.101562 16 16 15.101562 16 14 L 16 2 C 16 0.898438 15.101562 0 14 0 L 2 0 C 0.898438 0 0 0.898438 0 2 Z M 0 14 "/>
<path style=" stroke:none;fill-rule:nonzero;fill:rgb(100%,100%,100%);fill-opacity:1;" d="M 1.734375 8.042969 L 1.734375 8.007812 C 1.734375 4.636719 4.335938 1.808594 8.015625 1.808594 C 11.699219 1.808594 14.265625 4.601562 14.265625 7.972656 L 14.265625 8.007812 C 14.265625 11.378906 11.664062 14.207031 7.984375 14.207031 C 4.300781 14.207031 1.734375 11.414062 1.734375 8.042969 Z M 12.058594 8.042969 L 12.058594 8.007812 C 12.058594 5.679688 10.363281 3.746094 7.984375 3.746094 C 5.601562 3.746094 3.941406 5.644531 3.941406 7.972656 L 3.941406 8.007812 C 3.941406 10.335938 5.636719 12.253906 8.015625 12.253906 C 10.398438 12.253906 12.058594 10.371094 12.058594 8.042969 Z M 12.058594 8.042969 "/>
</g>
</svg>
