<?xml version="1.0" encoding="UTF-8"?>
<svg xmlns="http://www.w3.org/2000/svg" xmlns:xlink="http://www.w3.org/1999/xlink" width="16px" height="16px" viewBox="0 0 16 16" version="1.1">
<g id="surface1">
<path style=" stroke:none;fill-rule:nonzero;fill:#007AC9;fill-opacity:1;" d="M 0 14 C 0 15.101562 0.898438 16 2 16 L 14 16 C 15.101562 16 16 15.101562 16 14 L 16 2 C 16 0.898438 15.101562 0 14 0 L 2 0 C 0.898438 0 0 0.898438 0 2 Z M 0 14 "/>
<path style=" stroke:none;fill-rule:nonzero;fill:rgb(100%,100%,100%);fill-opacity:1;" d="M 3.4375 2.972656 C 3.4375 2.390625 3.898438 1.929688 4.5 1.929688 C 5.082031 1.929688 5.542969 2.390625 5.542969 2.972656 L 5.542969 8.042969 L 11.226562 2.324219 C 11.46875 2.066406 11.722656 1.929688 12.101562 1.929688 C 12.683594 1.929688 13.078125 2.390625 13.078125 2.90625 C 13.078125 3.230469 12.941406 3.472656 12.699219 3.691406 L 8.96875 7.289062 L 13.007812 12.304688 C 13.179688 12.527344 13.300781 12.734375 13.300781 13.058594 C 13.300781 13.640625 12.835938 14.085938 12.238281 14.085938 C 11.828125 14.085938 11.570312 13.878906 11.347656 13.589844 L 7.496094 8.675781 L 5.542969 10.558594 L 5.542969 13.042969 C 5.542969 13.625 5.082031 14.085938 4.5 14.085938 C 3.898438 14.085938 3.4375 13.625 3.4375 13.042969 Z M 3.4375 2.972656 "/>
</g>
</svg>
