<?xml version="1.0" encoding="UTF-8"?>
<svg xmlns="http://www.w3.org/2000/svg" xmlns:xlink="http://www.w3.org/1999/xlink" width="16px" height="16px" viewBox="0 0 16 16" version="1.1">
<g id="surface1">
<path style=" stroke:none;fill-rule:nonzero;fill:rgb(0%,47.843137%,78.823531%);fill-opacity:1;" d="M 0 14 C 0 15.101562 0.898438 16 2 16 L 14 16 C 15.101562 16 16 15.101562 16 14 L 16 2 C 16 0.898438 15.101562 0 14 0 L 2 0 C 0.898438 0 0 0.898438 0 2 Z M 0 14 "/>
<path style=" stroke:none;fill-rule:nonzero;fill:rgb(100%,100%,100%);fill-opacity:1;" d="M 2.765625 8.035156 L 2.765625 8 C 2.765625 4.566406 4.859375 1.789062 8.015625 1.789062 C 11.15625 1.789062 13.234375 4.535156 13.234375 7.964844 L 13.234375 8 C 13.234375 11.433594 11.140625 14.210938 7.984375 14.210938 C 4.824219 14.210938 2.765625 11.464844 2.765625 8.035156 M 11.054688 8.035156 L 11.054688 8 C 11.054688 5.632812 9.835938 3.691406 7.984375 3.691406 C 6.128906 3.691406 4.945312 5.582031 4.945312 7.964844 L 4.945312 8 C 4.945312 10.367188 6.148438 12.308594 8.015625 12.308594 C 9.886719 12.308594 11.054688 10.386719 11.054688 8.035156 "/>
</g>
</svg>
