<?xml version="1.0" encoding="UTF-8"?>
<svg width="16px" height="16px" viewBox="0 0 16 16" version="1.1" xmlns="http://www.w3.org/2000/svg" xmlns:xlink="http://www.w3.org/1999/xlink">
    <title>icon-hsl_ferry-16</title>
    <g id="Page-1" stroke="none" stroke-width="1" fill="none" fill-rule="evenodd">
        <g id="icons" transform="translate(-176.000000, -122.000000)">
            <g id="icon-ferry" transform="translate(176.000000, 122.000000)">
                <g id="icon_ferry">
                    <path d="M13.6,15.52 L2.4,15.52 C1.3395,15.52 0.48,14.6605 0.48,13.6 L0.48,2.4 C0.48,1.3395 1.3395,0.48 2.4,0.48 L13.6,0.48 C14.6605,0.48 15.52,1.3395 15.52,2.4 L15.52,13.6 C15.52,14.6605 14.6605,15.52 13.6,15.52 Z" id="Shape" fill="#FFFFFF" fill-rule="nonzero"></path>
                    <path d="M0.0005,1.981 C0.0005,0.901 0.9005,0.001 1.9805,0.001 L13.9795,0.001 C15.0995,0.001 15.9995,0.901 15.9995,1.981 L15.9995,13.98 C15.9995,15.1 15.0995,16 13.9795,16 L1.9805,16 C0.9005,16 0.0005,15.1 0.0005,13.98 L0.0005,1.981 Z M2.4205,13.52 C2.2205,13.52 2.0405,13.68 2.0405,13.9 C2.0405,14.12 2.2205,14.28 2.4205,14.28 L13.5795,14.28 C13.7995,14.28 13.9795,14.12 13.9795,13.9 C13.9795,13.68 13.7995,13.52 13.5795,13.52 L2.4205,13.52 Z M12.8195,9.1005 C12.8195,9.1005 11.2195,8.6805 10.1395,8.4405 C9.1995,8.2405 8.0395,8.1005 7.9595,8.1005 C7.8795,8.1005 6.7395,8.2405 5.7795,8.4405 C4.6995,8.6805 3.0995,9.1005 3.0995,9.1005 L3.5395,12.9 L12.3985,12.9 L12.8185,9.1005 L12.8195,9.1005 Z M5.78,7.6805 C6.74,7.4805 7.9,7.3405 7.96,7.3205 C8.02,7.3405 9.18,7.4805 10.14,7.6805 C10.88,7.8405 11.3,7.9405 11.84,8.0805 L11.84,5.3005 C11.84,4.9405 11.94,4.4605 11,4.4605 L9.26,4.4605 L9.26,1.8405 C9.26,1.7005 9.14,1.5805 9,1.5605 L6.92,1.5605 C6.78,1.5805 6.68,1.7005 6.66,1.8405 L6.66,4.46 L4.92,4.46 C3.98,4.46 4.08,4.94 4.08,5.3 L4.08,8.08 L5.78,7.68 L5.78,7.6805 Z M6.72,5.921 C6.72,6.341 6.4,6.661 5.98,6.661 C5.56,6.661 5.24,6.341 5.24,5.921 C5.24,5.501 5.56,5.181 5.98,5.181 C6.4,5.181 6.72,5.501 6.72,5.921 Z M8.7,5.921 C8.7,6.341 8.38,6.661 7.96,6.661 C7.56,6.661 7.22,6.341 7.22,5.921 C7.22,5.501 7.56,5.181 7.96,5.181 C8.38,5.181 8.7,5.501 8.7,5.921 Z M10.6795,5.921 C10.6795,6.341 10.3595,6.661 9.9395,6.661 C9.5395,6.661 9.1995,6.341 9.1995,5.921 C9.1995,5.501 9.5395,5.181 9.9395,5.181 C10.3595,5.181 10.6795,5.501 10.6795,5.921 Z" id="Shape" fill="#00B9E4" fill-rule="nonzero"></path>
                </g>
            </g>
        </g>
    </g>
</svg>