<?xml version="1.0" encoding="utf-8"?>
<!-- Generator: Adobe Illustrator 19.2.1, SVG Export Plug-In . SVG Version: 6.00 Build 0)  -->
<!DOCTYPE svg PUBLIC "-//W3C//DTD SVG 1.1//EN" "http://www.w3.org/Graphics/SVG/1.1/DTD/svg11.dtd">
<svg version="1.1" id="Layer_1" xmlns="http://www.w3.org/2000/svg" xmlns:xlink="http://www.w3.org/1999/xlink" x="0px" y="0px"
	 viewBox="0 0 16 8" enable-background="new 0 0 16 8" xml:space="preserve">
<path fill="#007AC9" d="M15,8H1C0.448,8,0,7.552,0,7V1c0-0.552,0.448-1,1-1h14c0.552,0,1,0.448,1,1v6C16,7.552,15.552,8,15,8z"/>
<g>
	<path fill="#FFFFFF" d="M14.771,3.542l-0.338,0.087c0.251,0.183,0.348,0.531,0.348,0.772v0.888c0,0.232-0.174,0.434-0.454,0.483
		v0.512c0,0.077-0.068,0.116-0.145,0.116H13.67c-0.068,0-0.135-0.039-0.135-0.116V5.859C13.129,5.878,12.56,5.917,12,5.917
		c-0.57,0-1.12-0.039-1.535-0.058v0.425c0,0.077-0.068,0.116-0.135,0.116H9.818c-0.077,0-0.145-0.039-0.145-0.116V5.772
		c-0.27-0.048-0.444-0.251-0.444-0.483V4.401c0-0.241,0.106-0.589,0.357-0.772L9.229,3.542C9.084,3.503,8.988,3.387,9.007,3.242
		c0.01-0.145,0.154-0.251,0.319-0.241l0.512,0.097l0.348-0.618c0.145-0.27,0.261-0.396,0.608-0.454
		C11.17,1.978,11.45,1.939,12,1.939c0.541,0,0.85,0.039,1.226,0.087c0.348,0.058,0.463,0.183,0.608,0.454l0.348,0.618l0.502-0.097
		c0.154-0.01,0.309,0.097,0.319,0.241C15.022,3.387,14.925,3.503,14.771,3.542z M10.783,4.401L9.731,4.295v0.27
		c0,0.135,0.126,0.222,0.261,0.222h0.541c0.135,0,0.251-0.087,0.251-0.222V4.401z M10.05,3.513c0.579,0.077,1.313,0.116,1.989,0.116
		c0.637,0,1.294-0.019,1.931-0.116l-0.444-0.907c-0.077-0.164-0.164-0.232-0.338-0.27C12.849,2.267,12.531,2.248,12,2.248
		c-0.531,0-0.83,0.019-1.168,0.087c-0.174,0.039-0.261,0.106-0.338,0.27L10.05,3.513z M14.297,4.295l-1.033,0.106v0.164
		c0,0.135,0.116,0.222,0.251,0.222h0.521c0.135,0,0.261-0.087,0.261-0.222V4.295z"/>
</g>
<g>
	<path fill="#FFFFFF" d="M4.46,1.351c0.357,0,0.661,0.052,0.912,0.156C5.623,1.61,5.826,1.748,5.984,1.919
		c0.157,0.17,0.271,0.365,0.344,0.584s0.107,0.445,0.107,0.68c0,0.229-0.035,0.455-0.107,0.676C6.256,4.08,6.142,4.275,5.984,4.446
		C5.826,4.617,5.623,4.755,5.372,4.858C5.121,4.963,4.817,5.015,4.46,5.015H3.14v2.048H1.884V1.351H4.46z M4.116,4.038
		c0.144,0,0.282-0.01,0.416-0.031c0.133-0.021,0.25-0.062,0.352-0.124c0.102-0.062,0.183-0.148,0.244-0.261
		c0.062-0.111,0.093-0.258,0.093-0.439s-0.031-0.328-0.093-0.44c-0.061-0.111-0.143-0.198-0.244-0.26
		C4.783,2.421,4.665,2.38,4.532,2.358C4.398,2.337,4.26,2.326,4.116,2.326H3.14v1.712H4.116z"/>
</g>
</svg>
