<?xml version="1.0" encoding="utf-8"?>
<!-- Generator: Adobe Illustrator 19.2.1, SVG Export Plug-In . SVG Version: 6.00 Build 0)  -->
<!DOCTYPE svg PUBLIC "-//W3C//DTD SVG 1.1//EN" "http://www.w3.org/Graphics/SVG/1.1/DTD/svg11.dtd">
<svg version="1.1" id="Layer_1" xmlns="http://www.w3.org/2000/svg" xmlns:xlink="http://www.w3.org/1999/xlink" x="0px" y="0px"
	 viewBox="0 0 16 16" enable-background="new 0 0 16 16" xml:space="preserve">
<path fill="#666666" d="M13.009,16h-10c-1.657,0-3-1.343-3-3l0-10c0-1.657,1.343-3,3-3l10,0c1.657,0,3,1.343,3,3v10
	C16.009,14.657,14.666,16,13.009,16z"/>
<polygon fill="#FFFFFF" points="12.75,5.5 12.75,4.5 12.25,4.5 12.25,3.5 12.25,2.5 11.75,2.5 11.75,3.5 11.25,3.5 11.25,4.5 
	10.75,4.5 10.75,5.5 10.25,5.5 10.25,7.5 9.75,7.5 9.75,4.5 9.25,4.5 9.25,3.5 8.75,3.5 8.75,4.5 8.75,5.5 8.259,5.5 8.259,4.5 
	7.75,4.5 7.75,2.5 7.25,2.5 7.25,3.5 6.75,3.5 6.75,4.5 6.25,4.5 6.25,3.5 5.75,3.5 5.75,4.5 5.25,4.5 5.25,5.5 4.75,5.5 4.75,6.5 
	4.25,6.5 4.25,3.5 3.75,3.5 3.75,4.5 3.25,4.5 3.25,5.5 2.75,5.5 2.75,9.5 3.25,9.5 3.25,10.5 3.75,10.5 3.75,11.5 4.25,11.5 
	4.25,10.5 4.75,10.5 4.75,11.5 5.75,11.5 5.75,12.5 6.25,12.5 6.25,13.5 7.25,13.5 7.25,10.5 7.75,10.5 7.75,12.5 8.259,12.5 
	8.259,11.5 8.75,11.5 8.75,10.5 9.25,10.5 9.25,13.5 10.25,13.5 10.25,11.5 11.25,11.5 11.25,9.5 11.75,9.5 11.75,10.5 12.75,10.5 
	12.75,11.5 13.25,11.5 13.25,5.5 "/>
</svg>
