<?xml version="1.0" encoding="UTF-8"?>
<svg width="16px" height="22px" viewBox="0 0 16 22" version="1.1" xmlns="http://www.w3.org/2000/svg" xmlns:xlink="http://www.w3.org/1999/xlink">
    <title>icon-stop-tram-small</title>
    <g id="Page-1" stroke="none" stroke-width="1" fill="none" fill-rule="evenodd">
        <g id="icons" transform="translate(-52.000000, -55.000000)">
            <g id="stop-marker-master-alt3" transform="translate(36.000000, 39.000000)">
                <g id="stop-ball/tram-alt" transform="translate(16.800000, 16.800000)">
                    <circle id="Oval" stroke="#FFFFFF" stroke-width="0.8" fill="#00985F" cx="7.2" cy="7.2" r="7.6"></circle>
                    <g id="icon-tram" transform="translate(2.000000, 2.000000)" stroke-width="1">
                        <g id="icon_tram">
                            <path d="M8.84,10.088 L1.56,10.088 C0.870675,10.088 0.312,9.529325 0.312,8.84 L0.312,1.56 C0.312,0.870675 0.870675,0.312 1.56,0.312 L8.84,0.312 C9.529325,0.312 10.088,0.870675 10.088,1.56 L10.088,8.84 C10.088,9.529325 9.529325,10.088 8.84,10.088 Z" id="Shape" fill="#FFFFFF" fill-rule="nonzero"></path>
                            <path d="M0.000325,1.28765 C0.000325,0.58565 0.585325,0.00065 1.287325,0.00065 L9.086675,0.00065 C9.814675,0.00065 10.399675,0.58565 10.399675,1.28765 L10.399675,9.087 C10.399675,9.815 9.814675,10.4 9.086675,10.4 L1.287325,10.4 C0.585325,10.4 0.000325,9.815 0.000325,9.087 L0.000325,1.28765 Z M7.266675,2.22365 C7.201675,2.06765 7.110675,1.98965 6.954675,1.95065 C6.395675,1.80765 5.992675,1.75565 5.472675,1.74265 L5.472675,1.28765 L6.434675,1.28765 C6.564675,1.28765 6.668675,1.17065 6.668675,1.04065 C6.668675,0.88465 6.564675,0.76765 6.434675,0.76765 L3.991,0.76765 C3.835,0.76765 3.718,0.88465 3.718,1.04065 C3.718,1.17065 3.835,1.28765 3.991,1.28765 L4.94,1.28765 L4.94,1.74265 C4.407,1.75565 3.978,1.80765 3.458,1.95065 C3.276,2.00265 3.185,2.06765 3.107,2.22365 L2.886,2.75665 C2.821,2.91265 2.821,3.13365 2.821,3.30265 L2.821,7.982325 C2.821,8.216325 2.977,8.359325 3.211,8.398325 C3.913,8.541325 4.524,8.593325 5.199675,8.593325 C5.849675,8.593325 6.473675,8.541325 7.20135,8.398325 C7.42235,8.359325 7.59135,8.216325 7.59135,7.982325 L7.59135,3.30265 C7.59135,3.13365 7.55235,2.91265 7.48735,2.75665 L7.26635,2.22365 L7.266675,2.22365 Z M6.616675,9.23 L6.616675,8.84 L6.135675,8.905 L6.135675,9.23 L4.276675,9.23 L4.276675,8.905 L3.795675,8.84 L3.795675,9.23 L3.405675,9.23 C3.262675,9.23 3.171675,9.347 3.171675,9.464 C3.171675,9.633 3.262675,9.737 3.405675,9.737 L7.00635,9.737 C7.12335,9.737 7.25335,9.633 7.25335,9.464 C7.25335,9.347 7.12335,9.23 7.00635,9.23 L6.61635,9.23 L6.616675,9.23 Z M3.289,7.228325 C3.289,7.046325 3.419,6.903325 3.588,6.903325 C3.77,6.903325 3.9,7.046325 3.9,7.228325 C3.9,7.397325 3.77,7.514325 3.588,7.514325 C3.419,7.514325 3.289,7.397325 3.289,7.228325 Z M3.302,3.19865 L7.084675,3.19865 L7.084675,6.357325 C6.590675,6.500325 5.888675,6.591325 5.199675,6.591325 C4.523675,6.591325 3.821675,6.487325 3.301675,6.357325 L3.301675,3.19865 L3.302,3.19865 Z M6.564675,7.228325 C6.564675,7.046325 6.681675,6.903325 6.850675,6.903325 C7.032675,6.903325 7.175675,7.046325 7.175675,7.228325 C7.175675,7.397325 7.032675,7.514325 6.850675,7.514325 C6.681675,7.514325 6.564675,7.397325 6.564675,7.228325 Z" id="Shape" fill="#00985F" fill-rule="nonzero"></path>
                        </g>
                    </g>
                </g>
                <path d="M23.2,31.2 L24.8,31.2 L24.8,36.8 C24.8,37.2418278 24.4418278,37.6 24,37.6 C23.5581722,37.6 23.2,37.2418278 23.2,36.8 L23.2,31.2 L23.2,31.2 Z" id="Rectangle" fill="#333333"></path>
            </g>
        </g>
    </g>
</svg>