<?xml version="1.0" encoding="UTF-8"?>
<svg width="12px" height="12px" viewBox="0 0 12 12" version="1.1" xmlns="http://www.w3.org/2000/svg" xmlns:xlink="http://www.w3.org/1999/xlink">
    <title>icon-metro-12</title>
    <g id="Page-1" stroke="none" stroke-width="1" fill="none" fill-rule="evenodd">
        <g id="icons" transform="translate(-126.000000, -80.000000)">
            <g id="icon-subway" transform="translate(126.000000, 80.000000)">
                <g id="icon_subway">
                    <g id="Group-3" fill="#FF6319">
                        <path d="M-4.22535211e-06,1.50482535 C-4.22535211e-06,0.696346479 0.673728169,0.0226140845 1.48220704,0.0226140845 L10.4652211,0.0226140845 C11.3037,0.0226140845 11.9773901,0.696346479 11.9773901,1.50482535 L11.9773901,10.4878817 C11.9773901,11.3262761 11.3037,12.0000085 10.4652211,12.0000085 L1.48220704,12.0000085 C0.673728169,12.0000085 -4.22535211e-06,11.3262761 -4.22535211e-06,10.4878817 L-4.22535211e-06,1.50482535 Z" id="Fill-1"></path>
                    </g>
                    <path d="M8.6304927,4.55319843 L8.6304927,4.30120549 C8.6304927,4.28635285 8.66065588,4.27154204 8.69077651,4.27154204 L8.69077651,10.32 L10.56,10.32 L10.56,1.44 L7.80140953,1.44 L6.06781397,7.50331061 L6.03769333,7.91838979 L5.99246984,7.91838979 L5.94724635,7.50331061 L4.21369333,1.44 L1.44,1.44 L1.44,10.32 L3.33938667,10.32 L3.33938667,4.27154204 C3.35444698,4.27154204 3.38456762,4.28635285 3.38456762,4.30120549 L3.38456762,4.55319843 L5.07293968,10.32 L6.92710286,10.32 L8.6304927,4.55319843 Z" id="Fill-4" fill="#FFFFFF"></path>
                </g>
            </g>
        </g>
    </g>
</svg>