<?xml version="1.0" encoding="UTF-8"?>
<svg xmlns="http://www.w3.org/2000/svg" xmlns:xlink="http://www.w3.org/1999/xlink" width="16px" height="16px" viewBox="0 0 16 16" version="1.1">
<g id="surface1">
<path style=" stroke:none;fill-rule:nonzero;fill:rgb(0%,47.843137%,78.823531%);fill-opacity:1;" d="M 0 14 C 0 15.101562 0.898438 16 2 16 L 14 16 C 15.101562 16 16 15.101562 16 14 L 16 2 C 16 0.898438 15.101562 0 14 0 L 2 0 C 0.898438 0 0 0.898438 0 2 Z M 0 14 "/>
<path style=" stroke:none;fill-rule:nonzero;fill:rgb(100%,100%,100%);fill-opacity:1;" d="M 3.179688 9.53125 L 3.179688 9.496094 C 3.179688 6.910156 5.234375 4.773438 8.007812 4.773438 C 10.78125 4.773438 12.820312 6.878906 12.820312 9.464844 L 12.820312 9.496094 C 12.820312 12.066406 10.765625 14.207031 7.972656 14.207031 C 5.21875 14.207031 3.179688 12.097656 3.179688 9.53125 Z M 7.410156 2.734375 L 7.410156 2.855469 C 7.410156 3.472656 6.914062 3.898438 6.296875 3.898438 C 5.664062 3.898438 5.167969 3.472656 5.167969 2.855469 L 5.167969 2.734375 C 5.167969 2.117188 5.664062 1.671875 6.296875 1.671875 C 6.914062 1.671875 7.410156 2.117188 7.410156 2.734375 Z M 10.746094 9.53125 L 10.746094 9.496094 C 10.746094 7.90625 9.601562 6.585938 7.972656 6.585938 C 6.3125 6.585938 5.253906 7.886719 5.253906 9.464844 L 5.253906 9.496094 C 5.253906 11.070312 6.398438 12.390625 8.007812 12.390625 C 9.6875 12.390625 10.746094 11.089844 10.746094 9.53125 Z M 10.816406 2.734375 L 10.816406 2.855469 C 10.816406 3.472656 10.320312 3.898438 9.703125 3.898438 C 9.070312 3.898438 8.574219 3.472656 8.574219 2.855469 L 8.574219 2.734375 C 8.574219 2.117188 9.070312 1.671875 9.703125 1.671875 C 10.320312 1.671875 10.816406 2.117188 10.816406 2.734375 Z M 10.816406 2.734375 "/>
</g>
</svg>
