<?xml version="1.0" encoding="UTF-8"?>
<svg width="24px" height="24px" viewBox="0 0 24 24" version="1.1" xmlns="http://www.w3.org/2000/svg" xmlns:xlink="http://www.w3.org/1999/xlink">
    <title>icon-train-24</title>
    <g id="Page-1" stroke="none" stroke-width="1" fill="none" fill-rule="evenodd">
        <g id="icons" transform="translate(-26.000000, -218.000000)">
            <g id="icon-train" transform="translate(26.000000, 218.000000)">
                <g id="icon_rail">
                    <path d="M20.64,23.52 L3.84,23.52 C2.24925,23.52 0.96,22.23075 0.96,20.64 L0.96,3.84 C0.96,2.24925 2.24925,0.96 3.84,0.96 L20.64,0.96 C22.23075,0.96 23.52,2.24925 23.52,3.84 L23.52,20.64 C23.52,22.23075 22.23075,23.52 20.64,23.52 Z" id="Shape" fill="#FFFFFF" fill-rule="nonzero"></path>
                    <path d="M0,2.97018564 C0,1.35008438 1.35008438,0 2.97018564,0 L20.9698106,0 C22.6499156,0 24,1.35008438 24,2.97018564 L24,20.9698106 C24,22.6499156 22.6499156,24 20.9698106,24 L2.97018564,24 C1.35008438,24 0,22.6499156 0,20.9698106 L0,2.97018564 Z M18.4196512,3.06019126 C17.75961,2.46015376 14.9094318,1.77011063 12,1.77011063 C9.17982374,1.77011063 6.2703919,2.46015376 5.64035252,3.06019126 C5.1903244,3.45021564 4.74029627,4.35027189 4.20026252,5.49034315 C3.75023439,6.48040503 3.39021189,7.41046315 3.39021189,7.95049691 L3.39021189,16.6202888 C3.39021189,17.3103319 3.63022689,17.6103506 4.56028502,18.3303956 C5.25032815,18.8704294 5.5503469,19.1104444 6.60041253,19.1104444 L8.58053628,19.1104444 L8.58053628,20.400525 L15.5102194,20.400525 L15.5102194,19.1104444 L17.4603413,19.1104444 C18.5104069,19.1104444 18.8104257,18.8704294 19.4704669,18.3303956 C20.400525,17.5803488 20.6105382,17.3103319 20.6105382,16.6202888 L20.6105382,7.95049691 C20.6105382,7.41046315 20.2505157,6.48040503 19.8304894,5.49034315 C19.2904557,4.35027189 18.8704294,3.45021564 18.4204013,3.06019126 L18.4196512,3.06019126 Z M17.6096006,21.2998312 L17.6096006,20.0397525 L16.4995312,20.0397525 L16.4995312,21.2998312 L7.55972248,21.2998312 L7.55972248,20.0397525 L6.41965123,20.0397525 L6.41965123,21.2998312 L5.03956497,21.2998312 C4.70954435,21.2998312 4.43952747,21.5698481 4.43952747,21.8698669 C4.43952747,22.1998875 4.70954435,22.4699044 5.03956497,22.4699044 L19.0189387,22.4699044 C19.3489593,22.4699044 19.5889743,22.1998875 19.5889743,21.8698669 C19.5889743,21.5698481 19.3489593,21.2998312 19.0189387,21.2998312 L17.6088506,21.2998312 L17.6096006,21.2998312 Z M16.9795612,13.6501031 C16.8895556,14.160135 16.3795237,14.5501594 15.8694918,14.5501594 L8.18976186,14.5501594 C7.67972998,14.5501594 7.16969811,14.160135 7.07969248,13.6501031 L5.66960435,7.68048003 C5.57959872,7.17044815 5.90961935,6.78042378 6.41965123,6.78042378 L17.6096006,6.78042378 C18.1196325,6.78042378 18.479655,7.17044815 18.3596475,7.68048003 L16.9795612,13.6501031 Z M16.559535,4.11025689 L16.559535,4.62028877 C16.559535,5.01031314 16.2595162,5.34033377 15.8694918,5.34033377 L8.18976186,5.34033377 C7.79973748,5.34033377 7.46971686,5.01031314 7.46971686,4.62028877 L7.46971686,4.11025689 L16.559535,4.11025689 L16.559535,4.11025689 Z M7.46971686,16.7702981 C7.46971686,16.3502719 7.76973561,16.0202513 8.18976186,16.0202513 C8.60978811,16.0202513 8.96981061,16.3502719 8.96981061,16.7702981 C8.96981061,17.1903244 8.60978811,17.4903431 8.18976186,17.4903431 C7.76973561,17.4903431 7.46971686,17.1903244 7.46971686,16.7702981 Z M15.119445,16.6802925 C15.119445,16.2602663 15.4494656,15.9302456 15.8694918,15.9302456 C16.2895181,15.9302456 16.6195387,16.2602663 16.6195387,16.6802925 C16.6195387,17.1003188 16.2895181,17.4003375 15.8694918,17.4003375 C15.4494656,17.4003375 15.119445,17.1003188 15.119445,16.6802925 Z" id="Shape" fill="#8C4799" fill-rule="nonzero"></path>
                </g>
            </g>
        </g>
    </g>
</svg>