<?xml version="1.0" encoding="UTF-8"?>
<svg xmlns="http://www.w3.org/2000/svg" xmlns:xlink="http://www.w3.org/1999/xlink" width="16px" height="16px" viewBox="0 0 16 16" version="1.1">
<g id="surface1">
<path style=" stroke:none;fill-rule:nonzero;fill:#007AC9;fill-opacity:1;" d="M 0 14 C 0 15.101562 0.898438 16 2 16 L 14 16 C 15.101562 16 16 15.101562 16 14 L 16 2 C 16 0.898438 15.101562 0 14 0 L 2 0 C 0.898438 0 0 0.898438 0 2 Z M 0 14 "/>
<path style=" stroke:none;fill-rule:nonzero;fill:rgb(100%,100%,100%);fill-opacity:1;" d="M 3.753906 12.664062 C 3.496094 12.476562 3.34375 12.179688 3.34375 11.859375 C 3.34375 11.3125 3.789062 10.882812 4.335938 10.882812 C 4.628906 10.882812 4.816406 10.96875 4.953125 11.070312 C 5.945312 11.859375 7.007812 12.304688 8.308594 12.304688 C 9.609375 12.304688 10.429688 11.6875 10.429688 10.796875 L 10.429688 10.765625 C 10.429688 9.90625 9.953125 9.445312 7.726562 8.933594 C 5.175781 8.316406 3.738281 7.5625 3.738281 5.355469 L 3.738281 5.320312 C 3.738281 3.265625 5.449219 1.84375 7.828125 1.84375 C 9.335938 1.84375 10.550781 2.238281 11.628906 2.957031 C 11.871094 3.09375 12.09375 3.386719 12.09375 3.796875 C 12.09375 4.34375 11.648438 4.773438 11.097656 4.773438 C 10.894531 4.773438 10.722656 4.71875 10.550781 4.617188 C 9.625 4.019531 8.738281 3.710938 7.792969 3.710938 C 6.5625 3.710938 5.84375 4.34375 5.84375 5.132812 L 5.84375 5.164062 C 5.84375 6.089844 6.390625 6.5 8.703125 7.046875 C 11.234375 7.664062 12.539062 8.574219 12.539062 10.558594 L 12.539062 10.59375 C 12.539062 12.835938 10.773438 14.171875 8.257812 14.171875 C 6.628906 14.171875 5.089844 13.65625 3.753906 12.664062 Z M 3.753906 12.664062 "/>
</g>
</svg>
