<?xml version="1.0" encoding="utf-8"?>
<!-- Generator: Adobe Illustrator 19.2.0, SVG Export Plug-In . SVG Version: 6.00 Build 0)  -->
<!DOCTYPE svg PUBLIC "-//W3C//DTD SVG 1.1//EN" "http://www.w3.org/Graphics/SVG/1.1/DTD/svg11.dtd">
<svg version="1.1" id="Layer_1" xmlns="http://www.w3.org/2000/svg" xmlns:xlink="http://www.w3.org/1999/xlink" x="0px" y="0px"
	 viewBox="0 0 16 16" enable-background="new 0 0 16 16" xml:space="preserve">
<path fill="#666666" d="M13,16H3c-1.657,0-3-1.343-3-3L0,3c0-1.657,1.343-3,3-3l10,0c1.657,0,3,1.343,3,3v10
	C16,14.657,14.657,16,13,16z"/>
<path fill="#FFFFFF" d="M12.979,5.216l-4.5-2.455c-0.298-0.163-0.659-0.163-0.958,0l-4.5,2.455C2.7,5.391,2.5,5.728,2.5,6.094V13
	c0,0.276,0.224,0.5,0.5,0.5h10c0.276,0,0.5-0.224,0.5-0.5V6.094C13.5,5.728,13.3,5.391,12.979,5.216z"/>
<circle fill="#666666" cx="8" cy="4.83" r="0.861"/>
<g>
	<rect x="3.917" y="7.062" fill="#666666" width="1.167" height="1.667"/>
	<rect x="6.25" y="7.062" fill="#666666" width="1.167" height="1.667"/>
	<rect x="8.583" y="7.062" fill="#666666" width="1.167" height="1.667"/>
	<rect x="10.917" y="7.062" fill="#666666" width="1.167" height="1.667"/>
</g>
<g>
	<rect x="3.917" y="10.003" fill="#666666" width="1.167" height="1.667"/>
	<rect x="6.25" y="10.003" fill="#666666" width="1.167" height="1.667"/>
	<rect x="8.583" y="10.003" fill="#666666" width="1.167" height="1.667"/>
	<rect x="10.917" y="10.003" fill="#666666" width="1.167" height="1.667"/>
</g>
</svg>
