<?xml version="1.0" encoding="UTF-8"?>
<svg width="24px" height="33px" viewBox="0 0 24 33" version="1.1" xmlns="http://www.w3.org/2000/svg" xmlns:xlink="http://www.w3.org/1999/xlink">
    <title>icon-stop-bus-large</title>
    <g id="Page-1" stroke="none" stroke-width="1" fill="none" fill-rule="evenodd">
        <g id="icons" transform="translate(-228.000000, -120.000000)">
            <g id="stop-marker-master-alt3" transform="translate(204.000000, 96.000000)">
                <g id="stop-ball/bus-alt" transform="translate(25.200000, 25.200000)">
                    <circle id="Oval" stroke="#FFFFFF" stroke-width="1.2" fill="#007AC9" cx="10.8" cy="10.8" r="11.4"></circle>
                    <g id="icon-bus" transform="translate(3.000000, 3.000000)" stroke-width="1">
                        <g id="icon_bus">
                            <path d="M13.3209375,15.132 L2.4009375,15.132 C1.36695,15.132 0.5289375,14.2939875 0.5289375,13.26 L0.5289375,2.34 C0.5289375,1.3060125 1.36695,0.468 2.4009375,0.468 L13.3209375,0.468 C14.354925,0.468 15.1929375,1.3060125 15.1929375,2.34 L15.1929375,13.26 C15.1929375,14.2939875 14.354925,15.132 13.3209375,15.132 Z" id="Shape" fill="#FFFFFF" fill-rule="nonzero"></path>
                            <path d="M0.0004875,1.931475 C0.0004875,0.878475 0.8779875,0.000975 1.9309875,0.000975 L13.6300125,0.000975 C14.7220125,0.000975 15.5995125,0.878475 15.5995125,1.931475 L15.5995125,13.6305 C15.5995125,14.7225 14.7220125,15.6 13.6300125,15.6 L1.9309875,15.6 C0.8779875,15.6 0.0004875,14.7225 0.0004875,13.6305 L0.0004875,1.931475 Z M7.8195,1.677975 C6.201,1.677975 4.797,1.755975 3.2569875,1.970475 C2.7889875,2.028975 2.5159875,2.301975 2.5159875,2.711475 L2.5159875,11.8365 C2.5159875,12.129 2.7304875,12.324 2.9254875,12.3825 L3.5104875,12.48 L3.5104875,13.7085 C3.5104875,13.845 3.6274875,13.9425 3.7834875,13.9425 L4.7194875,13.9425 C4.8364875,13.9425 4.9534875,13.845 4.9534875,13.7085 L4.9534875,12.6165 C5.7139875,12.714 6.7474875,12.753 7.7809875,12.753 C8.8339875,12.753 9.9064875,12.714 10.6474875,12.6165 L10.6474875,13.7085 C10.6474875,13.845 10.7839875,13.9425 10.9009875,13.9425 L11.8369875,13.9425 C11.9929875,13.9425 12.1099875,13.845 12.1099875,13.7085 L12.1099875,12.48 L12.6949875,12.3825 C12.9094875,12.324 13.1044875,12.1485 13.1044875,11.8365 L13.1044875,2.711475 C13.1044875,2.301975 12.8314875,2.028975 12.3634875,1.970475 C10.8034875,1.775475 9.380475,1.677975 7.820475,1.677975 L7.8195,1.677975 Z M11.8555125,9.4579875 C10.7440125,9.6529875 9.2815125,9.8479875 7.8585,9.8479875 C6.357,9.8479875 4.9339875,9.6724875 3.8029875,9.4189875 C3.4909875,9.3604875 3.3739875,9.2434875 3.3739875,8.9899875 L3.3739875,3.296475 C3.3739875,3.042975 3.4909875,2.867475 3.8029875,2.867475 L11.8555125,2.906475 C12.1675125,2.906475 12.2650125,3.081975 12.2650125,3.335475 L12.2650125,9.0289875 C12.2650125,9.2824875 12.1675125,9.4189875 11.8555125,9.4579875 L11.8555125,9.4579875 Z M3.6855,11.0179875 C3.705,10.7644875 3.939,10.5304875 4.212,10.5304875 C4.485,10.5304875 4.719,10.7644875 4.719,11.0179875 C4.719,11.3104875 4.485,11.5444875 4.212,11.5444875 C3.9195,11.5249875 3.6855,11.2909875 3.6855,11.0179875 L3.6855,11.0179875 Z M10.8220125,11.0179875 C10.8415125,10.7644875 11.0755125,10.5304875 11.3290125,10.5304875 C11.6020125,10.5304875 11.8360125,10.7644875 11.8360125,11.0179875 C11.8360125,11.3104875 11.6020125,11.5444875 11.3290125,11.5444875 C11.0560125,11.5249875 10.8220125,11.2909875 10.8220125,11.0179875 Z" id="Shape" fill="#007AC9" fill-rule="nonzero"></path>
                        </g>
                    </g>
                </g>
                <path d="M34.8,46.8 L37.2,46.8 L37.2,55.2 C37.2,55.8627417 36.6627417,56.4 36,56.4 C35.3372583,56.4 34.8,55.8627417 34.8,55.2 L34.8,46.8 L34.8,46.8 Z" id="Rectangle" fill="#333333"></path>
            </g>
        </g>
    </g>
</svg>