<?xml version="1.0" encoding="UTF-8"?>
<svg xmlns="http://www.w3.org/2000/svg" xmlns:xlink="http://www.w3.org/1999/xlink" width="16px" height="16px" viewBox="0 0 16 16" version="1.1">
<g id="surface1">
<path style=" stroke:none;fill-rule:nonzero;fill:#007AC9;fill-opacity:1;" d="M 0 14 C 0 15.101562 0.898438 16 2 16 L 14 16 C 15.101562 16 16 15.101562 16 14 L 16 2 C 16 0.898438 15.101562 0 14 0 L 2 0 C 0.898438 0 0 0.898438 0 2 Z M 0 14 "/>
<path style=" stroke:none;fill-rule:nonzero;fill:rgb(100%,100%,100%);fill-opacity:1;" d="M 3.925781 3.078125 C 3.925781 2.476562 4.386719 2.015625 4.988281 2.015625 L 11.972656 2.015625 C 12.226562 2.015625 12.46875 2.117188 12.652344 2.296875 C 12.832031 2.476562 12.929688 2.71875 12.929688 2.972656 C 12.929688 3.230469 12.832031 3.472656 12.652344 3.652344 C 12.46875 3.832031 12.226562 3.933594 11.972656 3.933594 L 6.03125 3.933594 L 6.03125 7.203125 L 11.203125 7.203125 C 11.457031 7.203125 11.699219 7.304688 11.878906 7.484375 C 12.058594 7.664062 12.160156 7.90625 12.160156 8.160156 C 12.160156 8.417969 12.058594 8.660156 11.878906 8.839844 C 11.699219 9.019531 11.457031 9.121094 11.203125 9.121094 L 6.03125 9.121094 L 6.03125 13.042969 C 6.03125 13.625 5.570312 14.085938 4.988281 14.085938 C 4.386719 14.085938 3.925781 13.625 3.925781 13.042969 Z M 3.925781 3.078125 "/>
</g>
</svg>
