<?xml version="1.0" encoding="UTF-8"?>
<svg width="32px" height="32px" viewBox="0 0 32 32" version="1.1" xmlns="http://www.w3.org/2000/svg" xmlns:xlink="http://www.w3.org/1999/xlink">
    <!-- Generator: Sketch 51.3 (57544) - http://www.bohemiancoding.com/sketch -->
    <title>icon-citybike-station-vantaa</title>
    <desc>Created with Sketch.</desc>
    <defs></defs>
    <g id="Page-1" stroke="none" stroke-width="1" fill="none" fill-rule="evenodd">
        <g id="icon-citybike-station-vantaa" fill-rule="nonzero">
            <path d="M4.96475247,1.26732674 L27.1714851,1.26732674 C29.2140301,1.26732599 30.8703304,2.92220823 30.8720792,4.96475247 L30.8720792,27.1714851 C30.8720792,29.2152668 29.2152668,30.8720792 27.1714851,30.8720792 L4.96475247,30.8720792 C2.92293227,30.8685867 1.26907038,29.2133076 1.26732674,27.1714851 L1.26732674,4.96475247 C1.26907368,2.92344467 2.92344467,1.26907368 4.96475247,1.26732674 Z" id="Path" fill="#FBB800"></path>
            <path d="M24.129901,31.819406 L24.0538614,31.819406 C23.5289175,31.8194059 23.1033664,31.3938548 23.1033664,30.8689109 C23.1033664,30.343967 23.5289175,29.9184158 24.0538614,29.9184158 L24.129901,29.9184158 C24.6548449,29.9184158 25.080396,30.343967 25.080396,30.8689109 C25.080396,31.3938548 24.6548449,31.819406 24.129901,31.819406 Z M21.0186139,31.819406 L20.9425742,31.819406 C20.4176304,31.8194059 19.9920792,31.3938548 19.9920792,30.8689109 C19.9920792,30.343967 20.4176304,29.9184158 20.9425742,29.9184158 L21.0186139,29.9184158 C21.5435578,29.9184158 21.9691089,30.343967 21.9691089,30.8689109 C21.9691089,31.3938548 21.5435578,31.819406 21.0186139,31.819406 Z M17.9041584,31.819406 L17.8281188,31.819406 C17.3031749,31.8194059 16.8776238,31.3938548 16.8776238,30.8689109 C16.8776238,30.343967 17.3031749,29.9184158 17.8281188,29.9184158 L17.9041584,29.9184158 C18.4291023,29.9184158 18.8546535,30.343967 18.8546535,30.8689109 C18.8546535,31.3938548 18.4291023,31.819406 17.9041584,31.819406 Z M14.7928713,31.819406 L14.7168317,31.819406 C14.1918877,31.8194059 13.7663367,31.3938548 13.7663367,30.8689109 C13.7663367,30.343967 14.1918877,29.9184158 14.7168317,29.9184158 L14.7928713,29.9184158 C15.3178152,29.9184158 15.7433663,30.343967 15.7433663,30.8689109 C15.7433663,31.3938548 15.3178152,31.819406 14.7928713,31.819406 Z M11.6784158,31.819406 L11.6023763,31.819406 C11.0774323,31.8194059 10.6518813,31.3938548 10.6518813,30.8689109 C10.6518813,30.343967 11.0774323,29.9184158 11.6023763,29.9184158 L11.6784158,29.9184158 C12.2033597,29.9184158 12.6289109,30.343967 12.6289109,30.8689109 C12.6289109,31.3938548 12.2033597,31.819406 11.6784158,31.819406 Z M8.56712867,31.819406 L8.49108909,31.819406 C8.15150992,31.819406 7.8377258,31.6382426 7.6679362,31.3441584 C7.4981466,31.0500743 7.4981466,30.6877475 7.6679362,30.3936633 C7.8377258,30.0995791 8.15150992,29.9184158 8.49108909,29.9184158 L8.56712867,29.9184158 C9.09207267,29.9184158 9.51762375,30.343967 9.51762375,30.8689109 C9.51762375,31.3938548 9.09207267,31.819406 8.56712867,31.819406 Z M5.45267326,31.819406 L5.37663367,31.819406 C4.85168977,31.8194059 4.42613867,31.3938548 4.42613867,30.8689109 C4.42613867,30.343967 4.85168977,29.9184158 5.37663367,29.9184158 L5.45267326,29.9184158 C5.97761719,29.9184158 6.40316832,30.343967 6.40316832,30.8689109 C6.40316832,31.3938548 5.97761719,31.819406 5.45267326,31.819406 Z M2.55683168,30.9227723 C2.3302864,30.9227897 2.11118432,30.8418904 1.9390099,30.6946535 L1.86613861,30.6281188 C1.57342352,30.4137169 1.42830621,30.0513717 1.4921044,29.6941881 C1.55590259,29.3370045 1.81748515,29.0473019 2.16632327,28.9474907 C2.51516139,28.8476796 2.89039192,28.9551744 3.13346535,29.2245544 L3.17465347,29.259406 C3.46968996,29.5195525 3.57400629,29.9345537 3.43704777,30.3032882 C3.30008925,30.6720227 2.95015441,30.9183021 2.55683168,30.9227723 Z M29.9247525,30.5837624 C29.6906987,30.583234 29.4650689,30.4963666 29.2910891,30.339802 C28.9046612,29.988874 28.8735435,29.3919798 29.2213861,29.0027723 L29.2562376,28.9647525 C29.463546,28.6685828 29.8209198,28.5156568 30.1782986,28.5701876 C30.5356775,28.6247185 30.8311821,28.8772643 30.9407309,29.2217817 C31.0502798,29.5662993 30.9549048,29.9431361 30.6946535,30.1940594 L30.6281188,30.270099 C30.448419,30.4692082 30.1929615,30.5831284 29.9247525,30.5837624 Z M1.26415842,28.1916832 C0.747755057,28.1918237 0.32571276,27.7796291 0.313663367,27.2633663 L0.313663367,27.1714851 C0.313663367,26.6465412 0.739214495,26.2209901 1.26415842,26.2209901 C1.78910233,26.2209901 2.21465347,26.6465412 2.21465347,27.1714851 L2.21465347,27.2443565 C2.21479406,27.7607598 1.80259942,28.1828021 1.28633663,28.1948515 L1.26415842,28.1916832 Z M30.8720792,27.7069307 C30.3471353,27.7069307 29.9215842,27.2813795 29.9215842,26.7564356 L29.9215842,26.680396 C29.9215842,26.1554521 30.3471353,25.729901 30.8720792,25.729901 C31.3970232,25.729901 31.8225742,26.1554521 31.8225742,26.680396 L31.8225742,26.7564356 C31.8225742,27.2813795 31.3970232,27.7069307 30.8720792,27.7069307 Z M1.26415842,25.0645544 C0.739214495,25.0645544 0.313663367,24.6390034 0.313663367,24.1140594 L0.313663367,24.0411881 C0.313663374,23.5162442 0.739214501,23.0906931 1.26415842,23.0906931 C1.78910233,23.0906931 2.21465346,23.5162442 2.21465347,24.0411881 L2.21465347,24.1172277 C2.21290776,24.6409339 1.78786752,25.0645574 1.26415842,25.0645544 Z M30.8720792,24.5956435 C30.3471353,24.5956435 29.9215842,24.1700925 29.9215842,23.6451485 L29.9215842,23.5691089 C29.9215842,23.044165 30.3471353,22.6186139 30.8720792,22.6186139 C31.3970232,22.6186139 31.8225742,23.044165 31.8225742,23.5691089 L31.8225742,23.6451485 C31.8225742,24.1700925 31.3970232,24.5956435 30.8720792,24.5956435 Z M1.26415842,21.950099 C0.739214495,21.950099 0.313663367,21.5245479 0.313663367,20.999604 L0.313663367,20.9235644 C0.313663362,20.5839852 0.494826693,20.2702011 0.788910887,20.1004115 C1.08299508,19.9306219 1.44532175,19.9306219 1.73940595,20.1004115 C2.03349014,20.2702011 2.21465347,20.5839852 2.21465347,20.9235644 L2.21465347,20.999604 C2.21465347,21.2516909 2.11451231,21.4934531 1.93625991,21.6717054 C1.75800751,21.8499579 1.51624537,21.950099 1.26415842,21.950099 Z M30.8720792,21.4811881 C30.3471353,21.4811881 29.9215842,21.055637 29.9215842,20.5306931 L29.9215842,20.4609901 C29.9215842,19.9360461 30.3471353,19.5104951 30.8720792,19.5104951 C31.3970232,19.5104951 31.8225742,19.9360461 31.8225742,20.4609901 L31.8225742,20.5370297 C31.819091,21.0594973 31.3945585,21.4811997 30.8720792,21.4811881 Z M1.26415842,18.8388119 C0.739214495,18.8388119 0.313663367,18.4132607 0.313663367,17.8883168 L0.313663367,17.8122772 C0.313663374,17.2873333 0.739214501,16.8617822 1.26415842,16.8617822 C1.78910233,16.8617822 2.21465346,17.2873333 2.21465347,17.8122772 L2.21465347,17.8883168 C2.21465347,18.4132607 1.78910233,18.8388119 1.26415842,18.8388119 Z M30.8720792,18.369901 C30.3471353,18.369901 29.9215842,17.9443499 29.9215842,17.419406 L29.9215842,17.3433663 C29.9215842,16.8184224 30.3471353,16.3928713 30.8720792,16.3928713 C31.3970232,16.3928713 31.8225742,16.8184224 31.8225742,17.3433663 L31.8225742,17.419406 C31.8225742,17.9443499 31.3970232,18.369901 30.8720792,18.369901 Z M1.26415842,15.7243565 C0.739214495,15.7243565 0.313663367,15.2988053 0.313663367,14.7738614 L0.313663367,14.6978218 C0.313663362,14.3582426 0.494826693,14.0444585 0.788910887,13.8746689 C1.08299508,13.7048793 1.44532175,13.7048793 1.73940595,13.8746689 C2.03349014,14.0444585 2.21465347,14.3582426 2.21465347,14.6978218 L2.21465347,14.7738614 C2.21465347,15.2988053 1.78910233,15.7243565 1.26415842,15.7243565 Z M30.8720792,15.2649505 C30.3471353,15.2649505 29.9215842,14.8393993 29.9215842,14.3144554 L29.9215842,14.2415842 C29.9215842,13.7166403 30.3471353,13.2910891 30.8720792,13.2910891 C31.3970232,13.2910891 31.8225742,13.7166403 31.8225742,14.2415842 L31.8225742,14.3144554 C31.8225742,14.8393993 31.3970232,15.2649505 30.8720792,15.2649505 Z M1.26415842,12.6130693 C0.739214495,12.6130693 0.313663367,12.1875181 0.313663367,11.6625742 L0.313663367,11.589703 C0.313663374,11.0647591 0.739214501,10.6392079 1.26415842,10.6392079 C1.78910233,10.6392079 2.21465346,11.0647591 2.21465347,11.589703 L2.21465347,11.6657426 C2.21290776,12.1894488 1.78786752,12.6130723 1.26415842,12.6130693 Z M30.8720792,12.1441584 C30.3471353,12.1441584 29.9215842,11.7186073 29.9215842,11.1936633 L29.9215842,11.1176237 C29.9215842,10.5926798 30.3471353,10.1671287 30.8720792,10.1671287 C31.3970232,10.1671287 31.8225742,10.5926798 31.8225742,11.1176237 L31.8225742,11.1936633 C31.8225742,11.7186073 31.3970232,12.1441584 30.8720792,12.1441584 Z M1.26415842,9.49861389 C0.739214495,9.49861389 0.313663367,9.07306274 0.313663367,8.54811882 L0.313663367,8.47207924 C0.313663362,8.13250003 0.494826693,7.81871592 0.788910887,7.64892634 C1.08299508,7.47913675 1.44532175,7.47913675 1.73940595,7.64892634 C2.03349014,7.81871592 2.21465347,8.13250003 2.21465347,8.47207924 L2.21465347,8.54811882 C2.21465347,9.07306274 1.78910233,9.49861389 1.26415842,9.49861389 Z M30.8720792,9.02970299 C30.3471353,9.02970299 29.9215842,8.60415183 29.9215842,8.07920792 L29.9215842,8.00316832 C29.9215842,7.4782244 30.3471353,7.05267326 30.8720792,7.05267326 C31.3970232,7.05267326 31.8225742,7.4782244 31.8225742,8.00316832 L31.8225742,8.07920792 C31.8225742,8.60415183 31.3970232,9.02970299 30.8720792,9.02970299 Z M1.26415842,6.39366337 C0.739214495,6.39366337 0.313663367,5.96811224 0.313663367,5.44316832 L0.313663367,5.36712872 C0.313663374,4.8421848 0.739214501,4.41663368 1.26415842,4.41663368 C1.78910233,4.41663368 2.21465346,4.8421848 2.21465347,5.36712872 L2.21465347,5.44316832 C2.21465347,5.96811224 1.78910233,6.39366337 1.26415842,6.39366337 Z M30.8720792,5.91841584 C30.3471353,5.91841584 29.9215842,5.49286472 29.9215842,4.96792079 L29.9215842,4.90455446 C29.9214806,4.38694563 30.335564,3.96441157 30.8530693,3.9540594 C31.3780132,3.9540594 31.8035644,4.37961053 31.8035644,4.90455446 L31.8035644,4.98693069 C31.7901183,5.49465512 31.3798836,5.90209917 30.8720792,5.91207921 L30.8720792,5.91841584 Z M2.16712872,3.49465347 C1.79724637,3.49221872 1.46237046,3.27542298 1.3087456,2.93894376 C1.15512074,2.60246452 1.21065237,2.20742211 1.45108911,1.92633663 L1.51445544,1.85663367 C1.72885735,1.56391857 2.09120257,1.41880126 2.44838612,1.48259944 C2.80556968,1.54639763 3.09527237,1.8079802 3.19508352,2.15681832 C3.29489468,2.50565644 3.18739986,2.88088697 2.9180198,3.1239604 L2.88,3.16831683 C2.7003968,3.37459576 2.44063738,3.49350784 2.16712872,3.49465347 Z M29.6427723,3.15881188 C29.4091358,3.15915464 29.1835574,3.07343485 29.0091089,2.9180198 L28.9647525,2.87683168 C28.6288797,2.52259059 28.6159569,1.97151542 28.9348557,1.60191988 C29.2537545,1.23232435 29.8007789,1.16438941 30.200396,1.44475247 L30.270099,1.50811881 C30.557564,1.77197452 30.6545671,2.1847158 30.5147278,2.5489972 C30.3748885,2.9132786 30.0266178,3.15508946 29.6364356,3.15881188 L29.6427723,3.15881188 Z M4.9140594,2.20831683 C4.38911549,2.21444118 3.9585996,1.79385481 3.95247525,1.26891089 C3.94635091,0.74396697 4.36693727,0.313451079 4.89188119,0.307326733 L4.97742574,0.307326733 C5.50236967,0.307326733 5.92792079,0.732877862 5.92792079,1.25782179 C5.92792079,1.7827657 5.50236967,2.20831683 4.97742574,2.20831683 L4.9140594,2.20831683 Z M26.7754456,2.20831683 L26.699406,2.20831683 C26.174462,2.20831683 25.7489109,1.7827657 25.7489109,1.25782179 C25.7489109,0.732877862 26.174462,0.307326733 26.699406,0.307326733 L26.7754456,0.307326733 C27.3003895,0.307326733 27.7259406,0.732877862 27.7259406,1.25782179 C27.7259406,1.7827657 27.3003895,2.20831683 26.7754456,2.20831683 Z M23.6641584,2.20831683 L23.5881188,2.20831683 C23.0631749,2.20831683 22.6376237,1.7827657 22.6376237,1.25782179 C22.6376237,0.732877862 23.0631749,0.307326733 23.5881188,0.307326733 L23.6641584,0.307326733 C24.1891023,0.307326733 24.6146535,0.732877862 24.6146535,1.25782179 C24.6146535,1.7827657 24.1891023,2.20831683 23.6641584,2.20831683 Z M20.549703,2.20831683 L20.4736633,2.20831683 C19.9487194,2.20831683 19.5231683,1.7827657 19.5231683,1.25782179 C19.5231683,0.732877862 19.9487194,0.307326733 20.4736633,0.307326733 L20.549703,0.307326733 C21.0746469,0.307326733 21.500198,0.732877862 21.500198,1.25782179 C21.500198,1.7827657 21.0746469,2.20831683 20.549703,2.20831683 Z M17.4384158,2.20831683 L17.3623763,2.20831683 C16.8374323,2.20831683 16.4118812,1.7827657 16.4118812,1.25782179 C16.4118812,0.732877862 16.8374323,0.307326733 17.3623763,0.307326733 L17.4384158,0.307326733 C17.9633597,0.307326733 18.3889109,0.732877862 18.3889109,1.25782179 C18.3889109,1.7827657 17.9633597,2.20831683 17.4384158,2.20831683 Z M14.3239604,2.20831683 L14.2479208,2.20831683 C13.7229768,2.20831683 13.2974258,1.7827657 13.2974258,1.25782179 C13.2974258,0.732877862 13.7229768,0.307326733 14.2479208,0.307326733 L14.3239604,0.307326733 C14.8489043,0.307326733 15.2744554,0.732877862 15.2744554,1.25782179 C15.2744554,1.7827657 14.8489043,2.20831683 14.3239604,2.20831683 Z M11.2126733,2.20831683 L11.1366337,2.20831683 C10.6116898,2.20831683 10.1861386,1.7827657 10.1861386,1.25782179 C10.1861386,0.732877862 10.6116898,0.307326733 11.1366337,0.307326733 L11.2126733,0.307326733 C11.7376172,0.307326733 12.1631683,0.732877862 12.1631683,1.25782179 C12.1631683,1.7827657 11.7376172,2.20831683 11.2126733,2.20831683 Z M8.08237624,2.20831683 L8.00633663,2.20831683 C7.48139272,2.20831683 7.05584158,1.7827657 7.05584158,1.25782179 C7.05584158,0.732877862 7.48139272,0.307326733 8.00633663,0.307326733 L8.08237624,0.307326733 C8.60732017,0.307326733 9.03287133,0.732877862 9.03287133,1.25782179 C9.03287133,1.7827657 8.60732017,2.20831683 8.08237624,2.20831683 Z M27.2475247,31.8130693 L27.1714851,31.8130693 C26.6465412,31.8130693 26.2209901,31.3875181 26.2209901,30.8625742 C26.2209901,30.3376303 26.6465412,29.9120792 27.1714851,29.9120792 L27.2475247,29.9120792 C27.7724686,29.9120792 28.1980198,30.3376303 28.1980198,30.8625742 C28.1980198,31.3875181 27.7724686,31.8130693 27.2475247,31.8130693 Z" id="Shape" fill="#333333"></path>
            <g id="Group" transform="translate(3.368421, 8.421053)" fill="#333333">
                <path d="M4.81720045,15.3227324 C3.47849559,15.4441958 2.1861236,14.7986101 1.47922132,13.6552933 C0.77231904,12.5119766 0.77231904,11.0673292 1.47922132,9.92401238 C2.1861236,8.78069558 3.47849559,8.13510998 4.81720045,8.25657339 C5.32499619,8.25619596 5.82680137,8.36624093 6.28783874,8.57908177 L7.14893617,7.79216126 C5.44297994,6.80040909 3.29567533,7.00031773 1.80210907,8.28993743 C0.308542813,9.57955705 -0.202250451,11.6747827 0.530224657,13.5070871 C1.26269976,15.3393914 3.077078,16.5051154 5.04805909,16.4097605 C7.01904017,16.3144057 8.7124144,14.978979 9.26459124,13.084524 L8.10033592,13.1038746 C7.55950855,14.4427299 6.26116084,15.3201987 4.81720045,15.3227324 Z" id="Shape"></path>
                <path d="M17.2724748,6.58597987 L17.549832,7.57608059 C17.559381,7.60854004 17.5723543,7.63989204 17.5885331,7.66960808 L19.7719149,12.0331467 C19.8399349,12.2373831 20.0211795,12.3829165 20.2352865,12.4052189 C20.4493935,12.4275213 20.6567405,12.3224654 20.7653921,12.136632 C20.8740436,11.9507986 20.8638927,11.7185778 20.7394401,11.5429339 L18.5883091,7.22454644 L17.9432923,5.01536396 L17.7497872,4.32842105 C17.6911636,4.12095596 17.7851769,3.90069625 17.9755431,3.79950728 C18.0953225,3.73334568 18.2388787,3.72596152 18.3648144,3.77948421 C18.4907501,3.83300682 18.5850644,3.94148598 18.6205599,4.07363941 L19.00757,5.42817465 C19.0945351,5.62464421 19.2893773,5.75116514 19.5042329,5.75068312 L21.5715117,5.75068312 C21.7800775,5.75076025 21.9703999,5.63180867 22.0617245,5.44430013 L23.2453304,3.02871217 C23.3331347,2.84978291 23.3169198,2.63729752 23.2029821,2.4737632 C23.0890442,2.31022897 22.8953331,2.22140893 22.6970661,2.24179175 L20.6942889,2.43852185 L18.3496529,2.68040312 L18.0497201,1.60322509 C17.7795631,0.654795545 16.8215345,0.0771606063 15.8566629,0.280940648 L15.2761478,0.400268758 C14.9977471,0.460945103 14.8082375,0.719618872 14.8343113,1.00335946 C14.8505083,1.15498186 14.9294803,1.29288594 15.0520542,1.3835906 C15.1746281,1.47429528 15.3295939,1.50950519 15.4793281,1.48067189 L16.0824188,1.35489362 C16.4809754,1.27496168 16.8744886,1.51303012 16.9886675,1.90315789 L17.3111758,2.9900112 C16.9212594,3.27214029 16.6908351,3.72458796 16.6919597,4.20586787 C16.6935488,4.42290737 16.7184168,4.63915015 16.7661366,4.85088463 L10.9609854,9.62400893 L8.58409853,3.30929448 C8.90021364,3.22246029 9.22443352,3.16842366 9.55162375,3.14804034 L9.87413213,3.12223966 C10.0832904,3.13834552 10.2829511,3.03226703 10.3866768,2.84992783 C10.4904025,2.66758872 10.4795517,2.44175848 10.3588222,2.27020396 C10.2380926,2.09864935 10.0291815,2.01220202 9.82253078,2.04828665 L8.2099888,2.04828665 C7.03928328,2.04828665 6.83932808,2.04828665 6.16528556,2.04828665 C5.76537514,2.04828665 5.52026876,2.1901904 5.52026876,2.4901232 C5.52026876,3.11256438 6.34266518,3.68662931 7.13281078,3.68662931 C7.26183486,3.68579149 7.39043402,3.67174282 7.51659571,3.64470324 L8.89693171,7.28904817 L4.44631579,11.3849048 C4.338734,11.4828797 4.27479496,11.6198046 4.26873734,11.7651877 C4.26267971,11.9105707 4.31500648,12.05234 4.41406495,12.158925 C4.51584974,12.2702747 4.65989037,12.333512 4.81075028,12.3330795 L10.061187,12.2492273 C10.0238397,12.3836945 10.0043222,12.5224859 10.0031355,12.6620381 C10.0042931,13.2943788 10.393862,13.8610299 10.9838536,14.0885511 C11.5738454,14.3160723 12.2430067,14.1577041 12.6684306,13.6898679 C13.0938543,13.2220317 13.1881088,12.5408757 12.9057111,11.9750952 L17.2724748,6.58597987 Z M6.24591267,11.2172004 L9.33554307,8.37590147 L9.98055992,10.0690706 L10.3740201,11.1526988 L6.24591267,11.2172004 Z M11.5447256,13.2135274 C11.2419277,13.2135274 10.9964614,12.9680611 10.9964614,12.6652632 C10.9964614,12.3624652 11.2419277,12.1169989 11.5447256,12.1169989 C11.8475236,12.1169989 12.0929899,12.3624652 12.0929899,12.6652632 C12.0929899,12.8106719 12.0352265,12.9501251 11.9324071,13.0529445 C11.8295875,13.155764 11.6901344,13.2135274 11.5447256,13.2135274 Z" id="Shape"></path>
                <path d="M20.2621277,7.1600448 C20.0081354,7.16028118 19.7546121,7.1818576 19.5042329,7.22454644 L20.0266965,8.26302349 L20.2621277,8.26302349 C21.9304472,8.25814467 23.3767484,9.41636143 23.7365907,11.0454187 C24.0964328,12.674476 23.2725748,14.3341479 21.7574286,15.0324644 C20.2422824,15.7307809 18.4452912,15.2790334 17.4404996,13.9472272 C16.435708,12.6154209 16.4946443,10.7634546 17.5820829,9.49823065 L17.0628444,8.45652859 C15.4653318,9.99159461 15.1808736,12.4439589 16.3845818,14.3039483 C17.5882901,16.1639377 19.9419883,16.9089962 21.996742,16.0804665 C24.0514956,15.2519368 25.2300307,13.0825907 24.8068419,10.9078757 C24.3836533,8.73316067 22.4776339,7.16405339 20.2621277,7.16649499 L20.2621277,7.1600448 Z" id="Shape"></path>
            </g>
        </g>
    </g>
</svg>