<?xml version="1.0" encoding="utf-8"?>
<!-- Generator: Adobe Illustrator 19.2.1, SVG Export Plug-In . SVG Version: 6.00 Build 0)  -->
<!DOCTYPE svg PUBLIC "-//W3C//DTD SVG 1.1//EN" "http://www.w3.org/Graphics/SVG/1.1/DTD/svg11.dtd">
<svg version="1.1" id="Layer_1" xmlns="http://www.w3.org/2000/svg" xmlns:xlink="http://www.w3.org/1999/xlink" x="0px" y="0px"
	 viewBox="0 0 16 16" enable-background="new 0 0 16 16" xml:space="preserve">
<path fill="#007AC9" d="M13,16H3c-1.657,0-3-1.343-3-3L0,3c0-1.657,1.343-3,3-3l10,0c1.657,0,3,1.343,3,3v10
	C16,14.657,14.657,16,13,16z"/>
<g>
	<g>
		<g>
			<path fill="#FFFFFF" d="M8.559,3.922C8.663,3.312,8.65,2.39,7.988,2.39C7.703,2.416,7.703,2.637,7.703,2.663
				c0.013,0.039,0.13,0.506,0.156,0.584C7.897,3.519,7.807,3.74,7.807,3.753C7.625,4.155,7.391,4.402,7.261,4.921
				c-0.35,1.363,1.025,1.596,0.844,1.168C7.586,4.999,8.456,4.545,8.559,3.922z"/>
			<path fill="#FFFFFF" d="M6.599,3.987c0.078-0.519,0.078-1.311-0.493-1.311C5.86,2.702,5.86,2.883,5.86,2.909
				c0.013,0.039,0.117,0.428,0.13,0.506C6.028,3.649,5.95,3.831,5.938,3.844c-0.156,0.35-0.35,0.558-0.467,0.999
				C5.172,6.011,6.353,6.219,6.197,5.843C5.769,4.908,6.509,4.506,6.599,3.987z"/>
			<path fill="#FFFFFF" d="M10.338,3.987c0.078-0.519,0.078-1.311-0.493-1.311C9.598,2.702,9.598,2.883,9.598,2.909
				c0.013,0.039,0.117,0.428,0.13,0.506c0.039,0.234-0.039,0.415-0.052,0.428c-0.156,0.35-0.35,0.558-0.467,0.999
				C8.91,6.011,10.091,6.219,9.935,5.843C9.52,4.908,10.26,4.506,10.338,3.987z"/>
		</g>
		<path fill="#FFFFFF" d="M11.026,7.634h-0.039V7.322V7.167V7.024c0-0.117-0.091-0.208-0.208-0.208H4.912
			c-0.117,0-0.208,0.091-0.208,0.208v6.01c0,0.117,0.091,0.208,0.208,0.208h0.389l0.117,0.35h4.841l0.117-0.35h0.389
			c0.117,0,0.208-0.091,0.208-0.208V12.06h0.039c1.22,0,2.22-0.999,2.22-2.22S12.246,7.634,11.026,7.634z M11.026,11.022h-0.039
			v-0.649V8.698h0.039c0.636,0,1.168,0.519,1.168,1.168C12.181,10.502,11.662,11.022,11.026,11.022z"/>
	</g>
</g>
</svg>
