<?xml version="1.0" encoding="UTF-8"?>
<svg xmlns="http://www.w3.org/2000/svg" xmlns:xlink="http://www.w3.org/1999/xlink" width="16px" height="16px" viewBox="0 0 16 16" version="1.1">
<g id="surface1">
<path style=" stroke:none;fill-rule:nonzero;fill:rgb(0%,47.843137%,78.823531%);fill-opacity:1;" d="M 0 14 C 0 15.101562 0.898438 16 2 16 L 14 16 C 15.101562 16 16 15.101562 16 14 L 16 2 C 16 0.898438 15.101562 0 14 0 L 2 0 C 0.898438 0 0 0.898438 0 2 Z M 0 14 "/>
<path style=" stroke:none;fill-rule:nonzero;fill:rgb(100%,100%,100%);fill-opacity:1;" d="M 2.847656 3.078125 C 2.847656 2.476562 3.308594 2.015625 3.910156 2.015625 L 7.316406 2.015625 C 11.082031 2.015625 13.683594 4.601562 13.683594 7.972656 L 13.683594 8.007812 C 13.683594 11.378906 11.082031 14 7.316406 14 L 3.910156 14 C 3.308594 14 2.847656 13.539062 2.847656 12.9375 Z M 7.316406 12.082031 C 9.832031 12.082031 11.476562 10.386719 11.476562 8.042969 L 11.476562 8.007812 C 11.476562 5.664062 9.832031 3.933594 7.316406 3.933594 L 4.953125 3.933594 L 4.953125 12.082031 Z M 7.316406 12.082031 "/>
</g>
</svg>
