<?xml version="1.0" encoding="UTF-8"?>
<svg width="36px" height="36px" viewBox="0 0 36 36" version="1.1" xmlns="http://www.w3.org/2000/svg" xmlns:xlink="http://www.w3.org/1999/xlink">
    <!-- Generator: Sketch 51.3 (57544) - http://www.bohemiancoding.com/sketch -->
    <title>scooter_border copy</title>
    <desc>Created with Sketch.</desc>
    <defs></defs>
    <g id="Page-1" stroke="none" stroke-width="1" fill="none" fill-rule="evenodd">
        <g id="scooter_border-copy" transform="translate(2.000000, 2.000000)" fill-rule="nonzero">
            <path d="M-0.749996418,28.002177 L-0.75,27.9998588 L-0.749996418,3.997823 C-0.741900586,1.37853056 1.37964342,-0.742639313 4.00084668,-0.75 L27.9985803,-0.749998108 C30.6187231,-0.744112098 32.7418936,1.37748668 32.75,4.00014113 L32.749997,28.0019681 C32.7426266,30.6227245 30.6189336,32.7448454 27.9968955,32.75 L3.99873973,32.749997 C1.3796434,32.7426393 -0.741900586,30.6214694 -0.749996418,28.002177 Z" id="Path" stroke="#FFFFFF" stroke-width="1.5" fill="#FCBB19"></path>
            <circle id="Oval" fill="#333333" cx="23.7546012" cy="26.3067485" r="1.96319018"></circle>
            <circle id="Oval" fill="#333333" transform="translate(9.226994, 26.306748) rotate(-67.500000) translate(-9.226994, -26.306748) " cx="9.22699387" cy="26.3067485" r="1.96319018"></circle>
            <path d="M24.1644634,23.3042005 C24.2513515,23.2072495 24.2928505,23.0786839 24.2787897,22.9500131 L23.1663953,11.9205733 L24.4891499,11.9205733 C24.7374854,11.908432 24.9325153,11.706237 24.9325153,11.4609193 C24.9325153,11.2156018 24.7374854,11.0134067 24.4891499,11.0012653 L22.2403527,11.0012653 C21.9159229,10.5850935 21.3433647,10.444802 20.8592917,10.6628698 L18.7076718,11.6182733 L17.5426874,10.0684216 C17.0525723,9.41534059 16.2775724,9.03029836 15.453947,9.03067512 C14.3356358,9.03140801 13.3434478,9.73856423 12.9913597,10.7858202 L11.755493,14.4540282 L15.6791697,15.7399314 L16.6898137,12.7383626 L17.963408,14.4303406 L21.805913,12.7203149 C21.9928937,12.6367473 22.1536214,12.5050519 22.2712208,12.3390558 L23.3104464,22.5631142 C21.8362135,22.7556971 20.5948488,23.7453583 20.0944492,25.1270247 L12.8072944,25.1270247 C12.2441086,23.5735488 10.753607,22.5357016 9.0814022,22.5326586 C8.8330667,22.5447999 8.63803681,22.7469949 8.63803681,22.9923126 C8.63803681,23.2376302 8.8330667,23.4398253 9.0814022,23.4519665 C10.7508743,23.4538301 12.1039547,24.788325 12.1064746,26.4354875 C12.1064738,26.6892191 12.3146152,26.8950837 12.5717824,26.8957055 L20.328818,26.8957055 C20.5864317,26.8957055 20.795269,26.689659 20.795269,26.4354875 C20.7971592,24.7885074 22.1499117,23.4538314 23.8191981,23.4519665 C23.9502126,23.4527381 24.0755157,23.3991111 24.1644634,23.3042005 Z" id="Path" fill="#333333"></path>
            <circle id="Oval" fill="#333333" transform="translate(17.079755, 6.085890) rotate(-9.220000) translate(-17.079755, -6.085890) " cx="17.0797546" cy="6.08588957" r="2.55214724"></circle>
            <polygon id="Path" fill="#333333" points="13.4104423 17.6329483 15.2771041 19.6728826 14.2512301 24.3435583 17.0049512 24.3435583 18.2576687 18.8988004 15.8131769 16.2202483 11.9342671 14.9202454 11.93201 14.9259372 9.97619079 17.8765565 5.69325153 17.8765565 5.69325153 20.4959142 11.5110518 20.4959142"></polygon>
        </g>
    </g>
</svg>