<?xml version="1.0" encoding="utf-8"?>
<!-- Generator: Adobe Illustrator 19.2.1, SVG Export Plug-In . SVG Version: 6.00 Build 0)  -->
<!DOCTYPE svg PUBLIC "-//W3C//DTD SVG 1.1//EN" "http://www.w3.org/Graphics/SVG/1.1/DTD/svg11.dtd">
<svg version="1.1" id="Layer_1" xmlns="http://www.w3.org/2000/svg" xmlns:xlink="http://www.w3.org/1999/xlink" x="0px" y="0px"
	 viewBox="0 0 16 16" enable-background="new 0 0 16 16" xml:space="preserve">
<path fill="#666666" d="M13,16H3c-1.657,0-3-1.343-3-3L0,3c0-1.657,1.343-3,3-3l10,0c1.657,0,3,1.343,3,3v10
	C16,14.657,14.657,16,13,16z"/>
<g>
	<path fill="#FFFFFF" d="M12.421,2.59c-0.101-0.08-0.233-0.108-0.357-0.078L6.328,3.92C6.142,3.966,6.01,4.133,6.01,4.326v1.458
		v0.599v3.935c-0.257-0.153-0.557-0.243-0.878-0.243c-0.945,0-1.713,0.768-1.713,1.713c0,0.944,0.768,1.713,1.713,1.713
		c0.944,0,1.713-0.769,1.713-1.713c0-0.047-0.003-0.093-0.007-0.139c0.004-0.023,0.007-0.047,0.007-0.07V6.709l4.899-1.201v2.604
		c-0.257-0.153-0.556-0.244-0.877-0.244c-0.945,0-1.713,0.768-1.713,1.713c0,0.945,0.769,1.713,1.713,1.713
		c0.945,0,1.713-0.768,1.713-1.713c0-0.047-0.003-0.093-0.007-0.139c0.004-0.023,0.007-0.046,0.007-0.07V4.975V3.578v-0.66
		C12.581,2.79,12.522,2.669,12.421,2.59z"/>
</g>
</svg>
