<?xml version="1.0" encoding="UTF-8"?>
<svg xmlns="http://www.w3.org/2000/svg" xmlns:xlink="http://www.w3.org/1999/xlink" width="16px" height="16px" viewBox="0 0 16 16" version="1.1">
<g id="surface1">
<path style=" stroke:none;fill-rule:nonzero;fill:#007AC9;fill-opacity:1;" d="M 0 14 C 0 15.101562 0.898438 16 2 16 L 14 16 C 15.101562 16 16 15.101562 16 14 L 16 2 C 16 0.898438 15.101562 0 14 0 L 2 0 C 0.898438 0 0 0.898438 0 2 Z M 0 14 "/>
<path style=" stroke:none;fill-rule:nonzero;fill:rgb(100%,100%,100%);fill-opacity:1;" d="M 12.441406 12.699219 L 9.238281 5.472656 C 9.183594 5.34375 9.113281 5.230469 9.035156 5.128906 C 9.101562 5.089844 9.128906 5.0625 9.128906 5.0625 C 9.625 4.738281 9.953125 4.171875 9.953125 3.574219 L 9.953125 3.539062 C 9.953125 2.527344 9.027344 1.671875 8 1.671875 C 6.972656 1.671875 6.046875 2.527344 6.046875 3.539062 L 6.046875 3.574219 C 6.046875 4.191406 6.390625 4.738281 6.871094 5.0625 C 6.871094 5.0625 6.910156 5.089844 6.984375 5.125 C 6.902344 5.226562 6.832031 5.34375 6.773438 5.472656 L 3.570312 12.699219 C 3.507812 12.84375 3.453125 12.988281 3.453125 13.132812 C 3.453125 13.660156 3.859375 14.078125 4.386719 14.078125 C 4.804688 14.078125 5.144531 13.84375 5.316406 13.449219 L 5.960938 11.941406 L 10 11.941406 L 10.617188 13.382812 C 10.800781 13.804688 11.117188 14.078125 11.589844 14.078125 C 12.125 14.078125 12.546875 13.644531 12.546875 13.109375 C 12.546875 12.976562 12.507812 12.84375 12.441406 12.699219 Z M 6.9375 3.539062 C 6.9375 2.972656 7.417969 2.496094 8 2.496094 C 8.582031 2.496094 9.0625 2.972656 9.0625 3.539062 L 9.0625 3.574219 C 9.0625 4.136719 8.582031 4.617188 8 4.617188 C 7.417969 4.617188 6.9375 4.136719 6.9375 3.574219 Z M 6.707031 10.15625 L 7.980469 7.125 L 9.253906 10.15625 Z M 6.707031 10.15625 "/>
</g>
</svg>
