<svg xmlns="http://www.w3.org/2000/svg" viewBox="0 0 24 24" preserveAspectRatio="xMidYMid meet"
     style="height: 50px; width: 50px;">
    <g id="icon-subway-live" stroke="none" stroke-width="1" fill="none" fill-rule="evenodd">
        <g transform="translate(0,0)">
            <circle id="Oval-3" fill="#ff621a" cx="12" cy="12" r="12"/>
            <g id="icon-subway" transform="translate(3,3)">
                <g id="icon_subway">
                    <g id="Group-3" fill="#ff621a">
                        <path d="M15.3,17.46 L2.7,17.46 C1.5069375,17.46 0.54,16.4930625 0.54,15.3 L0.54,2.7 C0.54,1.5069375 1.5069375,0.54 2.7,0.54 L15.3,0.54 C16.4930625,0.54 17.46,1.5069375 17.46,2.7 L17.46,15.3 C17.46,16.4930625 16.4930625,17.46 15.3,17.46 Z"
                              id="Fill-1"/>
                    </g>
                    <path fill="#FFFFFF"
                          d="M12.945739,6.82979764 L12.945739,6.45180824 C12.945739,6.42952927 12.9909838,6.40731306 13.0361648,6.40731306 L13.0361648,15.48 L15.84,15.48 L15.84,2.16 L11.7021143,2.16 L9.10172095,11.2549659 L9.05654,11.8775847 L8.98870476,11.8775847 L8.92086952,11.2549659 L6.32054,2.16 L2.16,2.16 L2.16,15.48 L5.00908,15.48 L5.00908,6.40731306 C5.03167048,6.40731306 5.07685143,6.42952927 5.07685143,6.45180824 L5.07685143,6.82979764 L7.60940953,15.48 L10.3906543,15.48 L12.945739,6.82979764 Z"
                          id="Fill-4"/>
                </g>
            </g>
        </g>
    </g>
</svg>
