<?xml version="1.0" encoding="UTF-8"?>
<svg width="25px" height="55px" viewBox="0 0 25 55" version="1.1" xmlns="http://www.w3.org/2000/svg" xmlns:xlink="http://www.w3.org/1999/xlink">
    <title>icon-stop-hybrid-large</title>
    <g id="Page-1" stroke="none" stroke-width="1" fill="none" fill-rule="evenodd">
        <g id="icons" transform="translate(-228.000000, -184.000000)">
            <g id="hybrid-alt3" transform="translate(219.000000, 186.000000)">
                <g id="hybrid-alt3-copy-2">
                    <rect id="Rectangle" stroke="#FFFFFF" stroke-width="1.2" fill="#D8D8D8" x="10.0758621" y="-0.6" width="22.5517241" height="44.4" rx="10.8"></rect>
                    <path d="M20.1655172,43.2 L22.537931,43.2 L22.537931,51.6137931 C22.537931,52.2689171 22.0068481,52.8 21.3517241,52.8 C20.6966002,52.8 20.1655172,52.2689171 20.1655172,51.6137931 L20.1655172,43.2 L20.1655172,43.2 Z" id="Rectangle" fill="#333333"></path>
                    <g id="icon-bus" transform="translate(10.675862, 21.600000)">
                        <path d="M0,0 L21.3517241,0 L21.3517241,10.9241379 C21.3517241,16.8202537 16.5719779,21.6 10.6758621,21.6 C4.77974626,21.6 7.22065936e-16,16.8202537 0,10.9241379 L0,0 L0,0 Z" id="Rectangle" fill="#007AC9"></path>
                        <g transform="translate(2.965517, 3.000000)" id="icon_bus">
                            <g>
                                <path d="M13.1678233,15.132 L2.37334052,15.132 C1.35123793,15.132 0.522857759,14.2939875 0.522857759,13.26 L0.522857759,2.34 C0.522857759,1.3060125 1.35123793,0.468 2.37334052,0.468 L13.1678233,0.468 C14.1899259,0.468 15.018306,1.3060125 15.018306,2.34 L15.018306,13.26 C15.018306,14.2939875 14.1899259,15.132 13.1678233,15.132 Z" id="Shape" fill="#FFFFFF" fill-rule="nonzero"></path>
                                <path d="M0.000481896552,1.931475 C0.000481896552,0.878475 0.86789569,0.000975 1.90879224,0.000975 L13.4733457,0.000975 C14.552794,0.000975 15.4202078,0.878475 15.4202078,1.931475 L15.4202078,13.6305 C15.4202078,14.7225 14.552794,15.6 13.4733457,15.6 L1.90879224,15.6 C0.86789569,15.6 0.000481896552,14.7225 0.000481896552,13.6305 L0.000481896552,1.931475 Z M7.72962069,1.677975 C6.12972414,1.677975 4.74186207,1.755975 3.21955086,1.970475 C2.75693017,2.028975 2.4870681,2.301975 2.4870681,2.711475 L2.4870681,11.8365 C2.4870681,12.129 2.69910259,12.324 2.89186121,12.3825 L3.47013707,12.48 L3.47013707,13.7085 C3.47013707,13.845 3.58579224,13.9425 3.73999914,13.9425 L4.66524052,13.9425 C4.78089569,13.9425 4.89655086,13.845 4.89655086,13.7085 L4.89655086,12.6165 C5.64830948,12.714 6.66993017,12.753 7.69155086,12.753 C8.73244741,12.753 9.79261983,12.714 10.5251026,12.6165 L10.5251026,13.7085 C10.5251026,13.845 10.6600336,13.9425 10.7756888,13.9425 L11.7009302,13.9425 C11.8551371,13.9425 11.9707922,13.845 11.9707922,13.7085 L11.9707922,12.48 L12.5490681,12.3825 C12.7611026,12.324 12.9538612,12.1485 12.9538612,11.8365 L12.9538612,2.711475 C12.9538612,2.301975 12.6839991,2.028975 12.2213784,1.970475 C10.6793095,1.775475 9.27265345,1.677975 7.73058448,1.677975 L7.72962069,1.677975 Z M11.7192422,9.4579875 C10.6205181,9.6529875 9.17482845,9.8479875 7.76817241,9.8479875 C6.28393103,9.8479875 4.877275,9.6724875 3.759275,9.4189875 C3.45086121,9.3604875 3.33520603,9.2434875 3.33520603,8.9899875 L3.33520603,3.296475 C3.33520603,3.042975 3.45086121,2.867475 3.759275,2.867475 L11.7192422,2.906475 C12.027656,2.906475 12.1240353,3.081975 12.1240353,3.335475 L12.1240353,9.0289875 C12.1240353,9.2824875 12.027656,9.4189875 11.7192422,9.4579875 L11.7192422,9.4579875 Z M3.64313793,11.0179875 C3.66241379,10.7644875 3.89372414,10.5304875 4.16358621,10.5304875 C4.43344828,10.5304875 4.66475862,10.7644875 4.66475862,11.0179875 C4.66475862,11.3104875 4.43344828,11.5444875 4.16358621,11.5444875 C3.87444828,11.5249875 3.64313793,11.2909875 3.64313793,11.0179875 L3.64313793,11.0179875 Z M10.6976216,11.0179875 C10.7168974,10.7644875 10.9482078,10.5304875 11.198794,10.5304875 C11.468656,10.5304875 11.6999664,10.7644875 11.6999664,11.0179875 C11.6999664,11.3104875 11.468656,11.5444875 11.198794,11.5444875 C10.9289319,11.5249875 10.6976216,11.2909875 10.6976216,11.0179875 Z" id="Shape" fill="#007AC9" fill-rule="nonzero"></path>
                            </g>
                        </g>
                    </g>
                    <g id="icon-tram" transform="translate(10.675862, 0.000000)">
                        <path d="M10.6758621,0 C16.5719779,-1.0830989e-15 21.3517241,4.77974626 21.3517241,10.6758621 L21.3517241,21.6 L21.3517241,21.6 L0,21.6 L0,10.6758621 C-7.22065936e-16,4.77974626 4.77974626,1.0830989e-15 10.6758621,0 Z" id="Rectangle" fill="#00985F"></path>
                        <g transform="translate(2.965517, 3.000000)" id="icon_tram">
                            <g>
                                <path d="M13.1075862,15.132 L2.31310345,15.132 C1.29100086,15.132 0.46262069,14.2939875 0.46262069,13.26 L0.46262069,2.34 C0.46262069,1.3060125 1.29100086,0.468 2.31310345,0.468 L13.1075862,0.468 C14.1296888,0.468 14.958069,1.3060125 14.958069,2.34 L14.958069,13.26 C14.958069,14.2939875 14.1296888,15.132 13.1075862,15.132 Z" id="Shape" fill="#FFFFFF" fill-rule="nonzero"></path>
                                <path d="M0.000481896552,1.931475 C0.000481896552,0.878475 0.86789569,0.000975 1.90879224,0.000975 L13.4733457,0.000975 C14.552794,0.000975 15.4202078,0.878475 15.4202078,1.931475 L15.4202078,13.6305 C15.4202078,14.7225 14.552794,15.6 13.4733457,15.6 L1.90879224,15.6 C0.86789569,15.6 0.000481896552,14.7225 0.000481896552,13.6305 L0.000481896552,1.931475 Z M10.774725,3.335475 C10.6783457,3.101475 10.5434147,2.984475 10.3121043,2.925975 C9.48324224,2.711475 8.88569052,2.633475 8.11465603,2.613975 L8.11465603,1.931475 L9.54106983,1.931475 C9.73382845,1.931475 9.88803534,1.755975 9.88803534,1.560975 C9.88803534,1.326975 9.73382845,1.151475 9.54106983,1.151475 L5.91768966,1.151475 C5.68637931,1.151475 5.51289655,1.326975 5.51289655,1.560975 C5.51289655,1.755975 5.68637931,1.931475 5.91768966,1.931475 L7.32482759,1.931475 L7.32482759,2.613975 C6.53451724,2.633475 5.89841379,2.711475 5.12737931,2.925975 C4.85751724,3.003975 4.72258621,3.101475 4.60693103,3.335475 L4.27924138,4.134975 C4.18286207,4.368975 4.18286207,4.700475 4.18286207,4.953975 L4.18286207,11.9734875 C4.18286207,12.3244875 4.41417241,12.5389875 4.76113793,12.5974875 C5.80203448,12.8119875 6.708,12.8899875 7.70986293,12.8899875 C8.67365603,12.8899875 9.59889741,12.8119875 10.6778638,12.5974875 C11.0055534,12.5389875 11.2561397,12.3244875 11.2561397,11.9734875 L11.2561397,4.953975 C11.2561397,4.700475 11.1983121,4.368975 11.1019328,4.134975 L10.7742431,3.335475 L10.774725,3.335475 Z M9.8109319,13.845 L9.8109319,13.26 L9.097725,13.3575 L9.097725,13.845 L6.34127672,13.845 L6.34127672,13.3575 L5.62806983,13.26 L5.62806983,13.845 L5.04979397,13.845 C4.83775948,13.845 4.70282845,14.0205 4.70282845,14.196 C4.70282845,14.4495 4.83775948,14.6055 5.04979397,14.6055 L10.3887259,14.6055 C10.5622086,14.6055 10.7549672,14.4495 10.7549672,14.196 C10.7549672,14.0205 10.5622086,13.845 10.3887259,13.845 L9.81045,13.845 L9.8109319,13.845 Z M4.8767931,10.8424875 C4.8767931,10.5694875 5.06955172,10.3549875 5.32013793,10.3549875 C5.59,10.3549875 5.78275862,10.5694875 5.78275862,10.8424875 C5.78275862,11.0959875 5.59,11.2714875 5.32013793,11.2714875 C5.06955172,11.2714875 4.8767931,11.0959875 4.8767931,10.8424875 Z M4.89606897,4.797975 L10.5048629,4.797975 L10.5048629,9.5359875 C9.77238017,9.7504875 8.73148362,9.8869875 7.70986293,9.8869875 C6.7075181,9.8869875 5.66662155,9.7309875 4.89558707,9.5359875 L4.89558707,4.797975 L4.89606897,4.797975 Z M9.73382845,10.8424875 C9.73382845,10.5694875 9.90731121,10.3549875 10.1578974,10.3549875 C10.4277595,10.3549875 10.639794,10.5694875 10.639794,10.8424875 C10.639794,11.0959875 10.4277595,11.2714875 10.1578974,11.2714875 C9.90731121,11.2714875 9.73382845,11.0959875 9.73382845,10.8424875 Z" id="Shape" fill="#00985F" fill-rule="nonzero"></path>
                            </g>
                        </g>
                    </g>
                </g>
            </g>
        </g>
    </g>
</svg>