<?xml version="1.0" encoding="utf-8"?>
<!-- Generator: Adobe Illustrator 19.2.0, SVG Export Plug-In . SVG Version: 6.00 Build 0)  -->
<!DOCTYPE svg PUBLIC "-//W3C//DTD SVG 1.1//EN" "http://www.w3.org/Graphics/SVG/1.1/DTD/svg11.dtd">
<svg version="1.1" id="Layer_1" xmlns="http://www.w3.org/2000/svg" xmlns:xlink="http://www.w3.org/1999/xlink" x="0px" y="0px"
	 viewBox="0 0 16 16" enable-background="new 0 0 16 16" xml:space="preserve">
<path fill="#FFFFFF" d="M13.601,15.52H2.4c-1.06,0-1.92-0.86-1.92-1.92V2.399c0-1.06,0.86-1.92,1.92-1.92h11.201
	c1.06,0,1.92,0.86,1.92,1.92V13.6C15.521,14.66,14.661,15.52,13.601,15.52z"/>
<g>
	<path fill="#8C4799" d="M0,1.98C0,0.9,0.9,0,1.98,0h12C15.1,0,16,0.9,16,1.98v12C16,15.1,15.1,16,13.98,16h-12
		C0.9,16,0,15.1,0,13.98V1.98z M12.28,2.04C11.84,1.64,9.94,1.18,8,1.18c-1.88,0-3.82,0.46-4.24,0.86C3.46,2.3,3.16,2.9,2.8,3.66
		C2.5,4.32,2.26,4.94,2.26,5.3v5.78c0,0.46,0.16,0.66,0.78,1.14c0.46,0.36,0.66,0.52,1.36,0.52h1.32v0.86h4.62v-0.86h1.3
		c0.7,0,0.9-0.16,1.34-0.52c0.62-0.5,0.76-0.68,0.76-1.14V5.3c0-0.36-0.24-0.98-0.52-1.64C12.86,2.9,12.58,2.3,12.28,2.04z
		 M11.74,14.2v-0.84H11v0.84H5.04v-0.84H4.28v0.84H3.36c-0.22,0-0.4,0.18-0.4,0.38c0,0.22,0.18,0.4,0.4,0.4h9.32
		c0.22,0,0.38-0.18,0.38-0.4c0-0.2-0.16-0.38-0.38-0.38H11.74z M11.32,9.1c-0.06,0.34-0.4,0.6-0.74,0.6H5.46
		c-0.34,0-0.68-0.26-0.74-0.6L3.78,5.12c-0.06-0.34,0.16-0.6,0.5-0.6h7.46c0.34,0,0.58,0.26,0.5,0.6L11.32,9.1z M11.04,2.74v0.34
		c0,0.26-0.2,0.48-0.46,0.48H5.46c-0.26,0-0.48-0.22-0.48-0.48V2.74H11.04z M4.98,11.18c0-0.28,0.2-0.5,0.48-0.5
		c0.28,0,0.52,0.22,0.52,0.5c0,0.28-0.24,0.48-0.52,0.48C5.18,11.66,4.98,11.46,4.98,11.18z M10.08,11.12c0-0.28,0.22-0.5,0.5-0.5
		c0.28,0,0.5,0.22,0.5,0.5c0,0.28-0.22,0.48-0.5,0.48C10.3,11.6,10.08,11.4,10.08,11.12z"/>
</g>
</svg>
