<?xml version="1.0" encoding="UTF-8"?>
<svg width="32px" height="32px" viewBox="0 0 32 32" version="1.1" xmlns="http://www.w3.org/2000/svg" xmlns:xlink="http://www.w3.org/1999/xlink">
    <!-- Generator: Sketch 51.3 (57544) - http://www.bohemiancoding.com/sketch -->
    <title>icon-ferry-station</title>
    <desc>Created with Sketch.</desc>
    <defs></defs>
    <g id="Page-1" stroke="none" stroke-width="1" fill="none" fill-rule="evenodd">
        <g id="icon-ferry-station" fill-rule="nonzero">
            <rect id="Rectangle-path" fill="#FFFFFF" x="2.74285714" y="2.74285714" width="27.4285714" height="27.4285714"></rect>
            <path d="M0.001,3.962 C0.001,1.802 1.801,0.002 3.961,0.002 L27.959,0.002 C30.199,0.002 31.999,1.802 31.999,3.962 L31.999,27.96 C31.999,30.2 30.199,32 27.959,32 L3.961,32 C1.801,32 0.001,30.2 0.001,27.96 L0.001,3.962 Z M4.841,27.04 C4.441,27.04 4.081,27.36 4.081,27.8 C4.081,28.24 4.441,28.56 4.841,28.56 L27.159,28.56 C27.599,28.56 27.959,28.24 27.959,27.8 C27.959,27.36 27.599,27.04 27.159,27.04 L4.841,27.04 Z M25.639,18.201 C25.639,18.201 22.439,17.361 20.279,16.881 C18.399,16.481 16.079,16.201 15.919,16.201 C15.759,16.201 13.479,16.481 11.559,16.881 C9.39900005,17.361 6.199,18.201 6.199,18.201 L7.079,25.8 L24.797,25.8 L25.637,18.201 L25.639,18.201 Z M11.56,15.361 C13.48,14.961 15.8,14.681 15.92,14.641 C16.04,14.681 18.36,14.961 20.28,15.361 C21.76,15.681 22.6,15.881 23.68,16.161 L23.68,10.601 C23.68,9.88100005 23.88,8.921 22,8.921 L18.52,8.921 L18.52,3.681 C18.52,3.401 18.28,3.161 18,3.121 L13.84,3.121 C13.56,3.161 13.36,3.401 13.32,3.681 L13.32,8.92 L9.84,8.92 C7.96,8.92 8.16,9.88 8.16,10.6 L8.16,16.16 L11.56,15.36 L11.56,15.361 Z M13.44,11.842 C13.44,12.682 12.8,13.322 11.96,13.322 C11.12,13.322 10.48,12.682 10.48,11.842 C10.48,11.002 11.12,10.362 11.96,10.362 C12.8,10.362 13.44,11.002 13.44,11.842 Z M17.4,11.842 C17.4,12.682 16.76,13.322 15.92,13.322 C15.12,13.322 14.44,12.682 14.44,11.842 C14.44,11.002 15.12,10.362 15.92,10.362 C16.76,10.362 17.4,11.002 17.4,11.842 Z M21.359,11.842 C21.359,12.682 20.719,13.322 19.879,13.322 C19.079,13.322 18.399,12.682 18.399,11.842 C18.399,11.002 19.079,10.362 19.879,10.362 C20.719,10.362 21.359,11.002 21.359,11.842 Z" id="Ferry-1" fill="#01B9E4"></path>
        </g>
    </g>
</svg>