<?xml version="1.0" encoding="utf-8"?>
<!-- Generator: Adobe Illustrator 19.2.1, SVG Export Plug-In . SVG Version: 6.00 Build 0)  -->
<!DOCTYPE svg PUBLIC "-//W3C//DTD SVG 1.1//EN" "http://www.w3.org/Graphics/SVG/1.1/DTD/svg11.dtd">
<svg version="1.1" id="Layer_1" xmlns="http://www.w3.org/2000/svg" xmlns:xlink="http://www.w3.org/1999/xlink" x="0px" y="0px"
	 viewBox="0 0 16 16" enable-background="new 0 0 16 16" xml:space="preserve">
<path fill="#666666" d="M13,16H3c-1.657,0-3-1.343-3-3L0,3c0-1.657,1.343-3,3-3l10,0c1.657,0,3,1.343,3,3v10
	C16,14.657,14.657,16,13,16z"/>
<path fill="#FFFFFF" d="M3.2,12.8H2V3.7c0-0.276,0.224-0.5,0.5-0.5h0.2c0.276,0,0.5,0.224,0.5,0.5V12.8z"/>
<rect x="3.2" y="8.541" fill="#FFFFFF" width="9.6" height="2.4"/>
<path fill="#FFFFFF" d="M12.2,8H6.7V6.6c0-0.552,0.448-1,1-1h2.5c1.105,0,2,0.895,2,2V8z"/>
<path fill="#FFFFFF" d="M14,12.8h-1.2V6.1c0-0.276,0.224-0.5,0.5-0.5h0.2c0.276,0,0.5,0.224,0.5,0.5V12.8z"/>
<circle fill="#FFFFFF" cx="5" cy="6.8" r="1.2"/>
</svg>
