<?xml version="1.0" encoding="UTF-8"?>
<svg width="12px" height="12px" viewBox="0 0 12 12" version="1.1" xmlns="http://www.w3.org/2000/svg" xmlns:xlink="http://www.w3.org/1999/xlink">
    <title>icon-bus-12</title>
    <g id="Page-1" stroke="none" stroke-width="1" fill="none" fill-rule="evenodd">
        <g id="icons" transform="translate(-76.000000, -80.000000)">
            <g id="icon-bus" transform="translate(76.000000, 80.000000)">
                <g id="icon_bus">
                    <path d="M10.246875,11.64 L1.846875,11.64 C1.0515,11.64 0.406875,10.995375 0.406875,10.2 L0.406875,1.8 C0.406875,1.004625 1.0515,0.36 1.846875,0.36 L10.246875,0.36 C11.04225,0.36 11.686875,1.004625 11.686875,1.8 L11.686875,10.2 C11.686875,10.995375 11.04225,11.64 10.246875,11.64 Z" id="Shape" fill="#FFFFFF" fill-rule="nonzero"></path>
                    <path d="M0.000375,1.48575 C0.000375,0.67575 0.675375,0.00075 1.485375,0.00075 L10.484625,0.00075 C11.324625,0.00075 11.999625,0.67575 11.999625,1.48575 L11.999625,10.485 C11.999625,11.325 11.324625,12 10.484625,12 L1.485375,12 C0.675375,12 0.000375,11.325 0.000375,10.485 L0.000375,1.48575 Z M6.015,1.29075 C4.77,1.29075 3.69,1.35075 2.505375,1.51575 C2.145375,1.56075 1.935375,1.77075 1.935375,2.08575 L1.935375,9.105 C1.935375,9.33 2.100375,9.48 2.250375,9.525 L2.700375,9.6 L2.700375,10.545 C2.700375,10.65 2.790375,10.725 2.910375,10.725 L3.630375,10.725 C3.720375,10.725 3.810375,10.65 3.810375,10.545 L3.810375,9.705 C4.395375,9.78 5.190375,9.81 5.985375,9.81 C6.795375,9.81 7.620375,9.78 8.190375,9.705 L8.190375,10.545 C8.190375,10.65 8.295375,10.725 8.385375,10.725 L9.105375,10.725 C9.225375,10.725 9.315375,10.65 9.315375,10.545 L9.315375,9.6 L9.765375,9.525 C9.930375,9.48 10.080375,9.345 10.080375,9.105 L10.080375,2.08575 C10.080375,1.77075 9.870375,1.56075 9.510375,1.51575 C8.310375,1.36575 7.21575,1.29075 6.01575,1.29075 L6.015,1.29075 Z M9.119625,7.275375 C8.264625,7.425375 7.139625,7.575375 6.045,7.575375 C4.89,7.575375 3.795375,7.440375 2.925375,7.245375 C2.685375,7.200375 2.595375,7.110375 2.595375,6.915375 L2.595375,2.53575 C2.595375,2.34075 2.685375,2.20575 2.925375,2.20575 L9.119625,2.23575 C9.359625,2.23575 9.434625,2.37075 9.434625,2.56575 L9.434625,6.945375 C9.434625,7.140375 9.359625,7.245375 9.119625,7.275375 L9.119625,7.275375 Z M2.835,8.475375 C2.85,8.280375 3.03,8.100375 3.24,8.100375 C3.45,8.100375 3.63,8.280375 3.63,8.475375 C3.63,8.700375 3.45,8.880375 3.24,8.880375 C3.015,8.865375 2.835,8.685375 2.835,8.475375 L2.835,8.475375 Z M8.324625,8.475375 C8.339625,8.280375 8.519625,8.100375 8.714625,8.100375 C8.924625,8.100375 9.104625,8.280375 9.104625,8.475375 C9.104625,8.700375 8.924625,8.880375 8.714625,8.880375 C8.504625,8.865375 8.324625,8.685375 8.324625,8.475375 Z" id="Shape" fill="#007AC9" fill-rule="nonzero"></path>
                </g>
            </g>
        </g>
    </g>
</svg>