<?xml version="1.0" encoding="UTF-8"?>
<svg width="36px" height="36px" viewBox="0 0 36 36" version="1.1" xmlns="http://www.w3.org/2000/svg" xmlns:xlink="http://www.w3.org/1999/xlink">
    <!-- Generator: Sketch 51.3 (57544) - http://www.bohemiancoding.com/sketch -->
    <title>icon-bus-station-border</title>
    <desc>Created with Sketch.</desc>
    <defs></defs>
    <g id="Page-1" stroke="none" stroke-width="1" fill="none" fill-rule="evenodd">
        <g id="icon-bus-station-border" transform="translate(2.000000, 2.000000)" fill-rule="nonzero">
            <path d="M-0.749996418,28.002177 L-0.75,27.9998588 L-0.749996418,3.997823 C-0.741900586,1.37853056 1.37964342,-0.742639313 4.00084668,-0.75 L27.9985803,-0.749998108 C30.6187231,-0.744112098 32.7418936,1.37748668 32.75,4.00014113 L32.749997,28.0019681 C32.7426266,30.6227245 30.6189336,32.7448454 27.9968955,32.75 L3.99873973,32.749997 C1.3796434,32.7426393 -0.741900586,30.6214694 -0.749996418,28.002177 Z" id="Path-Copy" stroke="#FFFFFF" stroke-width="1.5" fill="#FFFFFF"></path>
            <path d="M27.326004,31.04 L4.924,31.04 C2.804,31.04 1.084,29.32 1.084,27.2 L1.084,4.798 C1.084,2.678 2.804,0.958 4.924,0.958 L27.326004,0.958 C29.446004,0.958 31.166004,2.678 31.166004,4.798 L31.166004,27.2 C31.166004,29.32 29.446004,31.04 27.326004,31.04 Z" id="path282" fill="#FFFFFF"></path>
            <g id="g286" fill="#007AC9">
                <path d="M0,3.96 C0,1.8 1.8,0 3.96,0 L27.96,0 C30.2,0 32,1.8 32,3.96 L32,27.96 C32,30.2 30.2,32 27.96,32 L3.96,32 C1.8,32 0,30.2 0,27.96 L0,3.96 Z M16.04,3.44 C12.72,3.44 9.84,3.6 6.68,4.04 C5.72,4.16 5.16,4.72 5.16,5.56 L5.16,24.28 C5.16,24.88 5.6,25.28 6,25.4 L7.2,25.6 L7.2,28.12 C7.2,28.4 7.44,28.6 7.76,28.6 L9.68,28.6 C9.92,28.6 10.16,28.4 10.16,28.12 L10.16,25.88 C11.72,26.08 13.84,26.16 15.96,26.16 C18.12,26.16 20.32,26.08 21.84,25.88 L21.84,28.12 C21.84,28.4 22.12,28.6 22.36,28.6 L24.28,28.6 C24.6,28.6 24.84,28.4 24.84,28.12 L24.84,25.6 L26.04,25.4 C26.48,25.28 26.88,24.92 26.88,24.28 L26.88,5.56 C26.88,4.72 26.32,4.16 25.36,4.04 C22.16,3.64 19.24,3.44 16.04,3.44 Z M24.32,19.4 C22.04,19.8 19.04,20.2 16.12,20.2 C13.04,20.2 10.12,19.84 7.8,19.32 C7.16,19.2 6.92,18.96 6.92,18.44 L6.92,6.76 C6.92,6.24 7.16,5.88 7.8,5.88 L24.32,5.96 C24.96,5.96 25.16,6.32 25.16,6.84 L25.16,18.52 C25.16,19.04 24.96,19.32 24.32,19.4 Z M7.56,22.6 C7.6,22.08 8.08,21.6 8.64,21.6 C9.2,21.6 9.68,22.08 9.68,22.6 C9.68,23.2 9.2,23.68 8.64,23.68 C8.04,23.64 7.56,23.16 7.56,22.6 Z M22.2,22.6 C22.24,22.08 22.72,21.6 23.24,21.6 C23.8,21.6 24.28,22.08 24.28,22.6 C24.28,23.2 23.8,23.68 23.24,23.68 C22.68,23.64 22.2,23.16 22.2,22.6 Z" id="path284"></path>
            </g>
        </g>
    </g>
</svg>