<?xml version="1.0" encoding="UTF-8" standalone="no"?>
<!-- Generator: Adobe Illustrator 19.2.0, SVG Export Plug-In . SVG Version: 6.00 Build 0)  -->

<svg
   xmlns:dc="http://purl.org/dc/elements/1.1/"
   xmlns:cc="http://creativecommons.org/ns#"
   xmlns:rdf="http://www.w3.org/1999/02/22-rdf-syntax-ns#"
   xmlns:svg="http://www.w3.org/2000/svg"
   xmlns="http://www.w3.org/2000/svg"
   xmlns:sodipodi="http://sodipodi.sourceforge.net/DTD/sodipodi-0.dtd"
   xmlns:inkscape="http://www.inkscape.org/namespaces/inkscape"
   version="1.1"
   id="Layer_1"
   x="0px"
   y="0px"
   viewBox="0 0 32 32"
   enable-background="new 0 0 16 16"
   xml:space="preserve"
   sodipodi:docname="icon-subway-station.svg"
   width="32"
   height="32"
   inkscape:version="0.92.2 5c3e80d, 2017-08-06"><metadata
     id="metadata4121"><rdf:RDF><cc:Work
         rdf:about=""><dc:format>image/svg+xml</dc:format><dc:type
           rdf:resource="http://purl.org/dc/dcmitype/StillImage" /><dc:title></dc:title></cc:Work></rdf:RDF></metadata><defs
     id="defs4119" /><sodipodi:namedview
     pagecolor="#ffffff"
     bordercolor="#666666"
     borderopacity="1"
     objecttolerance="10"
     gridtolerance="10"
     guidetolerance="10"
     inkscape:pageopacity="0"
     inkscape:pageshadow="2"
     inkscape:window-width="1586"
     inkscape:window-height="980"
     id="namedview4117"
     showgrid="false"
     inkscape:zoom="14.75"
     inkscape:cx="8"
     inkscape:cy="8"
     inkscape:window-x="117"
     inkscape:window-y="25"
     inkscape:window-maximized="0"
     inkscape:current-layer="Layer_1" /><g
     id="g4110"
     transform="matrix(1.9975031,0,0,1.9975031,0.00997503,0.02)"><path
       d="M -0.01,1.982 C -0.01,0.901 0.891,0 1.972,0 h 12.015 c 1.121,0 2.023,0.901 2.023,1.982 v 12.015 c 0,1.121 -0.901,2.023 -2.023,2.023 H 1.972 c -1.081,0 -1.982,-0.901 -1.982,-2.023 V 1.982 Z"
       id="path4108"
       inkscape:connector-curvature="0"
       style="fill:#ff6319" /></g><g
     id="g4114"
     transform="matrix(1.9975031,0,0,1.9975031,0.00997503,0.02)"><path
       d="m 5.7,3.192 2.36,6.938 h 0.028 l 2.233,-6.938 h 3.123 v 10.089 h -2.077 v -7.15 h -0.028 l -2.473,7.15 H 7.156 L 4.682,6.202 H 4.654 v 7.079 H 2.577 V 3.192 Z"
       id="path4112"
       inkscape:connector-curvature="0"
       style="fill:#ffffff" /></g></svg>