<?xml version="1.0" encoding="UTF-8"?>
<svg width="12px" height="12px" viewBox="0 0 12 12" version="1.1" xmlns="http://www.w3.org/2000/svg" xmlns:xlink="http://www.w3.org/1999/xlink">
    <title>icon-train-12</title>
    <g id="Page-1" stroke="none" stroke-width="1" fill="none" fill-rule="evenodd">
        <g id="icons" transform="translate(-26.000000, -80.000000)">
            <g id="icon-train" transform="translate(26.000000, 80.000000)">
                <g id="icon_rail">
                    <path d="M10.32,11.76 L1.92,11.76 C1.124625,11.76 0.48,11.115375 0.48,10.32 L0.48,1.92 C0.48,1.124625 1.124625,0.48 1.92,0.48 L10.32,0.48 C11.115375,0.48 11.76,1.124625 11.76,1.92 L11.76,10.32 C11.76,11.115375 11.115375,11.76 10.32,11.76 Z" id="Shape" fill="#FFFFFF" fill-rule="nonzero"></path>
                    <path d="M0,1.48509282 C0,0.67504219 0.67504219,0 1.48509282,0 L10.4849053,0 C11.3249578,0 12,0.67504219 12,1.48509282 L12,10.4849053 C12,11.3249578 11.3249578,12 10.4849053,12 L1.48509282,12 C0.67504219,12 0,11.3249578 0,10.4849053 L0,1.48509282 Z M9.20982561,1.53009563 C8.87980499,1.23007688 7.45471592,0.885055316 6,0.885055316 C4.58991187,0.885055316 3.13519595,1.23007688 2.82017626,1.53009563 C2.5951622,1.72510782 2.37014813,2.17513595 2.10013126,2.74517157 C1.87511719,3.24020251 1.69510594,3.70523158 1.69510594,3.97524845 L1.69510594,8.31014438 C1.69510594,8.65516595 1.81511344,8.80517532 2.28014251,9.16519782 C2.62516407,9.4352147 2.77517345,9.5552222 3.30020626,9.5552222 L4.29026814,9.5552222 L4.29026814,10.2002625 L7.75510969,10.2002625 L7.75510969,9.5552222 L8.73017064,9.5552222 C9.25520345,9.5552222 9.40521283,9.4352147 9.73523345,9.16519782 C10.2002625,8.79017439 10.3052691,8.65516595 10.3052691,8.31014438 L10.3052691,3.97524845 C10.3052691,3.70523158 10.1252578,3.24020251 9.9152447,2.74517157 C9.64522783,2.17513595 9.4352147,1.72510782 9.21020064,1.53009563 L9.20982561,1.53009563 Z M8.8048003,10.6499156 L8.8048003,10.0198762 L8.24976561,10.0198762 L8.24976561,10.6499156 L3.77986124,10.6499156 L3.77986124,10.0198762 L3.20982561,10.0198762 L3.20982561,10.6499156 L2.51978249,10.6499156 C2.35477217,10.6499156 2.21976374,10.7849241 2.21976374,10.9349334 C2.21976374,11.0999437 2.35477217,11.2349522 2.51978249,11.2349522 L9.50946934,11.2349522 C9.67447965,11.2349522 9.79448716,11.0999437 9.79448716,10.9349334 C9.79448716,10.7849241 9.67447965,10.6499156 9.50946934,10.6499156 L8.80442528,10.6499156 L8.8048003,10.6499156 Z M8.48978061,6.82505157 C8.4447778,7.0800675 8.18976186,7.27507969 7.93474592,7.27507969 L4.09488093,7.27507969 C3.83986499,7.27507969 3.58484905,7.0800675 3.53984624,6.82505157 L2.83480218,3.84024002 C2.78979936,3.58522408 2.95480968,3.39021189 3.20982561,3.39021189 L8.8048003,3.39021189 C9.05981624,3.39021189 9.23982749,3.58522408 9.17982374,3.84024002 L8.48978061,6.82505157 Z M8.27976749,2.05512845 L8.27976749,2.31014438 C8.27976749,2.50515657 8.12975811,2.67016689 7.93474592,2.67016689 L4.09488093,2.67016689 C3.89986874,2.67016689 3.73485843,2.50515657 3.73485843,2.31014438 L3.73485843,2.05512845 L8.27976749,2.05512845 L8.27976749,2.05512845 Z M3.73485843,8.38514907 C3.73485843,8.17513595 3.8848678,8.01012563 4.09488093,8.01012563 C4.30489406,8.01012563 4.48490531,8.17513595 4.48490531,8.38514907 C4.48490531,8.5951622 4.30489406,8.74517157 4.09488093,8.74517157 C3.8848678,8.74517157 3.73485843,8.5951622 3.73485843,8.38514907 Z M7.55972248,8.34014626 C7.55972248,8.13013313 7.7247328,7.96512282 7.93474592,7.96512282 C8.14475905,7.96512282 8.30976936,8.13013313 8.30976936,8.34014626 C8.30976936,8.55015938 8.14475905,8.70016876 7.93474592,8.70016876 C7.7247328,8.70016876 7.55972248,8.55015938 7.55972248,8.34014626 Z" id="Shape" fill="#8C4799" fill-rule="nonzero"></path>
                </g>
            </g>
        </g>
    </g>
</svg>