<?xml version="1.0" encoding="utf-8"?>
<!-- Generator: Adobe Illustrator 19.2.0, SVG Export Plug-In . SVG Version: 6.00 Build 0)  -->
<!DOCTYPE svg PUBLIC "-//W3C//DTD SVG 1.1//EN" "http://www.w3.org/Graphics/SVG/1.1/DTD/svg11.dtd">
<svg version="1.1" id="Layer_1" xmlns="http://www.w3.org/2000/svg" xmlns:xlink="http://www.w3.org/1999/xlink" x="0px" y="0px"
	 viewBox="0 0 16 16" enable-background="new 0 0 16 16" xml:space="preserve">
<path fill="#FFFFFF" d="M13.663,15.52H2.462c-1.06,0-1.92-0.86-1.92-1.92V2.399c0-1.06,0.86-1.92,1.92-1.92h11.201
	c1.06,0,1.92,0.86,1.92,1.92V13.6C15.583,14.66,14.723,15.52,13.663,15.52z"/>
<g>
	<path fill="#007AC9" d="M0,1.98C0,0.9,0.9,0,1.98,0h12C15.1,0,16,0.9,16,1.98v12C16,15.1,15.1,16,13.98,16h-12
		C0.9,16,0,15.1,0,13.98V1.98z M8.02,1.72c-1.66,0-3.1,0.08-4.68,0.3C2.86,2.08,2.58,2.36,2.58,2.78v9.36c0,0.3,0.22,0.5,0.42,0.56
		l0.6,0.1v1.26c0,0.14,0.12,0.24,0.28,0.24h0.96c0.12,0,0.24-0.1,0.24-0.24v-1.12c0.78,0.1,1.84,0.14,2.9,0.14
		c1.08,0,2.18-0.04,2.94-0.14v1.12c0,0.14,0.14,0.24,0.26,0.24h0.96c0.16,0,0.28-0.1,0.28-0.24V12.8l0.6-0.1
		c0.22-0.06,0.42-0.24,0.42-0.56V2.78c0-0.42-0.28-0.7-0.76-0.76C11.08,1.82,9.62,1.72,8.02,1.72z M12.16,9.7
		c-1.14,0.2-2.64,0.4-4.1,0.4c-1.54,0-3-0.18-4.16-0.44C3.58,9.6,3.46,9.48,3.46,9.22V3.38c0-0.26,0.12-0.44,0.44-0.44l8.26,0.04
		c0.32,0,0.42,0.18,0.42,0.44v5.84C12.58,9.52,12.48,9.66,12.16,9.7z M3.78,11.3c0.02-0.26,0.26-0.5,0.54-0.5
		c0.28,0,0.52,0.24,0.52,0.5c0,0.3-0.24,0.54-0.52,0.54C4.02,11.82,3.78,11.58,3.78,11.3z M11.1,11.3c0.02-0.26,0.26-0.5,0.52-0.5
		c0.28,0,0.52,0.24,0.52,0.5c0,0.3-0.24,0.54-0.52,0.54C11.34,11.82,11.1,11.58,11.1,11.3z"/>
</g>
</svg>
