<?xml version="1.0" encoding="UTF-8" standalone="no"?>
<!-- Generator: Adobe Illustrator 19.2.0, SVG Export Plug-In . SVG Version: 6.00 Build 0)  -->

<svg
   xmlns:dc="http://purl.org/dc/elements/1.1/"
   xmlns:cc="http://creativecommons.org/ns#"
   xmlns:rdf="http://www.w3.org/1999/02/22-rdf-syntax-ns#"
   xmlns:svg="http://www.w3.org/2000/svg"
   xmlns="http://www.w3.org/2000/svg"
   xmlns:sodipodi="http://sodipodi.sourceforge.net/DTD/sodipodi-0.dtd"
   xmlns:inkscape="http://www.inkscape.org/namespaces/inkscape"
   version="1.1"
   id="Layer_1"
   x="0px"
   y="0px"
   viewBox="0 0 32 32"
   enable-background="new 0 0 16 16"
   xml:space="preserve"
   sodipodi:docname="icon-bus-station.svg"
   width="32"
   height="32"
   inkscape:version="0.92.2 5c3e80d, 2017-08-06"><metadata
     id="metadata293"><rdf:RDF><cc:Work
         rdf:about=""><dc:format>image/svg+xml</dc:format><dc:type
           rdf:resource="http://purl.org/dc/dcmitype/StillImage" /><dc:title></dc:title></cc:Work></rdf:RDF></metadata><defs
     id="defs291" /><sodipodi:namedview
     pagecolor="#ffffff"
     bordercolor="#666666"
     borderopacity="1"
     objecttolerance="10"
     gridtolerance="10"
     guidetolerance="10"
     inkscape:pageopacity="0"
     inkscape:pageshadow="2"
     inkscape:window-width="1801"
     inkscape:window-height="996"
     id="namedview289"
     showgrid="false"
     inkscape:zoom="20.09"
     inkscape:cx="14.967341"
     inkscape:cy="17.953344"
     inkscape:window-x="47"
     inkscape:window-y="20"
     inkscape:window-maximized="0"
     inkscape:current-layer="Layer_1" /><path
     d="M 27.326004,31.04 H 4.924 c -2.12,0 -3.84,-1.72 -3.84,-3.84 V 4.798 c 0,-2.12 1.72,-3.84 3.84,-3.84 h 22.402004 c 2.12,0 3.84,1.72 3.84,3.84 V 27.2 c 0,2.12 -1.72,3.84 -3.84,3.84 z"
     id="path282"
     inkscape:connector-curvature="0"
     style="fill:#ffffff;stroke-width:2" /><g
     id="g286"
     transform="scale(2)"><path
       d="M 0,1.98 C 0,0.9 0.9,0 1.98,0 h 12 C 15.1,0 16,0.9 16,1.98 v 12 C 16,15.1 15.1,16 13.98,16 h -12 C 0.9,16 0,15.1 0,13.98 Z M 8.02,1.72 C 6.36,1.72 4.92,1.8 3.34,2.02 2.86,2.08 2.58,2.36 2.58,2.78 v 9.36 c 0,0.3 0.22,0.5 0.42,0.56 l 0.6,0.1 v 1.26 c 0,0.14 0.12,0.24 0.28,0.24 h 0.96 c 0.12,0 0.24,-0.1 0.24,-0.24 v -1.12 c 0.78,0.1 1.84,0.14 2.9,0.14 1.08,0 2.18,-0.04 2.94,-0.14 v 1.12 c 0,0.14 0.14,0.24 0.26,0.24 h 0.96 c 0.16,0 0.28,-0.1 0.28,-0.24 V 12.8 l 0.6,-0.1 c 0.22,-0.06 0.42,-0.24 0.42,-0.56 V 2.78 c 0,-0.42 -0.28,-0.7 -0.76,-0.76 -1.6,-0.2 -3.06,-0.3 -4.66,-0.3 z M 12.16,9.7 C 11.02,9.9 9.52,10.1 8.06,10.1 6.52,10.1 5.06,9.92 3.9,9.66 3.58,9.6 3.46,9.48 3.46,9.22 V 3.38 C 3.46,3.12 3.58,2.94 3.9,2.94 l 8.26,0.04 c 0.32,0 0.42,0.18 0.42,0.44 v 5.84 c 0,0.26 -0.1,0.4 -0.42,0.44 z m -8.38,1.6 c 0.02,-0.26 0.26,-0.5 0.54,-0.5 0.28,0 0.52,0.24 0.52,0.5 0,0.3 -0.24,0.54 -0.52,0.54 C 4.02,11.82 3.78,11.58 3.78,11.3 Z m 7.32,0 c 0.02,-0.26 0.26,-0.5 0.52,-0.5 0.28,0 0.52,0.24 0.52,0.5 0,0.3 -0.24,0.54 -0.52,0.54 C 11.34,11.82 11.1,11.58 11.1,11.3 Z"
       id="path284"
       inkscape:connector-curvature="0"
       style="fill:#007ac9" /></g></svg>