<?xml version="1.0" encoding="UTF-8"?>
<svg width="36px" height="36px" viewBox="0 0 36 36" version="1.1" xmlns="http://www.w3.org/2000/svg" xmlns:xlink="http://www.w3.org/1999/xlink">
    <!-- Generator: Sketch 51.3 (57544) - http://www.bohemiancoding.com/sketch -->
    <title>citybike_border copy 2</title>
    <desc>Created with Sketch.</desc>
    <defs></defs>
    <g id="Page-1" stroke="none" stroke-width="1" fill="none" fill-rule="evenodd">
        <g id="citybike_border-copy-2" transform="translate(2.000000, 2.000000)" fill-rule="nonzero">
            <path d="M-0.75,3.95968 C-0.75,1.38566776 1.38590509,-0.75 3.95968,-0.75 L27.96032,-0.75 C30.5997362,-0.75 32.75,1.37080494 32.75,3.95968 L32.75,27.95968 C32.75,30.6139795 30.6144476,32.75 27.96032,32.75 L3.95968,32.75 C1.37132621,32.75 -0.75,30.5989752 -0.75,27.95968 L-0.75,3.95968 Z" id="Fill-1" stroke="#FFFFFF" stroke-width="1.5" fill="#FBB800"></path>
            <path d="M12.863168,14.82848 L14.219328,18.35936 L10.232128,18.74336 L12.863168,14.82848 Z M20.609088,14.59424 L21.674048,17.37376 C22.099648,18.49952 22.799168,19.57472 23.324608,20.17504 C23.875008,20.82528 24.650048,20.15008 24.175168,19.54976 C23.649728,18.89952 23.074368,17.92416 22.674368,16.89888 L20.742848,11.7968 L22.296128,11.7968 L23.146048,13.94784 C23.271488,14.248 23.446848,14.3728 23.721408,14.3728 L25.796928,14.3728 C26.097728,14.3728 26.297408,14.22304 26.372288,13.9728 L27.423168,10.92192 C27.672768,10.22112 26.822848,9.9216 26.547648,10.52128 C25.722048,12.3472 24.022208,12.09696 23.396928,11.37184 C23.146048,11.07168 22.971328,10.92192 22.646208,10.92192 L20.411328,10.92192 L20.404928,10.904 C20.410048,10.89568 20.415808,10.88736 20.420928,10.87904 C20.888128,10.16672 21.019328,9.92416 21.130048,9.38272 C21.238848,8.85408 21.130688,8.36064 20.823488,7.9888 C20.491968,7.58816 20.000448,7.336 19.400128,7.34816 C18.564928,7.3616 17.921728,8.0304 17.850688,8.10784 C17.647808,8.32608 17.660608,8.66848 17.880128,8.87264 C18.100928,9.07488 18.427328,9.05312 18.646208,8.84384 C18.770368,8.72352 19.099328,8.41632 19.416128,8.41184 C19.686208,8.40416 19.832768,8.52128 19.916608,8.60896 C20.042688,8.74144 20.123968,8.99168 20.062528,9.22848 C20.017728,9.40128 19.966528,9.56512 19.607488,10.13984 L19.606208,10.13856 C19.314368,10.48928 19.169728,10.81504 19.294528,11.16512 L20.193088,13.50944 C18.504128,14.6416 17.249728,16.28576 16.774848,18.40928 C16.439488,18.23008 16.065728,18.17632 15.622208,18.22432 L15.351488,18.25056 L12.411968,10.58528 C12.688448,10.50976 13.006528,10.44576 13.396288,10.42144 L13.721408,10.39648 C14.046528,10.37152 14.296128,10.17184 14.296128,9.87104 C14.296128,9.57152 14.071488,9.32128 13.671488,9.32128 L12.070848,9.32128 C10.895168,9.32128 10.694848,9.30272 10.020288,9.30272 C9.619648,9.30272 9.370048,9.44608 9.370048,9.74624 C9.370048,10.37152 10.195008,10.94688 10.970048,10.94688 C11.103168,10.94688 11.229248,10.93024 11.355968,10.904 L12.388928,13.59456 L11.345728,15.14848 C10.294848,14.3728 9.044928,13.94784 7.769408,13.94784 C6.291648,13.94784 4.908608,14.48672 3.914048,15.31552 C3.881408,15.34304 3.672128,15.5408 3.642048,15.57088 C3.352128,15.8608 3.444928,16.3792 3.849408,16.45152 C3.887168,16.45792 4.092608,16.51552 4.129728,16.52448 C5.665728,16.89504 7.122368,17.83776 8.283328,19.0864 C7.965248,19.29824 7.769408,19.63808 7.769408,19.99968 C7.769408,20.64992 8.194368,21.10048 8.919488,21.17536 L15.446848,21.87552 C16.672448,22.00096 17.672768,21.47552 17.772608,19.97536 L17.797568,19.62464 C17.916608,17.68992 18.927808,15.8256 20.609088,14.59424 Z" id="Fill-4" fill="#333333"></path>
            <path d="M8.769408,23.551232 C6.768768,23.551232 5.143168,21.950592 5.143168,19.949952 C5.143168,19.324672 5.318528,18.699392 5.693568,18.099072 C5.393408,17.898752 5.018368,17.724032 4.692608,17.598592 C4.267648,18.299392 4.042368,19.149952 4.042368,19.949952 C4.042368,22.550912 6.169088,24.651392 8.769408,24.651392 C10.444928,24.651392 11.945728,23.776512 12.770688,22.425472 L11.445248,22.275712 C10.845568,23.075712 9.869568,23.551232 8.769408,23.551232" id="Fill-6" fill="#333333"></path>
            <path d="M23.825024,15.248128 C23.524864,15.248128 23.249664,15.273088 22.999424,15.323008 L23.399424,16.373248 C23.524864,16.348288 23.674624,16.348288 23.825024,16.348288 C25.800064,16.348288 27.425664,17.973888 27.425664,19.950208 C27.425664,21.950848 25.800064,23.551488 23.825024,23.551488 C21.824384,23.551488 20.223744,21.950848 20.223744,19.950208 C20.223744,19.124608 20.498944,18.374528 20.948864,17.774208 L20.498944,16.598528 C19.648384,17.449088 19.097984,18.649088 19.097984,19.950208 C19.097984,22.550528 21.224064,24.651648 23.825024,24.651648 C26.425344,24.651648 28.526464,22.550528 28.526464,19.950208 C28.526464,17.348608 26.425344,15.248128 23.825024,15.248128" id="Fill-8" fill="#333333"></path>
        </g>
    </g>
</svg>