<?xml version="1.0" encoding="UTF-8"?>
<svg xmlns="http://www.w3.org/2000/svg" xmlns:xlink="http://www.w3.org/1999/xlink" width="16px" height="16px" viewBox="0 0 16 16" version="1.1">
<g id="surface1">
<path style=" stroke:none;fill-rule:nonzero;fill:#007AC9;fill-opacity:1;" d="M 0 14 C 0 15.101562 0.898438 16 2 16 L 14 16 C 15.101562 16 16 15.101562 16 14 L 16 2 C 16 0.898438 15.101562 0 14 0 L 2 0 C 0.898438 0 0 0.898438 0 2 Z M 0 14 "/>
<path style=" stroke:none;fill-rule:nonzero;fill:rgb(100%,100%,100%);fill-opacity:1;" d="M 3.566406 12.699219 L 6.765625 5.472656 C 6.988281 4.972656 7.398438 4.671875 7.949219 4.671875 L 8.066406 4.671875 C 8.617188 4.671875 9.011719 4.972656 9.234375 5.472656 L 12.433594 12.699219 C 12.5 12.84375 12.539062 12.976562 12.539062 13.109375 C 12.539062 13.644531 12.121094 14.078125 11.582031 14.078125 C 11.109375 14.078125 10.792969 13.804688 10.609375 13.382812 L 9.996094 11.941406 L 5.953125 11.941406 L 5.308594 13.449219 C 5.140625 13.84375 4.796875 14.078125 4.378906 14.078125 C 3.855469 14.078125 3.449219 13.660156 3.449219 13.132812 C 3.449219 12.988281 3.5 12.84375 3.566406 12.699219 Z M 9.246094 10.15625 L 7.972656 7.125 L 6.699219 10.15625 Z M 7.417969 2.734375 L 7.417969 2.855469 C 7.417969 3.472656 6.921875 3.898438 6.304688 3.898438 C 5.671875 3.898438 5.175781 3.472656 5.175781 2.855469 L 5.175781 2.734375 C 5.175781 2.117188 5.671875 1.671875 6.304688 1.671875 C 6.921875 1.671875 7.417969 2.117188 7.417969 2.734375 Z M 10.824219 2.734375 L 10.824219 2.855469 C 10.824219 3.472656 10.328125 3.898438 9.710938 3.898438 C 9.078125 3.898438 8.582031 3.472656 8.582031 2.855469 L 8.582031 2.734375 C 8.582031 2.117188 9.078125 1.671875 9.710938 1.671875 C 10.328125 1.671875 10.824219 2.117188 10.824219 2.734375 Z M 10.824219 2.734375 "/>
</g>
</svg>
