<?xml version="1.0" encoding="UTF-8"?>
<svg width="20px" height="20px" viewBox="0 0 20 20" version="1.1" xmlns="http://www.w3.org/2000/svg" xmlns:xlink="http://www.w3.org/1999/xlink">
    <title>icon-metro-20</title>
    <g id="Page-1" stroke="none" stroke-width="1" fill="none" fill-rule="evenodd">
        <g id="icons" transform="translate(-126.000000, -168.000000)">
            <g id="icon-subway" transform="translate(126.000000, 168.000000)">
                <g id="icon_subway">
                    <g id="Group-3" fill="#FF6319">
                        <path d="M-7.04225352e-06,2.50804225 C-7.04225352e-06,1.16057746 1.12288028,0.0376901408 2.47034507,0.0376901408 L17.4420352,0.0376901408 C18.8395,0.0376901408 19.9623169,1.16057746 19.9623169,2.50804225 L19.9623169,17.4798028 C19.9623169,18.8771268 18.8395,20.0000141 17.4420352,20.0000141 L2.47034507,20.0000141 C1.12288028,20.0000141 -7.04225352e-06,18.8771268 -7.04225352e-06,17.4798028 L-7.04225352e-06,2.50804225 Z" id="Fill-1"></path>
                    </g>
                    <path d="M14.3841545,7.58866404 L14.3841545,7.16867582 C14.3841545,7.14392141 14.4344265,7.11923673 14.4846275,7.11923673 L14.4846275,17.2 L17.6,17.2 L17.6,2.4 L13.0023492,2.4 L10.1130233,12.5055177 L10.0628222,13.1973163 L9.98744974,13.1973163 L9.91207725,12.5055177 L7.02282222,2.4 L2.4,2.4 L2.4,17.2 L5.56564445,17.2 L5.56564445,7.11923673 C5.59074497,7.11923673 5.64094603,7.14392141 5.64094603,7.16867582 L5.64094603,7.58866404 L8.45489947,17.2 L11.5451714,17.2 L14.3841545,7.58866404 Z" id="Fill-4" fill="#FFFFFF"></path>
                </g>
            </g>
        </g>
    </g>
</svg>