<?xml version="1.0" encoding="utf-8"?>
<!-- Generator: Adobe Illustrator 19.2.0, SVG Export Plug-In . SVG Version: 6.00 Build 0)  -->
<!DOCTYPE svg PUBLIC "-//W3C//DTD SVG 1.1//EN" "http://www.w3.org/Graphics/SVG/1.1/DTD/svg11.dtd">
<svg version="1.1" id="Layer_1" xmlns="http://www.w3.org/2000/svg" xmlns:xlink="http://www.w3.org/1999/xlink" x="0px" y="0px"
	 viewBox="0 0 16 16" enable-background="new 0 0 16 16" xml:space="preserve">
<path fill="#666666" d="M13,16H3c-1.657,0-3-1.343-3-3L0,3c0-1.657,1.343-3,3-3l10,0c1.657,0,3,1.343,3,3v10
	C16,14.657,14.657,16,13,16z"/>
<g transform="translate(0,-952.36216)">
	<path fill="#FFFFFF" d="M4.41,956.859c-0.809,0.826-1.301,1.91-1.401,3.069c0.267,0.05,0.584,0.042,0.951-0.034
		c0.692-0.167,1.518-0.6,2.252-1.276c0.734-0.676,1.234-1.451,1.443-2.135c0.142-0.442,0.158-0.826,0.075-1.126
		C6.478,955.425,5.294,955.958,4.41,956.859L4.41,956.859z M3,960.646c0.142,2.385,1.935,4.337,4.295,4.671
		c0.017-0.309,0.075-0.634,0.175-0.959c0.292-0.942,0.934-1.935,1.86-2.786c0.926-0.851,1.96-1.409,2.927-1.626
		c0.242-0.058,0.484-0.083,0.726-0.092c-0.25-2.385-2.135-4.262-4.52-4.487c0.067,0.417,0.017,0.876-0.125,1.326
		c-0.267,0.834-0.834,1.701-1.643,2.452c-0.817,0.751-1.726,1.251-2.577,1.443C3.734,960.671,3.35,960.696,3,960.646L3,960.646z
		 M9.656,962.239c-0.759,0.742-1.276,1.585-1.51,2.327c-0.083,0.292-0.133,0.559-0.142,0.801c2.627-0.008,4.804-2.027,4.996-4.646
		c0-0.05,0-0.108,0-0.158c-0.183,0.008-0.384,0.033-0.592,0.075c-0.809,0.183-1.751,0.684-2.594,1.46
		C9.756,962.147,9.706,962.197,9.656,962.239z"/>
</g>
</svg>
