<?xml version="1.0" encoding="UTF-8"?>
<svg width="20px" height="20px" viewBox="0 0 20 20" version="1.1" xmlns="http://www.w3.org/2000/svg" xmlns:xlink="http://www.w3.org/1999/xlink">
    <title>icon-ship_terminal-20</title>
    <defs>
        <polygon id="path-1" points="0 0.038028169 19.9619718 0.038028169 19.9619718 20 0 20"></polygon>
    </defs>
    <g id="Page-1" stroke="none" stroke-width="1" fill="none" fill-rule="evenodd">
        <g id="icons" transform="translate(-225.000000, -168.000000)">
            <g id="icon-shipterminal" transform="translate(225.000000, 168.000000)">
                <g id="Laivaterminaali" transform="translate(0.000000, -0.000000)">
                    <g id="Group-3" transform="translate(0.000000, 0.032394)">
                        <mask id="mask-2" fill="white">
                            <use xlink:href="#path-1"></use>
                        </mask>
                        <g id="Clip-2"></g>
                        <path d="M0,17.4674733 C0,18.8424579 1.12500661,19.9675351 2.50006174,19.9675351 L17.4999383,19.9675351 C18.8749934,19.9675351 20,18.8424579 20,17.4674733 L20,2.46752626 C20,1.09254169 18.8749934,-0.0323943662 17.4999383,-0.0323943662 L2.50006174,-0.0323943662 C1.12500661,-0.0323943662 0,1.09254169 0,2.46752626 L0,17.4674733 Z" id="Fill-1" fill="#007AC9" mask="url(#mask-2)"></path>
                    </g>
                    <path d="M12.5606408,11.2622746 C12.2895141,11.2622746 12.0697254,11.0424859 12.0697254,10.7715704 C12.0697254,10.5003732 12.2895141,10.2807254 12.5606408,10.2807254 C12.8315563,10.2807254 13.0513451,10.5003732 13.0513451,10.7715704 C13.0513451,11.0424859 12.8315563,11.2622746 12.5606408,11.2622746 M11.430993,9.21319014 C11.430993,8.94206338 11.6509225,8.72234507 11.9219789,8.72234507 C12.1929648,8.72234507 12.4127535,8.94206338 12.4127535,9.21319014 C12.4127535,9.48417606 12.1929648,9.70389437 11.9219789,9.70389437 C11.6509225,9.70389437 11.430993,9.48417606 11.430993,9.21319014 M11.2717676,11.2622746 C11.0007817,11.2622746 10.780993,11.0424859 10.780993,10.7715704 C10.780993,10.5003732 11.0007817,10.2807254 11.2717676,10.2807254 C11.5428239,10.2807254 11.7626127,10.5003732 11.7626127,10.7715704 C11.7626127,11.0424859 11.5428239,11.2622746 11.2717676,11.2622746 M10.1422606,9.21319014 C10.1422606,8.94206338 10.3621197,8.72234507 10.6332465,8.72234507 C10.9042324,8.72234507 11.1240211,8.94206338 11.1240211,9.21319014 C11.1240211,9.48417606 10.9042324,9.70389437 10.6332465,9.70389437 C10.3621197,9.70389437 10.1422606,9.48417606 10.1422606,9.21319014 M9.98303521,11.2622746 C9.71197887,11.2622746 9.4920493,11.0424859 9.4920493,10.7715704 C9.4920493,10.5003732 9.71197887,10.2807254 9.98303521,10.2807254 C10.2540211,10.2807254 10.4738803,10.5003732 10.4738803,10.7715704 C10.4738803,11.0424859 10.2540211,11.2622746 9.98303521,11.2622746 M8.85352817,9.21319014 C8.85352817,8.94206338 9.07338732,8.72234507 9.34444366,8.72234507 C9.61535915,8.72234507 9.83521831,8.94206338 9.83521831,9.21319014 C9.83521831,9.48417606 9.61535915,9.70389437 9.34444366,9.70389437 C9.07338732,9.70389437 8.85352817,9.48417606 8.85352817,9.21319014 M8.69430282,11.2622746 C8.42317606,11.2622746 8.20359859,11.0424859 8.20359859,10.7715704 C8.20359859,10.5003732 8.42317606,10.2807254 8.69430282,10.2807254 C8.96528873,10.2807254 9.18507746,10.5003732 9.18507746,10.7715704 C9.18507746,11.0424859 8.96528873,11.2622746 8.69430282,11.2622746 M7.56479577,9.21319014 C7.56479577,8.94206338 7.78458451,8.72234507 8.05564085,8.72234507 C8.32662676,8.72234507 8.54641549,8.94206338 8.54641549,9.21319014 C8.54641549,9.48417606 8.32662676,9.70389437 8.05564085,9.70389437 C7.78458451,9.70389437 7.56479577,9.48417606 7.56479577,9.21319014 M7.4055,11.2622746 C7.13451408,11.2622746 6.91472535,11.0424859 6.91472535,10.7715704 C6.91472535,10.5003732 7.13451408,10.2807254 7.4055,10.2807254 C7.67662676,10.2807254 7.89627465,10.5003732 7.89627465,10.7715704 C7.89627465,11.0424859 7.67662676,11.2622746 7.4055,11.2622746 M6.27606338,9.21319014 C6.27606338,8.94206338 6.49578169,8.72234507 6.76683803,8.72234507 C7.03789437,8.72234507 7.25761268,8.94206338 7.25761268,9.21319014 C7.25761268,9.48417606 7.03789437,9.70389437 6.76683803,9.70389437 C6.49578169,9.70389437 6.27606338,9.48417606 6.27606338,9.21319014 M6.11683803,11.2622746 C5.84571127,11.2622746 5.6261338,11.0424859 5.6261338,10.7715704 C5.6261338,10.5003732 5.84571127,10.2807254 6.11683803,10.2807254 C6.38789437,10.2807254 6.60754225,10.5003732 6.60754225,10.7715704 C6.60754225,11.0424859 6.38789437,11.2622746 6.11683803,11.2622746 M4.98733099,9.21319014 C4.98733099,8.94206338 5.2070493,8.72234507 5.47817606,8.72234507 C5.74909155,8.72234507 5.96888028,8.94206338 5.96888028,9.21319014 C5.96888028,9.48417606 5.74909155,9.70389437 5.47817606,9.70389437 C5.2070493,9.70389437 4.98733099,9.48417606 4.98733099,9.21319014 M4.82796479,11.2622746 C4.55697887,11.2622746 4.3370493,11.0424859 4.3370493,10.7715704 C4.3370493,10.5003732 4.55697887,10.2807254 4.82796479,10.2807254 C5.09909155,10.2807254 5.31888028,10.5003732 5.31888028,10.7715704 C5.31888028,11.0424859 5.09909155,11.2622746 4.82796479,11.2622746 M3.69852817,9.21319014 C3.69852817,8.94206338 3.91838732,8.72234507 4.18937324,8.72234507 C4.46042958,8.72234507 4.68007746,8.94206338 4.68007746,9.21319014 C4.68007746,9.48417606 4.46042958,9.70389437 4.18937324,9.70389437 C3.91838732,9.70389437 3.69852817,9.48417606 3.69852817,9.21319014 M3.53930282,11.2622746 C3.26824648,11.2622746 3.0483169,11.0424859 3.0483169,10.7715704 C3.0483169,10.5003732 3.26824648,10.2807254 3.53930282,10.2807254 C3.81035915,10.2807254 4.03014789,10.5003732 4.03014789,10.7715704 C4.03014789,11.0424859 3.81035915,11.2622746 3.53930282,11.2622746 M3.53930282,7.16403521 C3.81035915,7.16403521 4.03014789,7.38361268 4.03014789,7.65473944 C4.03014789,7.92579577 3.81035915,8.14544366 3.53930282,8.14544366 C3.26824648,8.14544366 3.0483169,7.92579577 3.0483169,7.65473944 C3.0483169,7.38361268 3.26824648,7.16403521 3.53930282,7.16403521 M4.82796479,7.16403521 C5.09909155,7.16403521 5.31888028,7.38361268 5.31888028,7.65473944 C5.31888028,7.92579577 5.09909155,8.14544366 4.82796479,8.14544366 C4.55697887,8.14544366 4.3370493,7.92579577 4.3370493,7.65473944 C4.3370493,7.38361268 4.55697887,7.16403521 4.82796479,7.16403521 M6.11683803,7.16403521 C6.38789437,7.16403521 6.60754225,7.38361268 6.60754225,7.65473944 C6.60754225,7.92579577 6.38789437,8.14544366 6.11683803,8.14544366 C5.84571127,8.14544366 5.6261338,7.92579577 5.6261338,7.65473944 C5.6261338,7.38361268 5.84571127,7.16403521 6.11683803,7.16403521 M7.4055,7.16403521 C7.67662676,7.16403521 7.89627465,7.38361268 7.89627465,7.65473944 C7.89627465,7.92579577 7.67662676,8.14544366 7.4055,8.14544366 C7.13451408,8.14544366 6.91472535,7.92579577 6.91472535,7.65473944 C6.91472535,7.38361268 7.13451408,7.16403521 7.4055,7.16403521 M8.69430282,7.16403521 C8.96528873,7.16403521 9.18507746,7.38361268 9.18507746,7.65473944 C9.18507746,7.92579577 8.96528873,8.14544366 8.69430282,8.14544366 C8.42317606,8.14544366 8.20359859,7.92579577 8.20359859,7.65473944 C8.20359859,7.38361268 8.42317606,7.16403521 8.69430282,7.16403521 M9.98303521,7.16403521 C10.2540211,7.16403521 10.4738803,7.38361268 10.4738803,7.65473944 C10.4738803,7.92579577 10.2540211,8.14544366 9.98303521,8.14544366 C9.71197887,8.14544366 9.4920493,7.92579577 9.4920493,7.65473944 C9.4920493,7.38361268 9.71197887,7.16403521 9.98303521,7.16403521 M11.2717676,7.16403521 C11.5428239,7.16403521 11.7626127,7.38361268 11.7626127,7.65473944 C11.7626127,7.92579577 11.5428239,8.14544366 11.2717676,8.14544366 C11.0007817,8.14544366 10.780993,7.92579577 10.780993,7.65473944 C10.780993,7.38361268 11.0007817,7.16403521 11.2717676,7.16403521 M18.0862042,11.6314296 L14.4926831,11.6314296 C14.3255704,11.6314296 14.193669,11.553331 14.1138803,11.4111479 C13.9824718,11.1767113 12.1909225,6.78311972 12.1909225,6.78311972 L12.9312746,6.78311972 C13.2149366,6.78311972 13.5993732,6.39833099 13.5993732,5.92389437 C13.5993732,5.44952817 13.2149366,5.06466901 12.7402887,5.06466901 L6.88873944,5.06466901 L5.53916197,2.48720423 C5.51528873,2.44171127 5.45409155,2.40445775 5.40275352,2.40445775 L5.13226056,2.40354225 C5.08127465,2.40354225 5.05085211,2.44347183 5.06493662,2.49269718 L5.27141549,3.20699296 L4.70085211,3.20699296 C4.62338732,3.20699296 4.5605,3.2699507 4.5605,3.34769718 C4.5605,3.42537324 4.62338732,3.48826056 4.70085211,3.48826056 L5.35289437,3.48826056 L5.80866901,5.06466901 L2.49521831,5.06466901 L2.49521831,15.9607958 L14.9647254,15.9607958 C14.9647254,15.9607958 17.9862746,12.1612183 18.1748662,11.9284718 C18.3030352,11.7700915 18.2683873,11.6314296 18.0862042,11.6314296" id="Fill-4" fill="#FFFFFF"></path>
                </g>
            </g>
        </g>
    </g>
</svg>