<?xml version="1.0" encoding="UTF-8"?>
<svg width="36px" height="36px" viewBox="0 0 36 36" version="1.1" xmlns="http://www.w3.org/2000/svg" xmlns:xlink="http://www.w3.org/1999/xlink">
    <!-- Generator: Sketch 50.2 (55047) - http://www.bohemiancoding.com/sketch -->
    <title>icon-Zone-B-v2</title>
    <desc>Created with Sketch.</desc>
    <defs></defs>
    <g id="Page-1" stroke="none" stroke-width="1" fill="none" fill-rule="evenodd">
        <g id="icon-Zone-B-v2">
            <path d="M36.00048,18 C36.00048,27.9432 27.94128,36 18.00048,36 C8.05728,36 0.00048,27.9432 0.00048,18 C0.00048,8.0592 8.05728,0 18.00048,0 C27.94128,0 36.00048,8.0592 36.00048,18" id="Fill-1" fill="#007AC9"></path>
            <path d="M9.85128,8.85696 C9.85128,7.79136 10.67688,6.96816 11.74248,6.96816 L19.42248,6.96816 C21.86088,6.96816 23.78328,7.63776 25.00008,8.85696 C25.94568,9.80256 26.43288,10.95936 26.43288,12.39456 L26.43288,12.45456 C26.43288,15.01296 24.97128,16.38576 23.38728,17.20656 C25.88568,18.06336 27.62088,19.49616 27.62088,22.39056 L27.62088,22.45056 C27.62088,26.26176 24.48408,28.30416 19.72728,28.30416 L11.74248,28.30416 C10.67688,28.30416 9.85128,27.48096 9.85128,26.41296 L9.85128,8.85696 Z M18.66168,15.95856 C21.06888,15.95856 22.68648,15.01296 22.68648,13.06416 L22.68648,13.00416 C22.68648,11.32416 21.34248,10.28976 18.93528,10.28976 L13.54008,10.28976 L13.54008,15.95856 L18.66168,15.95856 Z M19.75848,24.98256 C22.31928,24.98256 23.87448,23.97456 23.87448,22.05456 L23.87448,21.99456 C23.87448,20.19696 22.44168,19.12896 19.48488,19.12896 L13.54008,19.12896 L13.54008,24.98256 L19.75848,24.98256 Z" id="Fill-4" fill="#FFFFFF"></path>
        </g>
    </g>
</svg>