<?xml version="1.0" encoding="UTF-8"?>
<svg xmlns="http://www.w3.org/2000/svg" xmlns:xlink="http://www.w3.org/1999/xlink" width="16px" height="16px" viewBox="0 0 16 16" version="1.1">
<g id="surface1">
<path style=" stroke:none;fill-rule:nonzero;fill:#007AC9;fill-opacity:1;" d="M 0 14 C 0 15.101562 0.898438 16 2 16 L 14 16 C 15.101562 16 16 15.101562 16 14 L 16 2 C 16 0.898438 15.101562 0 14 0 L 2 0 C 0.898438 0 0 0.898438 0 2 Z M 0 14 "/>
<path style=" stroke:none;fill-rule:nonzero;fill:rgb(100%,100%,100%);fill-opacity:1;" d="M 6.957031 9.34375 L 2.828125 3.675781 C 2.691406 3.472656 2.589844 3.230469 2.589844 2.941406 C 2.589844 2.375 3.050781 1.929688 3.652344 1.929688 C 4.113281 1.929688 4.421875 2.1875 4.679688 2.5625 L 8.015625 7.375 L 11.40625 2.546875 C 11.664062 2.167969 11.972656 1.914062 12.417969 1.914062 C 13.035156 1.914062 13.445312 2.375 13.445312 2.941406 C 13.445312 3.230469 13.308594 3.488281 13.152344 3.691406 L 9.0625 9.292969 L 9.0625 13.042969 C 9.0625 13.625 8.597656 14.085938 8 14.085938 C 7.417969 14.085938 6.957031 13.625 6.957031 13.042969 Z M 6.957031 9.34375 "/>
</g>
</svg>
