<?xml version="1.0" encoding="UTF-8"?>
<svg width="20px" height="27px" viewBox="0 0 20 27" version="1.1" xmlns="http://www.w3.org/2000/svg" xmlns:xlink="http://www.w3.org/1999/xlink">
    <title>icon-stop-train-medium</title>
    <g id="Page-1" stroke="none" stroke-width="1" fill="none" fill-rule="evenodd">
        <g id="icons" transform="translate(-138.000000, -148.000000)">
            <g id="stop-marker-master-alt3" transform="translate(118.000000, 128.000000)">
                <g id="stop-ball/train-alt" transform="translate(21.000000, 21.000000)" stroke-width="1">
                    <circle id="Oval" stroke="#FFFFFF" fill="#8C4799" cx="9" cy="9" r="9.5"></circle>
                    <g id="icon-train" transform="translate(2.500000, 2.500000)">
                        <g id="icon_rail">
                            <path d="M11.18,12.74 L2.08,12.74 C1.21834375,12.74 0.52,12.0416562 0.52,11.18 L0.52,2.08 C0.52,1.21834375 1.21834375,0.52 2.08,0.52 L11.18,0.52 C12.0416562,0.52 12.74,1.21834375 12.74,2.08 L12.74,11.18 C12.74,12.0416562 12.0416562,12.74 11.18,12.74 Z" id="Shape" fill="#FFFFFF" fill-rule="nonzero"></path>
                            <path d="M0,1.60885055 C0,0.731295706 0.731295706,0 1.60885055,0 L11.3586474,0 C12.2687043,0 13,0.731295706 13,1.60885055 L13,11.3586474 C13,12.2687043 12.2687043,13 11.3586474,13 L1.60885055,13 C0.731295706,13 0,12.2687043 0,11.3586474 L0,1.60885055 Z M9.97731108,1.6576036 C9.61978874,1.33258329 8.07594225,0.958809926 6.5,0.958809926 C4.97240453,0.958809926 3.39646228,1.33258329 3.05519095,1.6576036 C2.81142571,1.8688668 2.56766048,2.35639727 2.2751422,2.97393587 C2.03137696,3.51021939 1.83636477,4.01400088 1.83636477,4.30651916 L1.83636477,9.00265642 C1.83636477,9.37642978 1.9663729,9.53893993 2.47015438,9.92896431 C2.84392775,10.2214826 3.0064379,10.3514907 3.57522345,10.3514907 L4.64779049,10.3514907 L4.64779049,11.0502844 L8.40136884,11.0502844 L8.40136884,10.3514907 L9.45768486,10.3514907 C10.0264704,10.3514907 10.1889806,10.2214826 10.5465029,9.92896431 C11.0502844,9.52268892 11.1640415,9.37642978 11.1640415,9.00265642 L11.1640415,4.30651916 C11.1640415,4.01400088 10.9690293,3.51021939 10.7415151,2.97393587 C10.4489968,2.35639727 10.2214826,1.8688668 9.97771736,1.6576036 L9.97731108,1.6576036 Z M9.53853366,11.5374086 L9.53853366,10.8548659 L8.93724608,10.8548659 L8.93724608,11.5374086 L4.09484968,11.5374086 L4.09484968,10.8548659 L3.47731108,10.8548659 L3.47731108,11.5374086 L2.72976436,11.5374086 C2.55100319,11.5374086 2.40474405,11.6836677 2.40474405,11.8461779 C2.40474405,12.0249391 2.55100319,12.1711982 2.72976436,12.1711982 L10.3019251,12.1711982 C10.4806863,12.1711982 10.6106944,12.0249391 10.6106944,11.8461779 C10.6106944,11.6836677 10.4806863,11.5374086 10.3019251,11.5374086 L9.53812738,11.5374086 L9.53853366,11.5374086 Z M9.19726233,7.39380586 C9.14850928,7.67007313 8.87224202,7.88133633 8.59597475,7.88133633 L4.43612101,7.88133633 C4.15985374,7.88133633 3.88358647,7.67007313 3.83483343,7.39380586 L3.07103569,4.16026002 C3.02228264,3.88399275 3.20104382,3.67272955 3.47731108,3.67272955 L9.53853366,3.67272955 C9.81480093,3.67272955 10.0098131,3.88399275 9.94480905,4.16026002 L9.19726233,7.39380586 Z M8.96974811,2.22638915 L8.96974811,2.50265642 C8.96974811,2.71391962 8.80723795,2.89268079 8.59597475,2.89268079 L4.43612101,2.89268079 C4.2248578,2.89268079 4.04609663,2.71391962 4.04609663,2.50265642 L4.04609663,2.22638915 L8.96974811,2.22638915 L8.96974811,2.22638915 Z M4.04609663,9.08391149 C4.04609663,8.85639727 4.20860679,8.6776361 4.43612101,8.6776361 C4.66363523,8.6776361 4.85864742,8.85639727 4.85864742,9.08391149 C4.85864742,9.31142571 4.66363523,9.47393587 4.43612101,9.47393587 C4.20860679,9.47393587 4.04609663,9.31142571 4.04609663,9.08391149 Z M8.18969936,9.03515845 C8.18969936,8.80764423 8.36846053,8.62888306 8.59597475,8.62888306 C8.82348897,8.62888306 9.00225014,8.80764423 9.00225014,9.03515845 C9.00225014,9.26267267 8.82348897,9.42518282 8.59597475,9.42518282 C8.36846053,9.42518282 8.18969936,9.26267267 8.18969936,9.03515845 Z" id="Shape" fill="#8C4799" fill-rule="nonzero"></path>
                        </g>
                    </g>
                </g>
                <path d="M29,39 L31,39 L31,46 C31,46.5522847 30.5522847,47 30,47 C29.4477153,47 29,46.5522847 29,46 L29,39 L29,39 Z" id="Rectangle" fill="#333333"></path>
            </g>
        </g>
    </g>
</svg>