<?xml version="1.0" encoding="UTF-8"?>
<svg width="32px" height="32px" viewBox="0 0 32 32" version="1.1" xmlns="http://www.w3.org/2000/svg" xmlns:xlink="http://www.w3.org/1999/xlink">
    <!-- Generator: Sketch 51.3 (57544) - http://www.bohemiancoding.com/sketch -->
    <title>icon-citybike-station-samocat</title>
    <desc>Created with Sketch.</desc>
    <defs></defs>
    <g id="Page-1" stroke="none" stroke-width="1" fill="none" fill-rule="evenodd">
        <g id="icon-citybike-station-samocat" fill-rule="nonzero">
            <path d="M0,27.943662 C0.00680798973,30.1460583 1.79084127,31.9295882 3.99323944,31.9357747 L27.943662,31.9357747 C30.147196,31.931442 31.9329572,30.1471916 31.9391549,27.943662 L31.9391549,3.99211268 C31.9323411,1.78883954 30.1469401,0.00494902188 27.943662,0 L3.99323944,0 C1.79084127,0.00618645813 0.00680798973,1.78971635 0,3.99211268 L0,27.943662 Z" id="Path" fill="#FBB800"></path>
            <circle id="Oval" fill="#333333" cx="23.7430986" cy="26.550986" r="1.91098591"></circle>
            <circle id="Oval" fill="#333333" cx="9.21659031" cy="26.5508002" r="1.91098591"></circle>
            <path d="M24.0822535,23.4185916 C24.1678875,23.3217458 24.2087875,23.1933198 24.1949296,23.0647887 L23.0985916,12.0473239 L24.4022535,12.0473239 C24.6470045,12.0351958 24.8392194,11.8332203 24.8392194,11.588169 C24.8392194,11.3431178 24.6470045,11.1411422 24.4022535,11.129014 L22.1859155,11.129014 C21.8661684,10.713294 21.3018746,10.5731548 20.8247887,10.790986 L18.7042253,11.7453521 L17.5560564,10.1971831 C17.0730156,9.5448112 16.309202,9.16018702 15.4974648,9.16056338 C14.3952954,9.16129547 13.4174286,9.86768391 13.0704226,10.9138028 L11.8523944,14.5780282 L15.7194366,15.8625352 L16.715493,12.8642253 L17.9707043,14.5543662 L21.7577465,12.8461972 C21.9420283,12.7627204 22.100436,12.6311679 22.216338,12.4653521 L23.2405634,22.6783099 C21.7876096,22.8706836 20.5641628,23.8592704 20.070986,25.2394366 L12.889014,25.2394366 C12.3339572,23.6876474 10.8649696,22.650927 9.21690142,22.6478873 C8.9721504,22.6600155 8.77993557,22.8619909 8.77993557,23.1070422 C8.77993557,23.3520935 8.9721504,23.5540691 9.21690142,23.5661972 C10.8622764,23.5680587 12.1958264,24.9011047 12.1983099,26.5464788 C12.1983091,26.7999349 12.4034461,27.005576 12.6569014,27.0061972 L20.3019718,27.0061972 C20.5558672,27.0061972 20.7616901,26.8003743 20.7616901,26.5464788 C20.763553,24.9012869 22.0967799,23.56806 23.7419718,23.5661972 C23.8710952,23.5669679 23.9945897,23.5133991 24.0822535,23.4185916 Z" id="Path" fill="#333333"></path>
            <circle id="Oval" fill="#333333" cx="17.0030062" cy="6.01266643" r="2.51492957"></circle>
            <polygon id="Path" fill="#333333" points="13.1166197 17.8884507 14.9802817 19.9076056 13.9560564 24.5307043 16.7053521 24.5307043 17.9560564 19.1414084 15.515493 16.4901409 11.6428169 15.2033803 11.6405634 15.209014 9.68788729 18.1295774 5.41183099 18.1295774 5.41183099 20.7222535 11.2202817 20.7222535"></polygon>
        </g>
    </g>
</svg>