<?xml version="1.0" encoding="utf-8"?>
<!-- Generator: Adobe Illustrator 19.2.1, SVG Export Plug-In . SVG Version: 6.00 Build 0)  -->
<!DOCTYPE svg PUBLIC "-//W3C//DTD SVG 1.1//EN" "http://www.w3.org/Graphics/SVG/1.1/DTD/svg11.dtd">
<svg version="1.1" id="Layer_1" xmlns="http://www.w3.org/2000/svg" xmlns:xlink="http://www.w3.org/1999/xlink" x="0px" y="0px"
	 viewBox="0 0 16 16" enable-background="new 0 0 16 16" xml:space="preserve">
<path fill="#666666" d="M13.009,16h-10c-1.657,0-3-1.343-3-3l0-10c0-1.657,1.343-3,3-3l10,0c1.657,0,3,1.343,3,3v10
	C16.009,14.657,14.666,16,13.009,16z"/>
<g>
	<rect x="7.75" y="5.5" fill="#FFFFFF" width="1" height="6"/>
	<rect x="2.75" y="5.5" fill="#FFFFFF" width="1" height="6"/>
	<rect x="12.75" y="5.5" fill="#FFFFFF" width="0.5" height="6"/>
	<rect x="5.75" y="6.5" fill="#FFFFFF" width="1" height="6"/>
	<rect x="3.75" y="6.5" fill="#FFFFFF" width="1" height="4"/>
	<rect x="8.75" y="4.5" fill="#FFFFFF" width="1" height="6"/>
	<rect x="6.75" y="4.5" fill="#FFFFFF" width="0.5" height="6"/>
	<rect x="8.75" y="3.5" fill="#FFFFFF" width="0.5" height="6"/>
	<rect x="11.75" y="2.5" fill="#FFFFFF" width="0.5" height="6"/>
	<rect x="3.75" y="3.5" fill="#FFFFFF" width="0.5" height="6"/>
	<rect x="5.25" y="4.5" fill="#FFFFFF" width="0.5" height="6"/>
	<rect x="5.75" y="5.5" fill="#FFFFFF" width="0.5" height="6"/>
	<rect x="7.25" y="6.5" fill="#FFFFFF" width="0.5" height="4"/>
	<rect x="11.75" y="4.5" fill="#FFFFFF" width="1" height="6"/>
	<rect x="10.25" y="5.5" fill="#FFFFFF" width="1" height="6"/>
	<rect x="4.75" y="5.5" fill="#FFFFFF" width="1" height="6"/>
	<rect x="3.25" y="4.5" fill="#FFFFFF" width="1" height="6"/>
	<rect x="6.25" y="7.5" fill="#FFFFFF" width="1" height="6"/>
	<rect x="9.25" y="7.5" fill="#FFFFFF" width="1" height="6"/>
	<rect x="11.25" y="3.5" fill="#FFFFFF" width="1" height="6"/>
</g>
</svg>
