<?xml version="1.0" encoding="UTF-8"?>
<svg xmlns="http://www.w3.org/2000/svg" xmlns:xlink="http://www.w3.org/1999/xlink" width="16px" height="16px" viewBox="0 0 16 16" version="1.1">
<g id="surface1">
<path style=" stroke:none;fill-rule:evenodd;fill:#007AC9;fill-opacity:1;" d="M 2.460938 0 L 13.539062 0 C 14.898438 0 16 1.101562 16 2.460938 L 16 13.539062 C 16 14.898438 14.898438 16 13.539062 16 L 2.460938 16 C 1.101562 16 0 14.898438 0 13.539062 L 0 2.460938 C 0 1.101562 1.101562 0 2.460938 0 Z M 2.460938 0 "/>
<path style=" stroke:none;fill-rule:evenodd;fill:rgb(100%,100%,100%);fill-opacity:1;" d="M 0.617188 13.519531 L 0.617188 2.4375 C 0.617188 1.933594 0.796875 1.5 1.160156 1.148438 C 1.523438 0.792969 1.953125 0.617188 2.445312 0.617188 L 13.519531 0.617188 C 14.035156 0.617188 14.476562 0.792969 14.839844 1.148438 C 15.203125 1.503906 15.382812 1.933594 15.382812 2.4375 L 15.382812 13.519531 C 15.382812 14.035156 15.203125 14.476562 14.839844 14.839844 C 14.492188 15.195312 14.015625 15.394531 13.519531 15.382812 L 2.445312 15.382812 C 1.941406 15.382812 1.507812 15.203125 1.152344 14.839844 C 0.800781 14.492188 0.605469 14.011719 0.617188 13.519531 Z M 2.644531 6.484375 L 3.589844 11.804688 C 3.617188 11.953125 3.699219 12.082031 3.839844 12.183594 C 3.980469 12.285156 4.128906 12.335938 4.285156 12.335938 L 11.714844 12.335938 C 11.875 12.335938 12.03125 12.285156 12.175781 12.179688 C 12.320312 12.074219 12.40625 11.949219 12.4375 11.804688 L 13.375 6.484375 Z M 3.328125 7.035156 L 5.140625 7.035156 L 5.304688 9.199219 L 3.679688 9.199219 Z M 3.824219 9.75 L 5.394531 9.75 L 5.566406 11.804688 L 4.285156 11.804688 C 4.261719 11.804688 4.230469 11.789062 4.195312 11.753906 C 4.167969 11.730469 4.140625 11.703125 4.125 11.667969 Z M 4.214844 6.042969 L 4.863281 6.042969 L 5.511719 3.933594 L 5.691406 3.933594 C 5.691406 4.03125 5.730469 4.113281 5.804688 4.191406 C 5.871094 4.261719 5.964844 4.304688 6.0625 4.304688 L 9.957031 4.304688 C 10.054688 4.304688 10.144531 4.265625 10.214844 4.195312 C 10.285156 4.128906 10.328125 4.03125 10.324219 3.933594 L 10.453125 3.933594 L 11.101562 6.042969 L 11.734375 6.042969 L 10.9375 3.527344 C 10.925781 3.480469 10.894531 3.4375 10.835938 3.402344 C 10.789062 3.367188 10.734375 3.351562 10.679688 3.347656 L 10.324219 3.347656 C 10.324219 3.25 10.285156 3.15625 10.214844 3.089844 C 10.148438 3.019531 10.054688 2.976562 9.957031 2.976562 L 6.0625 2.976562 C 5.964844 2.976562 5.871094 3.015625 5.804688 3.085938 C 5.730469 3.152344 5.691406 3.246094 5.691406 3.347656 L 5.304688 3.347656 C 5.242188 3.347656 5.179688 3.367188 5.128906 3.402344 C 5.078125 3.429688 5.035156 3.476562 5.007812 3.527344 Z M 5.691406 7.035156 L 7.613281 7.035156 L 7.613281 9.199219 L 5.855469 9.199219 Z M 5.953125 9.75 L 7.613281 9.75 L 7.613281 11.804688 L 6.117188 11.804688 Z M 8.164062 11.804688 L 8.164062 9.75 L 9.902344 9.75 L 9.714844 11.804688 Z M 8.164062 9.199219 L 8.164062 7.035156 L 10.144531 7.035156 L 9.976562 9.199219 Z M 10.289062 11.804688 L 10.472656 9.75 L 12.191406 9.75 L 11.875 11.667969 C 11.859375 11.699219 11.839844 11.730469 11.8125 11.753906 C 11.785156 11.789062 11.75 11.804688 11.714844 11.804688 Z M 10.535156 9.199219 L 10.714844 7.035156 L 12.671875 7.035156 L 12.335938 9.199219 Z M 10.535156 9.199219 "/>
</g>
</svg>
