<?xml version="1.0" encoding="UTF-8"?>
<svg width="36px" height="36px" viewBox="0 0 36 36" version="1.1" xmlns="http://www.w3.org/2000/svg" xmlns:xlink="http://www.w3.org/1999/xlink">
    <!-- Generator: Sketch 50.2 (55047) - http://www.bohemiancoding.com/sketch -->
    <title>icon-Zone-A-v2</title>
    <desc>Created with Sketch.</desc>
    <defs></defs>
    <g id="Page-1" stroke="none" stroke-width="1" fill="none" fill-rule="evenodd">
        <g id="icon-Zone-A-v2">
            <path d="M36.00024,18.00072 C36.00024,27.94152 27.94104,36.00072 18.00024,36.00072 C8.05704,36.00072 0.00024,27.94152 0.00024,18.00072 C0.00024,8.05752 8.05704,0.000720000001 18.00024,0.000720000001 C27.94104,0.000720000001 36.00024,8.05752 36.00024,18.00072" id="Fill-1" fill="#007AC9"></path>
            <path d="M28.32672,25.86408 L20.39952,8.18568 C20.39472,8.17128 20.38752,8.15928 20.38032,8.14488 L19.80912,6.87048 C19.13232,5.36088 16.99152,5.36088 16.31472,6.87048 L12.58992,15.17448 L12.60432,15.17448 L7.81152,25.86408 C7.66032,26.17128 7.56912,26.44488 7.56912,26.71848 C7.56912,27.69528 8.32992,28.45608 9.30672,28.45608 C10.09872,28.45608 10.73952,28.02888 11.04432,27.26808 L12.84192,23.15208 L23.20512,23.15208 L24.94272,27.14568 C25.27632,27.93768 25.88592,28.45608 26.77152,28.45608 C27.77712,28.45608 28.54032,27.66408 28.54032,26.65848 C28.54032,26.41368 28.47792,26.13768 28.32672,25.86408 Z M14.27472,19.82808 L18.02352,11.20488 L21.77472,19.82808 L14.27472,19.82808 Z" id="Fill-4" fill="#FFFFFF"></path>
        </g>
    </g>
</svg>