<?xml version="1.0" encoding="UTF-8"?>
<svg width="32px" height="32px" viewBox="0 0 32 32" version="1.1" xmlns="http://www.w3.org/2000/svg" xmlns:xlink="http://www.w3.org/1999/xlink">
    <!-- Generator: Sketch 51.3 (57544) - http://www.bohemiancoding.com/sketch -->
    <title>icon-subway-station-border</title>
    <desc>Created with Sketch.</desc>
    <defs></defs>
    <g id="Page-1" stroke="none" stroke-width="1" fill="none" fill-rule="evenodd">
        <g id="icon-subway-station-border" transform="translate(0.000000, 2.000000)" fill-rule="nonzero">
            <path d="M1.02778136,24.8910815 L1.02777778,24.8887634 L1.02778136,3.55336288 C1.03511931,1.17927327 2.95805977,-0.74332808 5.33408594,-0.75 L26.6655919,-0.749998108 C29.0404597,-0.744663095 30.9648744,1.17832701 30.9722222,3.555681 L30.9722193,24.8908726 C30.9655388,27.2663 29.0406417,29.1897722 26.6639071,29.1944444 L5.33197899,29.1944415 C2.95805975,29.1877725 1.03511931,27.2651712 1.02778136,24.8910815 Z" id="Path-Copy" stroke="#FFFFFF" stroke-width="1.5" fill="#FFFFFF"></path>
            <g id="g4110" transform="translate(0.011086, 0.017778)" fill="#FF6319">
                <path d="M1.75780273,3.51915657 C1.75780273,1.59977804 3.35758077,0 5.2769593,0 L26.6102924,0 C28.6006933,0 30.2022469,1.59977804 30.2022469,3.51915657 L30.2022469,24.8524897 C30.2022469,26.8428905 28.6024688,28.4444441 26.6102924,28.4444441 L5.2769593,28.4444441 C3.35758077,28.4444441 1.75780273,26.8446661 1.75780273,24.8524897 L1.75780273,3.51915657 Z" id="path4108"></path>
            </g>
            <g id="g4114" transform="translate(5.337761, 5.344453)" fill="#FFFFFF">
                <polygon id="path4112" points="6.56956575 0.340907196 10.7598834 12.6597308 10.809599 12.6597308 14.7744207 0.340907196 20.3194893 0.340907196 20.3194893 18.254515 16.6316547 18.254515 16.6316547 5.55927307 16.5819391 5.55927307 12.1909834 18.254515 9.15477865 18.254515 4.76204739 5.68533771 4.71233176 5.68533771 4.71233176 18.254515 1.02449715 18.254515 1.02449715 0.340907196"></polygon>
            </g>
        </g>
    </g>
</svg>