<?xml version="1.0" encoding="UTF-8"?>
<svg xmlns="http://www.w3.org/2000/svg" xmlns:xlink="http://www.w3.org/1999/xlink" width="16px" height="16px" viewBox="0 0 16 16" version="1.1">
<g id="surface1">
<path style=" stroke:none;fill-rule:nonzero;fill:rgb(0%,47.843137%,78.823531%);fill-opacity:1;" d="M 0 14 C 0 15.101562 0.898438 16 2 16 L 14 16 C 15.101562 16 16 15.101562 16 14 L 16 2 C 16 0.898438 15.101562 0 14 0 L 2 0 C 0.898438 0 0 0.898438 0 2 Z M 0 14 "/>
<path style=" stroke:none;fill-rule:nonzero;fill:rgb(100%,100%,100%);fill-opacity:1;" d="M 6.9375 3.96875 L 4.027344 3.96875 C 3.480469 3.96875 3.050781 3.523438 3.050781 2.992188 C 3.050781 2.460938 3.480469 2.015625 4.027344 2.015625 L 11.988281 2.015625 C 12.519531 2.015625 12.949219 2.460938 12.949219 2.992188 C 12.949219 3.523438 12.519531 3.96875 11.988281 3.96875 L 9.0625 3.96875 L 9.0625 13.042969 C 9.0625 13.625 8.582031 14.085938 8 14.085938 C 7.417969 14.085938 6.9375 13.625 6.9375 13.042969 Z M 6.9375 3.96875 "/>
</g>
</svg>
