<?xml version="1.0" encoding="UTF-8"?>
<svg width="24px" height="33px" viewBox="0 0 24 33" version="1.1" xmlns="http://www.w3.org/2000/svg" xmlns:xlink="http://www.w3.org/1999/xlink">
    <title>icon-stop-hsl_ferry-large</title>
    <defs>
        <polygon id="path-1" points="0 0.0296619718 15.570338 0.0296619718 15.570338 15.6 0 15.6"></polygon>
    </defs>
    <g id="Page-1" stroke="none" stroke-width="1" fill="none" fill-rule="evenodd">
        <g id="icons" transform="translate(-228.000000, -294.000000)">
            <g id="stop-marker-master-alt3" transform="translate(204.000000, 270.000000)">
                <g id="stop-ball/ferryport" transform="translate(25.200000, 25.200000)" stroke-width="1">
                    <circle id="Oval" stroke="#FFFFFF" fill="#666666" cx="10.8" cy="10.8" r="11.3"></circle>
                    <g id="icon-ferry_port" transform="translate(3.000000, 3.000000)">
                        <g id="Lauttasatama">
                            <g id="Group-3">
                                <mask id="mask-2" fill="white">
                                    <use xlink:href="#path-1"></use>
                                </mask>
                                <g id="Clip-2"></g>
                                <path d="M0,13.6498899 C0,14.7223817 0.877505159,15.599945 1.95004815,15.599945 L13.6499518,15.599945 C14.7224948,15.599945 15.6,14.7223817 15.6,13.6498899 L15.6,1.94988993 C15.6,0.877398188 14.7224948,-5.50332493e-05 13.6499518,-5.50332493e-05 L1.95004815,-5.50332493e-05 C0.877505159,-5.50332493e-05 0,0.877398188 0,1.94988993 L0,13.6498899 Z" id="Fill-1" fill="#666666" mask="url(#mask-2)"></path>
                            </g>
                            <path d="M11.1684073,7.88087648 L9.04561017,7.88087648 C8.95949935,7.88087648 8.87791488,7.81055639 8.86417027,7.72459721 L8.65546194,6.41800644 C8.64171733,6.33204726 8.70089092,6.26172718 8.78694653,6.26172718 L10.5293105,6.26172718 C10.6153661,6.26172718 10.7118544,6.32780236 10.74387,6.40873469 L11.2668276,7.73386896 C11.2987879,7.81468958 11.2545181,7.88087648 11.1684073,7.88087648 L11.1684073,7.88087648 Z M8.47634041,7.88087648 L6.83007829,7.88087648 C6.74402268,7.88087648 6.67358845,7.80966273 6.67358845,7.72253061 L6.67358845,6.42001719 C6.67358845,6.33294092 6.74402268,6.26172718 6.83007829,6.26172718 L8.21773197,6.26172718 C8.30378759,6.26172718 8.38542726,6.33204726 8.39917187,6.41800644 L8.6078802,7.72459721 C8.62162481,7.81055639 8.56245123,7.88087648 8.47634041,7.88087648 L8.47634041,7.88087648 Z M6.4233703,7.72253061 C6.4233703,7.80966273 6.35299127,7.88087648 6.26688045,7.88087648 L4.35604838,7.88087648 C4.26993757,7.88087648 4.19955853,7.80966273 4.19955853,7.72253061 L4.19955853,6.42001719 C4.19955853,6.33294092 4.26993757,6.26172718 4.35604838,6.26172718 L6.26688045,6.26172718 C6.35299127,6.26172718 6.4233703,6.33294092 6.4233703,6.42001719 L6.4233703,7.72253061 Z M3.94922998,7.72253061 C3.94922998,7.80966273 3.87879575,7.88087648 3.79279534,7.88087648 L2.71646537,7.88087648 C2.63035455,7.88087648 2.55997552,7.80966273 2.55997552,7.72253061 L2.55997552,6.42001719 C2.55997552,6.33294092 2.63035455,6.26172718 2.71646537,6.26172718 L3.79279534,6.26172718 C3.87879575,6.26172718 3.94922998,6.33294092 3.94922998,6.42001719 L3.94922998,7.72253061 Z M14.6259773,8.58888077 L12.2176897,8.58888077 C12.1792158,8.58888077 12.148801,8.5706724 12.1304749,8.53749517 C12.1001705,8.48292589 11.1137049,6.26172718 11.1137049,6.26172718 L11.2841601,6.26172718 C11.3494608,6.26172718 11.4380004,6.17202578 11.4380004,6.06143502 C11.4380004,5.95101182 11.3494608,5.86136627 11.2401663,5.86136627 L8.75134302,5.86136627 L8.15922078,4.717087 C8.14889852,4.69703545 8.12196129,4.68044683 8.0994952,4.68044683 L7.98081684,4.68 C7.95840595,4.68 7.94504773,4.6978174 7.95128525,4.71960043 L8.0419224,5.03662728 L7.79159385,5.03662728 C7.75753591,5.03662728 7.7299363,5.06466595 7.7299363,5.09912782 C7.7299363,5.13358969 7.75753591,5.16151665 7.79159385,5.16151665 L8.0776363,5.16151665 L8.27762315,5.86136627 L2.10016586,5.86136627 C1.99081617,5.86136627 1.90222139,5.95101182 1.90222139,6.06143502 C1.90222139,6.17202578 1.99081617,6.26172718 2.14415965,6.26172718 L2.16430738,6.26172718 L1.92601226,8.58888077 L1.248,8.58888077 L1.49987413,10.92 C2.09608112,10.92 2.63316972,10.6659205 3.01233329,10.2591364 C3.39160727,10.6659205 3.92875107,10.92 4.52495805,10.92 C5.12099944,10.92 5.65814324,10.6659205 6.03741721,10.2591364 C6.41658079,10.6659205 6.95372459,10.92 7.54987638,10.92 C8.14597296,10.92 8.68322716,10.6659205 9.06239074,10.2591364 C9.44166471,10.6659205 9.97875331,10.92 10.5749603,10.92 C11.1710569,10.92 11.7081455,10.6659205 12.0873643,10.2591364 C12.3155579,10.5039441 12.6013796,10.692898 12.9224184,10.8050526 C13.2869541,10.3510161 14.6089207,8.7047218 14.6463458,8.65802793 C14.6758774,8.62116434 14.6678735,8.58888077 14.6259773,8.58888077 L14.6259773,8.58888077 Z" id="Fill-4" fill="#FFFFFF"></path>
                        </g>
                    </g>
                </g>
                <path d="M34.8,46.8 L37.2,46.8 L37.2,55.2 C37.2,55.8627417 36.6627417,56.4 36,56.4 C35.3372583,56.4 34.8,55.8627417 34.8,55.2 L34.8,46.8 L34.8,46.8 Z" id="Rectangle" fill="#333333"></path>
            </g>
        </g>
    </g>
</svg>