<?xml version="1.0" encoding="utf-8"?>
<!-- Generator: Adobe Illustrator 19.2.0, SVG Export Plug-In . SVG Version: 6.00 Build 0)  -->
<!DOCTYPE svg PUBLIC "-//W3C//DTD SVG 1.1//EN" "http://www.w3.org/Graphics/SVG/1.1/DTD/svg11.dtd">
<svg version="1.1" id="Layer_1" xmlns="http://www.w3.org/2000/svg" xmlns:xlink="http://www.w3.org/1999/xlink" x="0px" y="0px"
	 viewBox="0 0 16 16" enable-background="new 0 0 16 16" xml:space="preserve">
<path fill="#666666" d="M13,16H3c-1.657,0-3-1.343-3-3L0,3c0-1.657,1.343-3,3-3l10,0c1.657,0,3,1.343,3,3v10
	C16,14.657,14.657,16,13,16z"/>
<g>
	<path fill="#FFFFFF" d="M8.351,2.355c-0.703,0-1.405,0.703-2.81,0.703c-1.405,0-2.108-0.703-2.81-0.703v0
		c-0.331,0-0.702,0.351-0.702,0.702v4.918c0,1.557,0.702,3.513,3.513,3.513c0.252,0,0.482-0.012,0.703-0.044V9.38h-2.81
		c0,0,0.351-1.405,2.108-1.405c0.351,0,0.489,0.052,0.703,0.132V6.57c0-0.644,0.257-1.182,0.703-1.405
		c0.702-0.351,0.986-0.209,1.405,0c0.702,0.351,0.702,0.351,0.702,0.351V3.057C9.054,2.706,8.682,2.355,8.351,2.355z M3.96,6.57
		c-0.485,0-0.878-0.393-0.878-0.878S3.475,4.813,3.96,4.813s0.878,0.393,0.878,0.878S4.445,6.57,3.96,6.57z"/>
	<path fill="#FFFFFF" d="M13.269,5.867c-0.702,0-1.405,0.703-2.81,0.703c-1.405,0-2.108-0.703-2.81-0.703
		c-0.331,0-0.702,0.351-0.702,0.703v4.918c0,1.557,0.702,3.513,3.513,3.513c2.81,0,3.512-1.956,3.512-3.513V6.57
		C13.971,6.218,13.6,5.867,13.269,5.867z M8,9.204c0-0.485,0.393-0.878,0.878-0.878c0.485,0,0.878,0.393,0.878,0.878
		s-0.393,0.878-0.878,0.878C8.393,10.083,8,9.689,8,9.204z M10.459,13.595c-1.757,0-2.108-1.405-2.108-1.405h4.215
		C12.567,12.19,12.215,13.595,10.459,13.595z M12.04,10.083c-0.485,0-0.878-0.393-0.878-0.878s0.393-0.878,0.878-0.878
		c0.485,0,0.878,0.393,0.878,0.878S12.525,10.083,12.04,10.083z"/>
</g>
</svg>
