<?xml version="1.0" encoding="utf-8"?>
<!-- Generator: Adobe Illustrator 19.2.1, SVG Export Plug-In . SVG Version: 6.00 Build 0)  -->
<!DOCTYPE svg PUBLIC "-//W3C//DTD SVG 1.1//EN" "http://www.w3.org/Graphics/SVG/1.1/DTD/svg11.dtd">
<svg version="1.1" id="Layer_1" xmlns="http://www.w3.org/2000/svg" xmlns:xlink="http://www.w3.org/1999/xlink" x="0px" y="0px"
	 viewBox="0 0 20 20" enable-background="new 0 0 20 20" xml:space="preserve">
<path fill="#FFFFFF" d="M15.601,17.52H4.4c-1.06,0-1.92-0.86-1.92-1.92V4.399c0-1.06,0.86-1.92,1.92-1.92h11.201
	c1.06,0,1.92,0.86,1.92,1.92V15.6C17.521,16.66,16.661,17.52,15.601,17.52z"/>
<g>
	<path fill="#8C4799" d="M0,2.475C0,1.125,1.125,0,2.475,0h15C18.875,0,20,1.125,20,2.475v15c0,1.4-1.125,2.525-2.525,2.525h-15
		C1.125,20,0,18.875,0,17.475V2.475z M15.35,2.55C14.8,2.05,12.425,1.475,10,1.475c-2.35,0-4.775,0.575-5.3,1.075
		C4.325,2.875,3.95,3.625,3.5,4.575c-0.375,0.825-0.675,1.6-0.675,2.05v7.225c0,0.575,0.2,0.825,0.975,1.425
		c0.575,0.45,0.825,0.65,1.7,0.65h1.65V17h5.775v-1.075h1.625c0.875,0,1.125-0.2,1.675-0.65c0.775-0.625,0.95-0.85,0.95-1.425V6.625
		c0-0.45-0.3-1.225-0.65-2.05C16.075,3.625,15.725,2.875,15.35,2.55z M14.675,17.75V16.7H13.75v1.05H6.3V16.7H5.35v1.05H4.2
		c-0.275,0-0.5,0.225-0.5,0.475c0,0.275,0.225,0.5,0.5,0.5h11.65c0.275,0,0.475-0.225,0.475-0.5c0-0.25-0.2-0.475-0.475-0.475
		H14.675z M14.15,11.375c-0.075,0.425-0.5,0.75-0.925,0.75h-6.4c-0.425,0-0.85-0.325-0.925-0.75L4.725,6.4
		C4.65,5.975,4.925,5.65,5.35,5.65h9.325C15.1,5.65,15.4,5.975,15.3,6.4L14.15,11.375z M13.8,3.425V3.85c0,0.325-0.25,0.6-0.575,0.6
		h-6.4c-0.325,0-0.6-0.275-0.6-0.6V3.425H13.8z M6.225,13.975c0-0.35,0.25-0.625,0.6-0.625c0.35,0,0.65,0.275,0.65,0.625
		s-0.3,0.6-0.65,0.6C6.475,14.575,6.225,14.325,6.225,13.975z M12.6,13.9c0-0.35,0.275-0.625,0.625-0.625
		c0.35,0,0.625,0.275,0.625,0.625s-0.275,0.6-0.625,0.6C12.875,14.5,12.6,14.25,12.6,13.9z"/>
</g>
</svg>
