<?xml version="1.0" encoding="utf-8"?>
<!-- Generator: Adobe Illustrator 19.2.0, SVG Export Plug-In . SVG Version: 6.00 Build 0)  -->
<!DOCTYPE svg PUBLIC "-//W3C//DTD SVG 1.1//EN" "http://www.w3.org/Graphics/SVG/1.1/DTD/svg11.dtd">
<svg version="1.1" id="Layer_1" xmlns="http://www.w3.org/2000/svg" xmlns:xlink="http://www.w3.org/1999/xlink" x="0px" y="0px"
	 viewBox="0 0 16 16" enable-background="new 0 0 16 16" xml:space="preserve">
<path fill="#666666" d="M13,16H3c-1.657,0-3-1.343-3-3L0,3c0-1.657,1.343-3,3-3l10,0c1.657,0,3,1.343,3,3v10
	C16,14.657,14.657,16,13,16z"/>
<g>
	<path fill="#FFFFFF" d="M13.883,7.499c-0.011-1.366-0.68-2.704-1.904-3.51C11.824,3.887,11.664,3.8,11.5,3.72
		c-0.024-0.015-0.05-0.027-0.078-0.036c-0.728-0.337-1.53-0.46-2.333-0.351C9.056,3.334,9.024,3.34,8.993,3.348
		c-0.066,0.01-0.131,0.017-0.197,0.031c-1.108,0.228-2.06,0.875-2.682,1.819L4.781,7.225c-0.12,0.183-0.069,0.428,0.113,0.548
		c0.183,0.12,0.428,0.07,0.548-0.113l1.065-1.619v2.65c0,0.218,0.177,0.395,0.395,0.395c0.218,0,0.395-0.177,0.395-0.395V5.016
		C7.694,4.643,8.172,4.37,8.703,4.219v5.77c0,0.218,0.177,0.395,0.395,0.395s0.395-0.177,0.395-0.395V4.089
		c0.481-0.023,0.958,0.053,1.405,0.228v5.14c0,0.218,0.177,0.395,0.395,0.395s0.395-0.177,0.395-0.395V4.756
		c1.464,1.077,1.848,3.127,0.838,4.662c-0.506,0.768-1.28,1.294-2.181,1.479c-0.901,0.185-1.82,0.009-2.588-0.496L2.727,7.091
		C2.606,7.011,2.45,7.004,2.322,7.073C2.194,7.142,2.114,7.276,2.114,7.421v6.183C2.114,13.823,2.292,14,2.51,14
		s0.395-0.177,0.395-0.395v-5.45L4.311,9.08v4.525C4.311,13.823,4.488,14,4.706,14s0.395-0.177,0.395-0.395V9.6l1.405,0.925v3.08
		C6.506,13.823,6.684,14,6.902,14s0.395-0.177,0.395-0.395v-2.56l0.026,0.017c0.428,0.282,0.894,0.479,1.379,0.591v1.951
		C8.703,13.823,8.88,14,9.098,14c0.218,0,0.395-0.177,0.395-0.395v-1.849c0.05,0.002,0.099,0.005,0.149,0.005
		c0.287,0,0.576-0.029,0.864-0.089c0.133-0.027,0.264-0.062,0.392-0.101v2.033c0,0.218,0.177,0.395,0.395,0.395
		c0.218,0,0.395-0.177,0.395-0.395v-2.366c0.553-0.303,1.031-0.731,1.405-1.257v3.624c0,0.218,0.177,0.395,0.395,0.395
		c0.218,0,0.395-0.177,0.395-0.395C13.886,13.605,13.884,7.508,13.883,7.499z M5.139,4.909C5.211,4.963,5.295,4.99,5.378,4.99
		c0.119,0,0.237-0.054,0.315-0.156c1.405-1.848,3.125-2.122,4.321-2.026c0.222,0.018,0.408-0.145,0.426-0.363
		c0.017-0.218-0.145-0.408-0.363-0.426c-1.97-0.157-3.749,0.673-5.013,2.336C4.932,4.529,4.966,4.777,5.139,4.909z"/>
</g>
</svg>
