<?xml version="1.0" encoding="utf-8"?>
<!-- Generator: Adobe Illustrator 19.2.1, SVG Export Plug-In . SVG Version: 6.00 Build 0)  -->
<!DOCTYPE svg PUBLIC "-//W3C//DTD SVG 1.1//EN" "http://www.w3.org/Graphics/SVG/1.1/DTD/svg11.dtd">
<svg version="1.1" id="Layer_1" xmlns="http://www.w3.org/2000/svg" xmlns:xlink="http://www.w3.org/1999/xlink" x="0px" y="0px"
	 viewBox="0 0 16 11" enable-background="new 0 0 16 11" xml:space="preserve">
<g>
	<path fill="#CCCCCC" d="M11.509,10.512c-0.501,0.501-1.293,0.501-1.835,0c-0.501-0.542-0.501-1.335,0-1.835l1.905-1.905H1.293
		C0.584,6.772,0,6.188,0,5.479C0,4.77,0.584,4.186,1.293,4.186h10.285L9.674,2.323c-0.501-0.501-0.501-1.335,0-1.835
		c0.542-0.501,1.335-0.501,1.835,0l4.116,4.074C15.666,4.645,16,4.979,16,5.479c0,0.501-0.334,0.834-0.375,0.918L11.509,10.512z"/>
</g>
</svg>
