<?xml version="1.0" encoding="UTF-8"?>
<svg width="21px" height="45px" viewBox="0 0 21 45" version="1.1" xmlns="http://www.w3.org/2000/svg" xmlns:xlink="http://www.w3.org/1999/xlink">
    <title>icon-stop-hybrid-medium</title>
    <g id="Page-1" stroke="none" stroke-width="1" fill="none" fill-rule="evenodd">
        <g id="icons" transform="translate(-133.000000, -190.000000)">
            <g id="hybrid-alt3" transform="translate(126.000000, 191.000000)">
                <g id="hybrid-alt3-copy-2">
                    <rect id="Rectangle" stroke="#FFFFFF" fill="#D8D8D8" x="8.43793103" y="-0.5" width="18.8758621" height="37" rx="9"></rect>
                    <path d="M16.8827586,36 L18.8689655,36 L18.8689655,43.0068966 C18.8689655,43.5553724 18.424338,44 17.8758621,44 C17.3273862,44 16.8827586,43.5553724 16.8827586,43.0068966 L16.8827586,36 L16.8827586,36 Z" id="Rectangle" fill="#333333"></path>
                    <g id="icon-bus" transform="translate(8.937931, 18.000000)">
                        <path d="M0,0 L17.8758621,0 L17.8758621,9.06206897 C17.8758621,13.998352 13.874214,18 8.93793103,18 C4.00164803,18 6.04520318e-16,13.998352 0,9.06206897 L0,0 L0,0 Z" id="Rectangle" fill="#007AC9"></path>
                        <g transform="translate(2.482759, 2.500000)" id="icon_bus">
                            <g>
                                <path d="M11.0242241,12.61 L1.98698276,12.61 C1.13126897,12.61 0.437741379,11.9116563 0.437741379,11.05 L0.437741379,1.95 C0.437741379,1.08834375 1.13126897,0.39 1.98698276,0.39 L11.0242241,0.39 C11.8799379,0.39 12.5734655,1.08834375 12.5734655,1.95 L12.5734655,11.05 C12.5734655,11.9116563 11.8799379,12.61 11.0242241,12.61 Z" id="Shape" fill="#FFFFFF" fill-rule="nonzero"></path>
                                <path d="M0.000403448276,1.6095625 C0.000403448276,0.7320625 0.726610345,0.0008125 1.59805862,0.0008125 L11.2800103,0.0008125 C12.1837345,0.0008125 12.9099414,0.7320625 12.9099414,1.6095625 L12.9099414,11.35875 C12.9099414,12.26875 12.1837345,13 11.2800103,13 L1.59805862,13 C0.726610345,13 0.000403448276,12.26875 0.000403448276,11.35875 L0.000403448276,1.6095625 Z M6.47131034,1.3983125 C5.13186207,1.3983125 3.96993103,1.4633125 2.69543793,1.6420625 C2.30812759,1.6908125 2.08219655,1.9183125 2.08219655,2.2595625 L2.08219655,9.86375 C2.08219655,10.1075 2.25971379,10.27 2.4210931,10.31875 L2.90523103,10.4 L2.90523103,11.42375 C2.90523103,11.5375 3.00205862,11.61875 3.13116207,11.61875 L3.90578276,11.61875 C4.00261034,11.61875 4.09943793,11.5375 4.09943793,11.42375 L4.09943793,10.51375 C4.72881724,10.595 5.58412759,10.6275 6.43943793,10.6275 C7.31088621,10.6275 8.19847241,10.595 8.81171379,10.51375 L8.81171379,11.42375 C8.81171379,11.5375 8.92467931,11.61875 9.0215069,11.61875 L9.79612759,11.61875 C9.92523103,11.61875 10.0220586,11.5375 10.0220586,11.42375 L10.0220586,10.4 L10.5061966,10.31875 C10.6837138,10.27 10.8450931,10.12375 10.8450931,9.86375 L10.8450931,2.2595625 C10.8450931,1.9183125 10.6191621,1.6908125 10.2318517,1.6420625 C8.94081724,1.4795625 7.76315172,1.3983125 6.47211724,1.3983125 L6.47131034,1.3983125 Z M9.81145862,7.88165625 C8.89159655,8.04415625 7.68125172,8.20665625 6.50358621,8.20665625 C5.26096552,8.20665625 4.0833,8.06040625 3.1473,7.84915625 C2.8890931,7.80040625 2.79226552,7.70290625 2.79226552,7.49165625 L2.79226552,2.7470625 C2.79226552,2.5358125 2.8890931,2.3895625 3.1473,2.3895625 L9.81145862,2.4220625 C10.0696655,2.4220625 10.1503552,2.5683125 10.1503552,2.7795625 L10.1503552,7.52415625 C10.1503552,7.73540625 10.0696655,7.84915625 9.81145862,7.88165625 L9.81145862,7.88165625 Z M3.05006897,9.18165625 C3.0662069,8.97040625 3.25986207,8.77540625 3.4857931,8.77540625 C3.71172414,8.77540625 3.90537931,8.97040625 3.90537931,9.18165625 C3.90537931,9.42540625 3.71172414,9.62040625 3.4857931,9.62040625 C3.24372414,9.60415625 3.05006897,9.40915625 3.05006897,9.18165625 L3.05006897,9.18165625 Z M8.95614828,9.18165625 C8.97228621,8.97040625 9.16594138,8.77540625 9.37573448,8.77540625 C9.60166552,8.77540625 9.79532069,8.97040625 9.79532069,9.18165625 C9.79532069,9.42540625 9.60166552,9.62040625 9.37573448,9.62040625 C9.14980345,9.60415625 8.95614828,9.40915625 8.95614828,9.18165625 Z" id="Shape" fill="#007AC9" fill-rule="nonzero"></path>
                            </g>
                        </g>
                    </g>
                    <g id="icon-tram" transform="translate(8.937931, 0.000000)">
                        <path d="M8.93793103,0 C13.874214,-9.06780477e-16 17.8758621,4.00164803 17.8758621,8.93793103 L17.8758621,18 L17.8758621,18 L0,18 L0,8.93793103 C-6.04520318e-16,4.00164803 4.00164803,9.06780477e-16 8.93793103,0 Z" id="Rectangle" fill="#00985F"></path>
                        <g transform="translate(2.482759, 2.500000)" id="icon_tram">
                            <g>
                                <path d="M10.9737931,12.61 L1.93655172,12.61 C1.08083793,12.61 0.387310345,11.9116562 0.387310345,11.05 L0.387310345,1.95 C0.387310345,1.08834375 1.08083793,0.39 1.93655172,0.39 L10.9737931,0.39 C11.8295069,0.39 12.5230345,1.08834375 12.5230345,1.95 L12.5230345,11.05 C12.5230345,11.9116562 11.8295069,12.61 10.9737931,12.61 Z" id="Shape" fill="#FFFFFF" fill-rule="nonzero"></path>
                                <path d="M0.000403448276,1.6095625 C0.000403448276,0.7320625 0.726610345,0.0008125 1.59805862,0.0008125 L11.2800103,0.0008125 C12.1837345,0.0008125 12.9099414,0.7320625 12.9099414,1.6095625 L12.9099414,11.35875 C12.9099414,12.26875 12.1837345,13 11.2800103,13 L1.59805862,13 C0.726610345,13 0.000403448276,12.26875 0.000403448276,11.35875 L0.000403448276,1.6095625 Z M9.0207,2.7795625 C8.94001034,2.5845625 8.82704483,2.4870625 8.63338966,2.4383125 C7.93945862,2.2595625 7.43918276,2.1945625 6.79366552,2.1783125 L6.79366552,1.6095625 L7.98787241,1.6095625 C8.14925172,1.6095625 8.27835517,1.4633125 8.27835517,1.3008125 C8.27835517,1.1058125 8.14925172,0.9595625 7.98787241,0.9595625 L4.95434483,0.9595625 C4.76068966,0.9595625 4.61544828,1.1058125 4.61544828,1.3008125 C4.61544828,1.4633125 4.76068966,1.6095625 4.95434483,1.6095625 L6.13241379,1.6095625 L6.13241379,2.1783125 C5.47075862,2.1945625 4.9382069,2.2595625 4.29268966,2.4383125 C4.06675862,2.5033125 3.9537931,2.5845625 3.85696552,2.7795625 L3.58262069,3.4458125 C3.50193103,3.6408125 3.50193103,3.9170625 3.50193103,4.1283125 L3.50193103,9.97790625 C3.50193103,10.2704062 3.69558621,10.4491562 3.98606897,10.4979062 C4.85751724,10.6766562 5.616,10.7416562 6.45476897,10.7416562 C7.26166552,10.7416562 8.03628621,10.6766562 8.9396069,10.4979062 C9.21395172,10.4491562 9.42374483,10.2704062 9.42374483,9.97790625 L9.42374483,4.1283125 C9.42374483,3.9170625 9.37533103,3.6408125 9.29464138,3.4458125 L9.02029655,2.7795625 L9.0207,2.7795625 Z M8.21380345,11.5375 L8.21380345,11.05 L7.6167,11.13125 L7.6167,11.5375 L5.30897586,11.5375 L5.30897586,11.13125 L4.71187241,11.05 L4.71187241,11.5375 L4.22773448,11.5375 C4.05021724,11.5375 3.93725172,11.68375 3.93725172,11.83 C3.93725172,12.04125 4.05021724,12.17125 4.22773448,12.17125 L8.69753793,12.17125 C8.84277931,12.17125 9.00415862,12.04125 9.00415862,11.83 C9.00415862,11.68375 8.84277931,11.5375 8.69753793,11.5375 L8.2134,11.5375 L8.21380345,11.5375 Z M4.08289655,9.03540625 C4.08289655,8.80790625 4.24427586,8.62915625 4.45406897,8.62915625 C4.68,8.62915625 4.84137931,8.80790625 4.84137931,9.03540625 C4.84137931,9.24665625 4.68,9.39290625 4.45406897,9.39290625 C4.24427586,9.39290625 4.08289655,9.24665625 4.08289655,9.03540625 Z M4.09903448,3.9983125 L8.79476897,3.9983125 L8.79476897,7.94665625 C8.18152759,8.12540625 7.31007931,8.23915625 6.45476897,8.23915625 C5.61559655,8.23915625 4.74414828,8.10915625 4.09863103,7.94665625 L4.09863103,3.9983125 L4.09903448,3.9983125 Z M8.14925172,9.03540625 C8.14925172,8.80790625 8.2944931,8.62915625 8.50428621,8.62915625 C8.73021724,8.62915625 8.90773448,8.80790625 8.90773448,9.03540625 C8.90773448,9.24665625 8.73021724,9.39290625 8.50428621,9.39290625 C8.2944931,9.39290625 8.14925172,9.24665625 8.14925172,9.03540625 Z" id="Shape" fill="#00985F" fill-rule="nonzero"></path>
                            </g>
                        </g>
                    </g>
                </g>
            </g>
        </g>
    </g>
</svg>