<?xml version="1.0" encoding="UTF-8"?>
<svg width="36px" height="36px" viewBox="0 0 36 36" version="1.1" xmlns="http://www.w3.org/2000/svg" xmlns:xlink="http://www.w3.org/1999/xlink">
    <!-- Generator: Sketch 50.2 (55047) - http://www.bohemiancoding.com/sketch -->
    <title>icon-Zone-C-v2</title>
    <desc>Created with Sketch.</desc>
    <defs></defs>
    <g id="Page-1" stroke="none" stroke-width="1" fill="none" fill-rule="evenodd">
        <g id="icon-Zone-C-v2">
            <path d="M35.99952,17.99976 C35.99952,27.94056 27.94272,35.99976 17.99952,35.99976 C8.05872,35.99976 -0.00048,27.94056 -0.00048,17.99976 C-0.00048,8.05896 8.05872,-0.00024 17.99952,-0.00024 C27.94272,-0.00024 35.99952,8.05896 35.99952,17.99976" id="Fill-1" fill="#007AC9"></path>
            <path d="M7.31184,17.69616 L7.31184,17.63616 C7.31184,11.56896 11.85264,6.60096 18.31344,6.60096 C21.60624,6.60096 23.77104,7.57776 25.63104,9.00816 C26.02704,9.31296 26.36064,9.83136 26.36064,10.50336 C26.36064,11.54016 25.53984,12.33216 24.50304,12.33216 C23.98464,12.33216 23.61744,12.14736 23.37504,11.96496 C21.91104,10.77696 20.32704,10.04496 18.28464,10.04496 C14.23104,10.04496 11.24304,13.39776 11.24304,17.57376 L11.24304,17.63616 C11.24304,21.81216 14.19984,25.19616 18.28464,25.19616 C20.54064,25.19616 22.06464,24.46176 23.61744,23.15136 C23.89344,22.90896 24.28944,22.72656 24.74544,22.72656 C25.69104,22.72656 26.51424,23.51856 26.51424,24.46176 C26.51424,25.04256 26.24064,25.49856 25.90464,25.80336 C23.89344,27.57216 21.60624,28.66896 18.16224,28.66896 C11.94384,28.66896 7.31184,23.82336 7.31184,17.69616" id="Fill-4" fill="#FFFFFF"></path>
        </g>
    </g>
</svg>