<?xml version="1.0" encoding="UTF-8"?>
<svg width="30px" height="30px" viewBox="0 0 30 30" version="1.1" xmlns="http://www.w3.org/2000/svg" xmlns:xlink="http://www.w3.org/1999/xlink">
    <title>icon-ship_terminal-30</title>
    <defs>
        <polygon id="path-1" points="0 0.0570422535 29.9429577 0.0570422535 29.9429577 30 0 30"></polygon>
    </defs>
    <g id="Page-1" stroke="none" stroke-width="1" fill="none" fill-rule="evenodd">
        <g id="icons" transform="translate(-226.000000, -272.000000)">
            <g id="icon-shipterminal" transform="translate(226.000000, 272.000000)">
                <g id="Laivaterminaali" transform="translate(0.000000, -0.000000)">
                    <g id="Group-3" transform="translate(0.000000, 0.048592)">
                        <mask id="mask-2" fill="white">
                            <use xlink:href="#path-1"></use>
                        </mask>
                        <g id="Clip-2"></g>
                        <path d="M0,26.20121 C0,28.2636869 1.68750992,29.9513026 3.7500926,29.9513026 L26.2499074,29.9513026 C28.3124901,29.9513026 30,28.2636869 30,26.20121 L30,3.70128939 C30,1.63881254 28.3124901,-0.0485915493 26.2499074,-0.0485915493 L3.7500926,-0.0485915493 C1.68750992,-0.0485915493 0,1.63881254 0,3.70128939 L0,26.20121 Z" id="Fill-1" fill="#007AC9" mask="url(#mask-2)"></path>
                    </g>
                    <path d="M18.8409613,16.893412 C18.4342711,16.893412 18.104588,16.5637289 18.104588,16.1573556 C18.104588,15.7505599 18.4342711,15.421088 18.8409613,15.421088 C19.2473345,15.421088 19.5770176,15.7505599 19.5770176,16.1573556 C19.5770176,16.5637289 19.2473345,16.893412 18.8409613,16.893412 M17.1464894,13.8197852 C17.1464894,13.4130951 17.4763838,13.0835176 17.8829683,13.0835176 C18.2894472,13.0835176 18.6191303,13.4130951 18.6191303,13.8197852 C18.6191303,14.2262641 18.2894472,14.5558415 17.8829683,14.5558415 C17.4763838,14.5558415 17.1464894,14.2262641 17.1464894,13.8197852 M16.9076514,16.893412 C16.5011725,16.893412 16.1714894,16.5637289 16.1714894,16.1573556 C16.1714894,15.7505599 16.5011725,15.421088 16.9076514,15.421088 C17.3142359,15.421088 17.643919,15.7505599 17.643919,16.1573556 C17.643919,16.5637289 17.3142359,16.893412 16.9076514,16.893412 M15.2133908,13.8197852 C15.2133908,13.4130951 15.5431796,13.0835176 15.9498697,13.0835176 C16.3563486,13.0835176 16.6860317,13.4130951 16.6860317,13.8197852 C16.6860317,14.2262641 16.3563486,14.5558415 15.9498697,14.5558415 C15.5431796,14.5558415 15.2133908,14.2262641 15.2133908,13.8197852 M14.9745528,16.893412 C14.5679683,16.893412 14.2380739,16.5637289 14.2380739,16.1573556 C14.2380739,15.7505599 14.5679683,15.421088 14.9745528,15.421088 C15.3810317,15.421088 15.7108204,15.7505599 15.7108204,16.1573556 C15.7108204,16.5637289 15.3810317,16.893412 14.9745528,16.893412 M13.2802923,13.8197852 C13.2802923,13.4130951 13.610081,13.0835176 14.0166655,13.0835176 C14.4230387,13.0835176 14.7528275,13.4130951 14.7528275,13.8197852 C14.7528275,14.2262641 14.4230387,14.5558415 14.0166655,14.5558415 C13.610081,14.5558415 13.2802923,14.2262641 13.2802923,13.8197852 M13.0414542,16.893412 C12.6347641,16.893412 12.3053979,16.5637289 12.3053979,16.1573556 C12.3053979,15.7505599 12.6347641,15.421088 13.0414542,15.421088 C13.4479331,15.421088 13.7776162,15.7505599 13.7776162,16.1573556 C13.7776162,16.5637289 13.4479331,16.893412 13.0414542,16.893412 M11.3471937,13.8197852 C11.3471937,13.4130951 11.6768768,13.0835176 12.0834613,13.0835176 C12.4899401,13.0835176 12.8196232,13.4130951 12.8196232,13.8197852 C12.8196232,14.2262641 12.4899401,14.5558415 12.0834613,14.5558415 C11.6768768,14.5558415 11.3471937,14.2262641 11.3471937,13.8197852 M11.10825,16.893412 C10.7017711,16.893412 10.372088,16.5637289 10.372088,16.1573556 C10.372088,15.7505599 10.7017711,15.421088 11.10825,15.421088 C11.5149401,15.421088 11.844412,15.7505599 11.844412,16.1573556 C11.844412,16.5637289 11.5149401,16.893412 11.10825,16.893412 M9.41409507,13.8197852 C9.41409507,13.4130951 9.74367254,13.0835176 10.150257,13.0835176 C10.5568415,13.0835176 10.886419,13.4130951 10.886419,13.8197852 C10.886419,14.2262641 10.5568415,14.5558415 10.150257,14.5558415 C9.74367254,14.5558415 9.41409507,14.2262641 9.41409507,13.8197852 M9.17525704,16.893412 C8.7685669,16.893412 8.4392007,16.5637289 8.4392007,16.1573556 C8.4392007,15.7505599 8.7685669,15.421088 9.17525704,15.421088 C9.58184155,15.421088 9.91131338,15.7505599 9.91131338,16.1573556 C9.91131338,16.5637289 9.58184155,16.893412 9.17525704,16.893412 M7.48099648,13.8197852 C7.48099648,13.4130951 7.81057394,13.0835176 8.21726408,13.0835176 C8.62363732,13.0835176 8.95332042,13.4130951 8.95332042,13.8197852 C8.95332042,14.2262641 8.62363732,14.5558415 8.21726408,14.5558415 C7.81057394,14.5558415 7.48099648,14.2262641 7.48099648,13.8197852 M7.24194718,16.893412 C6.83546831,16.893412 6.50557394,16.5637289 6.50557394,16.1573556 C6.50557394,15.7505599 6.83546831,15.421088 7.24194718,15.421088 C7.64863732,15.421088 7.97832042,15.7505599 7.97832042,16.1573556 C7.97832042,16.5637289 7.64863732,16.893412 7.24194718,16.893412 M5.54779225,13.8197852 C5.54779225,13.4130951 5.87758099,13.0835176 6.28405986,13.0835176 C6.69064437,13.0835176 7.0201162,13.4130951 7.0201162,13.8197852 C7.0201162,14.2262641 6.69064437,14.5558415 6.28405986,14.5558415 C5.87758099,14.5558415 5.54779225,14.2262641 5.54779225,13.8197852 M5.30895423,16.893412 C4.90236972,16.893412 4.57247535,16.5637289 4.57247535,16.1573556 C4.57247535,15.7505599 4.90236972,15.421088 5.30895423,15.421088 C5.71553873,15.421088 6.04522183,15.7505599 6.04522183,16.1573556 C6.04522183,16.5637289 5.71553873,16.893412 5.30895423,16.893412 M5.30895423,10.7460528 C5.71553873,10.7460528 6.04522183,11.075419 6.04522183,11.4821092 C6.04522183,11.8886937 5.71553873,12.2181655 5.30895423,12.2181655 C4.90236972,12.2181655 4.57247535,11.8886937 4.57247535,11.4821092 C4.57247535,11.075419 4.90236972,10.7460528 5.30895423,10.7460528 M7.24194718,10.7460528 C7.64863732,10.7460528 7.97832042,11.075419 7.97832042,11.4821092 C7.97832042,11.8886937 7.64863732,12.2181655 7.24194718,12.2181655 C6.83546831,12.2181655 6.50557394,11.8886937 6.50557394,11.4821092 C6.50557394,11.075419 6.83546831,10.7460528 7.24194718,10.7460528 M9.17525704,10.7460528 C9.58184155,10.7460528 9.91131338,11.075419 9.91131338,11.4821092 C9.91131338,11.8886937 9.58184155,12.2181655 9.17525704,12.2181655 C8.7685669,12.2181655 8.4392007,11.8886937 8.4392007,11.4821092 C8.4392007,11.075419 8.7685669,10.7460528 9.17525704,10.7460528 M11.10825,10.7460528 C11.5149401,10.7460528 11.844412,11.075419 11.844412,11.4821092 C11.844412,11.8886937 11.5149401,12.2181655 11.10825,12.2181655 C10.7017711,12.2181655 10.372088,11.8886937 10.372088,11.4821092 C10.372088,11.075419 10.7017711,10.7460528 11.10825,10.7460528 M13.0414542,10.7460528 C13.4479331,10.7460528 13.7776162,11.075419 13.7776162,11.4821092 C13.7776162,11.8886937 13.4479331,12.2181655 13.0414542,12.2181655 C12.6347641,12.2181655 12.3053979,11.8886937 12.3053979,11.4821092 C12.3053979,11.075419 12.6347641,10.7460528 13.0414542,10.7460528 M14.9745528,10.7460528 C15.3810317,10.7460528 15.7108204,11.075419 15.7108204,11.4821092 C15.7108204,11.8886937 15.3810317,12.2181655 14.9745528,12.2181655 C14.5679683,12.2181655 14.2380739,11.8886937 14.2380739,11.4821092 C14.2380739,11.075419 14.5679683,10.7460528 14.9745528,10.7460528 M16.9076514,10.7460528 C17.3142359,10.7460528 17.643919,11.075419 17.643919,11.4821092 C17.643919,11.8886937 17.3142359,12.2181655 16.9076514,12.2181655 C16.5011725,12.2181655 16.1714894,11.8886937 16.1714894,11.4821092 C16.1714894,11.075419 16.5011725,10.7460528 16.9076514,10.7460528 M27.1293063,17.4471444 L21.7390246,17.4471444 C21.4883556,17.4471444 21.2905035,17.3299965 21.1708204,17.1167218 C20.9737077,16.7650669 18.2863838,10.1746796 18.2863838,10.1746796 L19.396912,10.1746796 C19.8224049,10.1746796 20.3990599,9.59749648 20.3990599,8.88584155 C20.3990599,8.17429225 19.8224049,7.59700352 19.1104331,7.59700352 L10.3331092,7.59700352 L8.30874296,3.73080634 C8.2729331,3.6625669 8.18113732,3.60668662 8.10413028,3.60668662 L7.69839085,3.60531338 C7.62191197,3.60531338 7.57627817,3.66520775 7.59740493,3.73904577 L7.90712324,4.81048944 L7.05127817,4.81048944 C6.93508099,4.81048944 6.84075,4.90492606 6.84075,5.02154577 C6.84075,5.13805986 6.93508099,5.23239085 7.05127817,5.23239085 L8.02934155,5.23239085 L8.71300352,7.59700352 L3.74282746,7.59700352 L3.74282746,23.9411937 L22.447088,23.9411937 C22.447088,23.9411937 26.979412,18.2418275 27.2622993,17.8927077 C27.4545528,17.6551373 27.402581,17.4471444 27.1293063,17.4471444" id="Fill-4" fill="#FFFFFF"></path>
                </g>
            </g>
        </g>
    </g>
</svg>