<?xml version="1.0" encoding="utf-8"?>
<!-- Generator: Adobe Illustrator 19.2.0, SVG Export Plug-In . SVG Version: 6.00 Build 0)  -->
<!DOCTYPE svg PUBLIC "-//W3C//DTD SVG 1.1//EN" "http://www.w3.org/Graphics/SVG/1.1/DTD/svg11.dtd">
<svg version="1.1" id="Layer_1" xmlns="http://www.w3.org/2000/svg" xmlns:xlink="http://www.w3.org/1999/xlink" x="0px" y="0px"
	 viewBox="0 0 16 16" enable-background="new 0 0 16 16" xml:space="preserve">
<path fill="#666666" d="M13,16H3c-1.657,0-3-1.343-3-3L0,3c0-1.657,1.343-3,3-3l10,0c1.657,0,3,1.343,3,3v10
	C16,14.657,14.657,16,13,16z"/>
<g>
	<path fill="#FFFFFF" d="M2.998,11.029c-0.27,0-0.498-0.224-0.498-0.5V7.537
		C2.5,6.153,3.619,5.04,5,5.04c1.224,0,2.246,0.882,2.459,2.045C6.059,7.339,5,8.559,5,10.032v0.997H2.998z"/>
	<path fill="#FFFFFF" d="M5.5,10.032v2.992c0,0.276,0.228,0.5,0.498,0.5h4.005
		c0.275,0,0.498-0.227,0.498-0.5v-2.992c0-1.379-1.122-2.496-2.5-2.496C6.619,7.536,5.5,8.648,5.5,10.032z"/>
	<path fill="#FFFFFF" d="M8.5,7.078V6.04c0-1.384,1.119-2.496,2.5-2.496c1.378,0,2.5,1.118,2.5,2.496
		v2.992c0,0.273-0.223,0.5-0.498,0.5h-2.044C10.747,8.279,9.755,7.289,8.5,7.078L8.5,7.078z"/>
</g>
</svg>
