<?xml version="1.0" encoding="utf-8"?>
<!-- Generator: Adobe Illustrator 19.2.0, SVG Export Plug-In . SVG Version: 6.00 Build 0)  -->
<!DOCTYPE svg PUBLIC "-//W3C//DTD SVG 1.1//EN" "http://www.w3.org/Graphics/SVG/1.1/DTD/svg11.dtd">
<svg version="1.1" id="Layer_1" xmlns="http://www.w3.org/2000/svg" xmlns:xlink="http://www.w3.org/1999/xlink" x="0px" y="0px"
	 viewBox="0 0 16 16" enable-background="new 0 0 16 16" xml:space="preserve">
<path fill="#666666" d="M13,16H3c-1.657,0-3-1.343-3-3L0,3c0-1.657,1.343-3,3-3l10,0c1.657,0,3,1.343,3,3v10
	C16,14.657,14.657,16,13,16z"/>
<g>
	<path fill="#FFFFFF" d="M12.247,10.902L8.788,2.832C8.667,2.549,8.389,2.366,8.082,2.366S7.497,2.549,7.375,2.832l-3.458,8.069
		c-0.102,0.237-0.078,0.592,0.065,0.808c0.142,0.216,0.383,0.428,0.642,0.428h2.47v0.728c0,0.425,0.344,0.769,0.769,0.769
		c0.425,0,0.769-0.344,0.769-0.769v-0.728h2.909c0.258,0,0.499-0.213,0.642-0.428C12.324,11.494,12.348,11.139,12.247,10.902z"/>
</g>
</svg>
