<?xml version="1.0" encoding="UTF-8"?>
<svg xmlns="http://www.w3.org/2000/svg" xmlns:xlink="http://www.w3.org/1999/xlink" width="16px" height="16px" viewBox="0 0 16 16" version="1.1">
<g id="surface1">
<path style=" stroke:none;fill-rule:nonzero;fill:rgb(0%,47.843137%,78.823531%);fill-opacity:1;" d="M 0 14 C 0 15.101562 0.898438 16 2 16 L 14 16 C 15.101562 16 16 15.101562 16 14 L 16 2 C 16 0.898438 15.101562 0 14 0 L 2 0 C 0.898438 0 0 0.898438 0 2 Z M 0 14 "/>
<path style=" stroke:none;fill-rule:nonzero;fill:rgb(100%,100%,100%);fill-opacity:1;" d="M 2.109375 3.007812 C 2.109375 2.425781 2.574219 1.945312 3.171875 1.945312 L 3.394531 1.945312 C 3.855469 1.945312 4.164062 2.1875 4.371094 2.511719 L 8 8.195312 L 11.648438 2.496094 C 11.871094 2.136719 12.175781 1.945312 12.605469 1.945312 L 12.828125 1.945312 C 13.425781 1.945312 13.890625 2.425781 13.890625 3.007812 L 13.890625 13.042969 C 13.890625 13.625 13.425781 14.085938 12.828125 14.085938 C 12.261719 14.085938 11.785156 13.605469 11.785156 13.042969 L 11.785156 5.851562 L 8.855469 10.25 C 8.632812 10.59375 8.359375 10.796875 7.964844 10.796875 C 7.589844 10.796875 7.316406 10.59375 7.09375 10.25 L 4.183594 5.886719 L 4.183594 13.058594 C 4.183594 13.640625 3.71875 14.085938 3.136719 14.085938 C 2.554688 14.085938 2.109375 13.640625 2.109375 13.058594 Z M 2.109375 3.007812 "/>
</g>
</svg>
