<?xml version="1.0" encoding="UTF-8"?>
<svg xmlns="http://www.w3.org/2000/svg" xmlns:xlink="http://www.w3.org/1999/xlink" width="16px" height="16px" viewBox="0 0 16 16" version="1.1">
<g id="surface1">
<path style=" stroke:none;fill-rule:nonzero;fill:#007AC9;fill-opacity:1;" d="M 0 14 C 0 15.101562 0.898438 16 2 16 L 14 16 C 15.101562 16 16 15.101562 16 14 L 16 2 C 16 0.898438 15.101562 0 14 0 L 2 0 C 0.898438 0 0 0.898438 0 2 Z M 0 14 "/>
<path style=" stroke:none;fill-rule:nonzero;fill:rgb(100%,100%,100%);fill-opacity:1;" d="M 3.035156 13.074219 L 3.035156 13.023438 C 3.035156 12.664062 3.171875 12.339844 3.429688 12.046875 L 10.175781 3.882812 L 4.164062 3.882812 C 3.667969 3.882812 3.242188 3.472656 3.242188 2.957031 C 3.242188 2.445312 3.667969 2.015625 4.164062 2.015625 L 12.039062 2.015625 C 12.554688 2.015625 12.980469 2.445312 12.980469 2.941406 L 12.980469 2.992188 C 12.980469 3.351562 12.84375 3.660156 12.605469 3.96875 L 5.84375 12.132812 L 12.074219 12.132812 C 12.589844 12.132812 13.015625 12.5625 13.015625 13.074219 C 13.015625 13.589844 12.589844 14 12.074219 14 L 3.976562 14 C 3.480469 14 3.035156 13.570312 3.035156 13.074219 Z M 3.035156 13.074219 "/>
</g>
</svg>
