<?xml version="1.0" encoding="utf-8"?>
<!-- Generator: Adobe Illustrator 19.2.0, SVG Export Plug-In . SVG Version: 6.00 Build 0)  -->
<!DOCTYPE svg PUBLIC "-//W3C//DTD SVG 1.1//EN" "http://www.w3.org/Graphics/SVG/1.1/DTD/svg11.dtd">
<svg version="1.1" id="Layer_1" xmlns="http://www.w3.org/2000/svg" xmlns:xlink="http://www.w3.org/1999/xlink" x="0px" y="0px"
	 viewBox="0 0 16 16" enable-background="new 0 0 16 16" xml:space="preserve">
<path fill="#666666" d="M13,16H3c-1.657,0-3-1.343-3-3L0,3c0-1.657,1.343-3,3-3l10,0c1.657,0,3,1.343,3,3v10
	C16,14.657,14.657,16,13,16z"/>
<g>
	<path fill="#FFFFFF" d="M7.989,6.745c0.347,0,0.627-0.281,0.627-0.627v-2.51c0-0.347-0.281-0.627-0.627-0.627
		c-0.347,0-0.627,0.281-0.627,0.627v2.51C7.361,6.464,7.642,6.745,7.989,6.745z"/>
	<path fill="#FFFFFF" d="M12.389,6.118H9.252c0,0.694-0.562,1.255-1.255,1.255c-0.694,0-1.255-0.561-1.255-1.255H3.605
		c-0.347,0-0.696,0.304-0.583,0.805l1.211,5.469c0.105,0.348,0.281,0.627,0.627,0.627h6.274c0.347,0,0.507-0.258,0.627-0.627
		l1.206-5.451C13.115,6.461,12.736,6.118,12.389,6.118z"/>
</g>
</svg>
