<?xml version="1.0" encoding="UTF-8"?>
<svg width="30px" height="30px" viewBox="0 0 30 30" version="1.1" xmlns="http://www.w3.org/2000/svg" xmlns:xlink="http://www.w3.org/1999/xlink">
    <title>icon-train-30</title>
    <g id="Page-1" stroke="none" stroke-width="1" fill="none" fill-rule="evenodd">
        <g id="icons" transform="translate(-26.000000, -272.000000)">
            <g id="icon-train" transform="translate(26.000000, 272.000000)">
                <g id="icon_rail">
                    <path d="M25.8,29.4 L4.8,29.4 C2.8115625,29.4 1.2,27.7884375 1.2,25.8 L1.2,4.8 C1.2,2.8115625 2.8115625,1.2 4.8,1.2 L25.8,1.2 C27.7884375,1.2 29.4,2.8115625 29.4,4.8 L29.4,25.8 C29.4,27.7884375 27.7884375,29.4 25.8,29.4 Z" id="Shape" fill="#FFFFFF" fill-rule="nonzero"></path>
                    <path d="M0,3.71273205 C0,1.68760548 1.68760548,0 3.71273205,0 L26.2122633,0 C28.3123945,0 30,1.68760548 30,3.71273205 L30,26.2122633 C30,28.3123945 28.3123945,30 26.2122633,30 L3.71273205,30 C1.68760548,30 0,28.3123945 0,26.2122633 L0,3.71273205 Z M23.024564,3.82523908 C22.1995125,3.0751922 18.6367898,2.21263829 15,2.21263829 C11.4747797,2.21263829 7.83798987,3.0751922 7.05044065,3.82523908 C6.48790549,4.31276955 5.92537034,5.43783986 5.25032815,6.86292893 C4.68779299,8.10050628 4.23776486,9.26307894 4.23776486,9.93812113 L4.23776486,20.775361 C4.23776486,21.6379149 4.53778361,22.0129383 5.70035627,22.9129946 C6.56291018,23.5880368 6.93793362,23.8880555 8.25051566,23.8880555 L10.7256704,23.8880555 L10.7256704,25.5006563 L19.3877742,25.5006563 L19.3877742,23.8880555 L21.8254266,23.8880555 C23.1380086,23.8880555 23.5130321,23.5880368 24.3380836,22.9129946 C25.5006563,21.975436 25.7631727,21.6379149 25.7631727,20.775361 L25.7631727,9.93812113 C25.7631727,9.26307894 25.3131446,8.10050628 24.7881118,6.86292893 C24.1130696,5.43783986 23.5880368,4.31276955 23.0255016,3.82523908 L23.024564,3.82523908 Z M22.0120008,26.624789 L22.0120008,25.0496906 L20.624414,25.0496906 L20.624414,26.624789 L9.4496531,26.624789 L9.4496531,25.0496906 L8.02456404,25.0496906 L8.02456404,26.624789 L6.29945622,26.624789 C5.88693043,26.624789 5.54940934,26.9623101 5.54940934,27.3373336 C5.54940934,27.7498594 5.88693043,28.0873805 6.29945622,28.0873805 L23.7736734,28.0873805 C24.1861991,28.0873805 24.4862179,27.7498594 24.4862179,27.3373336 C24.4862179,26.9623101 24.1861991,26.624789 23.7736734,26.624789 L22.0110632,26.624789 L22.0120008,26.624789 Z M21.2244515,17.0626289 C21.1119445,17.7001688 20.4744047,18.1876992 19.8368648,18.1876992 L10.2372023,18.1876992 C9.59966248,18.1876992 8.96212263,17.7001688 8.8496156,17.0626289 L7.08700544,9.60060004 C6.97449841,8.96306019 7.38702419,8.47552972 8.02456404,8.47552972 L22.0120008,8.47552972 C22.6495406,8.47552972 23.0995687,8.96306019 22.9495593,9.60060004 L21.2244515,17.0626289 Z M20.6994187,5.13782111 L20.6994187,5.77536096 C20.6994187,6.26289143 20.3243953,6.67541721 19.8368648,6.67541721 L10.2372023,6.67541721 C9.74967185,6.67541721 9.33714607,6.26289143 9.33714607,5.77536096 L9.33714607,5.13782111 L20.6994187,5.13782111 L20.6994187,5.13782111 Z M9.33714607,20.9628727 C9.33714607,20.4378399 9.71216951,20.0253141 10.2372023,20.0253141 C10.7622351,20.0253141 11.2122633,20.4378399 11.2122633,20.9628727 C11.2122633,21.4879055 10.7622351,21.8629289 10.2372023,21.8629289 C9.71216951,21.8629289 9.33714607,21.4879055 9.33714607,20.9628727 Z M18.8993062,20.8503656 C18.8993062,20.3253328 19.311832,19.9128071 19.8368648,19.9128071 C20.3618976,19.9128071 20.7744234,20.3253328 20.7744234,20.8503656 C20.7744234,21.3753985 20.3618976,21.7504219 19.8368648,21.7504219 C19.311832,21.7504219 18.8993062,21.3753985 18.8993062,20.8503656 Z" id="Shape" fill="#8C4799" fill-rule="nonzero"></path>
                </g>
            </g>
        </g>
    </g>
</svg>