<?xml version="1.0" encoding="UTF-8"?>
<svg width="20px" height="27px" viewBox="0 0 20 27" version="1.1" xmlns="http://www.w3.org/2000/svg" xmlns:xlink="http://www.w3.org/1999/xlink">
    <title>icon-stop-hsl_ferry-medium</title>
    <defs>
        <polygon id="path-1" points="0 0.0247183099 12.9752817 0.0247183099 12.9752817 13 0 13"></polygon>
    </defs>
    <g id="Page-1" stroke="none" stroke-width="1" fill="none" fill-rule="evenodd">
        <g id="icons" transform="translate(-134.000000, -296.000000)">
            <g id="stop-marker-master-alt3" transform="translate(114.000000, 276.000000)">
                <g id="stop-ball/ferryport" transform="translate(21.000000, 21.000000)" stroke-width="1">
                    <circle id="Oval" stroke="#FFFFFF" fill="#666666" cx="9" cy="9" r="9.5"></circle>
                    <g id="icon-ferry_port" transform="translate(2.500000, 2.500000)">
                        <g id="Lauttasatama">
                            <g id="Group-3">
                                <mask id="mask-2" fill="white">
                                    <use xlink:href="#path-1"></use>
                                </mask>
                                <g id="Clip-2"></g>
                                <path d="M0,11.3749083 C0,12.2686514 0.731254299,12.9999541 1.62504013,12.9999541 L11.3749599,12.9999541 C12.2687457,12.9999541 13,12.2686514 13,11.3749083 L13,1.62490828 C13,0.731165157 12.2687457,-4.5861041e-05 11.3749599,-4.5861041e-05 L1.62504013,-4.5861041e-05 C0.731254299,-4.5861041e-05 0,0.731165157 0,1.62490828 L0,11.3749083 Z" id="Fill-1" fill="#666666" mask="url(#mask-2)"></path>
                            </g>
                            <path d="M9.3070061,6.56739706 L7.53800847,6.56739706 C7.46624946,6.56739706 7.3982624,6.50879699 7.38680856,6.43716434 L7.21288495,5.3483387 C7.20143111,5.27670605 7.25074243,5.21810598 7.32245544,5.21810598 L8.77442544,5.21810598 C8.84613845,5.21810598 8.92654534,5.27316864 8.95322498,5.34061224 L9.38902297,6.4448908 C9.4156566,6.51224132 9.37876511,6.56739706 9.3070061,6.56739706 L9.3070061,6.56739706 Z M7.06361701,6.56739706 L5.69173191,6.56739706 C5.6200189,6.56739706 5.56132371,6.50805227 5.56132371,6.43544218 L5.56132371,5.35001432 C5.56132371,5.27745077 5.6200189,5.21810598 5.69173191,5.21810598 L6.84810998,5.21810598 C6.91982299,5.21810598 6.98785605,5.27670605 6.9993099,5.3483387 L7.1732335,6.43716434 C7.18468734,6.50879699 7.13537602,6.56739706 7.06361701,6.56739706 L7.06361701,6.56739706 Z M5.35280858,6.43544218 C5.35280858,6.50805227 5.29415939,6.56739706 5.22240038,6.56739706 L3.63004032,6.56739706 C3.5582813,6.56739706 3.49963211,6.50805227 3.49963211,6.43544218 L3.49963211,5.35001432 C3.49963211,5.27745077 3.5582813,5.21810598 3.63004032,5.21810598 L5.22240038,5.21810598 C5.29415939,5.21810598 5.35280858,5.27745077 5.35280858,5.35001432 L5.35280858,6.43544218 Z M3.29102499,6.43544218 C3.29102499,6.50805227 3.2323298,6.56739706 3.16066278,6.56739706 L2.26372114,6.56739706 C2.19196213,6.56739706 2.13331294,6.50805227 2.13331294,6.43544218 L2.13331294,5.35001432 C2.13331294,5.27745077 2.19196213,5.21810598 2.26372114,5.21810598 L3.16066278,5.21810598 C3.2323298,5.21810598 3.29102499,5.27745077 3.29102499,5.35001432 L3.29102499,6.43544218 Z M12.1883144,7.15740064 L10.1814081,7.15740064 C10.1493465,7.15740064 10.1240008,7.142227 10.1087291,7.11457931 C10.0834754,7.06910491 9.26142073,5.21810598 9.26142073,5.21810598 L9.40346677,5.21810598 C9.45788402,5.21810598 9.53166701,5.14335482 9.53166701,5.05119585 C9.53166701,4.95917651 9.45788402,4.88447189 9.36680528,4.88447189 L7.29278585,4.88447189 L6.79935065,3.93090584 C6.79074877,3.9141962 6.76830108,3.90037236 6.74957934,3.90037236 L6.6506807,3.9 C6.63200496,3.9 6.62087311,3.91484783 6.62607104,3.93300036 L6.701602,4.1971894 L6.49299487,4.1971894 C6.46461326,4.1971894 6.44161358,4.22055496 6.44161358,4.24927318 C6.44161358,4.27799141 6.46461326,4.30126387 6.49299487,4.30126387 L6.73136359,4.30126387 L6.89801929,4.88447189 L1.75013822,4.88447189 C1.65901347,4.88447189 1.58518449,4.95917651 1.58518449,5.05119585 C1.58518449,5.14335482 1.65901347,5.21810598 1.78679971,5.21810598 L1.80358948,5.21810598 L1.60501022,7.15740064 L1.04,7.15740064 L1.24989511,9.1 C1.74673426,9.1 2.1943081,8.8882671 2.51027774,8.54928034 C2.82633939,8.8882671 3.27395922,9.1 3.77079838,9.1 C4.26749953,9.1 4.71511937,8.8882671 5.03118101,8.54928034 C5.34715066,8.8882671 5.79477049,9.1 6.29156365,9.1 C6.7883108,9.1 7.23602263,8.8882671 7.55199228,8.54928034 C7.86805393,8.8882671 8.31562776,9.1 8.81246691,9.1 C9.30921407,9.1 9.7567879,8.8882671 10.0728036,8.54928034 C10.2629649,8.75328679 10.5011496,8.9107483 10.768682,9.00421053 C11.0724618,8.62584676 12.1741006,7.25393484 12.2052882,7.21502327 C12.2298978,7.18430362 12.2232279,7.15740064 12.1883144,7.15740064 L12.1883144,7.15740064 Z" id="Fill-4" fill="#FFFFFF"></path>
                        </g>
                    </g>
                </g>
                <path d="M29,39 L31,39 L31,46 C31,46.5522847 30.5522847,47 30,47 C29.4477153,47 29,46.5522847 29,46 L29,39 L29,39 Z" id="Rectangle" fill="#333333"></path>
            </g>
        </g>
    </g>
</svg>