<?xml version="1.0" encoding="UTF-8"?>
<svg xmlns="http://www.w3.org/2000/svg" xmlns:xlink="http://www.w3.org/1999/xlink" width="16px" height="16px" viewBox="0 0 16 16" version="1.1">
<g id="surface1">
<path style=" stroke:none;fill-rule:nonzero;fill:#007AC9;fill-opacity:1;" d="M 0 14 C 0 15.101562 0.898438 16 2 16 L 14 16 C 15.101562 16 16 15.101562 16 14 L 16 2 C 16 0.898438 15.101562 0 14 0 L 2 0 C 0.898438 0 0 0.898438 0 2 Z M 0 14 "/>
<path style=" stroke:none;fill-rule:nonzero;fill:rgb(100%,100%,100%);fill-opacity:1;" d="M 4.132812 12.851562 C 3.941406 12.679688 3.769531 12.390625 3.769531 12.066406 C 3.769531 11.5 4.214844 11.054688 4.78125 11.054688 C 5.054688 11.054688 5.242188 11.140625 5.433594 11.292969 C 6.015625 11.894531 6.578125 12.21875 7.382812 12.21875 C 8.546875 12.21875 9.320312 11.464844 9.320312 9.855469 L 9.320312 2.972656 C 9.320312 2.390625 9.796875 1.929688 10.378906 1.929688 C 10.960938 1.929688 11.441406 2.390625 11.441406 2.972656 L 11.441406 9.925781 C 11.441406 11.347656 11.011719 12.40625 10.3125 13.109375 C 9.609375 13.8125 8.597656 14.171875 7.402344 14.171875 C 5.945312 14.171875 4.882812 13.605469 4.132812 12.851562 Z M 4.132812 12.851562 "/>
</g>
</svg>
