<?xml version="1.0" encoding="UTF-8"?>
<svg xmlns="http://www.w3.org/2000/svg" xmlns:xlink="http://www.w3.org/1999/xlink" width="16px" height="16px" viewBox="0 0 16 16" version="1.1">
<g id="surface1">
<path style=" stroke:none;fill-rule:nonzero;fill:rgb(0%,47.843137%,78.823531%);fill-opacity:1;" d="M 0 14 C 0 15.101562 0.898438 16 2 16 L 14 16 C 15.101562 16 16 15.101562 16 14 L 16 2 C 16 0.898438 15.101562 0 14 0 L 2 0 C 0.898438 0 0 0.898438 0 2 Z M 0 14 "/>
<path style=" stroke:none;fill-rule:nonzero;fill:rgb(100%,100%,100%);fill-opacity:1;" d="M 2.300781 8.042969 L 2.300781 8.007812 C 2.300781 4.652344 4.867188 1.808594 8.480469 1.808594 C 10.277344 1.808594 11.476562 2.238281 12.570312 3.027344 C 12.777344 3.179688 13 3.472656 13 3.882812 C 13 4.445312 12.539062 4.925781 11.953125 4.925781 C 11.679688 4.925781 11.476562 4.804688 11.304688 4.6875 C 10.535156 4.121094 9.695312 3.746094 8.394531 3.746094 C 6.183594 3.746094 4.507812 5.679688 4.507812 7.972656 L 4.507812 8.007812 C 4.507812 10.472656 6.132812 12.289062 8.582031 12.289062 C 9.710938 12.289062 10.738281 11.929688 11.476562 11.378906 L 11.476562 9.136719 L 9.113281 9.136719 C 8.597656 9.136719 8.171875 8.742188 8.171875 8.230469 C 8.171875 7.714844 8.597656 7.304688 9.113281 7.304688 L 12.453125 7.304688 C 13.050781 7.304688 13.511719 7.769531 13.511719 8.367188 L 13.511719 11.570312 C 13.511719 12.167969 13.273438 12.597656 12.777344 12.902344 C 11.75 13.589844 10.3125 14.207031 8.515625 14.207031 C 4.765625 14.207031 2.300781 11.535156 2.300781 8.042969 Z M 2.300781 8.042969 "/>
</g>
</svg>
