<?xml version="1.0" encoding="UTF-8"?>
<svg width="16px" height="16px" viewBox="0 0 16 16" version="1.1" xmlns="http://www.w3.org/2000/svg" xmlns:xlink="http://www.w3.org/1999/xlink">
    <title>icon-bus-16</title>
    <g id="Page-1" stroke="none" stroke-width="1" fill="none" fill-rule="evenodd">
        <g id="icons" transform="translate(-76.000000, -122.000000)">
            <g id="icon-bus" transform="translate(76.000000, 122.000000)">
                <g id="icon_bus">
                    <path d="M13.6625,15.52 L2.4625,15.52 C1.402,15.52 0.5425,14.6605 0.5425,13.6 L0.5425,2.4 C0.5425,1.3395 1.402,0.48 2.4625,0.48 L13.6625,0.48 C14.723,0.48 15.5825,1.3395 15.5825,2.4 L15.5825,13.6 C15.5825,14.6605 14.723,15.52 13.6625,15.52 Z" id="Shape" fill="#FFFFFF" fill-rule="nonzero"></path>
                    <path d="M0.0005,1.981 C0.0005,0.901 0.9005,0.001 1.9805,0.001 L13.9795,0.001 C15.0995,0.001 15.9995,0.901 15.9995,1.981 L15.9995,13.98 C15.9995,15.1 15.0995,16 13.9795,16 L1.9805,16 C0.9005,16 0.0005,15.1 0.0005,13.98 L0.0005,1.981 Z M8.02,1.721 C6.36,1.721 4.92,1.801 3.3405,2.021 C2.8605,2.081 2.5805,2.361 2.5805,2.781 L2.5805,12.14 C2.5805,12.44 2.8005,12.64 3.0005,12.7 L3.6005,12.8 L3.6005,14.06 C3.6005,14.2 3.7205,14.3 3.8805,14.3 L4.8405,14.3 C4.9605,14.3 5.0805,14.2 5.0805,14.06 L5.0805,12.94 C5.8605,13.04 6.9205,13.08 7.9805,13.08 C9.0605,13.08 10.1605,13.04 10.9205,12.94 L10.9205,14.06 C10.9205,14.2 11.0605,14.3 11.1805,14.3 L12.1405,14.3 C12.3005,14.3 12.4205,14.2 12.4205,14.06 L12.4205,12.8 L13.0205,12.7 C13.2405,12.64 13.4405,12.46 13.4405,12.14 L13.4405,2.781 C13.4405,2.361 13.1605,2.081 12.6805,2.021 C11.0805,1.821 9.621,1.721 8.021,1.721 L8.02,1.721 Z M12.1595,9.7005 C11.0195,9.9005 9.5195,10.1005 8.06,10.1005 C6.52,10.1005 5.0605,9.9205 3.9005,9.6605 C3.5805,9.6005 3.4605,9.4805 3.4605,9.2205 L3.4605,3.381 C3.4605,3.121 3.5805,2.941 3.9005,2.941 L12.1595,2.981 C12.4795,2.981 12.5795,3.161 12.5795,3.421 L12.5795,9.2605 C12.5795,9.5205 12.4795,9.6605 12.1595,9.7005 L12.1595,9.7005 Z M3.78,11.3005 C3.8,11.0405 4.04,10.8005 4.32,10.8005 C4.6,10.8005 4.84,11.0405 4.84,11.3005 C4.84,11.6005 4.6,11.8405 4.32,11.8405 C4.02,11.8205 3.78,11.5805 3.78,11.3005 L3.78,11.3005 Z M11.0995,11.3005 C11.1195,11.0405 11.3595,10.8005 11.6195,10.8005 C11.8995,10.8005 12.1395,11.0405 12.1395,11.3005 C12.1395,11.6005 11.8995,11.8405 11.6195,11.8405 C11.3395,11.8205 11.0995,11.5805 11.0995,11.3005 Z" id="Shape" fill="#007AC9" fill-rule="nonzero"></path>
                </g>
            </g>
        </g>
    </g>
</svg>