<?xml version="1.0" encoding="UTF-8"?>
<svg xmlns="http://www.w3.org/2000/svg" xmlns:xlink="http://www.w3.org/1999/xlink" width="16px" height="16px" viewBox="0 0 16 16" version="1.1">
<g id="surface1">
<path style=" stroke:none;fill-rule:nonzero;fill:rgb(20%,20%,20%);fill-opacity:1;" d="M 8 0 C 3.582031 0 0 3.582031 0 8 C 0 12.417969 3.582031 16 8 16 C 12.417969 16 16 12.417969 16 8 C 16 3.582031 12.417969 0 8 0 Z M 8 13.816406 C 4.785156 13.816406 2.183594 11.214844 2.183594 8 C 2.183594 4.789062 4.785156 2.183594 8 2.183594 C 11.210938 2.183594 13.816406 4.789062 13.816406 8 C 13.816406 11.214844 11.210938 13.816406 8 13.816406 Z M 8 13.816406 "/>
<path style=" stroke:none;fill-rule:nonzero;fill:rgb(20%,20%,20%);fill-opacity:1;" d="M 9.914062 5.78125 C 9.511719 6.175781 9.113281 6.574219 8.710938 6.96875 C 8.710938 6.054688 8.710938 5.136719 8.710938 4.222656 C 8.710938 3.304688 7.289062 3.304688 7.289062 4.222656 C 7.289062 5.695312 7.289062 7.164062 7.289062 8.632812 C 7.289062 8.671875 7.289062 8.703125 7.296875 8.738281 C 7.320312 9.046875 7.511719 9.242188 7.75 9.320312 C 7.972656 9.421875 8.242188 9.410156 8.472656 9.199219 C 8.480469 9.195312 8.488281 9.1875 8.496094 9.179688 C 8.5 9.179688 8.5 9.179688 8.503906 9.175781 C 9.308594 8.378906 10.117188 7.582031 10.921875 6.785156 C 11.574219 6.140625 10.570312 5.132812 9.914062 5.78125 Z M 9.914062 5.78125 "/>
</g>
</svg>
