<?xml version="1.0" encoding="utf-8"?>
<!-- Generator: Adobe Illustrator 19.2.1, SVG Export Plug-In . SVG Version: 6.00 Build 0)  -->
<!DOCTYPE svg PUBLIC "-//W3C//DTD SVG 1.1//EN" "http://www.w3.org/Graphics/SVG/1.1/DTD/svg11.dtd">
<svg version="1.1" id="Layer_1" xmlns="http://www.w3.org/2000/svg" xmlns:xlink="http://www.w3.org/1999/xlink" x="0px" y="0px"
	 viewBox="0 0 16 16" enable-background="new 0 0 16 16" xml:space="preserve">
<path fill="#666666" d="M13.009,16h-10c-1.657,0-3-1.343-3-3l0-10c0-1.657,1.343-3,3-3l10,0c1.657,0,3,1.343,3,3v10
	C16.009,14.657,14.666,16,13.009,16z"/>
<g>
	<g>
		<path fill="#FFFFFF" d="M5,4c0.551,0,1,0.449,1,1v1H5C4.449,6,4,5.551,4,5S4.449,4,5,4 M5,3C3.895,3,3,3.895,3,5s0.895,2,2,2h2V5
			C7,3.895,6.105,3,5,3L5,3z"/>
	</g>
	<g>
		<path fill="#FFFFFF" d="M11,4c0.551,0,1,0.449,1,1s-0.449,1-1,1h-1V5C10,4.449,10.449,4,11,4 M11,3C9.895,3,9,3.895,9,5v2h2
			c1.105,0,2-0.895,2-2S12.105,3,11,3L11,3z"/>
	</g>
	<g>
		<path fill="#FFFFFF" d="M11,10c0.551,0,1,0.449,1,1s-0.449,1-1,1s-1-0.449-1-1v-1H11 M11,9H9v2c0,1.105,0.895,2,2,2s2-0.895,2-2
			S12.105,9,11,9L11,9z"/>
	</g>
	<g>
		<path fill="#FFFFFF" d="M6,10v1c0,0.551-0.449,1-1,1s-1-0.449-1-1s0.449-1,1-1H6 M7,9H5c-1.105,0-2,0.895-2,2s0.895,2,2,2
			s2-0.895,2-2V9L7,9z"/>
	</g>
</g>
<rect x="6" y="7" fill="#FFFFFF" width="1" height="2"/>
<rect x="9" y="7" fill="#FFFFFF" width="1" height="2"/>
<rect x="7.5" y="5.5" transform="matrix(4.547455e-11 1 -1 4.547455e-11 14.5 -1.5)" fill="#FFFFFF" width="1" height="2"/>
<rect x="7.5" y="8.5" transform="matrix(4.547455e-11 1 -1 4.547455e-11 17.5 1.5)" fill="#FFFFFF" width="1" height="2"/>
</svg>
