<?xml version="1.0" encoding="UTF-8"?>
<svg xmlns="http://www.w3.org/2000/svg" xmlns:xlink="http://www.w3.org/1999/xlink" width="16px" height="16px" viewBox="0 0 16 16" version="1.1">
<g id="surface1">
<path style=" stroke:none;fill-rule:nonzero;fill:#007AC9;fill-opacity:1;" d="M 0 14 C 0 15.101562 0.898438 16 2 16 L 14 16 C 15.101562 16 16 15.101562 16 14 L 16 2 C 16 0.898438 15.101562 0 14 0 L 2 0 C 0.898438 0 0 0.898438 0 2 Z M 0 14 "/>
<path style=" stroke:none;fill-rule:nonzero;fill:rgb(100%,100%,100%);fill-opacity:1;" d="M 6.949219 2.972656 C 6.949219 2.390625 7.410156 1.929688 8.007812 1.929688 C 8.589844 1.929688 9.054688 2.390625 9.054688 2.972656 L 9.054688 13.042969 C 9.054688 13.625 8.589844 14.085938 8.007812 14.085938 C 7.410156 14.085938 6.949219 13.625 6.949219 13.042969 Z M 6.949219 2.972656 "/>
</g>
</svg>
