<?xml version="1.0" encoding="UTF-8"?>
<svg width="20px" height="27px" viewBox="0 0 20 27" version="1.1" xmlns="http://www.w3.org/2000/svg" xmlns:xlink="http://www.w3.org/1999/xlink">
    <title>icon-stop-tram-medium</title>
    <g id="Page-1" stroke="none" stroke-width="1" fill="none" fill-rule="evenodd">
        <g id="icons" transform="translate(-134.000000, -53.000000)">
            <g id="stop-marker-master-alt3" transform="translate(114.000000, 33.000000)">
                <g id="stop-ball/tram-alt" transform="translate(21.000000, 21.000000)" stroke-width="1">
                    <circle id="Oval" stroke="#FFFFFF" fill="#00985F" cx="9" cy="9" r="9.5"></circle>
                    <g id="icon-tram" transform="translate(2.500000, 2.500000)">
                        <g id="icon_tram">
                            <path d="M11.05,12.61 L1.95,12.61 C1.08834375,12.61 0.39,11.9116562 0.39,11.05 L0.39,1.95 C0.39,1.08834375 1.08834375,0.39 1.95,0.39 L11.05,0.39 C11.9116563,0.39 12.61,1.08834375 12.61,1.95 L12.61,11.05 C12.61,11.9116562 11.9116563,12.61 11.05,12.61 Z" id="Shape" fill="#FFFFFF" fill-rule="nonzero"></path>
                            <path d="M0.00040625,1.6095625 C0.00040625,0.7320625 0.73165625,0.0008125 1.60915625,0.0008125 L11.3583437,0.0008125 C12.2683437,0.0008125 12.9995937,0.7320625 12.9995937,1.6095625 L12.9995937,11.35875 C12.9995937,12.26875 12.2683437,13 11.3583437,13 L1.60915625,13 C0.73165625,13 0.00040625,12.26875 0.00040625,11.35875 L0.00040625,1.6095625 Z M9.08334375,2.7795625 C9.00209375,2.5845625 8.88834375,2.4870625 8.69334375,2.4383125 C7.99459375,2.2595625 7.49084375,2.1945625 6.84084375,2.1783125 L6.84084375,1.6095625 L8.04334375,1.6095625 C8.20584375,1.6095625 8.33584375,1.4633125 8.33584375,1.3008125 C8.33584375,1.1058125 8.20584375,0.9595625 8.04334375,0.9595625 L4.98875,0.9595625 C4.79375,0.9595625 4.6475,1.1058125 4.6475,1.3008125 C4.6475,1.4633125 4.79375,1.6095625 4.98875,1.6095625 L6.175,1.6095625 L6.175,2.1783125 C5.50875,2.1945625 4.9725,2.2595625 4.3225,2.4383125 C4.095,2.5033125 3.98125,2.5845625 3.88375,2.7795625 L3.6075,3.4458125 C3.52625,3.6408125 3.52625,3.9170625 3.52625,4.1283125 L3.52625,9.97790625 C3.52625,10.2704062 3.72125,10.4491562 4.01375,10.4979062 C4.89125,10.6766562 5.655,10.7416562 6.49959375,10.7416562 C7.31209375,10.7416562 8.09209375,10.6766562 9.0016875,10.4979062 C9.2779375,10.4491562 9.4891875,10.2704062 9.4891875,9.97790625 L9.4891875,4.1283125 C9.4891875,3.9170625 9.4404375,3.6408125 9.3591875,3.4458125 L9.0829375,2.7795625 L9.08334375,2.7795625 Z M8.27084375,11.5375 L8.27084375,11.05 L7.66959375,11.13125 L7.66959375,11.5375 L5.34584375,11.5375 L5.34584375,11.13125 L4.74459375,11.05 L4.74459375,11.5375 L4.25709375,11.5375 C4.07834375,11.5375 3.96459375,11.68375 3.96459375,11.83 C3.96459375,12.04125 4.07834375,12.17125 4.25709375,12.17125 L8.7579375,12.17125 C8.9041875,12.17125 9.0666875,12.04125 9.0666875,11.83 C9.0666875,11.68375 8.9041875,11.5375 8.7579375,11.5375 L8.2704375,11.5375 L8.27084375,11.5375 Z M4.11125,9.03540625 C4.11125,8.80790625 4.27375,8.62915625 4.485,8.62915625 C4.7125,8.62915625 4.875,8.80790625 4.875,9.03540625 C4.875,9.24665625 4.7125,9.39290625 4.485,9.39290625 C4.27375,9.39290625 4.11125,9.24665625 4.11125,9.03540625 Z M4.1275,3.9983125 L8.85584375,3.9983125 L8.85584375,7.94665625 C8.23834375,8.12540625 7.36084375,8.23915625 6.49959375,8.23915625 C5.65459375,8.23915625 4.77709375,8.10915625 4.12709375,7.94665625 L4.12709375,3.9983125 L4.1275,3.9983125 Z M8.20584375,9.03540625 C8.20584375,8.80790625 8.35209375,8.62915625 8.56334375,8.62915625 C8.79084375,8.62915625 8.96959375,8.80790625 8.96959375,9.03540625 C8.96959375,9.24665625 8.79084375,9.39290625 8.56334375,9.39290625 C8.35209375,9.39290625 8.20584375,9.24665625 8.20584375,9.03540625 Z" id="Shape" fill="#00985F" fill-rule="nonzero"></path>
                        </g>
                    </g>
                </g>
                <path d="M29,39 L31,39 L31,46 C31,46.5522847 30.5522847,47 30,47 C29.4477153,47 29,46.5522847 29,46 L29,39 L29,39 Z" id="Rectangle" fill="#333333"></path>
            </g>
        </g>
    </g>
</svg>