<?xml version="1.0" encoding="UTF-8"?>
<svg xmlns="http://www.w3.org/2000/svg" xmlns:xlink="http://www.w3.org/1999/xlink" width="16px" height="16px" viewBox="0 0 16 16" version="1.1">
<g id="surface1">
<path style=" stroke:none;fill-rule:nonzero;fill:#007AC9;fill-opacity:1;" d="M 0 14 C 0 15.101562 0.898438 16 2 16 L 14 16 C 15.101562 16 16 15.101562 16 14 L 16 2 C 16 0.898438 15.101562 0 14 0 L 2 0 C 0.898438 0 0 0.898438 0 2 Z M 0 14 "/>
<path style=" stroke:none;fill-rule:nonzero;fill:rgb(100%,100%,100%);fill-opacity:1;" d="M 3.804688 12.9375 L 3.804688 3.078125 C 3.804688 2.476562 4.269531 2.015625 4.867188 2.015625 L 11.835938 2.015625 C 12.347656 2.015625 12.777344 2.445312 12.777344 2.957031 C 12.777344 3.488281 12.347656 3.898438 11.835938 3.898438 L 5.910156 3.898438 L 5.910156 7.015625 L 11.066406 7.015625 C 11.578125 7.015625 12.007812 7.441406 12.007812 7.972656 C 12.007812 8.488281 11.578125 8.898438 11.066406 8.898438 L 5.910156 8.898438 L 5.910156 12.117188 L 11.921875 12.117188 C 12.433594 12.117188 12.863281 12.542969 12.863281 13.058594 C 12.863281 13.589844 12.433594 14 11.921875 14 L 4.867188 14 C 4.269531 14 3.804688 13.539062 3.804688 12.9375 Z M 3.804688 12.9375 "/>
</g>
</svg>
