<?xml version="1.0" encoding="UTF-8"?>
<svg width="24px" height="24px" viewBox="0 0 24 24" version="1.1" xmlns="http://www.w3.org/2000/svg" xmlns:xlink="http://www.w3.org/1999/xlink">
    <title>icon-bus-24</title>
    <g id="Page-1" stroke="none" stroke-width="1" fill="none" fill-rule="evenodd">
        <g id="icons" transform="translate(-76.000000, -218.000000)">
            <g id="icon-bus" transform="translate(76.000000, 218.000000)">
                <g id="icon_bus">
                    <path d="M20.49375,23.28 L3.69375,23.28 C2.103,23.28 0.81375,21.99075 0.81375,20.4 L0.81375,3.6 C0.81375,2.00925 2.103,0.72 3.69375,0.72 L20.49375,0.72 C22.0845,0.72 23.37375,2.00925 23.37375,3.6 L23.37375,20.4 C23.37375,21.99075 22.0845,23.28 20.49375,23.28 Z" id="Shape" fill="#FFFFFF" fill-rule="nonzero"></path>
                    <path d="M0.00075,2.9715 C0.00075,1.3515 1.35075,0.0015 2.97075,0.0015 L20.96925,0.0015 C22.64925,0.0015 23.99925,1.3515 23.99925,2.9715 L23.99925,20.97 C23.99925,22.65 22.64925,24 20.96925,24 L2.97075,24 C1.35075,24 0.00075,22.65 0.00075,20.97 L0.00075,2.9715 Z M12.03,2.5815 C9.54,2.5815 7.38,2.7015 5.01075,3.0315 C4.29075,3.1215 3.87075,3.5415 3.87075,4.1715 L3.87075,18.21 C3.87075,18.66 4.20075,18.96 4.50075,19.05 L5.40075,19.2 L5.40075,21.09 C5.40075,21.3 5.58075,21.45 5.82075,21.45 L7.26075,21.45 C7.44075,21.45 7.62075,21.3 7.62075,21.09 L7.62075,19.41 C8.79075,19.56 10.38075,19.62 11.97075,19.62 C13.59075,19.62 15.24075,19.56 16.38075,19.41 L16.38075,21.09 C16.38075,21.3 16.59075,21.45 16.77075,21.45 L18.21075,21.45 C18.45075,21.45 18.63075,21.3 18.63075,21.09 L18.63075,19.2 L19.53075,19.05 C19.86075,18.96 20.16075,18.69 20.16075,18.21 L20.16075,4.1715 C20.16075,3.5415 19.74075,3.1215 19.02075,3.0315 C16.62075,2.7315 14.4315,2.5815 12.0315,2.5815 L12.03,2.5815 Z M18.23925,14.55075 C16.52925,14.85075 14.27925,15.15075 12.09,15.15075 C9.78,15.15075 7.59075,14.88075 5.85075,14.49075 C5.37075,14.40075 5.19075,14.22075 5.19075,13.83075 L5.19075,5.0715 C5.19075,4.6815 5.37075,4.4115 5.85075,4.4115 L18.23925,4.4715 C18.71925,4.4715 18.86925,4.7415 18.86925,5.1315 L18.86925,13.89075 C18.86925,14.28075 18.71925,14.49075 18.23925,14.55075 L18.23925,14.55075 Z M5.67,16.95075 C5.7,16.56075 6.06,16.20075 6.48,16.20075 C6.9,16.20075 7.26,16.56075 7.26,16.95075 C7.26,17.40075 6.9,17.76075 6.48,17.76075 C6.03,17.73075 5.67,17.37075 5.67,16.95075 L5.67,16.95075 Z M16.64925,16.95075 C16.67925,16.56075 17.03925,16.20075 17.42925,16.20075 C17.84925,16.20075 18.20925,16.56075 18.20925,16.95075 C18.20925,17.40075 17.84925,17.76075 17.42925,17.76075 C17.00925,17.73075 16.64925,17.37075 16.64925,16.95075 Z" id="Shape" fill="#007AC9" fill-rule="nonzero"></path>
                </g>
            </g>
        </g>
    </g>
</svg>