<?xml version="1.0" encoding="UTF-8"?>
<svg xmlns="http://www.w3.org/2000/svg" xmlns:xlink="http://www.w3.org/1999/xlink" width="16px" height="16px" viewBox="0 0 16 16" version="1.1">
<g id="surface1">
<path style=" stroke:none;fill-rule:nonzero;fill:#007AC9;fill-opacity:1;" d="M 0 14 C 0 15.101562 0.898438 16 2 16 L 14 16 C 15.101562 16 16 15.101562 16 14 L 16 2 C 16 0.898438 15.101562 0 14 0 L 2 0 C 0.898438 0 0 0.898438 0 2 Z M 0 14 "/>
<path style=" stroke:none;fill-rule:nonzero;fill:rgb(100%,100%,100%);fill-opacity:1;" d="M 3.035156 2.972656 C 3.035156 2.390625 3.496094 1.929688 4.097656 1.929688 C 4.679688 1.929688 5.140625 2.390625 5.140625 2.972656 L 5.140625 6.996094 L 10.859375 6.996094 L 10.859375 2.972656 C 10.859375 2.390625 11.320312 1.929688 11.902344 1.929688 C 12.503906 1.929688 12.964844 2.390625 12.964844 2.972656 L 12.964844 13.042969 C 12.964844 13.625 12.503906 14.085938 11.902344 14.085938 C 11.320312 14.085938 10.859375 13.625 10.859375 13.042969 L 10.859375 8.949219 L 5.140625 8.949219 L 5.140625 13.042969 C 5.140625 13.625 4.679688 14.085938 4.097656 14.085938 C 3.496094 14.085938 3.035156 13.625 3.035156 13.042969 Z M 3.035156 2.972656 "/>
</g>
</svg>
