<?xml version="1.0" encoding="UTF-8"?>
<svg xmlns="http://www.w3.org/2000/svg" xmlns:xlink="http://www.w3.org/1999/xlink" width="16px" height="16px" viewBox="0 0 16 16" version="1.1">
<g id="surface1">
<path style=" stroke:none;fill-rule:nonzero;fill:#007AC9;fill-opacity:1;" d="M 0 14 C 0 15.101562 0.898438 16 2 16 L 14 16 C 15.101562 16 16 15.101562 16 14 L 16 2 C 16 0.898438 15.101562 0 14 0 L 2 0 C 0.898438 0 0 0.898438 0 2 Z M 0 14 "/>
<path style=" stroke:none;fill-rule:nonzero;fill:rgb(100%,100%,100%);fill-opacity:1;" d="M 3.824219 3.078125 C 3.824219 2.476562 4.285156 2.015625 4.882812 2.015625 L 8.546875 2.015625 C 11.355469 2.015625 13.101562 3.609375 13.101562 6.023438 L 13.101562 6.054688 C 13.101562 8.742188 10.945312 10.148438 8.308594 10.148438 L 5.929688 10.148438 L 5.929688 13.042969 C 5.929688 13.625 5.464844 14.085938 4.882812 14.085938 C 4.285156 14.085938 3.824219 13.625 3.824219 13.042969 Z M 8.375 8.246094 C 9.96875 8.246094 10.960938 7.355469 10.960938 6.105469 L 10.960938 6.074219 C 10.960938 4.667969 9.953125 3.933594 8.375 3.933594 L 5.929688 3.933594 L 5.929688 8.246094 Z M 8.375 8.246094 "/>
</g>
</svg>
