<?xml version="1.0" encoding="UTF-8"?>
<svg xmlns="http://www.w3.org/2000/svg" xmlns:xlink="http://www.w3.org/1999/xlink" width="16px" height="16px" viewBox="0 0 16 16" version="1.1">
<g id="surface1">
<path style=" stroke:none;fill-rule:nonzero;fill:rgb(0%,47.843137%,78.823531%);fill-opacity:1;" d="M 0 14 C 0 15.101562 0.898438 16 2 16 L 14 16 C 15.101562 16 16 15.101562 16 14 L 16 2 C 16 0.898438 15.101562 0 14 0 L 2 0 C 0.898438 0 0 0.898438 0 2 Z M 0 14 "/>
<path style=" stroke:none;fill-rule:nonzero;fill:rgb(100%,100%,100%);fill-opacity:1;" d="M 4.242188 2.972656 C 4.242188 2.390625 4.703125 1.929688 5.304688 1.929688 C 5.886719 1.929688 6.347656 2.390625 6.347656 2.972656 L 6.347656 12.082031 L 11.773438 12.082031 C 12.03125 12.082031 12.273438 12.183594 12.453125 12.363281 C 12.632812 12.542969 12.734375 12.785156 12.734375 13.042969 C 12.734375 13.296875 12.632812 13.539062 12.453125 13.71875 C 12.273438 13.898438 12.03125 14 11.773438 14 L 5.304688 14 C 4.703125 14 4.242188 13.539062 4.242188 12.9375 Z M 4.242188 2.972656 "/>
</g>
</svg>
