<?xml version="1.0" encoding="UTF-8"?>
<svg width="24px" height="33px" viewBox="0 0 24 33" version="1.1" xmlns="http://www.w3.org/2000/svg" xmlns:xlink="http://www.w3.org/1999/xlink">
    <title>icon-stop-tram-large</title>
    <g id="Page-1" stroke="none" stroke-width="1" fill="none" fill-rule="evenodd">
        <g id="icons" transform="translate(-228.000000, -51.000000)">
            <g id="stop-marker-master-alt3" transform="translate(204.000000, 27.000000)">
                <g id="stop-ball/tram-alt" transform="translate(25.200000, 25.200000)">
                    <circle id="Oval" stroke="#FFFFFF" stroke-width="1.2" fill="#00985F" cx="10.8" cy="10.8" r="11.4"></circle>
                    <g id="icon-tram" transform="translate(3.000000, 3.000000)" stroke-width="1">
                        <g id="icon_tram">
                            <path d="M13.26,15.132 L2.34,15.132 C1.3060125,15.132 0.468,14.2939875 0.468,13.26 L0.468,2.34 C0.468,1.3060125 1.3060125,0.468 2.34,0.468 L13.26,0.468 C14.2939875,0.468 15.132,1.3060125 15.132,2.34 L15.132,13.26 C15.132,14.2939875 14.2939875,15.132 13.26,15.132 Z" id="Shape" fill="#FFFFFF" fill-rule="nonzero"></path>
                            <path d="M0.0004875,1.931475 C0.0004875,0.878475 0.8779875,0.000975 1.9309875,0.000975 L13.6300125,0.000975 C14.7220125,0.000975 15.5995125,0.878475 15.5995125,1.931475 L15.5995125,13.6305 C15.5995125,14.7225 14.7220125,15.6 13.6300125,15.6 L1.9309875,15.6 C0.8779875,15.6 0.0004875,14.7225 0.0004875,13.6305 L0.0004875,1.931475 Z M10.9000125,3.335475 C10.8025125,3.101475 10.6660125,2.984475 10.4320125,2.925975 C9.5935125,2.711475 8.9890125,2.633475 8.2090125,2.613975 L8.2090125,1.931475 L9.6520125,1.931475 C9.8470125,1.931475 10.0030125,1.755975 10.0030125,1.560975 C10.0030125,1.326975 9.8470125,1.151475 9.6520125,1.151475 L5.9865,1.151475 C5.7525,1.151475 5.577,1.326975 5.577,1.560975 C5.577,1.755975 5.7525,1.931475 5.9865,1.931475 L7.41,1.931475 L7.41,2.613975 C6.6105,2.633475 5.967,2.711475 5.187,2.925975 C4.914,3.003975 4.7775,3.101475 4.6605,3.335475 L4.329,4.134975 C4.2315,4.368975 4.2315,4.700475 4.2315,4.953975 L4.2315,11.9734875 C4.2315,12.3244875 4.4655,12.5389875 4.8165,12.5974875 C5.8695,12.8119875 6.786,12.8899875 7.7995125,12.8899875 C8.7745125,12.8899875 9.7105125,12.8119875 10.802025,12.5974875 C11.133525,12.5389875 11.387025,12.3244875 11.387025,11.9734875 L11.387025,4.953975 C11.387025,4.700475 11.328525,4.368975 11.231025,4.134975 L10.899525,3.335475 L10.9000125,3.335475 Z M9.9250125,13.845 L9.9250125,13.26 L9.2035125,13.3575 L9.2035125,13.845 L6.4150125,13.845 L6.4150125,13.3575 L5.6935125,13.26 L5.6935125,13.845 L5.1085125,13.845 C4.8940125,13.845 4.7575125,14.0205 4.7575125,14.196 C4.7575125,14.4495 4.8940125,14.6055 5.1085125,14.6055 L10.509525,14.6055 C10.685025,14.6055 10.880025,14.4495 10.880025,14.196 C10.880025,14.0205 10.685025,13.845 10.509525,13.845 L9.924525,13.845 L9.9250125,13.845 Z M4.9335,10.8424875 C4.9335,10.5694875 5.1285,10.3549875 5.382,10.3549875 C5.655,10.3549875 5.85,10.5694875 5.85,10.8424875 C5.85,11.0959875 5.655,11.2714875 5.382,11.2714875 C5.1285,11.2714875 4.9335,11.0959875 4.9335,10.8424875 Z M4.953,4.797975 L10.6270125,4.797975 L10.6270125,9.5359875 C9.8860125,9.7504875 8.8330125,9.8869875 7.7995125,9.8869875 C6.7855125,9.8869875 5.7325125,9.7309875 4.9525125,9.5359875 L4.9525125,4.797975 L4.953,4.797975 Z M9.8470125,10.8424875 C9.8470125,10.5694875 10.0225125,10.3549875 10.2760125,10.3549875 C10.5490125,10.3549875 10.7635125,10.5694875 10.7635125,10.8424875 C10.7635125,11.0959875 10.5490125,11.2714875 10.2760125,11.2714875 C10.0225125,11.2714875 9.8470125,11.0959875 9.8470125,10.8424875 Z" id="Shape" fill="#00985F" fill-rule="nonzero"></path>
                        </g>
                    </g>
                </g>
                <path d="M34.8,46.8 L37.2,46.8 L37.2,55.2 C37.2,55.8627417 36.6627417,56.4 36,56.4 C35.3372583,56.4 34.8,55.8627417 34.8,55.2 L34.8,46.8 L34.8,46.8 Z" id="Rectangle" fill="#333333"></path>
            </g>
        </g>
    </g>
</svg>