<?xml version="1.0" encoding="UTF-8"?>
<svg width="20px" height="20px" viewBox="0 0 20 20" version="1.1" xmlns="http://www.w3.org/2000/svg" xmlns:xlink="http://www.w3.org/1999/xlink">
    <title>icon-bus-20</title>
    <g id="Page-1" stroke="none" stroke-width="1" fill="none" fill-rule="evenodd">
        <g id="icons" transform="translate(-76.000000, -168.000000)">
            <g id="icon-bus" transform="translate(76.000000, 168.000000)">
                <g id="icon_bus">
                    <path d="M17.078125,19.4 L3.078125,19.4 C1.7525,19.4 0.678125,18.325625 0.678125,17 L0.678125,3 C0.678125,1.674375 1.7525,0.6 3.078125,0.6 L17.078125,0.6 C18.40375,0.6 19.478125,1.674375 19.478125,3 L19.478125,17 C19.478125,18.325625 18.40375,19.4 17.078125,19.4 Z" id="Shape" fill="#FFFFFF" fill-rule="nonzero"></path>
                    <path d="M0.000625,2.47625 C0.000625,1.12625 1.125625,0.00125 2.475625,0.00125 L17.474375,0.00125 C18.874375,0.00125 19.999375,1.12625 19.999375,2.47625 L19.999375,17.475 C19.999375,18.875 18.874375,20 17.474375,20 L2.475625,20 C1.125625,20 0.000625,18.875 0.000625,17.475 L0.000625,2.47625 Z M10.025,2.15125 C7.95,2.15125 6.15,2.25125 4.175625,2.52625 C3.575625,2.60125 3.225625,2.95125 3.225625,3.47625 L3.225625,15.175 C3.225625,15.55 3.500625,15.8 3.750625,15.875 L4.500625,16 L4.500625,17.575 C4.500625,17.75 4.650625,17.875 4.850625,17.875 L6.050625,17.875 C6.200625,17.875 6.350625,17.75 6.350625,17.575 L6.350625,16.175 C7.325625,16.3 8.650625,16.35 9.975625,16.35 C11.325625,16.35 12.700625,16.3 13.650625,16.175 L13.650625,17.575 C13.650625,17.75 13.825625,17.875 13.975625,17.875 L15.175625,17.875 C15.375625,17.875 15.525625,17.75 15.525625,17.575 L15.525625,16 L16.275625,15.875 C16.550625,15.8 16.800625,15.575 16.800625,15.175 L16.800625,3.47625 C16.800625,2.95125 16.450625,2.60125 15.850625,2.52625 C13.850625,2.27625 12.02625,2.15125 10.02625,2.15125 L10.025,2.15125 Z M15.199375,12.125625 C13.774375,12.375625 11.899375,12.625625 10.075,12.625625 C8.15,12.625625 6.325625,12.400625 4.875625,12.075625 C4.475625,12.000625 4.325625,11.850625 4.325625,11.525625 L4.325625,4.22625 C4.325625,3.90125 4.475625,3.67625 4.875625,3.67625 L15.199375,3.72625 C15.599375,3.72625 15.724375,3.95125 15.724375,4.27625 L15.724375,11.575625 C15.724375,11.900625 15.599375,12.075625 15.199375,12.125625 L15.199375,12.125625 Z M4.725,14.125625 C4.75,13.800625 5.05,13.500625 5.4,13.500625 C5.75,13.500625 6.05,13.800625 6.05,14.125625 C6.05,14.500625 5.75,14.800625 5.4,14.800625 C5.025,14.775625 4.725,14.475625 4.725,14.125625 L4.725,14.125625 Z M13.874375,14.125625 C13.899375,13.800625 14.199375,13.500625 14.524375,13.500625 C14.874375,13.500625 15.174375,13.800625 15.174375,14.125625 C15.174375,14.500625 14.874375,14.800625 14.524375,14.800625 C14.174375,14.775625 13.874375,14.475625 13.874375,14.125625 Z" id="Shape" fill="#007AC9" fill-rule="nonzero"></path>
                </g>
            </g>
        </g>
    </g>
</svg>