<?xml version="1.0" encoding="UTF-8"?>
<svg width="20px" height="20px" viewBox="0 0 20 20" version="1.1" xmlns="http://www.w3.org/2000/svg" xmlns:xlink="http://www.w3.org/1999/xlink">
    <title>icon-hsl_ferry-20</title>
    <g id="Page-1" stroke="none" stroke-width="1" fill="none" fill-rule="evenodd">
        <g id="icons" transform="translate(-176.000000, -168.000000)">
            <g id="icon-ferry" transform="translate(176.000000, 168.000000)">
                <g id="icon_ferry">
                    <path d="M17,19.4 L3,19.4 C1.674375,19.4 0.6,18.325625 0.6,17 L0.6,3 C0.6,1.674375 1.674375,0.6 3,0.6 L17,0.6 C18.325625,0.6 19.4,1.674375 19.4,3 L19.4,17 C19.4,18.325625 18.325625,19.4 17,19.4 Z" id="Shape" fill="#FFFFFF" fill-rule="nonzero"></path>
                    <path d="M0.000625,2.47625 C0.000625,1.12625 1.125625,0.00125 2.475625,0.00125 L17.474375,0.00125 C18.874375,0.00125 19.999375,1.12625 19.999375,2.47625 L19.999375,17.475 C19.999375,18.875 18.874375,20 17.474375,20 L2.475625,20 C1.125625,20 0.000625,18.875 0.000625,17.475 L0.000625,2.47625 Z M3.025625,16.9 C2.775625,16.9 2.550625,17.1 2.550625,17.375 C2.550625,17.65 2.775625,17.85 3.025625,17.85 L16.974375,17.85 C17.249375,17.85 17.474375,17.65 17.474375,17.375 C17.474375,17.1 17.249375,16.9 16.974375,16.9 L3.025625,16.9 Z M16.024375,11.375625 C16.024375,11.375625 14.024375,10.850625 12.674375,10.550625 C11.499375,10.300625 10.049375,10.125625 9.949375,10.125625 C9.849375,10.125625 8.424375,10.300625 7.224375,10.550625 C5.874375,10.850625 3.874375,11.375625 3.874375,11.375625 L4.424375,16.125 L15.498125,16.125 L16.023125,11.375625 L16.024375,11.375625 Z M7.225,9.600625 C8.425,9.350625 9.875,9.175625 9.95,9.150625 C10.025,9.175625 11.475,9.350625 12.675,9.600625 C13.6,9.800625 14.125,9.925625 14.8,10.100625 L14.8,6.625625 C14.8,6.175625 14.925,5.575625 13.75,5.575625 L11.575,5.575625 L11.575,2.300625 C11.575,2.125625 11.425,1.975625 11.25,1.950625 L8.65,1.950625 C8.475,1.975625 8.35,2.125625 8.325,2.300625 L8.325,5.575 L6.15,5.575 C4.975,5.575 5.1,6.175 5.1,6.625 L5.1,10.1 L7.225,9.6 L7.225,9.600625 Z M8.4,7.40125 C8.4,7.92625 8,8.32625 7.475,8.32625 C6.95,8.32625 6.55,7.92625 6.55,7.40125 C6.55,6.87625 6.95,6.47625 7.475,6.47625 C8,6.47625 8.4,6.87625 8.4,7.40125 Z M10.875,7.40125 C10.875,7.92625 10.475,8.32625 9.95,8.32625 C9.45,8.32625 9.025,7.92625 9.025,7.40125 C9.025,6.87625 9.45,6.47625 9.95,6.47625 C10.475,6.47625 10.875,6.87625 10.875,7.40125 Z M13.349375,7.40125 C13.349375,7.92625 12.949375,8.32625 12.424375,8.32625 C11.924375,8.32625 11.499375,7.92625 11.499375,7.40125 C11.499375,6.87625 11.924375,6.47625 12.424375,6.47625 C12.949375,6.47625 13.349375,6.87625 13.349375,7.40125 Z" id="Shape" fill="#00B9E4" fill-rule="nonzero"></path>
                </g>
            </g>
        </g>
    </g>
</svg>