<?xml version="1.0" encoding="utf-8"?>
<!-- Generator: Adobe Illustrator 19.2.1, SVG Export Plug-In . SVG Version: 6.00 Build 0)  -->
<!DOCTYPE svg PUBLIC "-//W3C//DTD SVG 1.1//EN" "http://www.w3.org/Graphics/SVG/1.1/DTD/svg11.dtd">
<svg version="1.1" id="Layer_1" xmlns="http://www.w3.org/2000/svg" xmlns:xlink="http://www.w3.org/1999/xlink" x="0px" y="0px"
	 viewBox="0 0 16 16" enable-background="new 0 0 16 16" xml:space="preserve">
<g>
	<path fill="#007AC9" d="M0,1.98C0,0.9,0.9,0,1.98,0h12C15.1,0,16,0.9,16,1.98v12C16,15.1,15.1,16,13.98,16h-12
		C0.9,16,0,15.1,0,13.98V1.98z"/>
	<rect x="0.001" y="0.02" fill="none" width="15.98" height="15.98"/>
	<path fill="#FFFFFF" d="M6.99,4.939c0.013,0.031,0.046,0.064,0.063,0.077C7.058,5.02,7.06,5.021,7.06,5.021
		c0.034,0.011,0.081,0.041,0.098,0.041c0.012,0,0.016-0.002,0.02-0.008c0.004-0.005,0.004-0.009,0.001-0.02
		C7.175,5.02,7.153,4.988,7.109,4.958c0,0.001-0.002-0.001-0.008-0.005C7.095,4.949,7.086,4.944,7.075,4.939
		c-0.022-0.01-0.048-0.018-0.071-0.02c-0.003,0-0.005-0.001-0.007-0.001c-0.005,0-0.009,0.001-0.013,0.001
		c0,0.004,0.002,0.008,0.003,0.013C6.988,4.934,6.989,4.936,6.99,4.939"/>
	<path fill="#FFFFFF" d="M7.116,4.476c0.007,0.001,0.008,0.001,0.008,0.001c0.038,0,0.062-0.008,0.072-0.017
		C7.205,4.45,7.204,4.446,7.2,4.439C7.196,4.431,7.191,4.427,7.17,4.417C7.151,4.409,7.117,4.4,7.08,4.4H7.072
		C7.067,4.401,7.059,4.402,7.05,4.403C7.033,4.406,7.013,4.414,7.005,4.426C7.002,4.429,6.999,4.433,6.998,4.437
		C7.005,4.442,7.012,4.447,7.019,4.45C7.053,4.468,7.098,4.476,7.116,4.476"/>
	<path fill="#FFFFFF" d="M5.823,4.926C5.821,4.922,5.82,4.918,5.818,4.914c-0.005,0-0.009,0-0.015-0.001
		c-0.002,0-0.005,0-0.007,0.001c-0.036,0-0.066,0.022-0.078,0.033C5.715,4.951,5.714,4.952,5.714,4.952
		C5.687,4.982,5.684,5.014,5.69,5.03C5.693,5.041,5.696,5.045,5.704,5.05c0.008,0.005,0.012,0.007,0.025,0.007
		c0.017,0.001,0.05-0.01,0.075-0.04c0,0,0.008-0.009,0.015-0.026c0.006-0.016,0.01-0.038,0.006-0.058
		C5.824,4.931,5.823,4.928,5.823,4.926"/>
	<path fill="#FFFFFF" d="M5.652,3.816c0,0,0.001,0.001,0.006,0.005C5.662,3.824,5.67,3.829,5.679,3.834
		c0.018,0.012,0.043,0.025,0.069,0.035c0.008,0.003,0.016,0.006,0.025,0.008c0.003-0.003,0.005-0.006,0.006-0.008
		C5.785,3.855,5.767,3.83,5.755,3.82L5.751,3.816C5.724,3.794,5.693,3.777,5.672,3.77C5.649,3.761,5.642,3.761,5.633,3.761
		c-0.009,0-0.015,0.001-0.016,0.009C5.616,3.777,5.626,3.794,5.652,3.816"/>
	<path fill="#FFFFFF" d="M6.467,4.017C6.47,4.02,6.472,4.023,6.476,4.025C6.48,4.026,6.485,4.027,6.489,4.027h0.007
		C6.528,4.025,6.55,4.01,6.556,4.003C6.558,4,6.557,3.999,6.557,3.999C6.571,3.978,6.561,3.956,6.55,3.945
		c-0.008-0.007-0.013-0.01-0.022-0.013C6.52,3.928,6.514,3.927,6.502,3.927c-0.017,0-0.042,0.007-0.053,0.028
		C6.448,3.956,6.448,3.957,6.448,3.958C6.447,3.961,6.446,3.966,6.446,3.971c0.001,0.011,0.005,0.026,0.016,0.041
		C6.464,4.013,6.466,4.015,6.467,4.017"/>
	<path fill="#FFFFFF" d="M3.26,3.821H3.217c-0.249,0-0.385-0.213-0.385-0.384c0-0.212,0.173-0.384,0.385-0.384h6.07
		c0.199,0,0.34,0.153,0.36,0.346c0.286,0.21,0.582,0.488,0.834,0.833v-2.2H2.027v2.764h2.273C3.99,4.108,3.585,3.821,3.26,3.821"/>
	<path fill="#FFFFFF" d="M6.552,5.548c-0.076,0-0.156-0.038-0.215-0.101C6.288,5.396,6.253,5.33,6.235,5.255
		C6.225,5.207,6.223,5.164,6.23,5.124C6.16,5.099,6.107,5.081,6.039,5.058C6.03,5.09,6.016,5.121,5.994,5.15L5.991,5.154
		C5.933,5.222,5.855,5.259,5.77,5.259c-0.064,0-0.131-0.023-0.185-0.063C5.532,5.156,5.491,5.1,5.475,5.041
		c-0.023-0.08-0.005-0.16,0.05-0.226c0.023-0.024,0.047-0.044,0.074-0.058C5.558,4.71,5.523,4.673,5.473,4.622
		C5.435,4.639,5.389,4.647,5.339,4.648c-0.08,0-0.155-0.016-0.225-0.047C5.035,4.568,4.969,4.513,4.938,4.455
		c-0.039-0.072-0.024-0.15,0.038-0.194C5.02,4.231,5.083,4.216,5.163,4.216l0.01,0c0.04,0.001,0.081,0.007,0.123,0.016
		C5.294,4.21,5.292,4.191,5.289,4.171C5.237,4.16,5.181,4.144,5.124,4.122C5.022,4.079,4.949,4.035,4.901,3.989
		c-0.052-0.05-0.065-0.11-0.034-0.155c0.033-0.047,0.1-0.056,0.151-0.056c0.08,0,0.173,0.018,0.271,0.053l0.008,0.003
		c0.06,0.021,0.113,0.048,0.157,0.078l0.053-0.017C5.493,3.886,5.48,3.877,5.469,3.867L5.465,3.865
		c-0.062-0.051-0.09-0.094-0.091-0.137C5.373,3.705,5.382,3.682,5.4,3.664c0.025-0.025,0.068-0.039,0.127-0.039
		c0.068,0,0.153,0.016,0.228,0.044c0.071,0.026,0.134,0.061,0.182,0.1c0.035,0.031,0.057,0.06,0.069,0.089
		c0.081,0.017,0.14,0.029,0.211,0.044c0.001-0.011,0.005-0.023,0.009-0.034c0.032-0.061,0.091-0.089,0.179-0.09
		c0.054,0,0.118,0.012,0.177,0.034c0.064,0.023,0.12,0.057,0.154,0.093c0.058,0.06,0.072,0.132,0.038,0.194
		c-0.009,0.014-0.02,0.025-0.032,0.036C6.787,4.17,6.827,4.202,6.884,4.25c0.032-0.015,0.072-0.023,0.118-0.024
		c0.075,0,0.146,0.015,0.213,0.042c0.078,0.031,0.145,0.085,0.178,0.14c0.042,0.07,0.032,0.15-0.023,0.197
		C7.328,4.641,7.266,4.66,7.19,4.66l-0.008,0C7.144,4.658,7.107,4.652,7.07,4.642C7.069,4.675,7.068,4.706,7.066,4.745
		c0.047,0.013,0.093,0.034,0.14,0.063l0.007,0.005c0.085,0.057,0.144,0.126,0.17,0.199C7.405,5.076,7.396,5.142,7.359,5.19
		C7.324,5.236,7.263,5.262,7.197,5.262c-0.08,0-0.166-0.032-0.249-0.093L6.939,5.163C6.924,5.15,6.878,5.114,6.837,5.056
		L6.709,5.111C6.732,5.145,6.749,5.182,6.76,5.22c0.021,0.083,0.016,0.154-0.015,0.214C6.71,5.504,6.636,5.548,6.554,5.548H6.552z
		 M7.328,3.89c0.007-0.016,0.026-0.043,0.086-0.043h0.451c0.376,0,0.665,0,1.129,0.002c0.072,0,0.173,0.04,0.23,0.089
		c0.051,0.044,0.048,0.079,0.042,0.097C9.26,4.051,9.242,4.078,9.184,4.078H9.182C8.595,4.074,8.283,4.073,7.74,4.072l-0.163,0
		c-0.07,0-0.165-0.04-0.216-0.091C7.317,3.939,7.322,3.906,7.328,3.89 M9.702,4.434c0.04,0.05,0.032,0.088,0.023,0.106
		c-0.014,0.03-0.047,0.047-0.091,0.047h0c-0.563-0.004-1.127-0.008-1.69-0.01C7.869,4.575,7.778,4.523,7.738,4.459
		C7.707,4.41,7.718,4.375,7.727,4.358C7.736,4.341,7.76,4.313,7.819,4.313l0.037,0c0.541,0.003,1.081,0.006,1.622,0.01
		C9.554,4.324,9.653,4.373,9.702,4.434 M9.875,4.88c0.083,0.001,0.18,0.058,0.221,0.129c0.023,0.04,0.026,0.081,0.008,0.113
		c-0.018,0.032-0.054,0.05-0.1,0.05C9.409,5.17,8.814,5.168,8.219,5.167C8.138,5.166,8.05,5.106,8.02,5.029
		C8.004,4.988,8.006,4.949,8.027,4.918c0.021-0.03,0.055-0.046,0.098-0.046C8.71,4.874,9.292,4.877,9.875,4.88 M11.237,7.379
		c-0.094-1.077-0.374-1.938-0.755-2.596V4.78c-0.005-0.008-0.01-0.015-0.014-0.022c-0.129-0.218-0.267-0.413-0.414-0.586
		c-0.004-0.004-0.008-0.008-0.012-0.013C9.969,4.074,9.895,3.995,9.818,3.921C9.815,3.918,9.812,3.916,9.81,3.913
		c-0.263-0.251-0.543-0.44-0.827-0.565H3.299h0c-0.053,0-0.096,0.043-0.096,0.096c0,0.039,0.031,0.093,0.132,0.093
		c0.553,0,1.022,0.559,1.322,1.225c0.35,0.774,0.646,1.893,0.646,3.419h0.954C6.26,8.005,6.264,7.828,6.277,7.659
		c0.012-0.158,0.143-0.28,0.302-0.28H11.237z"/>
	<path fill="#FFFFFF" d="M6.814,4.45C6.662,4.31,6.581,4.244,6.418,4.127C6.196,4.075,6.087,4.051,5.872,4.005
		C5.747,4.048,5.676,4.073,5.546,4.117c0.016,0.104,0.02,0.172,0.018,0.3c0.145,0.135,0.217,0.21,0.352,0.372
		c0.211,0.067,0.316,0.103,0.511,0.168l0.378-0.158C6.818,4.651,6.819,4.577,6.814,4.45"/>
	<path fill="#FFFFFF" d="M5.321,4.023c0.004,0,0.008,0,0.013-0.001C5.332,4.019,5.329,4.016,5.327,4.014
		C5.326,4.012,5.324,4.01,5.322,4.008C5.3,3.987,5.255,3.965,5.233,3.955C5.227,3.953,5.224,3.952,5.224,3.952
		C5.17,3.932,5.127,3.924,5.109,3.924c-0.012,0-0.015,0.002-0.018,0.005C5.089,3.933,5.089,3.936,5.096,3.943
		c0.009,0.01,0.042,0.031,0.097,0.052c0,0,0.002,0.001,0.009,0.004C5.21,4.001,5.22,4.004,5.233,4.008
		c0.024,0.007,0.055,0.014,0.078,0.015C5.314,4.023,5.318,4.023,5.321,4.023"/>
	<path fill="#FFFFFF" d="M5.242,4.39c-0.007,0-0.009,0-0.009,0h0c-0.04,0-0.068,0.008-0.079,0.016
		c-0.01,0.009-0.01,0.014-0.007,0.021c0.005,0.008,0.009,0.012,0.03,0.022c0.021,0.009,0.056,0.018,0.098,0.018h0.008
		c0.007,0,0.015-0.001,0.025-0.003c0.019-0.004,0.04-0.012,0.052-0.023c0.004-0.003,0.007-0.007,0.009-0.012
		C5.362,4.424,5.354,4.42,5.347,4.416C5.311,4.399,5.262,4.391,5.242,4.39"/>
	<path fill="#FFFFFF" d="M6.547,5.234C6.545,5.229,6.541,5.219,6.537,5.21c-0.01-0.02-0.025-0.042-0.046-0.059
		c-0.007-0.005-0.013-0.01-0.019-0.014C6.468,5.141,6.463,5.146,6.46,5.151C6.444,5.175,6.444,5.216,6.447,5.234
		c0.001,0.006,0.001,0.008,0.001,0.008C6.458,5.279,6.475,5.309,6.49,5.324C6.506,5.339,6.513,5.34,6.522,5.341
		c0.01,0,0.016-0.002,0.025-0.017C6.554,5.309,6.56,5.28,6.55,5.241C6.55,5.241,6.55,5.239,6.547,5.234"/>
	<path fill="#FFFFFF" d="M9.63,10.038c-0.018-0.012-0.052-0.023-0.093-0.023c0,0-0.002,0-0.009,0
		c-0.006,0.001-0.015,0.002-0.025,0.005c-0.02,0.005-0.045,0.015-0.06,0.031c-0.005,0.005-0.009,0.01-0.012,0.017
		c0.006,0.006,0.012,0.012,0.018,0.016c0.031,0.024,0.078,0.034,0.098,0.036c0.008,0,0.009,0,0.009,0
		c0.041,0,0.07-0.012,0.084-0.024c0.014-0.013,0.014-0.02,0.013-0.029C9.652,10.058,9.648,10.051,9.63,10.038"/>
	<path fill="#FFFFFF" d="M8.119,10.698c-0.001-0.005-0.003-0.01-0.006-0.015c-0.005,0-0.01,0-0.015-0.001c-0.003,0-0.006,0-0.008,0
		c-0.035,0.002-0.066,0.027-0.076,0.039c-0.003,0.005-0.004,0.006-0.004,0.006c-0.024,0.035-0.023,0.072-0.016,0.09
		c0.005,0.013,0.009,0.016,0.018,0.023c0.008,0.005,0.013,0.008,0.026,0.008c0.018,0,0.05-0.012,0.072-0.047
		c0,0,0.007-0.01,0.012-0.029c0.004-0.019,0.007-0.044,0-0.068C8.121,10.705,8.121,10.701,8.119,10.698"/>
	<path fill="#FFFFFF" d="M7.588,10.015c-0.007,0-0.008,0-0.008,0H7.579c-0.04,0-0.07,0.012-0.084,0.023
		c-0.014,0.013-0.015,0.02-0.013,0.03c0.002,0.009,0.005,0.016,0.023,0.029c0.019,0.012,0.052,0.024,0.094,0.024
		c0,0,0.003,0,0.008,0c0.007-0.001,0.016-0.002,0.026-0.004c0.02-0.006,0.044-0.017,0.059-0.032
		c0.005-0.005,0.009-0.011,0.012-0.017c-0.005-0.006-0.012-0.011-0.018-0.016C7.656,10.027,7.609,10.017,7.588,10.015"/>
	<path fill="#FFFFFF" d="M7.857,9.339C7.853,9.335,7.851,9.332,7.851,9.332C7.816,9.297,7.78,9.284,7.763,9.285
		c-0.013,0-0.017,0.003-0.023,0.009C7.733,9.3,7.73,9.304,7.73,9.317c0,0.018,0.011,0.055,0.047,0.09c0,0,0.001,0.002,0.007,0.006
		c0.006,0.005,0.013,0.01,0.022,0.016C7.825,9.44,7.851,9.451,7.874,9.452h0.008c0.005,0,0.009,0,0.015-0.001
		c0-0.005,0-0.009,0-0.015c0-0.003,0-0.005,0-0.008C7.895,9.393,7.869,9.355,7.857,9.339"/>
	<path fill="#FFFFFF" d="M8.493,9.183c0.005,0.005,0.01,0.01,0.015,0.015c0.007-0.004,0.012-0.009,0.017-0.015
		c0.026-0.027,0.039-0.071,0.042-0.091c0.001-0.006,0.001-0.008,0.001-0.008c0.003-0.041-0.005-0.072-0.015-0.088
		C8.543,8.98,8.536,8.979,8.526,8.977C8.516,8.979,8.509,8.98,8.495,8.996C8.482,9.011,8.466,9.043,8.463,9.084v0.008
		c0.001,0.007,0.001,0.017,0.003,0.027C8.47,9.14,8.478,9.165,8.493,9.183"/>
	<path fill="#FFFFFF" d="M9.274,9.294C9.267,9.288,9.263,9.286,9.25,9.285c-0.018,0-0.055,0.012-0.091,0.048l-0.001,0
		C9.157,9.334,9.156,9.336,9.155,9.339c-0.005,0.005-0.01,0.013-0.016,0.022C9.127,9.38,9.117,9.405,9.116,9.429v0.008
		c0,0.005,0,0.009,0.001,0.015C9.121,9.453,9.126,9.453,9.13,9.453h0.008c0.036-0.003,0.075-0.026,0.089-0.04
		c0.005-0.004,0.006-0.006,0.006-0.006c0.036-0.035,0.049-0.071,0.048-0.09C9.281,9.304,9.28,9.3,9.274,9.294"/>
	<path fill="#FFFFFF" d="M12.649,10.911c-0.022,0.031-0.059,0.049-0.103,0.049h-1.885c-0.088,0-0.184-0.07-0.214-0.155
		c-0.016-0.046-0.012-0.092,0.012-0.126c0.023-0.033,0.062-0.051,0.107-0.051h1.885c0.086,0,0.179,0.069,0.21,0.155
		C12.677,10.83,12.673,10.877,12.649,10.911 M10.251,10.073c-0.008-0.046,0.003-0.089,0.031-0.122
		c0.027-0.032,0.068-0.051,0.113-0.051L12.28,9.9c0.089,0.001,0.171,0.072,0.187,0.163c0.008,0.047-0.002,0.091-0.03,0.124
		c-0.026,0.031-0.065,0.049-0.109,0.049h-1.886C10.353,10.236,10.267,10.163,10.251,10.073 M10.189,9.336
		c0.001-0.091,0.077-0.165,0.17-0.165h1.884c0.044,0,0.085,0.017,0.115,0.047c0.031,0.031,0.047,0.073,0.047,0.118
		c-0.001,0.092-0.075,0.166-0.165,0.166h-1.885c-0.044,0-0.086-0.017-0.118-0.049C10.206,9.421,10.188,9.38,10.189,9.336
		 M9.794,10.276c-0.051,0.044-0.122,0.067-0.204,0.067l-0.007,0c-0.046-0.001-0.091-0.01-0.133-0.026
		c-0.01,0.055-0.017,0.102-0.025,0.167c0.077,0.025,0.13,0.064,0.149,0.078l0.005,0.004c0.088,0.067,0.15,0.146,0.18,0.227
		c0.026,0.069,0.023,0.139-0.008,0.19c-0.032,0.053-0.094,0.085-0.165,0.085c-0.085-0.001-0.179-0.037-0.272-0.102l-0.009-0.007
		c-0.027-0.02-0.078-0.062-0.122-0.124c-0.049,0.023-0.086,0.042-0.131,0.064c0.031,0.038,0.057,0.079,0.076,0.122l0.003,0.006
		c0.036,0.083,0.046,0.155,0.031,0.215c-0.019,0.078-0.088,0.13-0.177,0.13H8.981c-0.076,0-0.167-0.038-0.238-0.097
		c-0.064-0.054-0.116-0.122-0.148-0.198c-0.022-0.056-0.031-0.108-0.028-0.156c-0.081-0.029-0.14-0.05-0.214-0.077
		c-0.005,0.034-0.015,0.067-0.031,0.098l-0.004,0.007c-0.047,0.077-0.124,0.119-0.213,0.12c-0.065,0-0.136-0.023-0.195-0.066
		c-0.06-0.041-0.109-0.104-0.131-0.166c-0.032-0.088-0.02-0.178,0.031-0.254c0.026-0.035,0.056-0.061,0.09-0.08
		c-0.045-0.064-0.079-0.116-0.126-0.189c-0.04,0.019-0.085,0.029-0.135,0.031l-0.006,0c-0.08,0-0.156-0.022-0.222-0.062
		c-0.075-0.047-0.131-0.124-0.144-0.203c-0.015-0.084,0.017-0.168,0.081-0.22c0.054-0.044,0.126-0.066,0.209-0.067l0.008,0
		C7.612,9.794,7.656,9.803,7.698,9.82c0.018-0.063,0.034-0.114,0.054-0.175C7.707,9.628,7.666,9.601,7.628,9.568
		C7.55,9.492,7.511,9.409,7.512,9.321c0-0.066,0.03-0.134,0.078-0.18c0.048-0.046,0.116-0.073,0.181-0.073
		c0.087,0.001,0.17,0.039,0.239,0.109l0.006,0.007c0.03,0.033,0.054,0.071,0.07,0.114c0.064-0.027,0.114-0.047,0.178-0.074
		C8.25,9.182,8.242,9.136,8.244,9.087V9.082C8.25,9,8.279,8.928,8.328,8.871c0.055-0.065,0.138-0.105,0.218-0.105
		c0.083,0,0.16,0.043,0.201,0.113c0.034,0.057,0.049,0.13,0.043,0.21L8.788,9.097c-0.006,0.046-0.018,0.09-0.036,0.13
		c0.062,0.026,0.11,0.046,0.172,0.072c0.018-0.043,0.045-0.083,0.079-0.118C9.08,9.107,9.165,9.069,9.253,9.068
		c0.068,0,0.132,0.027,0.178,0.074C9.476,9.19,9.501,9.256,9.5,9.323C9.498,9.409,9.461,9.492,9.394,9.562
		C9.358,9.597,9.32,9.624,9.279,9.642C9.31,9.708,9.335,9.757,9.37,9.823c0.041-0.019,0.087-0.029,0.136-0.031l0.005,0
		c0.082,0,0.157,0.022,0.219,0.063c0.071,0.046,0.124,0.124,0.138,0.202C9.882,10.141,9.854,10.225,9.794,10.276 M12.912,8.367
		c0-0.23,0.009-0.458,0.025-0.684H6.579C6.562,7.908,6.554,8.137,6.554,8.367c0,2.557,0.473,4.161,1.309,5.639l6.709-0.003
		C13.54,12.611,12.912,10.504,12.912,8.367"/>
	<path fill="#FFFFFF" d="M8.506,9.4C8.322,9.477,8.224,9.517,8.044,9.594c-0.065,0.184-0.093,0.28-0.138,0.468
		c0.112,0.192,0.175,0.289,0.308,0.476c0.211,0.078,0.323,0.119,0.537,0.197c0.155-0.076,0.239-0.116,0.397-0.192
		c0.021-0.184,0.038-0.286,0.081-0.471C9.12,9.885,9.066,9.783,8.979,9.595C8.789,9.518,8.691,9.477,8.506,9.4"/>
	<path fill="#FFFFFF" d="M8.911,11.043c-0.004-0.006-0.009-0.016-0.016-0.026c-0.013-0.022-0.034-0.046-0.057-0.064
		c-0.008-0.006-0.015-0.011-0.023-0.015c-0.004,0.005-0.008,0.009-0.01,0.015c-0.013,0.026-0.005,0.071,0.002,0.091
		c0.002,0.007,0.003,0.008,0.003,0.008c0.018,0.041,0.043,0.073,0.062,0.088c0.02,0.016,0.027,0.018,0.038,0.018
		c0.009,0,0.015-0.002,0.021-0.018c0.004-0.015,0.002-0.047-0.015-0.088C8.915,11.051,8.915,11.05,8.911,11.043"/>
	<path fill="#FFFFFF" d="M9.348,10.683c-0.006,0-0.01,0-0.015,0.001c0.001,0.005,0.003,0.01,0.005,0.015
		c0,0.003,0.001,0.006,0.003,0.008c0.013,0.036,0.052,0.075,0.071,0.09c0.005,0.005,0.007,0.006,0.008,0.006
		c0.035,0.027,0.089,0.048,0.107,0.047c0.012,0,0.015-0.003,0.02-0.008c0.003-0.006,0.003-0.011,0-0.023
		c-0.006-0.018-0.031-0.055-0.079-0.09c0,0.001-0.002-0.001-0.009-0.006c-0.007-0.004-0.016-0.009-0.028-0.015
		c-0.023-0.012-0.051-0.022-0.076-0.024C9.352,10.683,9.349,10.683,9.348,10.683"/>
</g>
</svg>
