<?xml version="1.0" encoding="UTF-8"?>
<svg width="32px" height="32px" viewBox="0 0 32 32" version="1.1" xmlns="http://www.w3.org/2000/svg" xmlns:xlink="http://www.w3.org/1999/xlink">
    <!-- Generator: Sketch 51.3 (57544) - http://www.bohemiancoding.com/sketch -->
    <title>scooter_disabled copy 2</title>
    <desc>Created with Sketch.</desc>
    <defs></defs>
    <g id="Page-1" stroke="none" stroke-width="1" fill="none" fill-rule="evenodd">
        <g id="scooter_disabled-copy-2" fill-rule="nonzero">
            <path d="M0.485738115,28.0241021 C0.492455537,30.217553 2.25275546,31.9938386 4.42585468,32 L28.0576599,32 C30.2318799,31.995685 31.9938848,30.2186816 32,28.0241021 L32,4.16983724 C31.9932768,1.97551317 30.2316274,0.198868314 28.0576599,0.193939394 L4.42585468,0.193939394 C2.25275546,0.200100724 0.492455537,1.97638642 0.485738115,4.16983724 L0.485738115,28.0241021 Z" id="Path" fill="#888888"></path>
            <ellipse id="Oval" fill="#FFFFFF" cx="23.8331943" cy="26.2787879" rx="1.82552127" ry="1.84242424"></ellipse>
            <ellipse id="Oval" fill="#FFFFFF" transform="translate(9.421184, 26.278788) rotate(-67.500000) translate(-9.421184, -26.278788) " cx="9.42118432" cy="26.2787879" rx="1.82552127" ry="1.84242424"></ellipse>
            <path d="M24.5135564,23.5645548 C24.5996285,23.4677265 24.6407378,23.3393236 24.626809,23.2108156 L23.5248616,12.1953325 L24.8351937,12.1953325 C25.081197,12.1832066 25.2743953,11.9812674 25.2743953,11.7362601 C25.2743953,11.491253 25.081197,11.2893138 24.8351937,11.2771878 L22.6075158,11.2771878 C22.2861328,10.8615426 21.7189517,10.7214286 21.2394248,10.9392205 L19.1080116,11.893415 L17.953968,10.3455245 C17.4684557,9.69326989 16.7007341,9.3087149 15.8848436,9.30909118 C14.7770349,9.30982314 13.7941649,10.0160845 13.4453834,11.0620153 L12.2211232,14.7255816 L16.1079512,16.0098576 L17.1091038,13.012087 L18.3707374,14.7019239 L22.1771561,12.994062 C22.3623807,12.9106003 22.521599,12.7790715 22.638094,12.6132855 L23.6675598,22.8244063 C22.207172,23.0167455 20.9774654,24.0051544 20.4817652,25.3850724 L13.2630467,25.3850724 C12.70515,23.8335623 11.2286462,22.7970284 9.57214571,22.7939892 C9.32614241,22.8061152 9.13294412,23.0080543 9.13294412,23.2530615 C9.13294412,23.4980688 9.32614241,23.700008 9.57214571,23.7121339 C11.2259392,23.7139951 12.5663124,25.0468013 12.5688085,26.6918795 C12.5688077,26.94529 12.7749944,27.1508941 13.0297465,27.1515152 L20.7139329,27.1515152 C20.9691274,27.1515152 21.1760034,26.9457293 21.1760034,26.6918795 C21.1778758,25.0469835 22.5179242,23.7139964 24.1715337,23.7121339 C24.3013177,23.7129045 24.4254441,23.6593453 24.5135564,23.5645548 Z" id="Path" fill="#FFFFFF"></path>
            <ellipse id="Oval" fill="#FFFFFF" transform="translate(17.107590, 5.915152) rotate(-9.220000) translate(-17.107590, -5.915152) " cx="17.1075897" cy="5.91515152" rx="2.40200167" ry="2.42424242"></ellipse>
            <polygon id="Path" fill="#FFFFFF" points="13.6120893 17.6689846 15.4392071 19.7261759 14.4350656 24.4363636 17.130451 24.4363636 18.3566305 18.9455453 15.9639236 16.2443337 12.1671859 14.9333333 12.1649766 14.9390732 10.2505901 17.9146536 6.05838198 17.9146536 6.05838198 20.55617 11.7529361 20.55617"></polygon>
        </g>
    </g>
</svg>