<?xml version="1.0" encoding="utf-8"?>
<!-- Generator: Adobe Illustrator 19.2.1, SVG Export Plug-In . SVG Version: 6.00 Build 0)  -->
<!DOCTYPE svg PUBLIC "-//W3C//DTD SVG 1.1//EN" "http://www.w3.org/Graphics/SVG/1.1/DTD/svg11.dtd">
<svg version="1.1" id="Layer_1" xmlns="http://www.w3.org/2000/svg" xmlns:xlink="http://www.w3.org/1999/xlink" x="0px" y="0px"
	 viewBox="0 0 16 16" enable-background="new 0 0 16 16" xml:space="preserve">
<path fill="#007AC9" d="M13.009,16h-10c-1.657,0-3-1.343-3-3l0-10c0-1.657,1.343-3,3-3l10,0c1.657,0,3,1.343,3,3v10
	C16.009,14.657,14.666,16,13.009,16z"/>
<g>
	<path fill="#FFFFFF" d="M14,8c0,0.529-0.49,0.906-1.15,0.906c-0.019,0-0.529-0.019-0.906-0.378l-0.773,1.868
		c0.509,0.018,0.886,0.377,0.905,0.396c0.472,0.472,0.528,1.076,0.169,1.434c-0.378,0.377-0.981,0.301-1.453-0.151
		c-0.019-0.019-0.378-0.378-0.396-0.925l-1.85,0.774c0.358,0.396,0.358,0.905,0.358,0.925C8.905,13.51,8.529,14,8,14
		c-0.528,0-0.905-0.49-0.905-1.15c0-0.019,0-0.529,0.378-0.925l-1.887-0.774c0,0.547-0.358,0.905-0.378,0.925
		c-0.472,0.452-1.075,0.528-1.453,0.151c-0.377-0.358-0.302-0.963,0.17-1.434c0.018-0.019,0.377-0.378,0.905-0.396L4.057,8.529
		C3.679,8.887,3.17,8.906,3.151,8.906C2.472,8.906,2,8.529,2,8c0-0.528,0.472-0.905,1.151-0.905c0.018,0,0.528,0,0.905,0.358
		l0.774-1.849C4.302,5.566,3.944,5.227,3.925,5.208c-0.473-0.473-0.547-1.076-0.17-1.453c0.378-0.377,0.981-0.301,1.453,0.17
		c0.019,0.018,0.378,0.377,0.378,0.905l1.887-0.774C7.095,3.679,7.095,3.17,7.095,3.151C7.095,2.472,7.472,2,8,2
		c0.529,0,0.905,0.472,0.905,1.151c0,0.018,0,0.528-0.358,0.905l1.85,0.774c0.018-0.529,0.377-0.887,0.396-0.905
		c0.472-0.472,1.075-0.547,1.453-0.17c0.358,0.378,0.302,0.981-0.169,1.453c-0.019,0.018-0.396,0.358-0.905,0.396l0.773,1.849
		c0.378-0.358,0.887-0.358,0.906-0.358C13.51,7.095,14,7.472,14,8z M3.83,8C3.604,7.623,3.17,7.604,3.151,7.604
		C2.774,7.604,2.529,7.773,2.529,8c0,0.227,0.245,0.378,0.623,0.378C3.17,8.378,3.604,8.358,3.83,8z M5.057,10.944
		c-0.435-0.113-0.736,0.189-0.755,0.207c-0.264,0.264-0.339,0.566-0.189,0.718c0.17,0.15,0.473,0.094,0.718-0.17
		C4.849,11.68,5.17,11.358,5.057,10.944z M4.302,4.831c0.019,0.018,0.321,0.321,0.755,0.227c0.094-0.434-0.208-0.736-0.227-0.774
		C4.586,4.038,4.283,3.963,4.113,4.132C3.963,4.283,4.037,4.586,4.302,4.831z M10.548,10.528L11.585,8l-1.037-2.547L8,4.397
		L5.453,5.453L4.397,8l1.056,2.528L8,11.585L10.548,10.528z M7.622,3.151c0,0.018,0,0.452,0.378,0.679
		c0.358-0.227,0.378-0.66,0.378-0.679c0-0.378-0.151-0.623-0.378-0.623C7.773,2.529,7.622,2.774,7.622,3.151z M8.378,12.85
		c0-0.019-0.019-0.472-0.378-0.68c-0.378,0.208-0.378,0.66-0.378,0.68c0,0.358,0.151,0.623,0.378,0.623
		C8.227,13.472,8.378,13.208,8.378,12.85z M10.944,5.057c0.414,0.094,0.736-0.208,0.754-0.227c0.264-0.245,0.34-0.547,0.169-0.698
		c-0.15-0.169-0.452-0.094-0.717,0.151C11.133,4.321,10.849,4.623,10.944,5.057z M11.698,11.151
		c-0.018-0.018-0.34-0.321-0.754-0.207c-0.095,0.414,0.189,0.736,0.207,0.754c0.264,0.264,0.566,0.321,0.717,0.17
		C12.038,11.718,11.963,11.415,11.698,11.151z M13.472,8c0-0.227-0.264-0.396-0.623-0.396c-0.019,0-0.453,0.019-0.68,0.396
		c0.227,0.358,0.66,0.378,0.68,0.378C13.208,8.378,13.472,8.227,13.472,8z"/>
</g>
</svg>
