<?xml version="1.0" encoding="utf-8"?>
<!-- Generator: Adobe Illustrator 19.2.0, SVG Export Plug-In . SVG Version: 6.00 Build 0)  -->
<!DOCTYPE svg PUBLIC "-//W3C//DTD SVG 1.1//EN" "http://www.w3.org/Graphics/SVG/1.1/DTD/svg11.dtd">
<svg version="1.1" id="Layer_1" xmlns="http://www.w3.org/2000/svg" xmlns:xlink="http://www.w3.org/1999/xlink" x="0px" y="0px"
	 viewBox="0 0 16 16" enable-background="new 0 0 16 16" xml:space="preserve">
<path fill="#A6D8F4" d="M2.5,1H0V0h2.5C2.776,0,3,0.224,3,0.5v0C3,0.776,2.776,1,2.5,1z"/>
<path fill="#A6D8F4" d="M5.5,0L8,0v1H5.5C5.224,1,5,0.776,5,0.5v0C5,0.224,5.224,0,5.5,0z"/>
<path fill="#A6D8F4" d="M1.5,2H4v1H1.5C1.224,3,1,2.776,1,2.5v0C1,2.224,1.224,2,1.5,2z"/>
<path fill="#A6D8F4" d="M6.5,3H4V2h2.5C6.776,2,7,2.224,7,2.5v0C7,2.776,6.776,3,6.5,3z"/>
<path fill="#A6D8F4" d="M2.5,5H0V4h2.5C2.776,4,3,4.224,3,4.5v0C3,4.776,2.776,5,2.5,5z"/>
<path fill="#A6D8F4" d="M5.5,4H8v1H5.5C5.224,5,5,4.776,5,4.5v0C5,4.224,5.224,4,5.5,4z"/>
<path fill="#A6D8F4" d="M1.5,6H4v1H1.5C1.224,7,1,6.776,1,6.5v0C1,6.224,1.224,6,1.5,6z"/>
<path fill="#A6D8F4" d="M6.5,7H4V6h2.5C6.776,6,7,6.224,7,6.5v0C7,6.776,6.776,7,6.5,7z"/>
<path fill="#A6D8F4" d="M10.5,1H8V0h2.5C10.776,0,11,0.224,11,0.5v0C11,0.776,10.776,1,10.5,1z"/>
<path fill="#A6D8F4" d="M13.5,0L16,0v1h-2.5C13.224,1,13,0.776,13,0.5v0C13,0.224,13.224,0,13.5,0z"/>
<path fill="#A6D8F4" d="M9.5,2H12v1H9.5C9.224,3,9,2.776,9,2.5v0C9,2.224,9.224,2,9.5,2z"/>
<path fill="#A6D8F4" d="M14.5,3H12V2h2.5C14.776,2,15,2.224,15,2.5v0C15,2.776,14.776,3,14.5,3z"/>
<path fill="#A6D8F4" d="M10.5,5H8V4h2.5C10.776,4,11,4.224,11,4.5v0C11,4.776,10.776,5,10.5,5z"/>
<path fill="#A6D8F4" d="M13.5,4H16v1h-2.5C13.224,5,13,4.776,13,4.5v0C13,4.224,13.224,4,13.5,4z"/>
<path fill="#A6D8F4" d="M9.5,6H12v1H9.5C9.224,7,9,6.776,9,6.5v0C9,6.224,9.224,6,9.5,6z"/>
<path fill="#A6D8F4" d="M14.5,7H12V6h2.5C14.776,6,15,6.224,15,6.5v0C15,6.776,14.776,7,14.5,7z"/>
<path fill="#A6D8F4" d="M2.5,9H0V8h2.5C2.776,8,3,8.224,3,8.5v0C3,8.776,2.776,9,2.5,9z"/>
<path fill="#A6D8F4" d="M5.5,8H8v1H5.5C5.224,9,5,8.776,5,8.5v0C5,8.224,5.224,8,5.5,8z"/>
<path fill="#A6D8F4" d="M1.5,10H4v1H1.5C1.224,11,1,10.776,1,10.5v0C1,10.224,1.224,10,1.5,10z"/>
<path fill="#A6D8F4" d="M6.5,11H4v-1h2.5C6.776,10,7,10.224,7,10.5v0C7,10.776,6.776,11,6.5,11z"/>
<path fill="#A6D8F4" d="M2.5,13H0v-1h2.5C2.776,12,3,12.224,3,12.5v0C3,12.776,2.776,13,2.5,13z"/>
<path fill="#A6D8F4" d="M5.5,12H8v1H5.5C5.224,13,5,12.776,5,12.5v0C5,12.224,5.224,12,5.5,12z"/>
<path fill="#A6D8F4" d="M1.5,14H4v1H1.5C1.224,15,1,14.776,1,14.5v0C1,14.224,1.224,14,1.5,14z"/>
<path fill="#A6D8F4" d="M6.5,15H4v-1h2.5C6.776,14,7,14.224,7,14.5v0C7,14.776,6.776,15,6.5,15z"/>
<path fill="#A6D8F4" d="M10.5,9H8V8h2.5C10.776,8,11,8.224,11,8.5v0C11,8.776,10.776,9,10.5,9z"/>
<path fill="#A6D8F4" d="M13.5,8H16v1h-2.5C13.224,9,13,8.776,13,8.5v0C13,8.224,13.224,8,13.5,8z"/>
<path fill="#A6D8F4" d="M9.5,10H12v1H9.5C9.224,11,9,10.776,9,10.5v0C9,10.224,9.224,10,9.5,10z"/>
<path fill="#A6D8F4" d="M14.5,11H12v-1h2.5c0.276,0,0.5,0.224,0.5,0.5v0C15,10.776,14.776,11,14.5,11z"/>
<path fill="#A6D8F4" d="M10.5,13H8v-1h2.5c0.276,0,0.5,0.224,0.5,0.5v0C11,12.776,10.776,13,10.5,13z"/>
<path fill="#A6D8F4" d="M13.5,12H16v1h-2.5c-0.276,0-0.5-0.224-0.5-0.5v0C13,12.224,13.224,12,13.5,12z"/>
<path fill="#A6D8F4" d="M9.5,14H12v1H9.5C9.224,15,9,14.776,9,14.5v0C9,14.224,9.224,14,9.5,14z"/>
<path fill="#A6D8F4" d="M14.5,15H12v-1h2.5c0.276,0,0.5,0.224,0.5,0.5v0C15,14.776,14.776,15,14.5,15z"/>
</svg>
