<?xml version="1.0" encoding="UTF-8"?>
<svg xmlns="http://www.w3.org/2000/svg" xmlns:xlink="http://www.w3.org/1999/xlink" width="16px" height="16px" viewBox="0 0 16 16" version="1.1">
<g id="surface1">
<path style=" stroke:none;fill-rule:nonzero;fill:#007AC9;fill-opacity:1;" d="M 0 14 C 0 15.101562 0.898438 16 2 16 L 14 16 C 15.101562 16 16 15.101562 16 14 L 16 2 C 16 0.898438 15.101562 0 14 0 L 2 0 C 0.898438 0 0 0.898438 0 2 Z M 0 14 "/>
<path style=" stroke:none;fill-rule:evenodd;fill:rgb(100%,100%,100%);fill-opacity:1;" d="M 6.4375 8.203125 L 6.4375 8.289062 C 6.40625 8.933594 6.828125 9.460938 7.480469 9.492188 L 9.410156 9.492188 L 10.527344 12.6875 L 12.550781 12.089844 L 12.226562 11.117188 L 11.464844 11.328125 L 10.726562 9.089844 C 10.4375 8.207031 9.871094 8.167969 9.035156 8.203125 L 6.4375 8.203125 M 9.574219 6.625 C 10.441406 6.71875 10.449219 7.839844 9.566406 7.90625 L 9.523438 7.910156 L 9.527344 6.617188 Z M 6 8.070312 L 5.898438 8.117188 C 4.246094 8.859375 3.863281 11.257812 5.308594 12.417969 L 5.394531 12.492188 L 5.492188 12.566406 C 7.136719 13.714844 9.144531 12.570312 9.371094 10.660156 L 9.402344 10.496094 L 9.429688 10.320312 L 10.101562 12.324219 L 9.964844 12.507812 L 9.828125 12.6875 C 8.257812 14.613281 5.613281 14.707031 4.011719 12.816406 L 3.898438 12.667969 L 3.789062 12.507812 C 2.566406 10.625 3.320312 7.765625 5.5 6.984375 L 5.683594 6.914062 L 5.863281 6.839844 L 6.101562 8.023438 Z M 8.570312 3.351562 L 8.566406 3.429688 C 8.339844 5.164062 5.886719 5.09375 5.753906 3.355469 L 5.753906 3.214844 C 5.859375 1.484375 8.34375 1.40625 8.5625 3.132812 L 8.570312 3.207031 Z M 7.503906 6.636719 L 9.210938 6.636719 L 9.210938 7.925781 L 6.433594 7.914062 L 6.070312 6.046875 C 5.964844 5.402344 6.535156 5.007812 7.117188 4.964844 L 7.191406 4.957031 Z M 7.503906 6.636719 "/>
</g>
</svg>
