<?xml version="1.0" encoding="utf-8"?>
<!-- Generator: Adobe Illustrator 19.2.0, SVG Export Plug-In . SVG Version: 6.00 Build 0)  -->
<!DOCTYPE svg PUBLIC "-//W3C//DTD SVG 1.1//EN" "http://www.w3.org/Graphics/SVG/1.1/DTD/svg11.dtd">
<svg version="1.1" id="Layer_1" xmlns="http://www.w3.org/2000/svg" xmlns:xlink="http://www.w3.org/1999/xlink" x="0px" y="0px"
	 viewBox="0 0 16 16" enable-background="new 0 0 16 16" xml:space="preserve">
<path fill="#666666" d="M13,16H3c-1.657,0-3-1.343-3-3L0,3c0-1.657,1.343-3,3-3l10,0c1.657,0,3,1.343,3,3v10
	C16,14.657,14.657,16,13,16z"/>
<path fill="#FFFFFF" d="M12.969,13.236H3.031c-0.138,0-0.25-0.112-0.25-0.25v-0.8c0-0.138,0.112-0.25,0.25-0.25h9.938
	c0.138,0,0.25,0.112,0.25,0.25v0.8C13.219,13.124,13.107,13.236,12.969,13.236z"/>
<rect x="2.264" y="8.158" transform="matrix(8.858762e-11 1 -1 8.858762e-11 13.4918 4.1585)" fill="#FFFFFF" width="4.805" height="1.333"/>
<rect x="5.598" y="8.158" transform="matrix(8.858762e-11 1 -1 8.858762e-11 16.8251 0.8251)" fill="#FFFFFF" width="4.805" height="1.333"/>
<rect x="8.931" y="8.158" transform="matrix(8.858762e-11 1 -1 8.858762e-11 20.1584 -2.5082)" fill="#FFFFFF" width="4.805" height="1.333"/>
<path fill="#FFFFFF" d="M12.967,6.423H3.033c-0.138,0-0.25-0.112-0.25-0.25V5.301c0-0.101,0.061-0.192,0.154-0.231l4.871-2.032
	c0.123-0.051,0.262-0.051,0.385,0l4.871,2.032c0.093,0.039,0.154,0.13,0.154,0.231v0.872C13.217,6.311,13.106,6.423,12.967,6.423z"
	/>
</svg>
