<?xml version="1.0" encoding="utf-8"?>
<!-- Generator: Adobe Illustrator 19.2.0, SVG Export Plug-In . SVG Version: 6.00 Build 0)  -->
<!DOCTYPE svg PUBLIC "-//W3C//DTD SVG 1.1//EN" "http://www.w3.org/Graphics/SVG/1.1/DTD/svg11.dtd">
<svg version="1.1" id="Layer_1" xmlns="http://www.w3.org/2000/svg" xmlns:xlink="http://www.w3.org/1999/xlink" x="0px" y="0px"
	 viewBox="0 0 16 16" enable-background="new 0 0 16 16" xml:space="preserve">
<g>
	<path fill="#0046AD" d="M0,1.98C0,0.9,0.9,0,1.98,0h12C15.1,0,16,0.9,16,1.98v12C16,15.1,15.1,16,13.98,16h-12
		C0.9,16,0,15.1,0,13.98V1.98z"/>
</g>
<path fill="#FFFFFF" d="M13.461,11.134V9.747L8.889,6.493V2.629c0-0.491-0.398-0.888-0.89-0.888c-0.491,0-0.888,0.398-0.888,0.888
	v3.804L2.539,9.747v1.386l4.654-1.822l0.224,3.147l-1.275,0.963v0.837l1.866-0.579l1.866,0.579v-0.837l-1.289-0.965l0.224-3.146
	L13.461,11.134z"/>
</svg>
