<?xml version="1.0" encoding="UTF-8"?>
<svg xmlns="http://www.w3.org/2000/svg" xmlns:xlink="http://www.w3.org/1999/xlink" width="16px" height="16px" viewBox="0 0 16 16" version="1.1">
<g id="surface1">
<path style=" stroke:none;fill-rule:nonzero;fill:rgb(0%,47.843137%,78.823531%);fill-opacity:1;" d="M 0 14 C 0 15.101562 0.898438 16 2 16 L 14 16 C 15.101562 16 16 15.101562 16 14 L 16 2 C 16 0.898438 15.101562 0 14 0 L 2 0 C 0.898438 0 0 0.898438 0 2 Z M 0 14 "/>
<path style=" stroke:none;fill-rule:nonzero;fill:rgb(100%,100%,100%);fill-opacity:1;" d="M 3.351562 3.078125 C 3.351562 2.476562 3.8125 2.015625 4.414062 2.015625 L 8.695312 2.015625 C 10.199219 2.015625 11.382812 2.460938 12.152344 3.214844 C 12.785156 3.863281 13.144531 4.753906 13.144531 5.800781 L 13.144531 5.832031 C 13.144531 7.75 12.03125 8.914062 10.421875 9.410156 L 12.71875 12.304688 C 12.921875 12.5625 13.058594 12.785156 13.058594 13.109375 C 13.058594 13.691406 12.5625 14.085938 12.050781 14.085938 C 11.570312 14.085938 11.261719 13.863281 11.023438 13.539062 L 8.113281 9.824219 L 5.457031 9.824219 L 5.457031 13.042969 C 5.457031 13.625 4.996094 14.085938 4.414062 14.085938 C 3.8125 14.085938 3.351562 13.625 3.351562 13.042969 Z M 8.539062 7.957031 C 10.046875 7.957031 11.003906 7.167969 11.003906 5.953125 L 11.003906 5.917969 C 11.003906 4.636719 10.082031 3.933594 8.523438 3.933594 L 5.457031 3.933594 L 5.457031 7.957031 Z M 8.539062 7.957031 "/>
</g>
</svg>
