<?xml version="1.0" encoding="UTF-8"?>
<svg width="16px" height="16px" viewBox="0 0 16 16" version="1.1" xmlns="http://www.w3.org/2000/svg" xmlns:xlink="http://www.w3.org/1999/xlink">
    <title>icon-ship_terminal-16</title>
    <defs>
        <polygon id="path-1" points="0 0.0304225352 15.9695775 0.0304225352 15.9695775 16 0 16"></polygon>
    </defs>
    <g id="Page-1" stroke="none" stroke-width="1" fill="none" fill-rule="evenodd">
        <g id="icons" transform="translate(-225.000000, -122.000000)">
            <g id="icon-shipterminal" transform="translate(225.000000, 122.000000)">
                <g id="Laivaterminaali" transform="translate(0.000000, -0.000000)">
                    <g id="Group-3" transform="translate(0.000000, 0.025915)">
                        <mask id="mask-2" fill="white">
                            <use xlink:href="#path-1"></use>
                        </mask>
                        <g id="Clip-2"></g>
                        <path d="M0,13.9739787 C0,15.0739663 0.900005292,15.9740281 2.00004939,15.9740281 L13.9999506,15.9740281 C15.0999947,15.9740281 16,15.0739663 16,13.9739787 L16,1.97402101 C16,0.874033354 15.0999947,-0.025915493 13.9999506,-0.025915493 L2.00004939,-0.025915493 C0.900005292,-0.025915493 0,0.874033354 0,1.97402101 L0,13.9739787 Z" id="Fill-1" fill="#007AC9" mask="url(#mask-2)"></path>
                    </g>
                    <path d="M10.0485127,9.00981972 C9.83161127,9.00981972 9.65578028,8.83398873 9.65578028,8.61725634 C9.65578028,8.40029859 9.83161127,8.22458028 10.0485127,8.22458028 C10.2652451,8.22458028 10.4410761,8.40029859 10.4410761,8.61725634 C10.4410761,8.83398873 10.2652451,9.00981972 10.0485127,9.00981972 M9.14479437,7.37055211 C9.14479437,7.1536507 9.32073803,6.97787606 9.5375831,6.97787606 C9.75437183,6.97787606 9.93020282,7.1536507 9.93020282,7.37055211 C9.93020282,7.58734085 9.75437183,7.76311549 9.5375831,7.76311549 C9.32073803,7.76311549 9.14479437,7.58734085 9.14479437,7.37055211 M9.01741408,9.00981972 C8.80062535,9.00981972 8.62479437,8.83398873 8.62479437,8.61725634 C8.62479437,8.40029859 8.80062535,8.22458028 9.01741408,8.22458028 C9.23425915,8.22458028 9.41009014,8.40029859 9.41009014,8.61725634 C9.41009014,8.83398873 9.23425915,9.00981972 9.01741408,9.00981972 M8.11380845,7.37055211 C8.11380845,7.1536507 8.28969577,6.97787606 8.50659718,6.97787606 C8.72338592,6.97787606 8.8992169,7.1536507 8.8992169,7.37055211 C8.8992169,7.58734085 8.72338592,7.76311549 8.50659718,7.76311549 C8.28969577,7.76311549 8.11380845,7.58734085 8.11380845,7.37055211 M7.98642817,9.00981972 C7.7695831,9.00981972 7.59363944,8.83398873 7.59363944,8.61725634 C7.59363944,8.40029859 7.7695831,8.22458028 7.98642817,8.22458028 C8.2032169,8.22458028 8.37910423,8.40029859 8.37910423,8.61725634 C8.37910423,8.83398873 8.2032169,9.00981972 7.98642817,9.00981972 M7.08282254,7.37055211 C7.08282254,7.1536507 7.25870986,6.97787606 7.47555493,6.97787606 C7.69228732,6.97787606 7.86817465,7.1536507 7.86817465,7.37055211 C7.86817465,7.58734085 7.69228732,7.76311549 7.47555493,7.76311549 C7.25870986,7.76311549 7.08282254,7.58734085 7.08282254,7.37055211 M6.95544225,9.00981972 C6.73854085,9.00981972 6.56287887,8.83398873 6.56287887,8.61725634 C6.56287887,8.40029859 6.73854085,8.22458028 6.95544225,8.22458028 C7.17223099,8.22458028 7.34806197,8.40029859 7.34806197,8.61725634 C7.34806197,8.83398873 7.17223099,9.00981972 6.95544225,9.00981972 M6.05183662,7.37055211 C6.05183662,7.1536507 6.22766761,6.97787606 6.44451268,6.97787606 C6.66130141,6.97787606 6.83713239,7.1536507 6.83713239,7.37055211 C6.83713239,7.58734085 6.66130141,7.76311549 6.44451268,7.76311549 C6.22766761,7.76311549 6.05183662,7.58734085 6.05183662,7.37055211 M5.9244,9.00981972 C5.70761127,9.00981972 5.53178028,8.83398873 5.53178028,8.61725634 C5.53178028,8.40029859 5.70761127,8.22458028 5.9244,8.22458028 C6.14130141,8.22458028 6.31701972,8.40029859 6.31701972,8.61725634 C6.31701972,8.83398873 6.14130141,9.00981972 5.9244,9.00981972 M5.0208507,7.37055211 C5.0208507,7.1536507 5.19662535,6.97787606 5.41347042,6.97787606 C5.63031549,6.97787606 5.80609014,7.1536507 5.80609014,7.37055211 C5.80609014,7.58734085 5.63031549,7.76311549 5.41347042,7.76311549 C5.19662535,7.76311549 5.0208507,7.58734085 5.0208507,7.37055211 M4.89347042,9.00981972 C4.67656901,9.00981972 4.50090704,8.83398873 4.50090704,8.61725634 C4.50090704,8.40029859 4.67656901,8.22458028 4.89347042,8.22458028 C5.11031549,8.22458028 5.2860338,8.40029859 5.2860338,8.61725634 C5.2860338,8.83398873 5.11031549,9.00981972 4.89347042,9.00981972 M3.98986479,7.37055211 C3.98986479,7.1536507 4.16563944,6.97787606 4.38254085,6.97787606 C4.59927324,6.97787606 4.77510423,7.1536507 4.77510423,7.37055211 C4.77510423,7.58734085 4.59927324,7.76311549 4.38254085,7.76311549 C4.16563944,7.76311549 3.98986479,7.58734085 3.98986479,7.37055211 M3.86237183,9.00981972 C3.6455831,9.00981972 3.46963944,8.83398873 3.46963944,8.61725634 C3.46963944,8.40029859 3.6455831,8.22458028 3.86237183,8.22458028 C4.07927324,8.22458028 4.25510423,8.40029859 4.25510423,8.61725634 C4.25510423,8.83398873 4.07927324,9.00981972 3.86237183,9.00981972 M2.95882254,7.37055211 C2.95882254,7.1536507 3.13470986,6.97787606 3.35149859,6.97787606 C3.56834366,6.97787606 3.74406197,7.1536507 3.74406197,7.37055211 C3.74406197,7.58734085 3.56834366,7.76311549 3.35149859,7.76311549 C3.13470986,7.76311549 2.95882254,7.58734085 2.95882254,7.37055211 M2.83144225,9.00981972 C2.61459718,9.00981972 2.43865352,8.83398873 2.43865352,8.61725634 C2.43865352,8.40029859 2.61459718,8.22458028 2.83144225,8.22458028 C3.04828732,8.22458028 3.22411831,8.40029859 3.22411831,8.61725634 C3.22411831,8.83398873 3.04828732,9.00981972 2.83144225,9.00981972 M2.83144225,5.73122817 C3.04828732,5.73122817 3.22411831,5.90689014 3.22411831,6.12379155 C3.22411831,6.34063662 3.04828732,6.51635493 2.83144225,6.51635493 C2.61459718,6.51635493 2.43865352,6.34063662 2.43865352,6.12379155 C2.43865352,5.90689014 2.61459718,5.73122817 2.83144225,5.73122817 M3.86237183,5.73122817 C4.07927324,5.73122817 4.25510423,5.90689014 4.25510423,6.12379155 C4.25510423,6.34063662 4.07927324,6.51635493 3.86237183,6.51635493 C3.6455831,6.51635493 3.46963944,6.34063662 3.46963944,6.12379155 C3.46963944,5.90689014 3.6455831,5.73122817 3.86237183,5.73122817 M4.89347042,5.73122817 C5.11031549,5.73122817 5.2860338,5.90689014 5.2860338,6.12379155 C5.2860338,6.34063662 5.11031549,6.51635493 4.89347042,6.51635493 C4.67656901,6.51635493 4.50090704,6.34063662 4.50090704,6.12379155 C4.50090704,5.90689014 4.67656901,5.73122817 4.89347042,5.73122817 M5.9244,5.73122817 C6.14130141,5.73122817 6.31701972,5.90689014 6.31701972,6.12379155 C6.31701972,6.34063662 6.14130141,6.51635493 5.9244,6.51635493 C5.70761127,6.51635493 5.53178028,6.34063662 5.53178028,6.12379155 C5.53178028,5.90689014 5.70761127,5.73122817 5.9244,5.73122817 M6.95544225,5.73122817 C7.17223099,5.73122817 7.34806197,5.90689014 7.34806197,6.12379155 C7.34806197,6.34063662 7.17223099,6.51635493 6.95544225,6.51635493 C6.73854085,6.51635493 6.56287887,6.34063662 6.56287887,6.12379155 C6.56287887,5.90689014 6.73854085,5.73122817 6.95544225,5.73122817 M7.98642817,5.73122817 C8.2032169,5.73122817 8.37910423,5.90689014 8.37910423,6.12379155 C8.37910423,6.34063662 8.2032169,6.51635493 7.98642817,6.51635493 C7.7695831,6.51635493 7.59363944,6.34063662 7.59363944,6.12379155 C7.59363944,5.90689014 7.7695831,5.73122817 7.98642817,5.73122817 M9.01741408,5.73122817 C9.23425915,5.73122817 9.41009014,5.90689014 9.41009014,6.12379155 C9.41009014,6.34063662 9.23425915,6.51635493 9.01741408,6.51635493 C8.80062535,6.51635493 8.62479437,6.34063662 8.62479437,6.12379155 C8.62479437,5.90689014 8.80062535,5.73122817 9.01741408,5.73122817 M14.4689634,9.30514366 L11.5941465,9.30514366 C11.4604563,9.30514366 11.3549352,9.24266479 11.2911042,9.12891831 C11.1859775,8.94136901 9.75273803,5.42649577 9.75273803,5.42649577 L10.3450197,5.42649577 C10.5719493,5.42649577 10.8794986,5.11866479 10.8794986,4.73911549 C10.8794986,4.35962254 10.5719493,4.05173521 10.192231,4.05173521 L5.51099155,4.05173521 L4.43132958,1.98976338 C4.41223099,1.95336901 4.36327324,1.9235662 4.32220282,1.9235662 L4.10580845,1.9228338 C4.06501972,1.9228338 4.04068169,1.95477746 4.0519493,1.99415775 L4.21713239,2.56559437 L3.76068169,2.56559437 C3.69870986,2.56559437 3.6484,2.61596056 3.6484,2.67815775 C3.6484,2.74029859 3.69870986,2.79060845 3.76068169,2.79060845 L4.28231549,2.79060845 L4.64693521,4.05173521 L1.99617465,4.05173521 L1.99617465,12.7686366 L11.9717803,12.7686366 C11.9717803,12.7686366 14.3890197,9.72897465 14.539893,9.54277746 C14.6424282,9.41607324 14.6147099,9.30514366 14.4689634,9.30514366" id="Fill-4" fill="#FFFFFF"></path>
                </g>
            </g>
        </g>
    </g>
</svg>