<?xml version="1.0" encoding="UTF-8"?>
<svg xmlns="http://www.w3.org/2000/svg" xmlns:xlink="http://www.w3.org/1999/xlink" width="16px" height="16px" viewBox="0 0 16 16" version="1.1">
<g id="surface1">
<path style=" stroke:none;fill-rule:nonzero;fill:#007AC9;fill-opacity:1;" d="M 0 14 C 0 15.101562 0.898438 16 2 16 L 14 16 C 15.101562 16 16 15.101562 16 14 L 16 2 C 16 0.898438 15.101562 0 14 0 L 2 0 C 0.898438 0 0 0.898438 0 2 Z M 0 14 "/>
<path style=" stroke:none;fill-rule:nonzero;fill:rgb(100%,100%,100%);fill-opacity:1;" d="M 3.121094 12.320312 L 6.683594 7.90625 L 3.328125 3.746094 C 3.15625 3.523438 3 3.25 3 2.957031 C 3 2.375 3.445312 1.929688 4.046875 1.929688 C 4.492188 1.929688 4.746094 2.101562 5.003906 2.445312 L 8.035156 6.433594 L 11.03125 2.511719 C 11.304688 2.136719 11.59375 1.929688 12.058594 1.929688 C 12.519531 1.929688 13.015625 2.304688 13.015625 2.886719 C 13.015625 3.195312 12.898438 3.4375 12.691406 3.691406 L 9.335938 7.871094 L 12.863281 12.269531 C 13.035156 12.492188 13.1875 12.75 13.1875 13.058594 C 13.1875 13.640625 12.742188 14.085938 12.144531 14.085938 C 11.699219 14.085938 11.441406 13.914062 11.183594 13.570312 L 7.964844 9.378906 L 4.796875 13.503906 C 4.507812 13.878906 4.234375 14.085938 3.769531 14.085938 C 3.292969 14.085938 2.8125 13.707031 2.8125 13.109375 C 2.8125 12.820312 2.933594 12.578125 3.121094 12.320312 Z M 3.121094 12.320312 "/>
</g>
</svg>
