<?xml version="1.0" encoding="UTF-8"?>
<svg xmlns="http://www.w3.org/2000/svg" xmlns:xlink="http://www.w3.org/1999/xlink" width="16px" height="24px" viewBox="0 0 16 24" version="1.1">
<g id="surface1">
<path style=" stroke:none;fill-rule:nonzero;fill:rgb(20%,20%,20%);fill-opacity:1;" d="M 15.976562 7.988281 C 15.976562 12.417969 7.988281 24 7.988281 24 C 7.988281 24 0 12.417969 0 7.988281 C 0 3.597656 3.558594 0 7.988281 0 C 12.417969 0 15.976562 3.597656 15.976562 7.988281 Z M 15.976562 7.988281 "/>
<path style=" stroke:none;fill-rule:nonzero;fill:rgb(100%,100%,100%);fill-opacity:1;" d="M 5.277344 10.402344 L 7.636719 8.46875 C 8.667969 7.628906 9.070312 7.164062 9.070312 6.476562 C 9.070312 5.777344 8.609375 5.398438 7.957031 5.398438 C 7.4375 5.398438 7.070312 5.625 6.605469 6.121094 C 6.488281 6.253906 6.273438 6.382812 5.988281 6.382812 C 5.527344 6.382812 5.160156 6.015625 5.160156 5.554688 C 5.160156 5.351562 5.242188 5.140625 5.375 4.984375 C 6.039062 4.214844 6.820312 3.765625 8.078125 3.765625 C 9.796875 3.765625 10.933594 4.769531 10.933594 6.324219 L 10.933594 6.347656 C 10.933594 7.734375 10.222656 8.421875 8.75 9.558594 L 7.402344 10.601562 L 10.292969 10.601562 C 10.730469 10.601562 11.085938 10.957031 11.085938 11.398438 C 11.085938 11.835938 10.730469 12.179688 10.292969 12.179688 L 5.789062 12.179688 C 5.21875 12.179688 4.804688 11.859375 4.804688 11.3125 C 4.804688 10.957031 4.96875 10.652344 5.277344 10.402344 Z M 5.277344 10.402344 "/>
</g>
</svg>
