<?xml version="1.0" encoding="UTF-8" standalone="no"?>
<!-- Generator: Adobe Illustrator 19.2.1, SVG Export Plug-In . SVG Version: 6.00 Build 0)  -->

<svg
   xmlns:dc="http://purl.org/dc/elements/1.1/"
   xmlns:cc="http://creativecommons.org/ns#"
   xmlns:rdf="http://www.w3.org/1999/02/22-rdf-syntax-ns#"
   xmlns:svg="http://www.w3.org/2000/svg"
   xmlns="http://www.w3.org/2000/svg"
   xmlns:sodipodi="http://sodipodi.sourceforge.net/DTD/sodipodi-0.dtd"
   xmlns:inkscape="http://www.inkscape.org/namespaces/inkscape"
   version="1.1"
   id="Layer_1"
   x="0px"
   y="0px"
   viewBox="0 0 32 32"
   enable-background="new 0 0 20 20"
   xml:space="preserve"
   sodipodi:docname="icon-rail-station.svg"
   width="32"
   height="32"
   inkscape:version="0.92.2 5c3e80d, 2017-08-06"><metadata
     id="metadata4326"><rdf:RDF><cc:Work
         rdf:about=""><dc:format>image/svg+xml</dc:format><dc:type
           rdf:resource="http://purl.org/dc/dcmitype/StillImage" /><dc:title></dc:title></cc:Work></rdf:RDF></metadata><defs
     id="defs4324" /><sodipodi:namedview
     pagecolor="#ffffff"
     bordercolor="#666666"
     borderopacity="1"
     objecttolerance="10"
     gridtolerance="10"
     guidetolerance="10"
     inkscape:pageopacity="0"
     inkscape:pageshadow="2"
     inkscape:window-width="1316"
     inkscape:window-height="879"
     id="namedview4322"
     showgrid="false"
     inkscape:zoom="16.68772"
     inkscape:cx="22.25022"
     inkscape:cy="15.011388"
     inkscape:window-x="0"
     inkscape:window-y="-22"
     inkscape:window-maximized="0"
     inkscape:current-layer="Layer_1" /><path
     d="M 25.021524,30.728594 H 6.8602271 C 5.1642271,30.728594 3.968,26.656 3.968,24.96 V 7.0384 c 0,-1.696 1.9113001,-5.2857073 2.9521514,-5.2891992 L 24.781827,1.6892765 C 25.399186,1.6872053 28.0336,5.3424 28.0336,7.0384 V 24.96 c 0,1.696 -1.316076,5.768594 -3.012076,5.768594 z"
     id="path4315"
     inkscape:connector-curvature="0"
     style="fill:#ffffff;stroke-width:1.60000002"
     sodipodi:nodetypes="sssssssss" /><g
     id="g4319"
     transform="scale(1.6)"><path
       d="M 0,2.475 C 0,1.125 1.125,0 2.475,0 h 15 C 18.875,0 20,1.125 20,2.475 v 15 C 20,18.875 18.875,20 17.475,20 h -15 C 1.125,20 0,18.875 0,17.475 Z M 15.35,2.55 C 14.8,2.05 12.425,1.475 10,1.475 7.65,1.475 5.225,2.05 4.7,2.55 4.325,2.875 3.95,3.625 3.5,4.575 3.125,5.4 2.825,6.175 2.825,6.625 v 7.225 c 0,0.575 0.2,0.825 0.975,1.425 0.575,0.45 0.825,0.65 1.7,0.65 H 7.15 V 17 h 5.775 v -1.075 h 1.625 c 0.875,0 1.125,-0.2 1.675,-0.65 0.775,-0.625 0.95,-0.85 0.95,-1.425 V 6.625 c 0,-0.45 -0.3,-1.225 -0.65,-2.05 -0.45,-0.95 -0.8,-1.7 -1.175,-2.025 z m -0.675,15.2 V 16.7 H 13.75 v 1.05 H 6.3 V 16.7 H 5.35 v 1.05 H 4.2 c -0.275,0 -0.5,0.225 -0.5,0.475 0,0.275 0.225,0.5 0.5,0.5 h 11.65 c 0.275,0 0.475,-0.225 0.475,-0.5 0,-0.25 -0.2,-0.475 -0.475,-0.475 z M 14.15,11.375 c -0.075,0.425 -0.5,0.75 -0.925,0.75 h -6.4 C 6.4,12.125 5.975,11.8 5.9,11.375 L 4.725,6.4 C 4.65,5.975 4.925,5.65 5.35,5.65 h 9.325 C 15.1,5.65 15.4,5.975 15.3,6.4 Z M 13.8,3.425 V 3.85 c 0,0.325 -0.25,0.6 -0.575,0.6 h -6.4 c -0.325,0 -0.6,-0.275 -0.6,-0.6 V 3.425 Z m -7.575,10.55 c 0,-0.35 0.25,-0.625 0.6,-0.625 0.35,0 0.65,0.275 0.65,0.625 0,0.35 -0.3,0.6 -0.65,0.6 -0.35,0 -0.6,-0.25 -0.6,-0.6 z M 12.6,13.9 c 0,-0.35 0.275,-0.625 0.625,-0.625 0.35,0 0.625,0.275 0.625,0.625 0,0.35 -0.275,0.6 -0.625,0.6 -0.35,0 -0.625,-0.25 -0.625,-0.6 z"
       id="path4317"
       inkscape:connector-curvature="0"
       style="fill:#8c4799" /></g></svg>