<?xml version="1.0" encoding="utf-8"?>
<!-- Generator: Adobe Illustrator 19.2.1, SVG Export Plug-In . SVG Version: 6.00 Build 0)  -->
<!DOCTYPE svg PUBLIC "-//W3C//DTD SVG 1.1//EN" "http://www.w3.org/Graphics/SVG/1.1/DTD/svg11.dtd">
<svg version="1.1" id="Layer_1" xmlns="http://www.w3.org/2000/svg" xmlns:xlink="http://www.w3.org/1999/xlink" x="0px" y="0px"
	 viewBox="0 0 16 16" enable-background="new 0 0 16 16" xml:space="preserve">
<g>
	<path fill="#007AC9" d="M0,1.98C0,0.9,0.9,0,1.98,0h12C15.1,0,16,0.9,16,1.98v12C16,15.1,15.1,16,13.98,16h-12
		C0.9,16,0,15.1,0,13.98V1.98z"/>
	<path fill="#FFFFFF" d="M4.032,8.463c0.111,0.085,0.223,0.136,0.395,0.14c0.172,0.003,0.286-0.046,0.4-0.127
		c0.102-0.077,0.175-0.222,0.178-0.392l0.027-1.46l0.244-0.366L5.253,7.602l1.398,0.025l0.027-1.505
		c0.027-0.403-0.112-0.763-0.444-1.027C5.946,4.86,5.597,4.78,5.245,4.773C4.977,4.769,4.771,4.848,4.659,5.008l-0.762,1.36
		l-0.03,1.697C3.864,8.234,3.933,8.382,4.032,8.463"/>
	<path fill="#FFFFFF" d="M5.773,4.56c0.711,0.013,1.3-0.552,1.312-1.257C7.098,2.598,6.53,2.012,5.82,2
		c-0.71-0.013-1.3,0.552-1.312,1.257C4.495,3.962,5.065,4.548,5.773,4.56"/>
	<path fill="#FFFFFF" d="M12.355,6.919h-0.419c-0.128,0-0.252,0.051-0.342,0.142l-6.007,5.974c-0.213,0.211-0.5,0.33-0.799,0.33
		H3.702c-0.627,0-1.135-0.509-1.135-1.138s0.508-1.138,1.135-1.138h0.419c0.128,0,0.251-0.051,0.342-0.142l5.865-5.832
		c0.303-0.302,0.714-0.471,1.142-0.471h0.885c0.627,0,1.135,0.51,1.135,1.138C13.49,6.41,12.982,6.919,12.355,6.919 M12.355,4.002
		h-1.087c-0.471,0-0.915,0.183-1.25,0.516L8.177,6.351C8.17,6.209,8.125,6.107,8.052,6.005C7.975,5.903,7.83,5.83,7.66,5.827
		L6.892,5.813L6.871,6.952L7.56,6.963L6.648,7.871L5.254,7.846L5.249,8.089C5.245,8.327,5.146,8.538,4.975,8.67L4.971,8.673
		L4.967,8.675C4.902,8.724,4.826,8.766,4.739,8.797l0.016,0.956l-0.557,0.554c-0.091,0.09-0.214,0.141-0.342,0.141H3.702
		c-0.979,0-1.775,0.798-1.775,1.778s0.796,1.778,1.775,1.778h1.087c0.471,0,0.915-0.183,1.25-0.516l5.82-5.787
		c0.091-0.091,0.214-0.142,0.342-0.142h0.155c0.979,0,1.775-0.798,1.775-1.778C14.13,4.8,13.334,4.002,12.355,4.002"/>
</g>
</svg>
