<?xml version="1.0" encoding="UTF-8"?>
<svg width="16px" height="22px" viewBox="0 0 16 22" version="1.1" xmlns="http://www.w3.org/2000/svg" xmlns:xlink="http://www.w3.org/1999/xlink">
    <title>icon-stop-train-small</title>
    <g id="Page-1" stroke="none" stroke-width="1" fill="none" fill-rule="evenodd">
        <g id="icons" transform="translate(-52.000000, -152.000000)">
            <g id="stop-marker-master-alt3" transform="translate(36.000000, 136.000000)">
                <g id="stop-ball/train-alt" transform="translate(16.800000, 16.800000)">
                    <circle id="Oval" stroke="#FFFFFF" stroke-width="0.8" fill="#8C4799" cx="7.2" cy="7.2" r="7.6"></circle>
                    <g id="icon-train" transform="translate(2.000000, 2.000000)" stroke-width="1">
                        <g id="icon_rail">
                            <path d="M8.944,10.192 L1.664,10.192 C0.974675,10.192 0.416,9.633325 0.416,8.944 L0.416,1.664 C0.416,0.974675 0.974675,0.416 1.664,0.416 L8.944,0.416 C9.633325,0.416 10.192,0.974675 10.192,1.664 L10.192,8.944 C10.192,9.633325 9.633325,10.192 8.944,10.192 Z" id="Shape" fill="#FFFFFF" fill-rule="nonzero"></path>
                            <path d="M0,1.28708044 C0,0.585036565 0.585036565,0 1.28708044,0 L9.08691793,0 C9.81496344,0 10.4,0.585036565 10.4,1.28708044 L10.4,9.08691793 C10.4,9.81496344 9.81496344,10.4 9.08691793,10.4 L1.28708044,10.4 C0.585036565,10.4 0,9.81496344 0,9.08691793 L0,1.28708044 Z M7.98184887,1.32608288 C7.69583099,1.06606663 6.4607538,0.76704794 5.2,0.76704794 C3.97792362,0.76704794 2.71716982,1.06606663 2.44415276,1.32608288 C2.24914057,1.49509344 2.05412838,1.88511782 1.82011376,2.3791487 C1.62510157,2.80817551 1.46909182,3.2112007 1.46909182,3.44521533 L1.46909182,7.20212513 C1.46909182,7.50114382 1.57309832,7.63115195 1.97612351,7.94317145 C2.2751422,8.17718607 2.40515032,8.28119257 2.86017876,8.28119257 L3.71823239,8.28119257 L3.71823239,8.84022751 L6.72109507,8.84022751 L6.72109507,8.28119257 L7.56614788,8.28119257 C8.02117632,8.28119257 8.15118445,8.17718607 8.43720233,7.94317145 C8.84022751,7.61815113 8.9312332,7.50114382 8.9312332,7.20212513 L8.9312332,3.44521533 C8.9312332,3.2112007 8.77522345,2.80817551 8.59321208,2.3791487 C8.35919745,1.88511782 8.17718607,1.49509344 7.98217389,1.32608288 L7.98184887,1.32608288 Z M7.63082693,9.22992687 L7.63082693,8.68389274 L7.14979686,8.68389274 L7.14979686,9.22992687 L3.27587974,9.22992687 L3.27587974,8.68389274 L2.78184887,8.68389274 L2.78184887,9.22992687 L2.18381149,9.22992687 C2.04080255,9.22992687 1.92379524,9.34693418 1.92379524,9.47694231 C1.92379524,9.61995125 2.04080255,9.73695856 2.18381149,9.73695856 L8.2415401,9.73695856 C8.38454903,9.73695856 8.48855553,9.61995125 8.48855553,9.47694231 C8.48855553,9.34693418 8.38454903,9.22992687 8.2415401,9.22992687 L7.63050191,9.22992687 L7.63082693,9.22992687 Z M7.35780986,5.91504469 C7.31880743,6.1360585 7.09779361,6.30506907 6.8767798,6.30506907 L3.54889681,6.30506907 C3.32788299,6.30506907 3.10686918,6.1360585 3.06786674,5.91504469 L2.45682855,3.32820801 C2.41782611,3.1071942 2.56083505,2.93818364 2.78184887,2.93818364 L7.63082693,2.93818364 C7.85184074,2.93818364 8.00785049,3.1071942 7.95584724,3.32820801 L7.35780986,5.91504469 Z M7.17579849,1.78111132 L7.17579849,2.00212513 C7.17579849,2.1711357 7.04579036,2.31414463 6.8767798,2.31414463 L3.54889681,2.31414463 C3.37988624,2.31414463 3.2368773,2.1711357 3.2368773,2.00212513 L3.2368773,1.78111132 L7.17579849,1.78111132 L7.17579849,1.78111132 Z M3.2368773,7.2671292 C3.2368773,7.08511782 3.36688543,6.94210888 3.54889681,6.94210888 C3.73090818,6.94210888 3.88691793,7.08511782 3.88691793,7.2671292 C3.88691793,7.44914057 3.73090818,7.5791487 3.54889681,7.5791487 C3.36688543,7.5791487 3.2368773,7.44914057 3.2368773,7.2671292 Z M6.55175948,7.22812676 C6.55175948,7.04611538 6.69476842,6.90310644 6.8767798,6.90310644 C7.05879117,6.90310644 7.20180011,7.04611538 7.20180011,7.22812676 C7.20180011,7.41013813 7.05879117,7.54014626 6.8767798,7.54014626 C6.69476842,7.54014626 6.55175948,7.41013813 6.55175948,7.22812676 Z" id="Shape" fill="#8C4799" fill-rule="nonzero"></path>
                        </g>
                    </g>
                </g>
                <path d="M23.2,31.2 L24.8,31.2 L24.8,36.8 C24.8,37.2418278 24.4418278,37.6 24,37.6 C23.5581722,37.6 23.2,37.2418278 23.2,36.8 L23.2,31.2 L23.2,31.2 Z" id="Rectangle" fill="#333333"></path>
            </g>
        </g>
    </g>
</svg>