<?xml version="1.0" encoding="UTF-8"?>
<svg width="24px" height="33px" viewBox="0 0 24 33" version="1.1" xmlns="http://www.w3.org/2000/svg" xmlns:xlink="http://www.w3.org/1999/xlink">
    <title>icon-stop-train-large</title>
    <g id="Page-1" stroke="none" stroke-width="1" fill="none" fill-rule="evenodd">
        <g id="icons" transform="translate(-228.000000, -146.000000)">
            <g id="stop-marker-master-alt3" transform="translate(204.000000, 122.000000)">
                <g id="stop-ball/train-alt" transform="translate(25.200000, 25.200000)">
                    <circle id="Oval" stroke="#FFFFFF" stroke-width="1.2" fill="#8C4799" cx="10.8" cy="10.8" r="11.4"></circle>
                    <g id="icon-train" transform="translate(3.000000, 3.000000)" stroke-width="1">
                        <g id="icon_rail">
                            <path d="M13.416,15.288 L2.496,15.288 C1.4620125,15.288 0.624,14.4499875 0.624,13.416 L0.624,2.496 C0.624,1.4620125 1.4620125,0.624 2.496,0.624 L13.416,0.624 C14.4499875,0.624 15.288,1.4620125 15.288,2.496 L15.288,13.416 C15.288,14.4499875 14.4499875,15.288 13.416,15.288 Z" id="Shape" fill="#FFFFFF" fill-rule="nonzero"></path>
                            <path d="M0,1.93062066 C0,0.877554847 0.877554847,0 1.93062066,0 L13.6303769,0 C14.7224452,0 15.6,0.877554847 15.6,1.93062066 L15.6,13.6303769 C15.6,14.7224452 14.7224452,15.6 13.6303769,15.6 L1.93062066,15.6 C0.877554847,15.6 0,14.7224452 0,13.6303769 L0,1.93062066 Z M11.9727733,1.98912432 C11.5437465,1.59909994 9.6911307,1.15057191 7.8,1.15057191 C5.96688543,1.15057191 4.07575473,1.59909994 3.66622914,1.98912432 C3.37371086,2.24264017 3.08119257,2.82767673 2.73017064,3.56872305 C2.43765235,4.21226327 2.20363773,4.81680105 2.20363773,5.16782299 L2.20363773,10.8031877 C2.20363773,11.2517157 2.35964748,11.4467279 2.96418526,11.9147572 C3.41271329,12.2657791 3.60772548,12.4217889 4.29026814,12.4217889 L5.57734858,12.4217889 L5.57734858,13.2603413 L10.0816426,13.2603413 L10.0816426,12.4217889 L11.3492218,12.4217889 C12.0317645,12.4217889 12.2267767,12.2657791 12.6558035,11.9147572 C13.2603413,11.4272267 13.3968498,11.2517157 13.3968498,10.8031877 L13.3968498,5.16782299 C13.3968498,4.81680105 13.1628352,4.21226327 12.8898181,3.56872305 C12.5387962,2.82767673 12.2657791,2.24264017 11.9732608,1.98912432 L11.9727733,1.98912432 Z M11.4462404,13.8448903 L11.4462404,13.0258391 L10.7246953,13.0258391 L10.7246953,13.8448903 L4.91381961,13.8448903 L4.91381961,13.0258391 L4.1727733,13.0258391 L4.1727733,13.8448903 L3.27571723,13.8448903 C3.06120383,13.8448903 2.88569286,14.0204013 2.88569286,14.2154135 C2.88569286,14.4299269 3.06120383,14.6054378 3.27571723,14.6054378 L12.3623101,14.6054378 C12.5768236,14.6054378 12.7328333,14.4299269 12.7328333,14.2154135 C12.7328333,14.0204013 12.5768236,13.8448903 12.3623101,13.8448903 L11.4457529,13.8448903 L11.4462404,13.8448903 Z M11.0367148,8.87256704 C10.9782111,9.20408776 10.6466904,9.4576036 10.3151697,9.4576036 L5.32334521,9.4576036 C4.99182449,9.4576036 4.66030377,9.20408776 4.60180011,8.87256704 L3.68524283,4.99231202 C3.62673917,4.6607913 3.84125258,4.40727545 4.1727733,4.40727545 L11.4462404,4.40727545 C11.7777611,4.40727545 12.0117757,4.6607913 11.9337709,4.99231202 L11.0367148,8.87256704 Z M10.7636977,2.67166698 L10.7636977,3.0031877 C10.7636977,3.25670354 10.5686855,3.47121695 10.3151697,3.47121695 L5.32334521,3.47121695 C5.06982936,3.47121695 4.85531596,3.25670354 4.85531596,3.0031877 L4.85531596,2.67166698 L10.7636977,2.67166698 L10.7636977,2.67166698 Z M4.85531596,10.9006938 C4.85531596,10.6276767 5.05032815,10.4131633 5.32334521,10.4131633 C5.59636227,10.4131633 5.8303769,10.6276767 5.8303769,10.9006938 C5.8303769,11.1737109 5.59636227,11.368723 5.32334521,11.368723 C5.05032815,11.368723 4.85531596,11.1737109 4.85531596,10.9006938 Z M9.82763923,10.8421901 C9.82763923,10.5691731 10.0421526,10.3546597 10.3151697,10.3546597 C10.5881868,10.3546597 10.8027002,10.5691731 10.8027002,10.8421901 C10.8027002,11.1152072 10.5881868,11.3102194 10.3151697,11.3102194 C10.0421526,11.3102194 9.82763923,11.1152072 9.82763923,10.8421901 Z" id="Shape" fill="#8C4799" fill-rule="nonzero"></path>
                        </g>
                    </g>
                </g>
                <path d="M34.8,46.8 L37.2,46.8 L37.2,55.2 C37.2,55.8627417 36.6627417,56.4 36,56.4 C35.3372583,56.4 34.8,55.8627417 34.8,55.2 L34.8,46.8 L34.8,46.8 Z" id="Rectangle" fill="#333333"></path>
            </g>
        </g>
    </g>
</svg>