<?xml version="1.0" encoding="utf-8"?>
<!-- Generator: Adobe Illustrator 19.2.1, SVG Export Plug-In . SVG Version: 6.00 Build 0)  -->
<!DOCTYPE svg PUBLIC "-//W3C//DTD SVG 1.1//EN" "http://www.w3.org/Graphics/SVG/1.1/DTD/svg11.dtd">
<svg version="1.1" id="Layer_1" xmlns="http://www.w3.org/2000/svg" xmlns:xlink="http://www.w3.org/1999/xlink" x="0px" y="0px"
	 viewBox="0 0 16 16" enable-background="new 0 0 16 16" xml:space="preserve">
<path fill="#666666" d="M13,16H3c-1.657,0-3-1.343-3-3L0,3c0-1.657,1.343-3,3-3l10,0c1.657,0,3,1.343,3,3v10
	C16,14.657,14.657,16,13,16z"/>
<path fill="#FFFFFF" d="M6.433,6.428c0-0.376,0.269-0.534,0.598-0.352l2.746,1.526c0.394,0.219,0.394,0.578,0,0.797L7.031,9.924
	c-0.329,0.183-0.598,0.025-0.598-0.352C6.433,9.572,6.433,6.428,6.433,6.428z"/>
<path fill="#FFFFFF" d="M4.5,3.332h-2c-0.276,0-0.5-0.224-0.5-0.5v-0.5c0-0.276,0.224-0.5,0.5-0.5h2c0.276,0,0.5,0.224,0.5,0.5v0.5
	C5,3.108,4.776,3.332,4.5,3.332z"/>
<path fill="#FFFFFF" d="M9,3.332H7c-0.276,0-0.5-0.224-0.5-0.5v-0.5c0-0.276,0.224-0.5,0.5-0.5h2c0.276,0,0.5,0.224,0.5,0.5v0.5
	C9.5,3.108,9.276,3.332,9,3.332z"/>
<path fill="#FFFFFF" d="M13.5,3.332h-2c-0.276,0-0.5-0.224-0.5-0.5v-0.5c0-0.276,0.224-0.5,0.5-0.5h2c0.276,0,0.5,0.224,0.5,0.5v0.5
	C14,3.108,13.776,3.332,13.5,3.332z"/>
<path fill="#FFFFFF" d="M4.5,14.168h-2c-0.276,0-0.5-0.224-0.5-0.5v-0.5c0-0.276,0.224-0.5,0.5-0.5h2c0.276,0,0.5,0.224,0.5,0.5v0.5
	C5,13.945,4.776,14.168,4.5,14.168z"/>
<path fill="#FFFFFF" d="M9,14.168H7c-0.276,0-0.5-0.224-0.5-0.5v-0.5c0-0.276,0.224-0.5,0.5-0.5h2c0.276,0,0.5,0.224,0.5,0.5v0.5
	C9.5,13.945,9.276,14.168,9,14.168z"/>
<path fill="#FFFFFF" d="M13.5,14.168h-2c-0.276,0-0.5-0.224-0.5-0.5v-0.5c0-0.276,0.224-0.5,0.5-0.5h2c0.276,0,0.5,0.224,0.5,0.5
	v0.5C14,13.945,13.776,14.168,13.5,14.168z"/>
</svg>
