<?xml version="1.0" encoding="UTF-8"?>
<svg width="30px" height="30px" viewBox="0 0 30 30" version="1.1" xmlns="http://www.w3.org/2000/svg" xmlns:xlink="http://www.w3.org/1999/xlink">
    <title>icon-metro-30</title>
    <g id="Page-1" stroke="none" stroke-width="1" fill="none" fill-rule="evenodd">
        <g id="icons" transform="translate(-126.000000, -272.000000)">
            <g id="icon-subway" transform="translate(126.000000, 272.000000)">
                <g id="icon_subway">
                    <g id="Group-3" fill="#FF6319">
                        <path d="M-1.05633803e-05,3.76206338 C-1.05633803e-05,1.7408662 1.68432042,0.0565352113 3.70551761,0.0565352113 L26.1630528,0.0565352113 C28.25925,0.0565352113 29.9434754,1.7408662 29.9434754,3.76206338 L29.9434754,26.2197042 C29.9434754,28.3156901 28.25925,30.0000211 26.1630528,30.0000211 L3.70551761,30.0000211 C1.68432042,30.0000211 -1.05633803e-05,28.3156901 -1.05633803e-05,26.2197042 L-1.05633803e-05,3.76206338 Z" id="Fill-1"></path>
                    </g>
                    <path d="M21.5762317,11.3829961 L21.5762317,10.7530137 C21.5762317,10.7158821 21.6516397,10.6788551 21.7269413,10.6788551 L21.7269413,25.8 L26.4,25.8 L26.4,3.6 L19.5035238,3.6 L15.1695349,18.7582765 L15.0942333,19.7959745 L14.9811746,19.7959745 L14.8681159,18.7582765 L10.5342333,3.6 L3.6,3.6 L3.6,25.8 L8.34846667,25.8 L8.34846667,10.6788551 C8.38611746,10.6788551 8.46141904,10.7158821 8.46141904,10.7530137 L8.46141904,11.3829961 L12.6823492,25.8 L17.3177571,25.8 L21.5762317,11.3829961 Z" id="Fill-4" fill="#FFFFFF"></path>
                </g>
            </g>
        </g>
    </g>
</svg>