<?xml version="1.0" encoding="UTF-8"?>
<svg width="20px" height="27px" viewBox="0 0 20 27" version="1.1" xmlns="http://www.w3.org/2000/svg" xmlns:xlink="http://www.w3.org/1999/xlink">
    <title>icon-stop-bus-medium</title>
    <g id="Page-1" stroke="none" stroke-width="1" fill="none" fill-rule="evenodd">
        <g id="icons" transform="translate(-134.000000, -122.000000)">
            <g id="stop-marker-master-alt3" transform="translate(114.000000, 102.000000)">
                <g id="stop-ball/bus-alt" transform="translate(21.000000, 21.000000)" stroke-width="1">
                    <circle id="Oval" stroke="#FFFFFF" fill="#007AC9" cx="9" cy="9" r="9.5"></circle>
                    <g id="icon-bus" transform="translate(2.500000, 2.500000)">
                        <g id="icon_bus">
                            <path d="M11.1007813,12.61 L2.00078125,12.61 C1.139125,12.61 0.44078125,11.9116563 0.44078125,11.05 L0.44078125,1.95 C0.44078125,1.08834375 1.139125,0.39 2.00078125,0.39 L11.1007813,0.39 C11.9624375,0.39 12.6607813,1.08834375 12.6607813,1.95 L12.6607813,11.05 C12.6607813,11.9116563 11.9624375,12.61 11.1007813,12.61 Z" id="Shape" fill="#FFFFFF" fill-rule="nonzero"></path>
                            <path d="M0.00040625,1.6095625 C0.00040625,0.7320625 0.73165625,0.0008125 1.60915625,0.0008125 L11.3583438,0.0008125 C12.2683437,0.0008125 12.9995938,0.7320625 12.9995938,1.6095625 L12.9995938,11.35875 C12.9995938,12.26875 12.2683437,13 11.3583438,13 L1.60915625,13 C0.73165625,13 0.00040625,12.26875 0.00040625,11.35875 L0.00040625,1.6095625 Z M6.51625,1.3983125 C5.1675,1.3983125 3.9975,1.4633125 2.71415625,1.6420625 C2.32415625,1.6908125 2.09665625,1.9183125 2.09665625,2.2595625 L2.09665625,9.86375 C2.09665625,10.1075 2.27540625,10.27 2.43790625,10.31875 L2.92540625,10.4 L2.92540625,11.42375 C2.92540625,11.5375 3.02290625,11.61875 3.15290625,11.61875 L3.93290625,11.61875 C4.03040625,11.61875 4.12790625,11.5375 4.12790625,11.42375 L4.12790625,10.51375 C4.76165625,10.595 5.62290625,10.6275 6.48415625,10.6275 C7.36165625,10.6275 8.25540625,10.595 8.87290625,10.51375 L8.87290625,11.42375 C8.87290625,11.5375 8.98665625,11.61875 9.08415625,11.61875 L9.86415625,11.61875 C9.99415625,11.61875 10.0916562,11.5375 10.0916562,11.42375 L10.0916562,10.4 L10.5791562,10.31875 C10.7579062,10.27 10.9204062,10.12375 10.9204062,9.86375 L10.9204062,2.2595625 C10.9204062,1.9183125 10.6929062,1.6908125 10.3029062,1.6420625 C9.00290625,1.4795625 7.8170625,1.3983125 6.5170625,1.3983125 L6.51625,1.3983125 Z M9.87959375,7.88165625 C8.95334375,8.04415625 7.73459375,8.20665625 6.54875,8.20665625 C5.2975,8.20665625 4.11165625,8.06040625 3.16915625,7.84915625 C2.90915625,7.80040625 2.81165625,7.70290625 2.81165625,7.49165625 L2.81165625,2.7470625 C2.81165625,2.5358125 2.90915625,2.3895625 3.16915625,2.3895625 L9.87959375,2.4220625 C10.1395937,2.4220625 10.2208437,2.5683125 10.2208437,2.7795625 L10.2208437,7.52415625 C10.2208437,7.73540625 10.1395937,7.84915625 9.87959375,7.88165625 L9.87959375,7.88165625 Z M3.07125,9.18165625 C3.0875,8.97040625 3.2825,8.77540625 3.51,8.77540625 C3.7375,8.77540625 3.9325,8.97040625 3.9325,9.18165625 C3.9325,9.42540625 3.7375,9.62040625 3.51,9.62040625 C3.26625,9.60415625 3.07125,9.40915625 3.07125,9.18165625 L3.07125,9.18165625 Z M9.01834375,9.18165625 C9.03459375,8.97040625 9.22959375,8.77540625 9.44084375,8.77540625 C9.66834375,8.77540625 9.86334375,8.97040625 9.86334375,9.18165625 C9.86334375,9.42540625 9.66834375,9.62040625 9.44084375,9.62040625 C9.21334375,9.60415625 9.01834375,9.40915625 9.01834375,9.18165625 Z" id="Shape" fill="#007AC9" fill-rule="nonzero"></path>
                        </g>
                    </g>
                </g>
                <path d="M29,39 L31,39 L31,46 C31,46.5522847 30.5522847,47 30,47 C29.4477153,47 29,46.5522847 29,46 L29,39 L29,39 Z" id="Rectangle" fill="#333333"></path>
            </g>
        </g>
    </g>
</svg>