<?xml version="1.0" encoding="utf-8"?>
<!-- Generator: Adobe Illustrator 19.2.1, SVG Export Plug-In . SVG Version: 6.00 Build 0)  -->
<!DOCTYPE svg PUBLIC "-//W3C//DTD SVG 1.1//EN" "http://www.w3.org/Graphics/SVG/1.1/DTD/svg11.dtd">
<svg version="1.1" id="Layer_1" xmlns="http://www.w3.org/2000/svg" xmlns:xlink="http://www.w3.org/1999/xlink" x="0px" y="0px"
	 viewBox="0 0 16 16" enable-background="new 0 0 16 16" xml:space="preserve">
<path fill="#FCBC19" d="M0,1.98C0,0.9,0.9,0,1.98,0h12C15.1,0,16,0.9,16,1.98v12C16,15.1,15.1,16,13.98,16h-12
	C0.9,16,0,15.1,0,13.98V1.98z"/>
<g>
	<path fill="#FFFFFF" d="M10.407,7.266l0.556,1.452c0.222,0.588,0.588,1.149,0.862,1.463c0.287,0.34,0.692-0.013,0.444-0.326
		c-0.274-0.34-0.575-0.849-0.784-1.384l-1.009-2.664h0.811l0.444,1.123c0.065,0.157,0.157,0.222,0.3,0.222h1.084
		c0.157,0,0.261-0.078,0.3-0.209l0.549-1.593c0.131-0.366-0.314-0.522-0.457-0.209c-0.431,0.953-1.319,0.823-1.645,0.444
		c-0.131-0.157-0.222-0.235-0.392-0.235h-1.167L10.3,5.339c0.003-0.004,0.006-0.009,0.008-0.013c0.244-0.372,0.313-0.499,0.37-0.781
		c0.057-0.276,0-0.534-0.16-0.728c-0.173-0.209-0.43-0.341-0.743-0.335C9.339,3.489,9.004,3.839,8.967,3.879
		C8.861,3.993,8.867,4.172,8.982,4.278c0.115,0.106,0.286,0.094,0.4-0.015C9.447,4.2,9.618,4.04,9.784,4.037
		c0.141-0.004,0.218,0.057,0.261,0.103c0.066,0.069,0.108,0.2,0.076,0.324c-0.023,0.09-0.05,0.176-0.238,0.476l0,0
		C9.731,5.123,9.655,5.292,9.72,5.475L10.19,6.7c-0.882,0.591-1.537,1.45-1.785,2.559C8.23,9.165,8.035,9.137,7.803,9.162
		L7.661,9.175L6.126,5.173C6.271,5.133,6.437,5.1,6.64,5.087l0.17-0.013c0.17-0.013,0.3-0.117,0.3-0.274
		c0-0.157-0.117-0.287-0.326-0.287H5.948c-0.614,0-0.718-0.01-1.071-0.01c-0.209,0-0.34,0.075-0.34,0.232
		c0,0.327,0.431,0.627,0.836,0.627c0.069,0,0.135-0.009,0.201-0.022l0.54,1.405L5.569,7.555C5.021,7.15,4.368,6.928,3.702,6.928
		c-0.771,0-1.494,0.282-2.013,0.714C1.672,7.657,1.562,7.761,1.546,7.776c-0.151,0.152-0.103,0.422,0.108,0.46
		C1.675,8.24,1.782,8.27,1.801,8.274C2.603,8.467,3.364,8.96,3.97,9.612C3.804,9.723,3.702,9.9,3.702,10.089
		c0,0.34,0.222,0.575,0.601,0.614l3.409,0.366c0.64,0.065,1.162-0.209,1.215-0.993l0.013-0.183
		C9.001,8.883,9.529,7.909,10.407,7.266z M6.362,7.388L7.07,9.232L4.988,9.433L6.362,7.388z"/>
	<path fill="#FFFFFF" d="M4.224,11.944c-1.045,0-1.894-0.836-1.894-1.881c0-0.327,0.091-0.653,0.287-0.967
		C2.461,8.992,2.265,8.901,2.095,8.835c-0.222,0.366-0.34,0.81-0.34,1.228c0,1.358,1.11,2.455,2.468,2.455
		c0.875,0,1.659-0.457,2.09-1.162l-0.692-0.078C5.308,11.695,4.799,11.944,4.224,11.944z"/>
	<path fill="#FFFFFF" d="M12.086,7.608c-0.157,0-0.3,0.013-0.431,0.039l0.209,0.549c0.065-0.013,0.144-0.013,0.222-0.013
		c1.032,0,1.881,0.849,1.881,1.881c0,1.045-0.849,1.881-1.881,1.881c-1.045,0-1.881-0.836-1.881-1.881
		c0-0.431,0.144-0.823,0.379-1.136l-0.235-0.614c-0.444,0.444-0.731,1.071-0.731,1.75c0,1.358,1.11,2.455,2.468,2.455
		c1.358,0,2.455-1.097,2.455-2.455C14.542,8.705,13.444,7.608,12.086,7.608z"/>
</g>
</svg>
