<?xml version="1.0" encoding="UTF-8"?>
<svg xmlns="http://www.w3.org/2000/svg" xmlns:xlink="http://www.w3.org/1999/xlink" width="16px" height="16px" viewBox="0 0 16 16" version="1.1">
<g id="surface1">
<path style=" stroke:none;fill-rule:nonzero;fill:#007AC9;fill-opacity:1;" d="M 0 14 C 0 15.101562 0.898438 16 2 16 L 14 16 C 15.101562 16 16 15.101562 16 14 L 16 2 C 16 0.898438 15.101562 0 14 0 L 2 0 C 0.898438 0 0 0.898438 0 2 Z M 0 14 "/>
<path style=" stroke:none;fill-rule:nonzero;fill:rgb(100%,100%,100%);fill-opacity:1;" d="M 6.742188 13.316406 L 2.546875 3.453125 C 2.480469 3.300781 2.425781 3.144531 2.425781 2.957031 C 2.425781 2.390625 2.890625 1.929688 3.488281 1.929688 C 4.035156 1.929688 4.394531 2.238281 4.566406 2.683594 L 8.027344 11.328125 L 11.535156 2.613281 C 11.671875 2.253906 12.050781 1.929688 12.546875 1.929688 C 13.128906 1.929688 13.589844 2.375 13.589844 2.941406 C 13.589844 3.09375 13.539062 3.265625 13.488281 3.386719 L 9.277344 13.316406 C 9.054688 13.847656 8.660156 14.171875 8.058594 14.171875 L 7.941406 14.171875 C 7.359375 14.171875 6.964844 13.847656 6.742188 13.316406 Z M 6.742188 13.316406 "/>
</g>
</svg>
