<?xml version="1.0" encoding="UTF-8"?>
<svg width="24px" height="24px" viewBox="0 0 24 24" version="1.1" xmlns="http://www.w3.org/2000/svg" xmlns:xlink="http://www.w3.org/1999/xlink">
    <title>icon-hsl_ferry-24</title>
    <g id="Page-1" stroke="none" stroke-width="1" fill="none" fill-rule="evenodd">
        <g id="icons" transform="translate(-176.000000, -218.000000)">
            <g id="icon-ferry" transform="translate(176.000000, 218.000000)">
                <g id="icon_ferry">
                    <path d="M20.4,23.28 L3.6,23.28 C2.00925,23.28 0.72,21.99075 0.72,20.4 L0.72,3.6 C0.72,2.00925 2.00925,0.72 3.6,0.72 L20.4,0.72 C21.99075,0.72 23.28,2.00925 23.28,3.6 L23.28,20.4 C23.28,21.99075 21.99075,23.28 20.4,23.28 Z" id="Shape" fill="#FFFFFF" fill-rule="nonzero"></path>
                    <path d="M0.00075,2.9715 C0.00075,1.3515 1.35075,0.0015 2.97075,0.0015 L20.96925,0.0015 C22.64925,0.0015 23.99925,1.3515 23.99925,2.9715 L23.99925,20.97 C23.99925,22.65 22.64925,24 20.96925,24 L2.97075,24 C1.35075,24 0.00075,22.65 0.00075,20.97 L0.00075,2.9715 Z M3.63075,20.28 C3.33075,20.28 3.06075,20.52 3.06075,20.85 C3.06075,21.18 3.33075,21.42 3.63075,21.42 L20.36925,21.42 C20.69925,21.42 20.96925,21.18 20.96925,20.85 C20.96925,20.52 20.69925,20.28 20.36925,20.28 L3.63075,20.28 Z M19.22925,13.65075 C19.22925,13.65075 16.82925,13.02075 15.20925,12.66075 C13.79925,12.36075 12.05925,12.15075 11.93925,12.15075 C11.81925,12.15075 10.10925,12.36075 8.66925,12.66075 C7.04925,13.02075 4.64925,13.65075 4.64925,13.65075 L5.30925,19.35 L18.59775,19.35 L19.22775,13.65075 L19.22925,13.65075 Z M8.67,11.52075 C10.11,11.22075 11.85,11.01075 11.94,10.98075 C12.03,11.01075 13.77,11.22075 15.21,11.52075 C16.32,11.76075 16.95,11.91075 17.76,12.12075 L17.76,7.95075 C17.76,7.41075 17.91,6.69075 16.5,6.69075 L13.89,6.69075 L13.89,2.76075 C13.89,2.55075 13.71,2.37075 13.5,2.34075 L10.38,2.34075 C10.17,2.37075 10.02,2.55075 9.99,2.76075 L9.99,6.69 L7.38,6.69 C5.97,6.69 6.12,7.41 6.12,7.95 L6.12,12.12 L8.67,11.52 L8.67,11.52075 Z M10.08,8.8815 C10.08,9.5115 9.6,9.9915 8.97,9.9915 C8.34,9.9915 7.86,9.5115 7.86,8.8815 C7.86,8.2515 8.34,7.7715 8.97,7.7715 C9.6,7.7715 10.08,8.2515 10.08,8.8815 Z M13.05,8.8815 C13.05,9.5115 12.57,9.9915 11.94,9.9915 C11.34,9.9915 10.83,9.5115 10.83,8.8815 C10.83,8.2515 11.34,7.7715 11.94,7.7715 C12.57,7.7715 13.05,8.2515 13.05,8.8815 Z M16.01925,8.8815 C16.01925,9.5115 15.53925,9.9915 14.90925,9.9915 C14.30925,9.9915 13.79925,9.5115 13.79925,8.8815 C13.79925,8.2515 14.30925,7.7715 14.90925,7.7715 C15.53925,7.7715 16.01925,8.2515 16.01925,8.8815 Z" id="Shape" fill="#00B9E4" fill-rule="nonzero"></path>
                </g>
            </g>
        </g>
    </g>
</svg>