<?xml version="1.0" encoding="UTF-8"?>
<svg width="30px" height="30px" viewBox="0 0 30 30" version="1.1" xmlns="http://www.w3.org/2000/svg" xmlns:xlink="http://www.w3.org/1999/xlink">
    <title>icon-hsl_ferry-30</title>
    <g id="Page-1" stroke="none" stroke-width="1" fill="none" fill-rule="evenodd">
        <g id="icons" transform="translate(-176.000000, -272.000000)">
            <g id="icon-ferry" transform="translate(176.000000, 272.000000)">
                <g id="icon_ferry">
                    <path d="M25.5,29.1 L4.5,29.1 C2.5115625,29.1 0.9,27.4884375 0.9,25.5 L0.9,4.5 C0.9,2.5115625 2.5115625,0.9 4.5,0.9 L25.5,0.9 C27.4884375,0.9 29.1,2.5115625 29.1,4.5 L29.1,25.5 C29.1,27.4884375 27.4884375,29.1 25.5,29.1 Z" id="Shape" fill="#FFFFFF" fill-rule="nonzero"></path>
                    <path d="M0.0009375,3.714375 C0.0009375,1.689375 1.6884375,0.001875 3.7134375,0.001875 L26.2115625,0.001875 C28.3115625,0.001875 29.9990625,1.689375 29.9990625,3.714375 L29.9990625,26.2125 C29.9990625,28.3125 28.3115625,30 26.2115625,30 L3.7134375,30 C1.6884375,30 0.0009375,28.3125 0.0009375,26.2125 L0.0009375,3.714375 Z M4.5384375,25.35 C4.1634375,25.35 3.8259375,25.65 3.8259375,26.0625 C3.8259375,26.475 4.1634375,26.775 4.5384375,26.775 L25.4615625,26.775 C25.8740625,26.775 26.2115625,26.475 26.2115625,26.0625 C26.2115625,25.65 25.8740625,25.35 25.4615625,25.35 L4.5384375,25.35 Z M24.0365625,17.0634375 C24.0365625,17.0634375 21.0365625,16.2759375 19.0115625,15.8259375 C17.2490625,15.4509375 15.0740625,15.1884375 14.9240625,15.1884375 C14.7740625,15.1884375 12.6365625,15.4509375 10.8365625,15.8259375 C8.8115625,16.2759375 5.8115625,17.0634375 5.8115625,17.0634375 L6.6365625,24.1875 L23.2471875,24.1875 L24.0346875,17.0634375 L24.0365625,17.0634375 Z M10.8375,14.4009375 C12.6375,14.0259375 14.8125,13.7634375 14.925,13.7259375 C15.0375,13.7634375 17.2125,14.0259375 19.0125,14.4009375 C20.4,14.7009375 21.1875,14.8884375 22.2,15.1509375 L22.2,9.9384375 C22.2,9.2634375 22.3875,8.3634375 20.625,8.3634375 L17.3625,8.3634375 L17.3625,3.4509375 C17.3625,3.1884375 17.1375,2.9634375 16.875,2.9259375 L12.975,2.9259375 C12.7125,2.9634375 12.525,3.1884375 12.4875,3.4509375 L12.4875,8.3625 L9.225,8.3625 C7.4625,8.3625 7.65,9.2625 7.65,9.9375 L7.65,15.15 L10.8375,14.4 L10.8375,14.4009375 Z M12.6,11.101875 C12.6,11.889375 12,12.489375 11.2125,12.489375 C10.425,12.489375 9.825,11.889375 9.825,11.101875 C9.825,10.314375 10.425,9.714375 11.2125,9.714375 C12,9.714375 12.6,10.314375 12.6,11.101875 Z M16.3125,11.101875 C16.3125,11.889375 15.7125,12.489375 14.925,12.489375 C14.175,12.489375 13.5375,11.889375 13.5375,11.101875 C13.5375,10.314375 14.175,9.714375 14.925,9.714375 C15.7125,9.714375 16.3125,10.314375 16.3125,11.101875 Z M20.0240625,11.101875 C20.0240625,11.889375 19.4240625,12.489375 18.6365625,12.489375 C17.8865625,12.489375 17.2490625,11.889375 17.2490625,11.101875 C17.2490625,10.314375 17.8865625,9.714375 18.6365625,9.714375 C19.4240625,9.714375 20.0240625,10.314375 20.0240625,11.101875 Z" id="Shape" fill="#00B9E4" fill-rule="nonzero"></path>
                </g>
            </g>
        </g>
    </g>
</svg>