<?xml version="1.0" encoding="UTF-8"?>
<svg width="16px" height="22px" viewBox="0 0 16 22" version="1.1" xmlns="http://www.w3.org/2000/svg" xmlns:xlink="http://www.w3.org/1999/xlink">
    <title>icon-stop-hsl_ferry-small</title>
    <defs>
        <polygon id="path-1" points="0 0.0197746479 10.3802254 0.0197746479 10.3802254 10.4 0 10.4"></polygon>
    </defs>
    <g id="Page-1" stroke="none" stroke-width="1" fill="none" fill-rule="evenodd">
        <g id="icons" transform="translate(-52.000000, -298.000000)">
            <g id="stop-marker-master-alt3" transform="translate(36.000000, 282.000000)">
                <g id="stop-ball/ferryport" transform="translate(16.800000, 16.800000)">
                    <circle id="Oval" stroke="#FFFFFF" stroke-width="0.8" fill="#666666" cx="7.2" cy="7.2" r="7.6"></circle>
                    <g id="icon-ferry_port" transform="translate(2.000000, 2.000000)" stroke-width="1">
                        <g id="Lauttasatama">
                            <g id="Group-3">
                                <mask id="mask-2" fill="white">
                                    <use xlink:href="#path-1"></use>
                                </mask>
                                <g id="Clip-2"></g>
                                <path d="M0,9.09992662 C0,9.81492112 0.58500344,10.3999633 1.3000321,10.3999633 L9.0999679,10.3999633 C9.81499656,10.3999633 10.4,9.81492112 10.4,9.09992662 L10.4,1.29992662 C10.4,0.584932126 9.81499656,-3.66888328e-05 9.0999679,-3.66888328e-05 L1.3000321,-3.66888328e-05 C0.58500344,-3.66888328e-05 0,0.584932126 0,1.29992662 L0,9.09992662 Z" id="Fill-1" fill="#666666" mask="url(#mask-2)"></path>
                            </g>
                            <path d="M7.44560488,5.25391765 L6.03040678,5.25391765 C5.97299957,5.25391765 5.91860992,5.20703759 5.90944685,5.14973147 L5.77030796,4.27867096 C5.76114489,4.22136484 5.80059395,4.17448478 5.85796435,4.17448478 L7.01954035,4.17448478 C7.07691076,4.17448478 7.14123627,4.21853491 7.16257998,4.2724898 L7.51121838,5.15591264 C7.53252528,5.20979305 7.50301209,5.25391765 7.44560488,5.25391765 L7.44560488,5.25391765 Z M5.65089361,5.25391765 L4.55338553,5.25391765 C4.49601512,5.25391765 4.44905897,5.20644182 4.44905897,5.14835374 L4.44905897,4.28001146 C4.44905897,4.22196062 4.49601512,4.17448478 4.55338553,4.17448478 L5.47848798,4.17448478 C5.53585839,4.17448478 5.59028484,4.22136484 5.59944792,4.27867096 L5.7385868,5.14973147 C5.74774987,5.20703759 5.70830082,5.25391765 5.65089361,5.25391765 L5.65089361,5.25391765 Z M4.28224686,5.14835374 C4.28224686,5.20644182 4.23532751,5.25391765 4.1779203,5.25391765 L2.90403225,5.25391765 C2.84662504,5.25391765 2.79970569,5.20644182 2.79970569,5.14835374 L2.79970569,4.28001146 C2.79970569,4.22196062 2.84662504,4.17448478 2.90403225,4.17448478 L4.1779203,4.17448478 C4.23532751,4.17448478 4.28224686,4.22196062 4.28224686,4.28001146 L4.28224686,5.14835374 Z M2.63281999,5.14835374 C2.63281999,5.20644182 2.58586384,5.25391765 2.52853023,5.25391765 L1.81097691,5.25391765 C1.7535697,5.25391765 1.70665035,5.20644182 1.70665035,5.14835374 L1.70665035,4.28001146 C1.70665035,4.22196062 1.7535697,4.17448478 1.81097691,4.17448478 L2.52853023,4.17448478 C2.58586384,4.17448478 2.63281999,4.22196062 2.63281999,4.28001146 L2.63281999,5.14835374 Z M9.75065152,5.72592052 L8.14512644,5.72592052 C8.1194772,5.72592052 8.09920068,5.7137816 8.08698324,5.69166344 C8.06678032,5.65528392 7.40913658,4.17448478 7.40913658,4.17448478 L7.52277342,4.17448478 C7.56630722,4.17448478 7.6253336,4.11468385 7.6253336,4.04095668 C7.6253336,3.96734121 7.56630722,3.90757752 7.49344422,3.90757752 L5.83422868,3.90757752 L5.43948052,3.14472467 C5.43259902,3.13135696 5.41464086,3.12029789 5.39966347,3.12029789 L5.32054456,3.12 C5.30560396,3.12 5.29669849,3.13187827 5.30085683,3.14640029 L5.3612816,3.35775152 L5.1943959,3.35775152 C5.17169061,3.35775152 5.15329086,3.37644397 5.15329086,3.39941855 C5.15329086,3.42239313 5.17169061,3.4410111 5.1943959,3.4410111 L5.38509087,3.4410111 L5.51841543,3.90757752 L1.40011057,3.90757752 C1.32721078,3.90757752 1.26814759,3.96734121 1.26814759,4.04095668 C1.26814759,4.11468385 1.32721078,4.17448478 1.42943977,4.17448478 L1.44287158,4.17448478 L1.28400817,5.72592052 L0.832,5.72592052 L0.999916087,7.28 C1.39738741,7.28 1.75544648,7.11061368 2.00822219,6.83942427 C2.26107151,7.11061368 2.61916738,7.28 3.0166387,7.28 C3.41399963,7.28 3.77209549,7.11061368 4.02494481,6.83942427 C4.27772053,7.11061368 4.63581639,7.28 5.03325092,7.28 C5.43064864,7.28 5.78881811,7.11061368 6.04159382,6.83942427 C6.29444314,7.11061368 6.65250221,7.28 7.04997353,7.28 C7.44737126,7.28 7.80543032,7.11061368 8.05824284,6.83942427 C8.21037194,7.00262943 8.40091972,7.12859864 8.61494557,7.20336842 C8.85796942,6.90067741 9.73928048,5.80314787 9.76423054,5.77201862 C9.78391826,5.74744289 9.77858234,5.72592052 9.75065152,5.72592052 L9.75065152,5.72592052 Z" id="Fill-4" fill="#FFFFFF"></path>
                        </g>
                    </g>
                </g>
                <path d="M23.2,31.2 L24.8,31.2 L24.8,36.8 C24.8,37.2418278 24.4418278,37.6 24,37.6 C23.5581722,37.6 23.2,37.2418278 23.2,36.8 L23.2,31.2 L23.2,31.2 Z" id="Rectangle" fill="#333333"></path>
            </g>
        </g>
    </g>
</svg>