<?xml version="1.0" encoding="utf-8"?>
<!-- Generator: Adobe Illustrator 19.2.0, SVG Export Plug-In . SVG Version: 6.00 Build 0)  -->
<!DOCTYPE svg PUBLIC "-//W3C//DTD SVG 1.1//EN" "http://www.w3.org/Graphics/SVG/1.1/DTD/svg11.dtd">
<svg version="1.1" id="Layer_1" xmlns="http://www.w3.org/2000/svg" xmlns:xlink="http://www.w3.org/1999/xlink" x="0px" y="0px"
	 viewBox="0 0 16 16" enable-background="new 0 0 16 16" xml:space="preserve">
<path fill="#666666" d="M13,16H3c-1.657,0-3-1.343-3-3L0,3c0-1.657,1.343-3,3-3l10,0c1.657,0,3,1.343,3,3v10
	C16,14.657,14.657,16,13,16z"/>
<g>
	<path fill="#FFFFFF" d="M12.987,8.303h-1.981V5.506c0-0.117-0.047-0.233-0.14-0.326L8.303,2.64c-0.186-0.186-0.466-0.186-0.653,0
		L5.087,5.18c-0.093,0.093-0.14,0.21-0.14,0.326v2.797H2.966C2.71,8.303,2.5,8.513,2.5,8.769v4.265c0,0.256,0.21,0.466,0.466,0.466
		h3.775c0.256,0,0.466-0.21,0.466-0.466v-1.515c0-0.396,0.35-0.699,0.792-0.699s0.792,0.326,0.792,0.699v1.515
		c0,0.256,0.21,0.466,0.466,0.466h3.775c0.256,0,0.466-0.21,0.466-0.466V8.769C13.453,8.513,13.244,8.303,12.987,8.303z
		 M7.977,8.117c-0.746,0-1.352-0.606-1.352-1.352s0.606-1.328,1.352-1.328s1.352,0.606,1.352,1.352S8.722,8.117,7.977,8.117z"/>
</g>
</svg>
