<?xml version="1.0" encoding="UTF-8" standalone="no"?>
<!-- Generator: Adobe Illustrator 19.2.1, SVG Export Plug-In . SVG Version: 6.00 Build 0)  -->

<svg
   xmlns:dc="http://purl.org/dc/elements/1.1/"
   xmlns:cc="http://creativecommons.org/ns#"
   xmlns:rdf="http://www.w3.org/1999/02/22-rdf-syntax-ns#"
   xmlns:svg="http://www.w3.org/2000/svg"
   xmlns="http://www.w3.org/2000/svg"
   xmlns:sodipodi="http://sodipodi.sourceforge.net/DTD/sodipodi-0.dtd"
   xmlns:inkscape="http://www.inkscape.org/namespaces/inkscape"
   version="1.1"
   x="0px"
   y="0px"
   viewBox="0 0 20 30.000001"
   enable-background="new 0 0 283.465 283.632"
   xml:space="preserve"
   id="svg2"
   inkscape:version="0.91 r13725"
   sodipodi:docname="icon-suunta1.svg"
   width="20"
   height="30"><metadata
     id="metadata18"><rdf:RDF><cc:Work
         rdf:about=""><dc:format>image/svg+xml</dc:format><dc:type
           rdf:resource="http://purl.org/dc/dcmitype/StillImage" /><dc:title></dc:title></cc:Work></rdf:RDF></metadata><defs
     id="defs16" /><sodipodi:namedview
     pagecolor="#ffffff"
     bordercolor="#666666"
     borderopacity="1"
     objecttolerance="10"
     gridtolerance="10"
     guidetolerance="10"
     inkscape:pageopacity="0"
     inkscape:pageshadow="2"
     inkscape:window-width="1048"
     inkscape:window-height="706"
     id="namedview14"
     showgrid="false"
     inkscape:zoom="3"
     inkscape:cx="-2.3588051"
     inkscape:cy="-19.773654"
     inkscape:window-x="20"
     inkscape:window-y="43"
     inkscape:window-maximized="0"
     inkscape:current-layer="svg2" /><g
     id="bkg"
     display="none"
     style="display:none"
     transform="translate(0,-253.63199)" /><g
     id="picto"
     transform="matrix(0.10583318,0,0,0.10583318,-4.4003329,-0.00888978)"><g
       id="g6"><path
         d="m 230.256,94.423 c 0,52.311 -94.339,189.126 -94.339,189.126 0,0 -94.339,-136.815 -94.339,-189.126 0,-51.864 42.028,-94.339 94.339,-94.339 52.311,0 94.339,42.475 94.339,94.339 z"
         id="path8"
         inkscape:connector-curvature="0"
         style="fill:#007ac9" /></g><g
       id="g10"><path
         d="m 131.297,66.377 -7.56,1.96 c -1.12,0.28 -2.66,0.56 -3.78,0.56 -5.04,0 -9.38,-4.199 -9.38,-9.239 0,-4.34 2.8,-7.98 7.14,-9.24 l 13.86,-4.06 c 4.06,-1.12 7.14,-1.82 10.08,-1.82 l 0.279,0 c 5.88,0 10.641,4.76 10.641,10.64 l 0,78.96 c 0,5.88 -4.761,10.64 -10.641,10.64 -5.88,0 -10.64,-4.76 -10.64,-10.64 l 0,-67.761 z"
         id="path12"
         inkscape:connector-curvature="0"
         style="fill:#ffffff" /></g></g></svg>