<?xml version="1.0" encoding="UTF-8"?>
<svg width="16px" height="16px" viewBox="0 0 16 16" version="1.1" xmlns="http://www.w3.org/2000/svg" xmlns:xlink="http://www.w3.org/1999/xlink">
    <title>icon-train-16</title>
    <g id="Page-1" stroke="none" stroke-width="1" fill="none" fill-rule="evenodd">
        <g id="icons" transform="translate(-26.000000, -122.000000)">
            <g id="icon-train" transform="translate(26.000000, 122.000000)">
                <g id="icon_rail">
                    <path d="M13.76,15.68 L2.56,15.68 C1.4995,15.68 0.64,14.8205 0.64,13.76 L0.64,2.56 C0.64,1.4995 1.4995,0.64 2.56,0.64 L13.76,0.64 C14.8205,0.64 15.68,1.4995 15.68,2.56 L15.68,13.76 C15.68,14.8205 14.8205,15.68 13.76,15.68 Z" id="Shape" fill="#FFFFFF" fill-rule="nonzero"></path>
                    <path d="M0,1.98012376 C0,0.900056254 0.900056254,0 1.98012376,0 L13.9798737,0 C15.0999437,0 16,0.900056254 16,1.98012376 L16,13.9798737 C16,15.0999437 15.0999437,16 13.9798737,16 L1.98012376,16 C0.900056254,16 0,15.0999437 0,13.9798737 L0,1.98012376 Z M12.2797675,2.04012751 C11.83974,1.64010251 9.93962123,1.18007375 8,1.18007375 C6.11988249,1.18007375 4.18026127,1.64010251 3.76023501,2.04012751 C3.46021626,2.30014376 3.16019751,2.90018126 2.80017501,3.66022876 C2.50015626,4.32027002 2.26014126,4.94030877 2.26014126,5.30033127 L2.26014126,11.0801925 C2.26014126,11.5402213 2.42015126,11.7402338 3.04019001,12.2202638 C3.50021876,12.5802863 3.70023126,12.7402963 4.40027502,12.7402963 L5.72035752,12.7402963 L5.72035752,13.60035 L10.3401463,13.60035 L10.3401463,12.7402963 L11.6402275,12.7402963 C12.3402713,12.7402963 12.5402838,12.5802863 12.9803113,12.2202638 C13.60035,11.7202325 13.7403588,11.5402213 13.7403588,11.0801925 L13.7403588,5.30033127 C13.7403588,4.94030877 13.5003438,4.32027002 13.2203263,3.66022876 C12.8603038,2.90018126 12.5802863,2.30014376 12.2802675,2.04012751 L12.2797675,2.04012751 Z M11.7397337,14.1998875 L11.7397337,13.359835 L10.9996875,13.359835 L10.9996875,14.1998875 L5.03981499,14.1998875 L5.03981499,13.359835 L4.27976749,13.359835 L4.27976749,14.1998875 L3.35970998,14.1998875 C3.13969623,14.1998875 2.95968498,14.3798987 2.95968498,14.5799112 C2.95968498,14.799925 3.13969623,14.9799362 3.35970998,14.9799362 L12.6792925,14.9799362 C12.8993062,14.9799362 13.0593162,14.799925 13.0593162,14.5799112 C13.0593162,14.3798987 12.8993062,14.1998875 12.6792925,14.1998875 L11.7392337,14.1998875 L11.7397337,14.1998875 Z M11.3197075,9.10006875 C11.2597037,9.44009001 10.9196825,9.70010626 10.5796612,9.70010626 L5.45984124,9.70010626 C5.11981999,9.70010626 4.77979874,9.44009001 4.71979499,9.10006875 L3.77973623,5.12032002 C3.71973248,4.78029877 3.93974623,4.52028252 4.27976749,4.52028252 L11.7397337,4.52028252 C12.079755,4.52028252 12.31977,4.78029877 12.239765,5.12032002 L11.3197075,9.10006875 Z M11.03969,2.74017126 L11.03969,3.08019251 C11.03969,3.34020876 10.8396775,3.56022251 10.5796612,3.56022251 L5.45984124,3.56022251 C5.19982499,3.56022251 4.97981124,3.34020876 4.97981124,3.08019251 L4.97981124,2.74017126 L11.03969,2.74017126 L11.03969,2.74017126 Z M4.97981124,11.1801988 C4.97981124,10.9001813 5.17982374,10.6801675 5.45984124,10.6801675 C5.73985874,10.6801675 5.97987374,10.9001813 5.97987374,11.1801988 C5.97987374,11.4602163 5.73985874,11.6602288 5.45984124,11.6602288 C5.17982374,11.6602288 4.97981124,11.4602163 4.97981124,11.1801988 Z M10.07963,11.120195 C10.07963,10.8401775 10.2996437,10.6201638 10.5796612,10.6201638 C10.8596787,10.6201638 11.0796925,10.8401775 11.0796925,11.120195 C11.0796925,11.4002125 10.8596787,11.600225 10.5796612,11.600225 C10.2996437,11.600225 10.07963,11.4002125 10.07963,11.120195 Z" id="Shape" fill="#8C4799" fill-rule="nonzero"></path>
                </g>
            </g>
        </g>
    </g>
</svg>