<?xml version="1.0" encoding="UTF-8"?>
<svg width="34px" height="34px" viewBox="0 0 34 34" version="1.1" xmlns="http://www.w3.org/2000/svg" xmlns:xlink="http://www.w3.org/1999/xlink">
    <!-- Generator: Sketch 51.3 (57544) - http://www.bohemiancoding.com/sketch -->
    <title>citybike2_border copy 2</title>
    <desc>Created with Sketch.</desc>
    <defs></defs>
    <g id="Page-1" stroke="none" stroke-width="1" fill="none" fill-rule="evenodd">
        <g id="citybike2_border-copy-2" transform="translate(1.000000, 1.000000)" fill-rule="nonzero">
            <path d="M0.704549037,26.9112807 L0.704545455,26.9089626 L0.704549037,5.08871926 C0.712024781,2.67004732 2.67107498,0.711342605 5.0916788,0.704545455 L26.9079535,0.704547347 C29.3274167,0.709982541 31.2879688,2.66908332 31.2954545,5.09103739 L31.2954516,26.9110718 C31.2886457,29.3311045 29.3276038,31.2906946 26.9062686,31.2954545 L5.08957185,31.2954516 C2.67107496,31.2886574 0.712024781,29.3299527 0.704549037,26.9112807 Z" id="Path" stroke="#FFFFFF" stroke-width="1.5" fill="#FCBB19"></path>
            <path d="M24.0740802,31.5577955 L23.9986106,31.5577955 C23.4776015,31.5577954 23.0552403,31.1353999 23.0552403,30.6143486 C23.0552403,30.0932973 23.4776015,29.6709018 23.9986106,29.6709018 L24.0740802,29.6709018 C24.5950892,29.6709018 25.0174505,30.0932973 25.0174505,30.6143486 C25.0174505,31.1353999 24.5950892,31.5577955 24.0740802,31.5577955 Z M20.9861146,31.5577955 L20.9106449,31.5577955 C20.3896359,31.5577954 19.9672746,31.1353999 19.9672746,30.6143486 C19.9672746,30.0932973 20.3896359,29.6709018 20.9106449,29.6709018 L20.9861146,29.6709018 C21.5071236,29.6709018 21.9294849,30.0932973 21.9294849,30.6143486 C21.9294849,31.1353999 21.5071236,31.5577955 20.9861146,31.5577955 Z M17.8950043,31.5577955 L17.8195347,31.5577955 C17.2985257,31.5577954 16.8761644,31.1353999 16.8761644,30.6143486 C16.8761644,30.0932973 17.2985257,29.6709018 17.8195347,29.6709018 L17.8950043,29.6709018 C18.4160134,29.6709018 18.8383747,30.0932973 18.8383747,30.6143486 C18.8383747,31.1353999 18.4160134,31.5577955 17.8950043,31.5577955 Z M14.8070388,31.5577955 L14.7315691,31.5577955 C14.21056,31.5577954 13.7881988,31.1353999 13.7881988,30.6143486 C13.7881988,30.0932973 14.21056,29.6709018 14.7315691,29.6709018 L14.8070388,29.6709018 C15.3280478,29.6709018 15.7504091,30.0932973 15.7504091,30.6143486 C15.7504091,31.1353999 15.3280478,31.5577955 14.8070388,31.5577955 Z M11.7159285,31.5577955 L11.6404589,31.5577955 C11.1194499,31.5577954 10.6970886,31.1353999 10.6970886,30.6143486 C10.6970886,30.0932973 11.1194499,29.6709018 11.6404589,29.6709018 L11.7159285,29.6709018 C12.2369376,29.6709018 12.6592989,30.0932973 12.6592989,30.6143486 C12.6592989,31.1353999 12.2369376,31.5577955 11.7159285,31.5577955 Z M8.62796285,31.5577955 L8.55249325,31.5577955 C8.21545948,31.5577955 7.90402742,31.3779755 7.73551052,31.086072 C7.56699363,30.7941686 7.56699363,30.4345286 7.73551052,30.1426251 C7.90402742,29.8507217 8.21545948,29.6709018 8.55249325,29.6709018 L8.62796285,29.6709018 C9.14897199,29.6709018 9.57133323,30.0932973 9.57133323,30.6143486 C9.57133323,31.1353999 9.14897199,31.5577955 8.62796285,31.5577955 Z M5.53685269,31.5577955 L5.46138307,31.5577955 C4.94037403,31.5577954 4.51801276,31.1353999 4.51801276,30.6143486 C4.51801276,30.0932973 4.94037403,29.6709018 5.46138307,29.6709018 L5.53685269,29.6709018 C6.05786175,29.6709018 6.48022305,30.0932973 6.48022305,30.6143486 C6.48022305,31.1353999 6.05786175,31.5577955 5.53685269,31.5577955 Z M2.66271767,30.6678106 C2.43787052,30.6678279 2.22041078,30.5875285 2.04952695,30.4413834 L1.97720188,30.3753421 C1.68668092,30.16253 1.54265137,29.8028717 1.60597134,29.4483368 C1.66929131,29.0938018 1.92891312,28.8062474 2.27513642,28.7071763 C2.62135973,28.6081053 2.99377763,28.7148031 3.23502903,28.9821856 L3.27590841,29.0167787 C3.56873338,29.2749961 3.67226777,29.6869199 3.53633587,30.0529201 C3.40040396,30.4189204 3.05309214,30.6633735 2.66271767,30.6678106 Z M29.8254948,30.3313145 C29.5931954,30.3307901 29.3692569,30.2445668 29.1965812,30.0891632 C28.8130499,29.7408375 28.7821654,29.1483694 29.1274007,28.762048 L29.161991,28.7243101 C29.3677454,28.4303366 29.7224405,28.2785446 30.0771404,28.3326711 C30.4318404,28.3867976 30.7251301,28.6374706 30.8338577,28.9794334 C30.9425855,29.3213963 30.8479253,29.6954387 30.5896248,29.9445013 L30.5235889,30.0199771 C30.3452361,30.2176098 30.0916934,30.3306853 29.8254948,30.3313145 Z M1.37973399,27.9569734 C0.867201474,27.9571129 0.44832271,27.5479748 0.436363636,27.0355402 L0.436363636,26.9443404 C0.436363636,26.4232891 0.858724931,26.0008935 1.37973399,26.0008935 C1.90074305,26.0008935 2.32310435,26.4232891 2.32310435,26.9443404 L2.32310435,27.0166714 C2.32324389,27.5292454 1.91413896,27.9481581 1.40174596,27.9601181 L1.37973399,27.9569734 Z M30.7657206,27.4758155 C30.2447116,27.4758155 29.8223502,27.0534199 29.8223502,26.5323686 L29.8223502,26.4568929 C29.8223502,25.9358416 30.2447116,25.513446 30.7657206,25.513446 C31.2867297,25.513446 31.7090909,25.9358416 31.7090909,26.4568929 L31.7090909,26.5323686 C31.7090909,27.0534199 31.2867297,27.4758155 30.7657206,27.4758155 Z M1.37973399,24.8530332 C0.858724931,24.8530332 0.436363636,24.4306378 0.436363636,23.9095864 L0.436363636,23.8372555 C0.436363644,23.3162042 0.858724937,22.8938086 1.37973399,22.8938086 C1.90074305,22.8938086 2.32310434,23.3162042 2.32310435,23.8372555 L2.32310435,23.9127312 C2.32137173,24.432554 1.89951749,24.8530362 1.37973399,24.8530332 Z M30.7657206,24.3875994 C30.2447116,24.3875994 29.8223502,23.965204 29.8223502,23.4441527 L29.8223502,23.3686769 C29.8223502,22.8476256 30.2447116,22.4252301 30.7657206,22.4252301 C31.2867297,22.4252301 31.7090909,22.8476256 31.7090909,23.3686769 L31.7090909,23.4441527 C31.7090909,23.965204 31.2867297,24.3875994 30.7657206,24.3875994 Z M1.37973399,21.7616725 C0.858724931,21.7616725 0.436363636,21.3392769 0.436363636,20.8182256 L0.436363636,20.7427499 C0.436363631,20.4056888 0.616169004,20.0942315 0.90804881,19.9257009 C1.19992862,19.7571704 1.55953937,19.7571704 1.85141917,19.9257009 C2.14329898,20.0942315 2.32310436,20.4056888 2.32310435,20.7427499 L2.32310435,20.8182256 C2.32310435,21.0684433 2.22371383,21.3084127 2.04679756,21.4853432 C1.86988131,21.6622739 1.62993136,21.7616725 1.37973399,21.7616725 Z M30.7657206,21.2962387 C30.2447116,21.2962387 29.8223502,20.8738431 29.8223502,20.3527918 L29.8223502,20.2836057 C29.8223502,19.7625544 30.2447116,19.3401589 30.7657206,19.3401589 C31.2867297,19.3401589 31.7090909,19.7625544 31.7090909,20.2836057 L31.7090909,20.3590815 C31.7056338,20.8776749 31.2842835,21.2962502 30.7657206,21.2962387 Z M1.37973399,18.6734565 C0.858724931,18.6734565 0.436363636,18.2510609 0.436363636,17.7300096 L0.436363636,17.6545339 C0.436363644,17.1334826 0.858724937,16.7110871 1.37973399,16.7110871 C1.90074305,16.7110871 2.32310434,17.1334826 2.32310435,17.6545339 L2.32310435,17.7300096 C2.32310435,18.2510609 1.90074305,18.6734565 1.37973399,18.6734565 Z M30.7657206,18.2080227 C30.2447116,18.2080227 29.8223502,17.7856272 29.8223502,17.2645759 L29.8223502,17.1891001 C29.8223502,16.6680488 30.2447116,16.2456533 30.7657206,16.2456533 C31.2867297,16.2456533 31.7090909,16.6680488 31.7090909,17.1891001 L31.7090909,17.2645759 C31.7090909,17.7856272 31.2867297,18.2080227 30.7657206,18.2080227 Z M1.37973399,15.5820957 C0.858724931,15.5820957 0.436363636,15.1597001 0.436363636,14.6386488 L0.436363636,14.5631731 C0.436363631,14.226112 0.616169004,13.9146547 0.90804881,13.7461241 C1.19992862,13.5775936 1.55953937,13.5775936 1.85141917,13.7461241 C2.14329898,13.9146547 2.32310436,14.226112 2.32310435,14.5631731 L2.32310435,14.6386488 C2.32310435,15.1597001 1.90074305,15.5820957 1.37973399,15.5820957 Z M30.7657206,15.1260963 C30.2447116,15.1260963 29.8223502,14.7037008 29.8223502,14.1826495 L29.8223502,14.1103186 C29.8223502,13.5892673 30.2447116,13.1668717 30.7657206,13.1668717 C31.2867297,13.1668717 31.7090909,13.5892673 31.7090909,14.1103186 L31.7090909,14.1826495 C31.7090909,14.7037008 31.2867297,15.1260963 30.7657206,15.1260963 Z M1.37973399,12.4938797 C0.858724931,12.4938797 0.436363636,12.0714841 0.436363636,11.5504328 L0.436363636,11.4781019 C0.436363644,10.9570506 0.858724937,10.5346551 1.37973399,10.5346551 C1.90074305,10.5346551 2.32310434,10.9570506 2.32310435,11.4781019 L2.32310435,11.5535776 C2.32137173,12.0734004 1.89951749,12.4938826 1.37973399,12.4938797 Z M30.7657206,12.0284459 C30.2447116,12.0284459 29.8223502,11.6060504 29.8223502,11.084999 L29.8223502,11.0095233 C29.8223502,10.488472 30.2447116,10.0660764 30.7657206,10.0660764 C31.2867297,10.0660764 31.7090909,10.488472 31.7090909,11.0095233 L31.7090909,11.084999 C31.7090909,11.6060504 31.2867297,12.0284459 30.7657206,12.0284459 Z M1.37973399,9.4025189 C0.858724931,9.4025189 0.436363636,8.98012333 0.436363636,8.45907203 L0.436363636,8.38359631 C0.436363631,8.04653519 0.616169004,7.73507788 0.90804881,7.56654734 C1.19992862,7.39801679 1.55953937,7.39801679 1.85141917,7.56654734 C2.14329898,7.73507788 2.32310436,8.04653519 2.32310435,8.38359631 L2.32310435,8.45907203 C2.32310435,8.98012333 1.90074305,9.4025189 1.37973399,9.4025189 Z M30.7657206,8.93708511 C30.2447116,8.93708511 29.8223502,8.51468954 29.8223502,7.99363825 L29.8223502,7.91816251 C29.8223502,7.3971112 30.2447116,6.97471566 30.7657206,6.97471566 C31.2867297,6.97471566 31.7090909,7.3971112 31.7090909,7.91816251 L31.7090909,7.99363825 C31.7090909,8.51468954 31.2867297,8.93708511 30.7657206,8.93708511 Z M1.37973399,6.32059253 C0.858724931,6.32059253 0.436363636,5.89819699 0.436363636,5.37714569 L0.436363636,5.30166994 C0.436363644,4.78061865 0.858724937,4.35822311 1.37973399,4.35822311 C1.90074305,4.35822311 2.32310434,4.78061865 2.32310435,5.30166994 L2.32310435,5.37714569 C2.32310435,5.89819699 1.90074305,6.32059253 1.37973399,6.32059253 Z M30.7657206,5.8488691 C30.2447116,5.8488691 29.8223502,5.42647357 29.8223502,4.90542227 L29.8223502,4.84252582 C29.8222474,4.32875522 30.233227,3.90935437 30.7468532,3.89907897 C31.2678622,3.89907897 31.6902235,4.32147451 31.6902235,4.84252582 L31.6902235,4.92429121 C31.6768783,5.4282507 31.2697186,5.83267343 30.7657206,5.84257946 L30.7657206,5.8488691 Z M2.27593583,3.44307967 C1.90882605,3.44066298 1.57646028,3.22547485 1.42398696,2.89149072 C1.27151364,2.55750658 1.32662902,2.16539352 1.5652635,1.88639238 L1.62815485,1.81720629 C1.84094965,1.52666176 2.20057881,1.38262055 2.555085,1.44594564 C2.90959119,1.50927075 3.19712234,1.7689136 3.29618532,2.11516498 C3.39524832,2.46141636 3.28855925,2.83386444 3.02119841,3.0751354 L2.9834636,3.11916292 C2.80520666,3.32391222 2.54739434,3.44194254 2.27593583,3.44307967 Z M29.5456283,3.10972845 C29.3137431,3.11006867 29.0898555,3.02498451 28.9167147,2.87072192 L28.8726908,2.82983922 C28.5393355,2.47822493 28.5265096,1.93123616 28.8430181,1.56438128 C29.1595265,1.19752641 29.7024505,1.13009523 30.0990722,1.40837932 L30.1682527,1.47127578 C30.4535629,1.73317491 30.5498389,2.14285559 30.4110478,2.50443573 C30.2722567,2.86601588 29.9265965,3.10603363 29.5393391,3.10972845 L29.5456283,3.10972845 Z M5.00227615,2.16628162 C4.4812671,2.17236055 4.05397826,1.75489296 4.04789982,1.23384165 C4.04182138,0.712790355 4.45925513,0.285466871 4.98026418,0.279387939 L5.06516752,0.279387939 C5.58617658,0.279387939 6.00853787,0.701783476 6.00853787,1.22283478 C6.00853787,1.74388608 5.58617658,2.16628162 5.06516752,2.16628162 L5.00227615,2.16628162 Z M26.6997944,2.16628162 L26.6243248,2.16628162 C26.1033156,2.16628162 25.6809544,1.74388608 25.6809544,1.22283478 C25.6809544,0.701783476 26.1033156,0.279387939 26.6243248,0.279387939 L26.6997944,0.279387939 C27.2208034,0.279387939 27.6431647,0.701783476 27.6431647,1.22283478 C27.6431647,1.74388608 27.2208034,2.16628162 26.6997944,2.16628162 Z M23.6118287,2.16628162 L23.5363591,2.16628162 C23.01535,2.16628162 22.5929887,1.74388608 22.5929887,1.22283478 C22.5929887,0.701783476 23.01535,0.279387939 23.5363591,0.279387939 L23.6118287,0.279387939 C24.1328378,0.279387939 24.5551991,0.701783476 24.5551991,1.22283478 C24.5551991,1.74388608 24.1328378,2.16628162 23.6118287,2.16628162 Z M20.5207185,2.16628162 L20.4452488,2.16628162 C19.9242398,2.16628162 19.5018785,1.74388608 19.5018785,1.22283478 C19.5018785,0.701783476 19.9242398,0.279387939 20.4452488,0.279387939 L20.5207185,0.279387939 C21.0417276,0.279387939 21.4640888,0.701783476 21.4640888,1.22283478 C21.4640888,1.74388608 21.0417276,2.16628162 20.5207185,2.16628162 Z M17.4327529,2.16628162 L17.3572833,2.16628162 C16.8362742,2.16628162 16.4139129,1.74388608 16.4139129,1.22283478 C16.4139129,0.701783476 16.8362742,0.279387939 17.3572833,0.279387939 L17.4327529,0.279387939 C17.9537619,0.279387939 18.3761233,0.701783476 18.3761233,1.22283478 C18.3761233,1.74388608 17.9537619,2.16628162 17.4327529,2.16628162 Z M14.3416427,2.16628162 L14.266173,2.16628162 C13.745164,2.16628162 13.3228027,1.74388608 13.3228027,1.22283478 C13.3228027,0.701783476 13.745164,0.279387939 14.266173,0.279387939 L14.3416427,0.279387939 C14.8626518,0.279387939 15.285013,0.701783476 15.285013,1.22283478 C15.285013,1.74388608 14.8626518,2.16628162 14.3416427,2.16628162 Z M11.253677,2.16628162 L11.1782074,2.16628162 C10.6571984,2.16628162 10.2348371,1.74388608 10.2348371,1.22283478 C10.2348371,0.701783476 10.6571984,0.279387939 11.1782074,0.279387939 L11.253677,0.279387939 C11.7746861,0.279387939 12.1970474,0.701783476 12.1970474,1.22283478 C12.1970474,1.74388608 11.7746861,2.16628162 11.253677,2.16628162 Z M8.14684401,2.16628162 L8.07137438,2.16628162 C7.55036532,2.16628162 7.12800403,1.74388608 7.12800403,1.22283478 C7.12800403,0.701783476 7.55036532,0.279387939 8.07137438,0.279387939 L8.14684401,0.279387939 C8.66785308,0.279387939 9.09021441,0.701783476 9.09021441,1.22283478 C9.09021441,1.74388608 8.66785308,2.16628162 8.14684401,2.16628162 Z M27.1683349,31.5515058 L27.0928653,31.5515058 C26.5718563,31.5515058 26.1494949,31.1291102 26.1494949,30.6080589 C26.1494949,30.0870076 26.5718563,29.6646122 27.0928653,29.6646122 L27.1683349,29.6646122 C27.689344,29.6646122 28.1117053,30.0870076 28.1117053,30.6080589 C28.1117053,31.1291102 27.689344,31.5515058 27.1683349,31.5515058 Z" id="Shape" fill="#333333"></path>
            <g id="Group" transform="translate(4.516746, 9.110048)" fill="#333333">
                <path d="M4.37927313,13.9297567 C3.16226872,14.040178 1.98738509,13.4532819 1.34474666,12.413903 C0.702108218,11.3745242 0.702108218,10.0612083 1.34474666,9.02182944 C1.98738509,7.98245053 3.16226872,7.39555453 4.37927313,7.50597581 C4.84090563,7.50563269 5.29709216,7.60567357 5.71621703,7.79916524 L6.49903288,7.08378297 C4.94816358,6.18219009 2.99606848,6.36392521 1.63828097,7.53630676 C0.280493466,8.70868823 -0.183864046,10.6134389 0.482022415,12.2791701 C1.14790888,13.9449013 2.79734364,15.0046503 4.58914463,14.9179641 C6.38094561,14.8312779 7.92037673,13.6172537 8.42235567,11.8950219 L7.36394174,11.9126133 C6.8722805,13.1297545 5.6919644,13.9274534 4.37927313,13.9297567 Z" id="Shape"></path>
                <path d="M15.7022498,5.98725443 L15.9543927,6.88734599 C15.9630736,6.91685458 15.9748675,6.9453564 15.9895755,6.97237099 L17.9744681,10.9392243 C18.0363045,11.1248937 18.2010722,11.2571968 18.395715,11.2774717 C18.5903577,11.2977466 18.778855,11.2022413 18.8776292,11.0333018 C18.9764033,10.8643623 18.9671752,10.6532525 18.8540364,10.4935763 L16.8984628,6.56776949 L16.3120839,4.55942178 L16.1361702,3.93492823 C16.082876,3.7463236 16.1683427,3.5460875 16.3414028,3.45409753 C16.4502932,3.39395062 16.5807989,3.38723774 16.6952858,3.43589474 C16.8097728,3.48455166 16.8955131,3.58316907 16.9277817,3.70330856 L17.2796091,4.93470423 C17.3586682,5.11331292 17.5357975,5.22833194 17.7311208,5.22789374 L19.6104652,5.22789374 C19.8000704,5.22796387 19.9730908,5.11982607 20.0561132,4.94936375 L21.1321185,2.7533747 C21.2119406,2.59071173 21.1971998,2.3975432 21.0936201,2.24887564 C20.9900402,2.10020815 20.8139392,2.01946266 20.6336965,2.0379925 L18.8129899,2.21683805 L16.6815026,2.43673011 L16.4088364,1.45747735 C16.1632392,0.595268678 15.2923041,0.0701460057 14.4151481,0.255400589 L13.8874071,0.363880689 C13.6343156,0.419041003 13.4620341,0.654198974 13.4857376,0.912144965 C13.5004621,1.04998351 13.5722549,1.17535085 13.6836857,1.25780964 C13.7951165,1.34026843 13.9359944,1.37227744 14.0721164,1.34606536 L14.6203807,1.23172147 C14.9827049,1.15905608 15.3404442,1.37548193 15.4442431,1.73014354 L15.7374326,2.718192 C15.3829631,2.974673 15.1734865,3.38598905 15.1745088,3.82351625 C15.1759535,4.02082488 15.1985607,4.21740922 15.2419424,4.40989512 L9.96453221,8.74909902 L7.80372593,3.00844953 C8.09110331,2.92950936 8.38584865,2.88038515 8.68329432,2.86185485 L8.97648375,2.83839969 C9.16662767,2.85304138 9.34813734,2.75660639 9.44243345,2.59084348 C9.53672957,2.42508065 9.52686522,2.21978044 9.41711112,2.06382178 C9.30735694,1.90786304 9.1174377,1.82927456 8.92957344,1.86207878 L7.46362618,1.86207878 C6.39934844,1.86207878 6.21757099,1.86207878 5.60480505,1.86207878 C5.24125013,1.86207878 5.01842614,1.99108218 5.01842614,2.26374836 C5.01842614,2.82960398 5.76605925,3.35148119 6.48437344,3.35148119 C6.60166806,3.35071954 6.71857638,3.33794802 6.83326882,3.31336658 L8.08811973,6.62640743 L4.04210526,10.3499135 C3.94430363,10.4389816 3.88617724,10.5634588 3.88067031,10.6956252 C3.87516338,10.8277915 3.92273316,10.9566728 4.01278632,11.0535682 C4.10531795,11.1547952 4.23626398,11.2122836 4.37340935,11.2118904 L9.14653367,11.1356612 C9.11258159,11.2579041 9.09483835,11.3840781 9.09375954,11.5109437 C9.09481194,12.0857989 9.44896544,12.6009363 9.98532149,12.8077737 C10.5216776,13.0146111 11.1300061,12.8706401 11.5167551,12.4453344 C11.9035039,12.0200289 11.9891898,11.4007961 11.7324646,10.8864501 L15.7022498,5.98725443 Z M5.67810243,10.1974549 L8.48685734,7.61445589 L9.07323629,9.15370052 L9.43092739,10.1388171 L5.67810243,10.1974549 Z M10.4952051,12.0122976 C10.2199342,12.0122976 9.99678308,11.7891465 9.99678308,11.5138756 C9.99678308,11.2386047 10.2199342,11.0154536 10.4952051,11.0154536 C10.770476,11.0154536 10.9936272,11.2386047 10.9936272,11.5138756 C10.9936272,11.6460654 10.941115,11.772841 10.8476428,11.8663132 C10.7541705,11.9597855 10.6273949,12.0122976 10.4952051,12.0122976 Z" id="Shape"></path>
                <path d="M18.4201161,6.50913164 C18.189214,6.50934653 17.9587383,6.52896145 17.7311208,6.56776949 L18.2060877,7.51183954 L18.4201161,7.51183954 C19.9367702,7.50740425 21.2515894,8.56032857 21.5787188,10.0412897 C21.905848,11.5222509 21.1568862,13.0310435 19.7794806,13.6658767 C18.4020749,14.3007099 16.7684465,13.8900304 15.8549997,12.6792975 C14.9415527,11.4685644 14.9951312,9.7849587 15.9837117,8.63475514 L15.5116767,7.68775326 C14.0593925,9.08326783 13.8007942,11.3126899 14.8950744,13.0035894 C15.9893546,14.6944888 18.1290803,15.3718147 19.9970382,14.6186059 C21.864996,13.8653971 22.9363915,11.8932643 22.5516745,9.91625064 C22.1669576,7.93923698 20.4342127,6.51277581 18.4201161,6.51499544 L18.4201161,6.50913164 Z" id="Shape"></path>
            </g>
        </g>
    </g>
</svg>