<?xml version="1.0" encoding="UTF-8"?>
<svg xmlns="http://www.w3.org/2000/svg" xmlns:xlink="http://www.w3.org/1999/xlink" width="16px" height="16px" viewBox="0 0 16 16" version="1.1">
<g id="surface1">
<path style=" stroke:none;fill-rule:nonzero;fill:#007AC9;fill-opacity:1;" d="M 0 14 C 0 15.101562 0.898438 16 2 16 L 14 16 C 15.101562 16 16 15.101562 16 14 L 16 2 C 16 0.898438 15.101562 0 14 0 L 2 0 C 0.898438 0 0 0.898438 0 2 Z M 0 14 "/>
<path style=" stroke:none;fill-rule:nonzero;fill:rgb(100%,100%,100%);fill-opacity:1;" d="M 2.238281 12.628906 L 6.691406 2.699219 C 6.929688 2.167969 7.359375 1.84375 7.957031 1.84375 L 8.058594 1.84375 C 8.660156 1.84375 9.070312 2.167969 9.308594 2.699219 L 13.761719 12.628906 C 13.847656 12.785156 13.882812 12.9375 13.882812 13.074219 C 13.882812 13.640625 13.453125 14.085938 12.886719 14.085938 C 12.390625 14.085938 12.050781 13.792969 11.859375 13.347656 L 10.886719 11.105469 L 5.0625 11.105469 L 4.054688 13.417969 C 3.882812 13.847656 3.523438 14.085938 3.078125 14.085938 C 2.53125 14.085938 2.101562 13.65625 2.101562 13.109375 C 2.101562 12.957031 2.152344 12.800781 2.238281 12.628906 Z M 10.082031 9.242188 L 7.972656 4.394531 L 5.867188 9.242188 Z M 10.082031 9.242188 "/>
</g>
</svg>
