<?xml version="1.0" encoding="UTF-8"?>
<svg xmlns="http://www.w3.org/2000/svg" xmlns:xlink="http://www.w3.org/1999/xlink" width="16px" height="16px" viewBox="0 0 16 16" version="1.1">
<g id="surface1">
<path style=" stroke:none;fill-rule:nonzero;fill:#007AC9;fill-opacity:1;" d="M 0 14 C 0 15.101562 0.898438 16 2 16 L 14 16 C 15.101562 16 16 15.101562 16 14 L 16 2 C 16 0.898438 15.101562 0 14 0 L 2 0 C 0.898438 0 0 0.898438 0 2 Z M 0 14 "/>
<path style=" stroke:none;fill-rule:nonzero;fill:rgb(100%,100%,100%);fill-opacity:1;" d="M 2.871094 8.914062 L 2.871094 2.972656 C 2.871094 2.390625 3.335938 1.929688 3.933594 1.929688 C 4.515625 1.929688 4.976562 2.390625 4.976562 2.972656 L 4.976562 8.828125 C 4.976562 11.054688 6.125 12.238281 8.007812 12.238281 C 9.875 12.238281 11.023438 11.125 11.023438 8.914062 L 11.023438 2.972656 C 11.023438 2.390625 11.484375 1.929688 12.082031 1.929688 C 12.664062 1.929688 13.128906 2.390625 13.128906 2.972656 L 13.128906 8.8125 C 13.128906 12.390625 11.109375 14.1875 7.976562 14.1875 C 4.859375 14.1875 2.871094 12.390625 2.871094 8.914062 Z M 2.871094 8.914062 "/>
</g>
</svg>
