<?xml version="1.0" encoding="UTF-8" standalone="no"?>
<!-- Generator: Adobe Illustrator 19.2.0, SVG Export Plug-In . SVG Version: 6.00 Build 0)  -->

<svg
   xmlns:dc="http://purl.org/dc/elements/1.1/"
   xmlns:cc="http://creativecommons.org/ns#"
   xmlns:rdf="http://www.w3.org/1999/02/22-rdf-syntax-ns#"
   xmlns:svg="http://www.w3.org/2000/svg"
   xmlns="http://www.w3.org/2000/svg"
   xmlns:sodipodi="http://sodipodi.sourceforge.net/DTD/sodipodi-0.dtd"
   xmlns:inkscape="http://www.inkscape.org/namespaces/inkscape"
   version="1.1"
   id="Layer_1"
   x="0px"
   y="0px"
   viewBox="0 0 16 16"
   enable-background="new 0 0 1024 1024"
   xml:space="preserve"
   sodipodi:docname="icon-subway-station-2.svg"
   width="16"
   height="16"
   inkscape:version="0.92.2 5c3e80d, 2017-08-06"><metadata
     id="metadata15"><rdf:RDF><cc:Work
         rdf:about=""><dc:format>image/svg+xml</dc:format><dc:type
           rdf:resource="http://purl.org/dc/dcmitype/StillImage" /><dc:title></dc:title></cc:Work></rdf:RDF></metadata><defs
     id="defs13" /><sodipodi:namedview
     pagecolor="#ffffff"
     bordercolor="#666666"
     borderopacity="1"
     objecttolerance="10"
     gridtolerance="10"
     guidetolerance="10"
     inkscape:pageopacity="0"
     inkscape:pageshadow="2"
     inkscape:window-width="1377"
     inkscape:window-height="742"
     id="namedview11"
     showgrid="false"
     inkscape:zoom="15.07"
     inkscape:cx="18.555727"
     inkscape:cy="7.9786358"
     inkscape:window-x="291"
     inkscape:window-y="1132"
     inkscape:window-maximized="0"
     inkscape:current-layer="Layer_1" /><g
     id="g4"
     transform="matrix(0.01662205,0,0,0.01662205,-0.52096829,-0.51046999)"><path
       class="path1 fill-color14"
       d="M 871.036,993.287 H 154.225 C 86.361,993.287 31.342,938.272 31.342,870.404 V 153.593 C 31.342,85.729 86.357,30.71 154.225,30.71 h 716.811 c 67.864,0 122.883,55.015 122.883,122.883 v 716.811 c 0,67.868 -55.018,122.883 -122.883,122.883 z"
       id="path2"
       inkscape:connector-curvature="0"
       style="fill:#ffffff" /></g><g
     id="g8"
     transform="matrix(0.01562637,0,0,0.01562637,-5.1567021e-4,-0.00140637)"><path
       class="path2 fill-color13"
       d="M 0.033,126.799 C 0.033,57.685 57.627,0.09 126.742,0.09 h 767.931 c 71.676,0 129.27,57.594 129.27,126.709 V 894.73 c 0,71.672 -57.594,129.27 -129.27,129.27 H 126.742 C 57.628,1024 0.033,966.406 0.033,894.73 Z m 511.956,-6.398 c -121.59,0 -222.7,11.517 -305.892,26.877 -34.557,3.84 -57.594,29.438 -57.594,66.553 v 501.715 c 0,35.836 21.758,63.995 57.594,69.114 83.192,14.078 184.303,26.877 305.892,26.877 122.868,0 223.979,-11.517 307.171,-26.877 33.278,-5.119 56.315,-30.717 56.315,-66.553 V 216.388 c 0,-37.115 -21.758,-65.274 -56.315,-69.114 C 735.968,133.2 634.857,120.401 511.989,120.401 Z M 197.138,677.149 c 1.279,-16.639 16.639,-31.996 34.557,-31.996 16.639,0 31.996,15.357 31.996,31.996 0,19.197 -15.357,34.557 -31.996,34.557 -19.2,-1.279 -34.557,-16.639 -34.557,-34.557 z m 5.119,-116.467 V 236.868 c 0,-17.918 10.238,-30.717 25.598,-30.717 h 566.99 c 16.639,0 28.156,14.078 28.156,30.717 v 323.81 c 0,17.918 -8.959,29.438 -25.598,29.438 H 231.696 c -16.639,0 -29.438,-12.795 -29.438,-29.435 z m 174.065,300.773 c -12.799,0 -25.598,14.078 -25.598,28.156 0,12.799 12.799,25.598 25.598,25.598 h 276.454 c 12.799,0 25.598,-12.799 25.598,-25.598 0,-14.078 -12.799,-28.156 -25.598,-28.156 z M 761.566,677.149 c 1.279,-16.639 16.636,-31.996 33.275,-31.996 17.918,0 31.996,15.357 31.996,31.996 0,19.197 -14.078,34.557 -31.996,34.557 -19.197,-1.279 -33.275,-16.639 -33.275,-34.557 z"
       id="path6"
       inkscape:connector-curvature="0"
       style="fill:#ff6319" /></g></svg>