<svg xmlns="http://www.w3.org/2000/svg" viewBox="0 0 24 24" preserveAspectRatio="xMidYMid meet"
     style="height: 50px; width: 50px;">
    <g id="icon-train-live" stroke="none" stroke-width="1" fill="none" fill-rule="evenodd">
        <g transform="translate(0,0)">
            <circle id="Oval-3" fill="#8b4799" cx="12" cy="12" r="12"/>
            <g id="icon-train" transform="translate(3,3)">
                <g id="icon_train">
                    <path fill="#FFFFFF" fill-rule="nonzero"
                          d="M15.48,17.64 L2.88,17.64 C1.6869375,17.64 0.72,16.6730625 0.72,15.48 L0.72,2.88 C0.72,1.6869375 1.6869375,0.72 2.88,0.72 L15.48,0.72 C16.6730625,0.72 17.64,1.6869375 17.64,2.88 L17.64,15.48 C17.64,16.6730625 16.6730625,17.64 15.48,17.64 Z"
                          id="Shape"/>
                    <path fill="#8b4799" fill-rule="nonzero"
                          d="M8.11413409e-16,2.22763923 C8.11413409e-16,1.01256329 1.01256329,0 2.22763923,0 L15.727358,0 C16.9874367,0 18,1.01256329 18,2.22763923 L18,15.727358 C18,16.9874367 16.9874367,18 15.727358,18 L2.22763923,18 C1.01256329,18 0,16.9874367 0,15.727358 L8.11413409e-16,2.22763923 Z M13.8147384,2.29514345 C13.3197075,1.84511532 11.1820739,1.32758297 9,1.32758297 C6.8848678,1.32758297 4.70279392,1.84511532 4.23026439,2.29514345 C3.8927433,2.58766173 3.5552222,3.26270392 3.15019689,4.11775736 C2.81267579,4.86030377 2.54265892,5.55784737 2.54265892,5.96287268 L2.54265892,12.4652166 C2.54265892,12.9827489 2.72267017,13.207763 3.42021376,13.7477967 C3.93774611,14.1528221 4.16276017,14.3328333 4.95030939,14.3328333 L6.43540221,14.3328333 L6.43540221,15.3003938 L11.6326645,15.3003938 L11.6326645,14.3328333 L13.095256,14.3328333 C13.8828052,14.3328333 14.1078192,14.1528221 14.6028502,13.7477967 C15.3003938,13.1852616 15.4579036,12.9827489 15.4579036,12.4652166 L15.4579036,5.96287268 C15.4579036,5.55784737 15.1878867,4.86030377 14.8728671,4.11775736 C14.4678417,3.26270392 14.1528221,2.58766173 13.815301,2.29514345 L13.8147384,2.29514345 Z M13.2072005,15.9748734 L13.2072005,15.0298144 L12.3746484,15.0298144 L12.3746484,15.9748734 L5.66979186,15.9748734 L5.66979186,15.0298144 L4.81473842,15.0298144 L4.81473842,15.9748734 L3.77967373,15.9748734 C3.53215826,15.9748734 3.3296456,16.1773861 3.3296456,16.4024002 C3.3296456,16.6499156 3.53215826,16.8524283 3.77967373,16.8524283 L14.264204,16.8524283 C14.5117195,16.8524283 14.6917307,16.6499156 14.6917307,16.4024002 C14.6917307,16.1773861 14.5117195,15.9748734 14.264204,15.9748734 L13.2066379,15.9748734 L13.2072005,15.9748734 Z M12.7346709,10.2375773 C12.6671667,10.6201013 12.2846428,10.9126195 11.9021189,10.9126195 L6.1423214,10.9126195 C5.75979749,10.9126195 5.37727358,10.6201013 5.30976936,10.2375773 L4.25220326,5.76036002 C4.18469904,5.37783611 4.43221451,5.08531783 4.81473842,5.08531783 L13.2072005,5.08531783 C13.5897244,5.08531783 13.8597412,5.37783611 13.7697356,5.76036002 L12.7346709,10.2375773 Z M12.4196512,3.08269267 L12.4196512,3.46521658 C12.4196512,3.75773486 12.1946372,4.00525033 11.9021189,4.00525033 L6.1423214,4.00525033 C5.84980311,4.00525033 5.60228764,3.75773486 5.60228764,3.46521658 L5.60228764,3.08269267 L12.4196512,3.08269267 Z M5.60228764,12.5777236 C5.60228764,12.2627039 5.82730171,12.0151884 6.1423214,12.0151884 C6.45734108,12.0151884 6.72735796,12.2627039 6.72735796,12.5777236 C6.72735796,12.8927433 6.45734108,13.1177574 6.1423214,13.1177574 C5.82730171,13.1177574 5.60228764,12.8927433 5.60228764,12.5777236 Z M11.3395837,12.5102194 C11.3395837,12.1951997 11.5870992,11.9476842 11.9021189,11.9476842 C12.2171386,11.9476842 12.464654,12.1951997 12.464654,12.5102194 C12.464654,12.8252391 12.2171386,13.0502531 11.9021189,13.0502531 C11.5870992,13.0502531 11.3395837,12.8252391 11.3395837,12.5102194 Z"
                          id="Shape"/>
                </g>
            </g>
        </g>
    </g>
</svg>
