<?xml version="1.0" encoding="UTF-8"?>
<svg width="32px" height="32px" viewBox="0 0 32 32" version="1.1" xmlns="http://www.w3.org/2000/svg" xmlns:xlink="http://www.w3.org/1999/xlink">
    <!-- Generator: Sketch 51.3 (57544) - http://www.bohemiancoding.com/sketch -->
    <title>Shape</title>
    <desc>Created with Sketch.</desc>
    <defs></defs>
    <g id="Page-1" stroke="none" stroke-width="1" fill="none" fill-rule="evenodd">
        <g id="HSL-Shared-Components-76" fill="#FFFFFF" fill-rule="nonzero">
            <path d="M18.8973714,16 L30.4905143,27.5931429 C31.2905143,28.3931429 31.2905143,29.6905143 30.4905143,30.4905143 C29.6905143,31.2905143 28.3931429,31.2905143 27.5931429,30.4905143 L16,18.8973714 L4.40685714,30.4905143 C3.60685714,31.2905143 2.30948571,31.2905143 1.50948571,30.4905143 C0.708571429,29.6905143 0.708571429,28.3931429 1.50948571,27.5931429 L13.1026286,16 L1.50948571,4.40777143 C0.708571429,3.60685714 0.708571429,2.30948571 1.50948571,1.50948571 C2.30948571,0.708571429 3.60685714,0.708571429 4.40685714,1.50948571 L16,13.1026286 L27.5931429,1.50948571 C28.3931429,0.708571429 29.6905143,0.708571429 30.4905143,1.50948571 C31.2905143,2.30948571 31.2905143,3.60685714 30.4905143,4.40777143 L18.8973714,16 Z" id="Shape"></path>
        </g>
    </g>
</svg>