<?xml version="1.0" encoding="UTF-8"?>
<svg xmlns="http://www.w3.org/2000/svg" xmlns:xlink="http://www.w3.org/1999/xlink" width="16px" height="16px" viewBox="0 0 16 16" version="1.1">
<g id="surface1">
<path style=" stroke:none;fill-rule:nonzero;fill:rgb(0%,47.843137%,78.823531%);fill-opacity:1;" d="M 0 14 C 0 15.101562 0.898438 16 2 16 L 14 16 C 15.101562 16 16 15.101562 16 14 L 16 2 C 16 0.898438 15.101562 0 14 0 L 2 0 C 0.898438 0 0 0.898438 0 2 Z M 0 14 "/>
<path style=" stroke:none;fill-rule:nonzero;fill:rgb(100%,100%,100%);fill-opacity:1;" d="M 2.777344 3.007812 C 2.777344 2.425781 3.242188 1.945312 3.839844 1.945312 L 4.0625 1.945312 C 4.578125 1.945312 4.867188 2.203125 5.160156 2.5625 L 11.152344 10.320312 L 11.152344 2.957031 C 11.152344 2.390625 11.613281 1.929688 12.179688 1.929688 C 12.761719 1.929688 13.222656 2.390625 13.222656 2.957031 L 13.222656 13.023438 C 13.222656 13.605469 12.777344 14.070312 12.195312 14.070312 L 12.109375 14.070312 C 11.613281 14.070312 11.304688 13.8125 11.011719 13.433594 L 4.851562 5.457031 L 4.851562 13.058594 C 4.851562 13.625 4.386719 14.085938 3.824219 14.085938 C 3.242188 14.085938 2.777344 13.625 2.777344 13.058594 Z M 2.777344 3.007812 "/>
</g>
</svg>
