<?xml version="1.0" encoding="utf-8"?>
<!-- Generator: Adobe Illustrator 19.2.1, SVG Export Plug-In . SVG Version: 6.00 Build 0)  -->
<!DOCTYPE svg PUBLIC "-//W3C//DTD SVG 1.1//EN" "http://www.w3.org/Graphics/SVG/1.1/DTD/svg11.dtd">
<svg version="1.1" id="Layer_1" xmlns="http://www.w3.org/2000/svg" xmlns:xlink="http://www.w3.org/1999/xlink" x="0px" y="0px"
	 viewBox="0 0 16 16" enable-background="new 0 0 16 16" xml:space="preserve">
<g>
	<path fill="#007AC9" d="M0,1.98C0,0.9,0.9,0,1.98,0h12C15.1,0,16,0.9,16,1.98v12C16,15.1,15.1,16,13.98,16h-12
		C0.9,16,0,15.1,0,13.98V1.98z"/>
	<path fill="#FFFFFF" d="M5.952,8.108H5.96c0.405,0.002,0.731-0.322,0.731-0.735c0-0.412-0.327-0.741-0.731-0.743
		C5.548,6.627,5.221,6.952,5.221,7.365C5.221,7.777,5.548,8.106,5.952,8.108"/>
	<path fill="#FFFFFF" d="M7.532,10.159L6.941,8.731C6.847,8.459,6.699,8.357,6.45,8.355L5.96,8.352L5.462,8.35
		C5.213,8.348,5.066,8.448,4.972,8.72L4.38,10.141c-0.008,0.023-0.016,0.093-0.016,0.101c0,0.179,0.125,0.273,0.272,0.274
		c0.132,0.001,0.249-0.108,0.288-0.224l0.303-0.831l0.094,0L4.76,11.627l0.547,0.003l0.156,0.985l0.412,0.002v-0.984l0.164,0.001
		v0.984L6.45,12.62l0.156-0.982L7.08,11.64L6.59,9.469l0.094,0l0.303,0.834c0.047,0.117,0.156,0.226,0.288,0.228
		c0.148,0.001,0.272-0.092,0.272-0.271C7.548,10.253,7.54,10.182,7.532,10.159"/>
	<path fill="#FFFFFF" d="M11.127,10.484c0.023,0.123,0.14,0.219,0.272,0.219c0.169,0.001,0.288-0.141,0.288-0.279
		c0-0.032-0.001-0.073-0.016-0.117c0,0,0.008,0.024,0,0l-0.358-1.551c-0.093-0.273-0.241-0.375-0.49-0.376l-0.646-0.004l-0.67-0.004
		c-0.249-0.001-0.397,0.099-0.49,0.371l-0.342,1.539c-0.015,0.044-0.016,0.084-0.016,0.116c0,0.138,0.119,0.281,0.288,0.282
		c0.132,0.001,0.25-0.093,0.272-0.216l0.148-0.98l0.078,0.001v0.65l0.724,0.004h0.008l0.724,0.004v-0.65l0.078,0L11.127,10.484z
		 M10.178,10.637c0.047,0.001,0.078,0.039,0.078,0.079v1.926l0.646,0.004v-2.362l-0.724-0.004l-0.731-0.004v2.361l0.646,0.004
		v-1.926c0-0.039,0.031-0.078,0.078-0.078H10.178z M10.178,8.133c0.405,0.002,0.732-0.323,0.732-0.735
		c0-0.412-0.327-0.741-0.732-0.744C9.765,6.652,9.439,6.977,9.439,7.389c0,0.412,0.327,0.741,0.731,0.744H10.178z"/>
	<path fill="#FFFFFF" d="M3.465,13.578h9.069V5.84H3.465V13.578z M12.763,14.029H3.237c-0.126,0-0.228-0.101-0.228-0.226v-8.19
		c0-0.124,0.102-0.226,0.228-0.226h9.526c0.126,0,0.228,0.101,0.228,0.226v8.19C12.991,13.928,12.889,14.029,12.763,14.029"/>
	<path fill="#FFFFFF" d="M11.34,3.108c-0.084-0.084-0.231-0.084-0.316,0l-0.903,0.903V1.982c0-0.123-0.1-0.223-0.223-0.223
		s-0.223,0.1-0.223,0.223v2.029L8.771,3.108c-0.085-0.084-0.231-0.084-0.316,0c-0.087,0.088-0.087,0.229,0,0.316L9.74,4.708
		c0.02,0.019,0.074,0.065,0.158,0.065c0.058,0,0.11-0.021,0.158-0.065c0.011-0.011,1.233-1.232,1.284-1.284
		C11.426,3.337,11.426,3.195,11.34,3.108"/>
	<path fill="#FFFFFF" d="M4.648,3.424c0.084,0.084,0.232,0.084,0.316,0l0.903-0.903V4.55c0,0.123,0.1,0.223,0.223,0.223
		s0.223-0.1,0.223-0.223V2.521l0.903,0.903c0.085,0.084,0.231,0.084,0.316,0c0.086-0.087,0.086-0.229,0-0.316L6.248,1.824
		C6.229,1.804,6.174,1.759,6.09,1.759c-0.058,0-0.11,0.022-0.158,0.065C5.922,1.835,4.7,3.056,4.648,3.108
		C4.561,3.195,4.561,3.337,4.648,3.424"/>
</g>
</svg>
