<?xml version="1.0" encoding="UTF-8"?>
<svg width="30px" height="30px" viewBox="0 0 30 30" version="1.1" xmlns="http://www.w3.org/2000/svg" xmlns:xlink="http://www.w3.org/1999/xlink">
    <title>icon-bus-30</title>
    <g id="Page-1" stroke="none" stroke-width="1" fill="none" fill-rule="evenodd">
        <g id="icons" transform="translate(-76.000000, -272.000000)">
            <g id="icon-bus" transform="translate(76.000000, 272.000000)">
                <g id="icon_bus">
                    <path d="M25.6171875,29.1 L4.6171875,29.1 C2.62875,29.1 1.0171875,27.4884375 1.0171875,25.5 L1.0171875,4.5 C1.0171875,2.5115625 2.62875,0.9 4.6171875,0.9 L25.6171875,0.9 C27.605625,0.9 29.2171875,2.5115625 29.2171875,4.5 L29.2171875,25.5 C29.2171875,27.4884375 27.605625,29.1 25.6171875,29.1 Z" id="Shape" fill="#FFFFFF" fill-rule="nonzero"></path>
                    <path d="M0.0009375,3.714375 C0.0009375,1.689375 1.6884375,0.001875 3.7134375,0.001875 L26.2115625,0.001875 C28.3115625,0.001875 29.9990625,1.689375 29.9990625,3.714375 L29.9990625,26.2125 C29.9990625,28.3125 28.3115625,30 26.2115625,30 L3.7134375,30 C1.6884375,30 0.0009375,28.3125 0.0009375,26.2125 L0.0009375,3.714375 Z M15.0375,3.226875 C11.925,3.226875 9.225,3.376875 6.2634375,3.789375 C5.3634375,3.901875 4.8384375,4.426875 4.8384375,5.214375 L4.8384375,22.7625 C4.8384375,23.325 5.2509375,23.7 5.6259375,23.8125 L6.7509375,24 L6.7509375,26.3625 C6.7509375,26.625 6.9759375,26.8125 7.2759375,26.8125 L9.0759375,26.8125 C9.3009375,26.8125 9.5259375,26.625 9.5259375,26.3625 L9.5259375,24.2625 C10.9884375,24.45 12.9759375,24.525 14.9634375,24.525 C16.9884375,24.525 19.0509375,24.45 20.4759375,24.2625 L20.4759375,26.3625 C20.4759375,26.625 20.7384375,26.8125 20.9634375,26.8125 L22.7634375,26.8125 C23.0634375,26.8125 23.2884375,26.625 23.2884375,26.3625 L23.2884375,24 L24.4134375,23.8125 C24.8259375,23.7 25.2009375,23.3625 25.2009375,22.7625 L25.2009375,5.214375 C25.2009375,4.426875 24.6759375,3.901875 23.7759375,3.789375 C20.7759375,3.414375 18.039375,3.226875 15.039375,3.226875 L15.0375,3.226875 Z M22.7990625,18.1884375 C20.6615625,18.5634375 17.8490625,18.9384375 15.1125,18.9384375 C12.225,18.9384375 9.4884375,18.6009375 7.3134375,18.1134375 C6.7134375,18.0009375 6.4884375,17.7759375 6.4884375,17.2884375 L6.4884375,6.339375 C6.4884375,5.851875 6.7134375,5.514375 7.3134375,5.514375 L22.7990625,5.589375 C23.3990625,5.589375 23.5865625,5.926875 23.5865625,6.414375 L23.5865625,17.3634375 C23.5865625,17.8509375 23.3990625,18.1134375 22.7990625,18.1884375 L22.7990625,18.1884375 Z M7.0875,21.1884375 C7.125,20.7009375 7.575,20.2509375 8.1,20.2509375 C8.625,20.2509375 9.075,20.7009375 9.075,21.1884375 C9.075,21.7509375 8.625,22.2009375 8.1,22.2009375 C7.5375,22.1634375 7.0875,21.7134375 7.0875,21.1884375 L7.0875,21.1884375 Z M20.8115625,21.1884375 C20.8490625,20.7009375 21.2990625,20.2509375 21.7865625,20.2509375 C22.3115625,20.2509375 22.7615625,20.7009375 22.7615625,21.1884375 C22.7615625,21.7509375 22.3115625,22.2009375 21.7865625,22.2009375 C21.2615625,22.1634375 20.8115625,21.7134375 20.8115625,21.1884375 Z" id="Shape" fill="#007AC9" fill-rule="nonzero"></path>
                </g>
            </g>
        </g>
    </g>
</svg>