<?xml version="1.0" encoding="UTF-8"?>
<svg xmlns="http://www.w3.org/2000/svg" xmlns:xlink="http://www.w3.org/1999/xlink" width="16px" height="16px" viewBox="0 0 16 16" version="1.1">
<g id="surface1">
<path style=" stroke:none;fill-rule:nonzero;fill:rgb(0%,47.843137%,78.823531%);fill-opacity:1;" d="M 0 14 C 0 15.101562 0.898438 16 2 16 L 14 16 C 15.101562 16 16 15.101562 16 14 L 16 2 C 16 0.898438 15.101562 0 14 0 L 2 0 C 0.898438 0 0 0.898438 0 2 Z M 0 14 "/>
<path style=" stroke:none;fill-rule:nonzero;fill:rgb(100%,100%,100%);fill-opacity:1;" d="M 2.691406 8.042969 L 2.691406 8.007812 C 2.691406 4.601562 5.242188 1.808594 8.875 1.808594 C 10.722656 1.808594 11.9375 2.359375 12.980469 3.164062 C 13.203125 3.332031 13.394531 3.625 13.394531 4 C 13.394531 4.582031 12.929688 5.027344 12.347656 5.027344 C 12.058594 5.027344 11.851562 4.925781 11.714844 4.824219 C 10.894531 4.15625 10.003906 3.746094 8.855469 3.746094 C 6.578125 3.746094 4.902344 5.628906 4.902344 7.972656 L 4.902344 8.007812 C 4.902344 10.351562 6.5625 12.253906 8.855469 12.253906 C 10.125 12.253906 10.980469 11.84375 11.851562 11.105469 C 12.027344 10.953125 12.253906 10.867188 12.484375 10.867188 C 13.015625 10.867188 13.480469 11.3125 13.480469 11.84375 C 13.480469 12.167969 13.324219 12.425781 13.136719 12.597656 C 12.007812 13.589844 10.722656 14.207031 8.789062 14.207031 C 5.296875 14.207031 2.691406 11.484375 2.691406 8.042969 Z M 2.691406 8.042969 "/>
</g>
</svg>
