<?xml version="1.0" encoding="UTF-8"?>
<svg width="20px" height="27px" viewBox="0 0 20 27" version="1.1" xmlns="http://www.w3.org/2000/svg" xmlns:xlink="http://www.w3.org/1999/xlink">
    <title>icon-citybike_station-medium</title>
    <defs>
        <circle id="path-1" cx="9" cy="9" r="9"></circle>
    </defs>
    <g id="Page-1" stroke="none" stroke-width="1" fill="none" fill-rule="evenodd">
        <g id="icons" transform="translate(-138.000000, -377.000000)">
            <g id="stop-marker-master-alt3" transform="translate(118.000000, 357.000000)">
                <g id="stop-ball/citybike-no_indicator" transform="translate(21.000000, 21.000000)" fill-rule="evenodd" stroke-width="1">
                    <circle id="Oval" stroke="#FFFFFF" fill="#FBB800" cx="9" cy="9" r="9.5"></circle>
                    <g id="icon-citybike">
                        <mask id="mask-2" fill="white">
                            <use xlink:href="#path-1"></use>
                        </mask>
                        <g mask="url(#mask-2)" id="icon_citybike">
                            <g transform="translate(1.500000, 1.500000)">
                                <g>
                                    <path d="M0,1.8561 C0,0.8436 0.8439,0 1.8561,0 L13.1064,0 C14.1564,0 15,0.8436 15,1.8561 L15,13.1061 C15,14.1561 14.1564,15 13.1064,15 L1.8561,15 C0.8439,15 0,14.1561 0,13.1061 L0,1.8561 Z" id="Fill-1" fill="#FCBB19"></path>
                                    <path d="M6.02961,6.95085 L6.66531,8.60595 L4.79631,8.78595 L6.02961,6.95085 Z M9.66051,6.84105 L10.15971,8.14395 C10.35921,8.67165 10.68711,9.17565 10.93341,9.45705 C11.19141,9.76185 11.55471,9.44535 11.33211,9.16395 C11.08581,8.85915 10.81611,8.40195 10.62861,7.92135 L9.72321,5.52975 L10.45131,5.52975 L10.84971,6.53805 C10.90851,6.67875 10.99071,6.73725 11.11941,6.73725 L12.09231,6.73725 C12.23331,6.73725 12.32691,6.66705 12.36201,6.54975 L12.85461,5.11965 C12.97161,4.79115 12.57321,4.65075 12.44421,4.93185 C12.05721,5.78775 11.26041,5.67045 10.96731,5.33055 C10.84971,5.18985 10.76781,5.11965 10.61541,5.11965 L9.56781,5.11965 L9.56481,5.11125 C9.56721,5.10735 9.56991,5.10345 9.57231,5.09955 C9.79131,4.76565 9.85281,4.65195 9.90471,4.39815 C9.95571,4.15035 9.90501,3.91905 9.76101,3.74475 C9.60561,3.55695 9.37521,3.43875 9.09381,3.44445 C8.70231,3.45075 8.40081,3.76425 8.36751,3.80055 C8.27241,3.90285 8.27841,4.06335 8.38131,4.15905 C8.48481,4.25385 8.63781,4.24365 8.74041,4.14555 C8.79861,4.08915 8.95281,3.94515 9.10131,3.94305 C9.22791,3.93945 9.29661,3.99435 9.33591,4.03545 C9.39501,4.09755 9.43311,4.21485 9.40431,4.32585 C9.38331,4.40685 9.35931,4.48365 9.19101,4.75305 L9.19041,4.75245 C9.05361,4.91685 8.98581,5.06955 9.04431,5.23365 L9.46551,6.33255 C8.67381,6.86325 8.08581,7.63395 7.86321,8.62935 C7.70601,8.54535 7.53081,8.52015 7.32291,8.54265 L7.19601,8.55495 L5.81811,4.96185 C5.94771,4.92645 6.09681,4.89645 6.27951,4.88505 L6.43191,4.87335 C6.58431,4.86165 6.70131,4.76805 6.70131,4.62705 C6.70131,4.48665 6.59601,4.36935 6.40851,4.36935 L5.65821,4.36935 C5.10711,4.36935 5.01321,4.36065 4.69701,4.36065 C4.50921,4.36065 4.39221,4.42785 4.39221,4.56855 C4.39221,4.86165 4.77891,5.13135 5.14221,5.13135 C5.20461,5.13135 5.26371,5.12355 5.32311,5.11125 L5.80731,6.37245 L5.31831,7.10085 C4.82571,6.73725 4.23981,6.53805 3.64191,6.53805 C2.94921,6.53805 2.30091,6.79065 1.83471,7.17915 C1.81941,7.19205 1.72131,7.28475 1.70721,7.29885 C1.57131,7.43475 1.61481,7.67775 1.80441,7.71165 C1.82211,7.71465 1.91841,7.74165 1.93581,7.74585 C2.65581,7.91955 3.33861,8.36145 3.88281,8.94675 C3.73371,9.04605 3.64191,9.20535 3.64191,9.37485 C3.64191,9.67965 3.84111,9.89085 4.18101,9.92595 L7.24071,10.25415 C7.81521,10.31295 8.28411,10.06665 8.33091,9.36345 L8.34261,9.19905 C8.39841,8.29215 8.87241,7.41825 9.66051,6.84105 L9.66051,6.84105 Z" id="Fill-4" fill="#333333"></path>
                                    <path d="M4.11066,11.03964 C3.17286,11.03964 2.41086,10.28934 2.41086,9.35154 C2.41086,9.05844 2.49306,8.76534 2.66886,8.48394 C2.52816,8.39004 2.35236,8.30814 2.19966,8.24934 C2.00046,8.57784 1.89486,8.97654 1.89486,9.35154 C1.89486,10.57074 2.89176,11.55534 4.11066,11.55534 C4.89606,11.55534 5.59956,11.14524 5.98626,10.51194 L5.36496,10.44174 C5.08386,10.81674 4.62636,11.03964 4.11066,11.03964" id="Fill-6" fill="#333333"></path>
                                    <path d="M11.16798,7.14756 C11.02728,7.14756 10.89828,7.15926 10.78098,7.18266 L10.96848,7.67496 C11.02728,7.66326 11.09748,7.66326 11.16798,7.66326 C12.09378,7.66326 12.85578,8.42526 12.85578,9.35166 C12.85578,10.28946 12.09378,11.03976 11.16798,11.03976 C10.23018,11.03976 9.47988,10.28946 9.47988,9.35166 C9.47988,8.96466 9.60888,8.61306 9.81978,8.33166 L9.60888,7.78056 C9.21018,8.17926 8.95218,8.74176 8.95218,9.35166 C8.95218,10.57056 9.94878,11.55546 11.16798,11.55546 C12.38688,11.55546 13.37178,10.57056 13.37178,9.35166 C13.37178,8.13216 12.38688,7.14756 11.16798,7.14756" id="Fill-8" fill="#333333"></path>
                                </g>
                            </g>
                        </g>
                        <circle stroke="#FFFFFF" cx="9" cy="9" r="9.5"></circle>
                    </g>
                </g>
                <path d="M29,39 L31,39 L31,46 C31,46.5522847 30.5522847,47 30,47 C29.4477153,47 29,46.5522847 29,46 L29,39 L29,39 Z" id="Rectangle" fill="#333333" fill-rule="evenodd"></path>
                <g id="stop-marker-direction/4" opacity="0.5" transform="translate(12.000000, 12.000000)"></g>
            </g>
        </g>
    </g>
</svg>