<?xml version="1.0" encoding="UTF-8"?>
<svg width="36px" height="36px" viewBox="0 0 36 36" version="1.1" xmlns="http://www.w3.org/2000/svg" xmlns:xlink="http://www.w3.org/1999/xlink">
    <!-- Generator: Sketch 51.3 (57544) - http://www.bohemiancoding.com/sketch -->
    <title>icon-rail-station-border</title>
    <desc>Created with Sketch.</desc>
    <defs></defs>
    <g id="Page-1" stroke="none" stroke-width="1" fill="none" fill-rule="evenodd">
        <g id="icon-rail-station-border" transform="translate(2.000000, 2.000000)" fill-rule="nonzero">
            <path d="M-0.749996418,28.002177 L-0.75,27.9998588 L-0.749996418,3.997823 C-0.741900586,1.37853056 1.37964342,-0.742639313 4.00084668,-0.75 L27.9985803,-0.749998108 C30.6187231,-0.744112098 32.7418936,1.37748668 32.75,4.00014113 L32.749997,28.0019681 C32.7426266,30.6227245 30.6189336,32.7448454 27.9968955,32.75 L3.99873973,32.749997 C1.3796434,32.7426393 -0.741900586,30.6214694 -0.749996418,28.002177 Z" id="Path-Copy" stroke="#FFFFFF" stroke-width="1.5" fill="#FFFFFF"></path>
            <path d="M25.021524,30.728594 L6.8602271,30.728594 C5.1642271,30.728594 3.968,26.656 3.968,24.96 L3.968,7.0384 C3.968,5.3424 5.8793001,1.7526927 6.9201514,1.7492008 L24.781827,1.6892765 C25.399186,1.6872053 28.0336,5.3424 28.0336,7.0384 L28.0336,24.96 C28.0336,26.656 26.717524,30.728594 25.021524,30.728594 Z" id="path4315" fill="#FFFFFF"></path>
            <g id="g4319" fill="#8C4799">
                <path d="M0,3.96 C0,1.8 1.8,0 3.96,0 L27.96,0 C30.2,0 32,1.8 32,3.96 L32,27.96 C32,30.2 30.2,32 27.96,32 L3.96,32 C1.8,32 0,30.2 0,27.96 L0,3.96 Z M24.56,4.08 C23.68,3.28 19.88,2.36 16,2.36 C12.24,2.36 8.36,3.28 7.52,4.08 C6.92,4.6 6.32,5.8 5.6,7.32 C5,8.64 4.52,9.88 4.52,10.6 L4.52,22.16 C4.52,23.08 4.84,23.48 6.08,24.44 C7,25.16 7.4,25.48 8.8,25.48 L11.44,25.48 L11.44,27.2 L20.68,27.2 L20.68,25.48 L23.28,25.48 C24.68,25.48 25.08,25.16 25.96,24.44 C27.2,23.44 27.48,23.08 27.48,22.16 L27.48,10.6 C27.48,9.88 27,8.64 26.44,7.32 C25.72,5.8 25.16,4.6 24.56,4.08 Z M23.48,28.4 L23.48,26.72 L22,26.72 L22,28.4 L10.08,28.4 L10.08,26.72 L8.56,26.72 L8.56,28.4 L6.72,28.4 C6.28,28.4 5.92,28.76 5.92,29.16 C5.92,29.6 6.28,29.96 6.72,29.96 L25.36,29.96 C25.8,29.96 26.12,29.6 26.12,29.16 C26.12,28.76 25.8,28.4 25.36,28.4 L23.48,28.4 Z M22.64,18.2 C22.52,18.88 21.84,19.4 21.16,19.4 L10.92,19.4 C10.24,19.4 9.56,18.88 9.44,18.2 L7.56,10.24 C7.44,9.56 7.88,9.04 8.56,9.04 L23.48,9.04 C24.16,9.04 24.64,9.56 24.48,10.24 L22.64,18.2 Z M22.08,5.48 L22.08,6.16 C22.08,6.68 21.68,7.12 21.16,7.12 L10.92,7.12 C10.4,7.12 9.96,6.68 9.96,6.16 L9.96,5.48 L22.08,5.48 Z M9.96,22.36 C9.96,21.8 10.36,21.36 10.92,21.36 C11.48,21.36 11.96,21.8 11.96,22.36 C11.96,22.92 11.48,23.32 10.92,23.32 C10.36,23.32 9.96,22.92 9.96,22.36 Z M20.16,22.24 C20.16,21.68 20.6,21.24 21.16,21.24 C21.72,21.24 22.16,21.68 22.16,22.24 C22.16,22.8 21.72,23.2 21.16,23.2 C20.6,23.2 20.16,22.8 20.16,22.24 Z" id="path4317"></path>
            </g>
        </g>
    </g>
</svg>