<?xml version="1.0" encoding="UTF-8"?>
<svg xmlns="http://www.w3.org/2000/svg" xmlns:xlink="http://www.w3.org/1999/xlink" width="16px" height="16px" viewBox="0 0 16 16" version="1.1">
<g id="surface1">
<path style=" stroke:none;fill-rule:nonzero;fill:rgb(0%,47.843137%,78.823531%);fill-opacity:1;" d="M 0 14 C 0 15.101562 0.898438 16 2 16 L 14 16 C 15.101562 16 16 15.101562 16 14 L 16 2 C 16 0.898438 15.101562 0 14 0 L 2 0 C 0.898438 0 0 0.898438 0 2 Z M 0 14 "/>
<path style=" stroke:none;fill-rule:nonzero;fill:rgb(100%,100%,100%);fill-opacity:1;" d="M 3.359375 3.078125 C 3.359375 2.476562 3.824219 2.015625 4.421875 2.015625 L 8.738281 2.015625 C 10.105469 2.015625 11.183594 2.390625 11.871094 3.078125 C 12.398438 3.609375 12.675781 4.257812 12.675781 5.0625 L 12.675781 5.097656 C 12.675781 6.535156 11.851562 7.304688 10.960938 7.769531 C 12.367188 8.246094 13.34375 9.050781 13.34375 10.679688 L 13.34375 10.710938 C 13.34375 12.851562 11.578125 14 8.90625 14 L 4.421875 14 C 3.824219 14 3.359375 13.539062 3.359375 12.9375 Z M 8.308594 7.066406 C 9.660156 7.066406 10.570312 6.535156 10.570312 5.441406 L 10.570312 5.40625 C 10.570312 4.464844 9.816406 3.882812 8.460938 3.882812 L 5.433594 3.882812 L 5.433594 7.066406 Z M 8.925781 12.132812 C 10.363281 12.132812 11.234375 11.570312 11.234375 10.488281 L 11.234375 10.457031 C 11.234375 9.445312 10.429688 8.847656 8.769531 8.847656 L 5.433594 8.847656 L 5.433594 12.132812 Z M 8.925781 12.132812 "/>
</g>
</svg>
