<?xml version="1.0" encoding="UTF-8"?>
<svg width="17px" height="37px" viewBox="0 0 17 37" version="1.1" xmlns="http://www.w3.org/2000/svg" xmlns:xlink="http://www.w3.org/1999/xlink">
    <title>icon-stop-hybrid-small</title>
    <g id="Page-1" stroke="none" stroke-width="1" fill="none" fill-rule="evenodd">
        <g id="icons" transform="translate(-52.000000, -194.000000)">
            <g id="hybrid-alt3" transform="translate(46.000000, 195.000000)">
                <g id="hybrid-alt3-copy-2">
                    <rect id="Rectangle" stroke="#FFFFFF" stroke-width="0.8" fill="#D8D8D8" x="6.8" y="-0.4" width="15.2" height="29.6" rx="7.2"></rect>
                    <path d="M13.6,28.8 L15.2,28.8 L15.2,34.4 C15.2,34.8418278 14.8418278,35.2 14.4,35.2 C13.9581722,35.2 13.6,34.8418278 13.6,34.4 L13.6,28.8 L13.6,28.8 Z" id="Rectangle" fill="#333333"></path>
                    <g id="icon-bus" transform="translate(7.200000, 14.400000)">
                        <path d="M0,0 L14.4,0 L14.4,7.2 C14.4,11.1764502 11.1764502,14.4 7.2,14.4 C3.2235498,14.4 4.86974701e-16,11.1764502 0,7.2 L0,0 L0,0 Z" id="Rectangle" fill="#007AC9"></path>
                        <g transform="translate(2.000000, 2.000000)" id="icon_bus">
                            <g>
                                <path d="M8.880625,10.088 L1.600625,10.088 C0.9113,10.088 0.352625,9.529325 0.352625,8.84 L0.352625,1.56 C0.352625,0.870675 0.9113,0.312 1.600625,0.312 L8.880625,0.312 C9.56995,0.312 10.128625,0.870675 10.128625,1.56 L10.128625,8.84 C10.128625,9.529325 9.56995,10.088 8.880625,10.088 Z" id="Shape" fill="#FFFFFF" fill-rule="nonzero"></path>
                                <path d="M0.000325,1.28765 C0.000325,0.58565 0.585325,0.00065 1.287325,0.00065 L9.086675,0.00065 C9.814675,0.00065 10.399675,0.58565 10.399675,1.28765 L10.399675,9.087 C10.399675,9.815 9.814675,10.4 9.086675,10.4 L1.287325,10.4 C0.585325,10.4 0.000325,9.815 0.000325,9.087 L0.000325,1.28765 Z M5.213,1.11865 C4.134,1.11865 3.198,1.17065 2.171325,1.31365 C1.859325,1.35265 1.677325,1.53465 1.677325,1.80765 L1.677325,7.891 C1.677325,8.086 1.820325,8.216 1.950325,8.255 L2.340325,8.32 L2.340325,9.139 C2.340325,9.23 2.418325,9.295 2.522325,9.295 L3.146325,9.295 C3.224325,9.295 3.302325,9.23 3.302325,9.139 L3.302325,8.411 C3.809325,8.476 4.498325,8.502 5.187325,8.502 C5.889325,8.502 6.604325,8.476 7.098325,8.411 L7.098325,9.139 C7.098325,9.23 7.189325,9.295 7.267325,9.295 L7.891325,9.295 C7.995325,9.295 8.073325,9.23 8.073325,9.139 L8.073325,8.32 L8.463325,8.255 C8.606325,8.216 8.736325,8.099 8.736325,7.891 L8.736325,1.80765 C8.736325,1.53465 8.554325,1.35265 8.242325,1.31365 C7.202325,1.18365 6.25365,1.11865 5.21365,1.11865 L5.213,1.11865 Z M7.903675,6.305325 C7.162675,6.435325 6.187675,6.565325 5.239,6.565325 C4.238,6.565325 3.289325,6.448325 2.535325,6.279325 C2.327325,6.240325 2.249325,6.162325 2.249325,5.993325 L2.249325,2.19765 C2.249325,2.02865 2.327325,1.91165 2.535325,1.91165 L7.903675,1.93765 C8.111675,1.93765 8.176675,2.05465 8.176675,2.22365 L8.176675,6.019325 C8.176675,6.188325 8.111675,6.279325 7.903675,6.305325 L7.903675,6.305325 Z M2.457,7.345325 C2.47,7.176325 2.626,7.020325 2.808,7.020325 C2.99,7.020325 3.146,7.176325 3.146,7.345325 C3.146,7.540325 2.99,7.696325 2.808,7.696325 C2.613,7.683325 2.457,7.527325 2.457,7.345325 L2.457,7.345325 Z M7.214675,7.345325 C7.227675,7.176325 7.383675,7.020325 7.552675,7.020325 C7.734675,7.020325 7.890675,7.176325 7.890675,7.345325 C7.890675,7.540325 7.734675,7.696325 7.552675,7.696325 C7.370675,7.683325 7.214675,7.527325 7.214675,7.345325 Z" id="Shape" fill="#007AC9" fill-rule="nonzero"></path>
                            </g>
                        </g>
                    </g>
                    <g id="icon-tram" transform="translate(7.200000, 0.000000)">
                        <path d="M7.2,0 C11.1764502,-7.30462051e-16 14.4,3.2235498 14.4,7.2 L14.4,14.4 L14.4,14.4 L0,14.4 L0,7.2 C-4.86974701e-16,3.2235498 3.2235498,7.30462051e-16 7.2,0 Z" id="Rectangle" fill="#00985F"></path>
                        <g transform="translate(2.000000, 2.000000)" id="icon_tram">
                            <g>
                                <path d="M8.84,10.088 L1.56,10.088 C0.870675,10.088 0.312,9.529325 0.312,8.84 L0.312,1.56 C0.312,0.870675 0.870675,0.312 1.56,0.312 L8.84,0.312 C9.529325,0.312 10.088,0.870675 10.088,1.56 L10.088,8.84 C10.088,9.529325 9.529325,10.088 8.84,10.088 Z" id="Shape" fill="#FFFFFF" fill-rule="nonzero"></path>
                                <path d="M0.000325,1.28765 C0.000325,0.58565 0.585325,0.00065 1.287325,0.00065 L9.086675,0.00065 C9.814675,0.00065 10.399675,0.58565 10.399675,1.28765 L10.399675,9.087 C10.399675,9.815 9.814675,10.4 9.086675,10.4 L1.287325,10.4 C0.585325,10.4 0.000325,9.815 0.000325,9.087 L0.000325,1.28765 Z M7.266675,2.22365 C7.201675,2.06765 7.110675,1.98965 6.954675,1.95065 C6.395675,1.80765 5.992675,1.75565 5.472675,1.74265 L5.472675,1.28765 L6.434675,1.28765 C6.564675,1.28765 6.668675,1.17065 6.668675,1.04065 C6.668675,0.88465 6.564675,0.76765 6.434675,0.76765 L3.991,0.76765 C3.835,0.76765 3.718,0.88465 3.718,1.04065 C3.718,1.17065 3.835,1.28765 3.991,1.28765 L4.94,1.28765 L4.94,1.74265 C4.407,1.75565 3.978,1.80765 3.458,1.95065 C3.276,2.00265 3.185,2.06765 3.107,2.22365 L2.886,2.75665 C2.821,2.91265 2.821,3.13365 2.821,3.30265 L2.821,7.982325 C2.821,8.216325 2.977,8.359325 3.211,8.398325 C3.913,8.541325 4.524,8.593325 5.199675,8.593325 C5.849675,8.593325 6.473675,8.541325 7.20135,8.398325 C7.42235,8.359325 7.59135,8.216325 7.59135,7.982325 L7.59135,3.30265 C7.59135,3.13365 7.55235,2.91265 7.48735,2.75665 L7.26635,2.22365 L7.266675,2.22365 Z M6.616675,9.23 L6.616675,8.84 L6.135675,8.905 L6.135675,9.23 L4.276675,9.23 L4.276675,8.905 L3.795675,8.84 L3.795675,9.23 L3.405675,9.23 C3.262675,9.23 3.171675,9.347 3.171675,9.464 C3.171675,9.633 3.262675,9.737 3.405675,9.737 L7.00635,9.737 C7.12335,9.737 7.25335,9.633 7.25335,9.464 C7.25335,9.347 7.12335,9.23 7.00635,9.23 L6.61635,9.23 L6.616675,9.23 Z M3.289,7.228325 C3.289,7.046325 3.419,6.903325 3.588,6.903325 C3.77,6.903325 3.9,7.046325 3.9,7.228325 C3.9,7.397325 3.77,7.514325 3.588,7.514325 C3.419,7.514325 3.289,7.397325 3.289,7.228325 Z M3.302,3.19865 L7.084675,3.19865 L7.084675,6.357325 C6.590675,6.500325 5.888675,6.591325 5.199675,6.591325 C4.523675,6.591325 3.821675,6.487325 3.301675,6.357325 L3.301675,3.19865 L3.302,3.19865 Z M6.564675,7.228325 C6.564675,7.046325 6.681675,6.903325 6.850675,6.903325 C7.032675,6.903325 7.175675,7.046325 7.175675,7.228325 C7.175675,7.397325 7.032675,7.514325 6.850675,7.514325 C6.681675,7.514325 6.564675,7.397325 6.564675,7.228325 Z" id="Shape" fill="#00985F" fill-rule="nonzero"></path>
                            </g>
                        </g>
                    </g>
                </g>
            </g>
        </g>
    </g>
</svg>