<svg xmlns="http://www.w3.org/2000/svg" viewBox="0 0 16 16">
  <rect width="16" height="16" rx="2" ry="2" fill="#007ec0"/>
  <path d="M6.113 8.446q0-.338.024-.66a.32.32 0 0 1 .319-.295h2.813V1.809H2.744v11.046h4.094a11.73 11.73 0 0 1-.725-4.409zM3.37 2.45h5.274v4.38H3.37zm.272 7.394a.29.29 0 1 1 .29-.29v.002a.29.29 0 0 1-.29.29zm0-.857a.207.207 0 1 1 .002.002h-.002zm0-.858a.29.29 0 1 1 .29-.29.29.29 0 0 1-.289.292h-.001zm.837 1.715a.29.29 0 1 1 .29-.29v.002a.29.29 0 0 1-.29.29zm0-.857a.29.29 0 1 1 .29-.29.29.29 0 0 1-.29.292zm0-.858a.29.29 0 1 1 .29-.29.291.291 0 0 1-.29.292zm.837 1.715a.29.29 0 1 1 .29-.29v.002a.29.29 0 0 1-.29.29zm0-.857a.29.29 0 1 1 .29-.29.29.29 0 0 1-.288.291h-.002zm0-.858a.29.29 0 1 1 .29-.29.29.29 0 0 1-.289.292zM7.843 10.5a.13.13 0 0 1 0 .063.128.128 0 0 1-.01.027.083.083 0 0 1-.067.043.037.037 0 0 1-.025-.004.043.043 0 0 1-.017-.022.097.097 0 0 1 .015-.084l.004-.005a.113.113 0 0 1 .071-.037h.022l.005.014v.007M7.593 9.23l-.005-.006a.13.13 0 0 0-.082-.045.028.028 0 0 0-.022.009.026.026 0 0 0-.009.022.129.129 0 0 0 .044.083l.006.005.021.015a.155.155 0 0 0 .063.023h.008a.06.06 0 0 0 .014 0 .105.105 0 0 0 0-.014v-.007a.17.17 0 0 0-.038-.084m.593-.145l.015.014.015-.014A.17.17 0 0 0 8.255 9v-.007a.135.135 0 0 0-.015-.082c-.01-.015-.016-.017-.026-.017s-.015 0-.028.017a.143.143 0 0 0-.03.082V9a.085.085 0 0 0 .003.025.13.13 0 0 0 .025.06m-.838.775h-.01a.126.126 0 0 0-.078.022c-.013.011-.013.018-.012.027a.046.046 0 0 0 .022.028.165.165 0 0 0 .087.022h.008l.024-.004a.13.13 0 0 0 .056-.03l.012-.015-.017-.016a.191.191 0 0 0-.09-.033m1.23.96l-.014-.026a.242.242 0 0 0-.057-.059.128.128 0 0 0-.02-.015l-.01.015a.13.13 0 0 0 0 .084l.003.008a.238.238 0 0 0 .056.082c.018.015.025.016.036.016s.013 0 .019-.016a.14.14 0 0 0-.014-.082l-.005-.008m.669-.935a.16.16 0 0 0-.086-.022h-.003l-.024.005a.11.11 0 0 0-.056.028.056.056 0 0 0-.012.016l.017.015a.195.195 0 0 0 .091.034h.009a.122.122 0 0 0 .078-.022c.013-.012.014-.018.013-.027s-.006-.016-.022-.028m-.263.597h-.014l.004.014v.007a.235.235 0 0 0 .067.084l.007.006a.226.226 0 0 0 .1.043c.011 0 .014 0 .018-.007s.004-.01 0-.022a.21.21 0 0 0-.073-.084l-.008-.005-.026-.014a.202.202 0 0 0-.07-.022h-.006m-.069-1.293a.025.025 0 0 0-.02-.009.132.132 0 0 0-.085.046l-.005.005-.015.02a.159.159 0 0 0-.021.063v.008a.12.12 0 0 0 0 .014h.02a.158.158 0 0 0 .083-.038l.006-.005a.129.129 0 0 0 .044-.083.027.027 0 0 0-.007-.022m-.714.099c-.17.07-.262.11-.43.18a3.414 3.414 0 0 0-.129.437 4.873 4.873 0 0 0 .287.442c.196.073.3.113.499.183l.37-.178a3.426 3.426 0 0 1 .075-.439 4.637 4.637 0 0 1-.232-.444c-.176-.071-.268-.11-.44-.181m5.452 4.522l-6.002.003A10.354 10.354 0 0 1 6.43 8.445c0-.214.007-.427.023-.637h5.678c-.016.21-.024.423-.024.637a9.489 9.489 0 0 0 1.545 5.362M9.468 9.899a.296.296 0 0 0-.128-.188.374.374 0 0 0-.204-.057h-.005a.327.327 0 0 0-.126.029 3.666 3.666 0 0 1-.086-.17.36.36 0 0 0 .108-.074.33.33 0 0 0 .098-.222.234.234 0 0 0-.064-.17.23.23 0 0 0-.166-.07.339.339 0 0 0-.232.106.359.359 0 0 0-.073.11l-.16-.067a.407.407 0 0 0 .033-.121v-.008a.331.331 0 0 0-.04-.195.216.216 0 0 0-.187-.105.272.272 0 0 0-.202.097.339.339 0 0 0-.078.197v.004a.339.339 0 0 0 .02.129l-.166.068a.354.354 0 0 0-.065-.105l-.006-.007a.312.312 0 0 0-.222-.102.251.251 0 0 0-.17.068.237.237 0 0 0-.073.169.314.314 0 0 0 .108.23.374.374 0 0 0 .113.07c-.019.057-.034.104-.05.163a.38.38 0 0 0-.124-.025h-.008a.311.311 0 0 0-.194.062.216.216 0 0 0-.076.205.294.294 0 0 0 .135.189.386.386 0 0 0 .205.056h.007a.317.317 0 0 0 .125-.03c.043.068.076.117.117.177a.27.27 0 0 0-.084.074.257.257 0 0 0-.029.236.339.339 0 0 0 .122.155.326.326 0 0 0 .182.061.226.226 0 0 0 .198-.113l.004-.005a.274.274 0 0 0 .028-.092l.2.072a.335.335 0 0 0 .026.146.494.494 0 0 0 .137.183.37.37 0 0 0 .222.09.16.16 0 0 0 .165-.12.312.312 0 0 0-.029-.2v-.005a.502.502 0 0 0-.07-.113l.121-.06a.533.533 0 0 0 .113.116l.008.007a.462.462 0 0 0 .253.095.176.176 0 0 0 .153-.079.203.203 0 0 0 .008-.177.487.487 0 0 0-.17-.211l-.004-.004a.511.511 0 0 0-.139-.071c.008-.061.014-.105.024-.156a.387.387 0 0 0 .123.023h.014a.29.29 0 0 0 .19-.062.218.218 0 0 0 .07-.204m.343-.564a.155.155 0 0 0 .112.046h1.514a.155.155 0 0 0 .154-.154.152.152 0 0 0-.045-.113.148.148 0 0 0-.106-.045H9.924a.157.157 0 0 0-.158.154.154.154 0 0 0 .045.109m.19.732h1.515a.132.132 0 0 0 .102-.046.14.14 0 0 0 .028-.113.185.185 0 0 0-.175-.151H9.958a.134.134 0 0 0-.134.16.188.188 0 0 0 .178.152m1.823.508a.226.226 0 0 0-.195-.144h-1.514a.119.119 0 0 0-.1.048.127.127 0 0 0-.01.117.226.226 0 0 0 .2.143h1.513a.113.113 0 0 0 .096-.045.13.13 0 0 0 .01-.119m-6.88-7.245a.297.297 0 0 1 .292-.302h1.048a1.141 1.141 0 0 1 1.292 1.137v.01c0 .762-.612 1.16-1.36 1.16h-.678v.822a.299.299 0 1 1-.597 0zm1.291 1.467c.452 0 .734-.253.734-.607v-.01c0-.398-.287-.607-.734-.607H5.54v1.224z" fill="#fff"/>
</svg>
