<?xml version="1.0" encoding="UTF-8"?>
<svg width="34px" height="34px" viewBox="0 0 34 34" version="1.1" xmlns="http://www.w3.org/2000/svg" xmlns:xlink="http://www.w3.org/1999/xlink">
    <!-- Generator: Sketch 51.3 (57544) - http://www.bohemiancoding.com/sketch -->
    <title>citybike2_disabled copy 2</title>
    <desc>Created with Sketch.</desc>
    <defs></defs>
    <g id="Page-1" stroke="none" stroke-width="1" fill="none" fill-rule="evenodd">
        <g id="citybike2_disabled-copy-2" transform="translate(1.000000, 1.000000)" fill-rule="nonzero">
            <path d="M3.94476787,0 L27.637037,0 C29.8162196,-7.99610303e-07 31.5833194,1.76558606 31.5851852,3.94476787 L31.5851852,27.637037 C31.5851852,29.817539 29.817539,31.5851852 27.637037,31.5851852 L3.94476787,31.5851852 C1.76635854,31.581459 0.00186028888,29.8154488 0,27.637037 L0,3.94476787 C0.00186381076,1.76690522 1.76690522,0.00186381076 3.94476787,0 Z" id="Path" stroke="#979797" fill="#888888"></path>
            <path d="M23.8162376,31.5120792 L23.740198,31.5120792 C23.2152541,31.5120792 22.789703,31.0865281 22.789703,30.5615842 C22.789703,30.0366403 23.2152541,29.6110891 23.740198,29.6110891 L23.8162376,29.6110891 C24.3411815,29.6110891 24.7667327,30.0366403 24.7667327,30.5615842 C24.7667327,31.0865281 24.3411815,31.5120792 23.8162376,31.5120792 Z M20.7049505,31.5120792 L20.6289109,31.5120792 C20.103967,31.5120792 19.6784159,31.0865281 19.6784159,30.5615842 C19.6784159,30.0366403 20.103967,29.6110891 20.6289109,29.6110891 L20.7049505,29.6110891 C21.2298944,29.6110891 21.6554455,30.0366403 21.6554455,30.5615842 C21.6554455,31.0865281 21.2298944,31.5120792 20.7049505,31.5120792 Z M17.590495,31.5120792 L17.5144555,31.5120792 C16.9895115,31.5120792 16.5639605,31.0865281 16.5639605,30.5615842 C16.5639605,30.0366403 16.9895115,29.6110891 17.5144555,29.6110891 L17.590495,29.6110891 C18.1154389,29.6110891 18.5409901,30.0366403 18.5409901,30.5615842 C18.5409901,31.0865281 18.1154389,31.5120792 17.590495,31.5120792 Z M14.479208,31.5120792 L14.4031683,31.5120792 C13.8782244,31.5120792 13.4526733,31.0865281 13.4526733,30.5615842 C13.4526733,30.0366403 13.8782244,29.6110891 14.4031683,29.6110891 L14.479208,29.6110891 C15.0041519,29.6110891 15.4297029,30.0366403 15.4297029,30.5615842 C15.4297029,31.0865281 15.0041519,31.5120792 14.479208,31.5120792 Z M11.3647525,31.5120792 L11.2887129,31.5120792 C10.763769,31.5120792 10.3382179,31.0865281 10.3382179,30.5615842 C10.3382179,30.0366403 10.763769,29.6110891 11.2887129,29.6110891 L11.3647525,29.6110891 C11.8896964,29.6110891 12.3152475,30.0366403 12.3152475,30.5615842 C12.3152475,31.0865281 11.8896964,31.5120792 11.3647525,31.5120792 Z M8.25346531,31.5120792 L8.17742573,31.5120792 C7.83784655,31.5120792 7.52406244,31.3309159 7.35427284,31.0368317 C7.18448324,30.7427475 7.18448324,30.3804208 7.35427284,30.0863366 C7.52406244,29.7922524 7.83784655,29.6110891 8.17742573,29.6110891 L8.25346531,29.6110891 C8.77840931,29.6110891 9.20396038,30.0366403 9.20396038,30.5615842 C9.20396038,31.0865281 8.77840931,31.5120792 8.25346531,31.5120792 Z M5.1390099,31.5120792 L5.0629703,31.5120792 C4.5380264,31.5120792 4.1124753,31.0865281 4.1124753,30.5615842 C4.1124753,30.0366403 4.5380264,29.6110891 5.0629703,29.6110891 L5.1390099,29.6110891 C5.66395382,29.6110891 6.08950495,30.0366403 6.08950495,30.5615842 C6.08950495,31.0865281 5.66395382,31.5120792 5.1390099,31.5120792 Z M2.24316831,30.6154456 C2.01662303,30.615463 1.79752095,30.5345637 1.62534654,30.3873267 L1.55247524,30.3207921 C1.25976015,30.1063902 1.11464284,29.744045 1.17844103,29.3868614 C1.24223922,29.0296778 1.50382179,28.7399752 1.8526599,28.640164 C2.20149802,28.5403528 2.57672856,28.6478477 2.81980198,28.9172277 L2.8609901,28.9520792 C3.1560266,29.2122258 3.26034292,29.627227 3.12338441,29.9959614 C2.98642589,30.3646959 2.63649104,30.6109753 2.24316831,30.6154456 Z M29.6110891,30.2764356 C29.3770353,30.2759073 29.1514055,30.1890398 28.9774257,30.0324753 C28.5909979,29.6815473 28.5598801,29.0846531 28.9077227,28.6954456 L28.9425743,28.6574258 C29.1498827,28.3612561 29.5072565,28.20833 29.8646352,28.2628609 C30.2220141,28.3173918 30.5175188,28.5699375 30.6270676,28.914455 C30.7366165,29.2589726 30.6412414,29.6358094 30.3809901,29.8867326 L30.3144555,29.9627723 C30.1347557,30.1618814 29.8792981,30.2758017 29.6110891,30.2764356 Z M0.95049505,27.8843565 C0.43409169,27.884497 0.0120493928,27.4723024 0,26.9560396 L0,26.8641584 C0,26.3392145 0.425551128,25.9136633 0.95049505,25.9136633 C1.47543897,25.9136633 1.9009901,26.3392145 1.9009901,26.8641584 L1.9009901,26.9370297 C1.9011307,27.4534331 1.48893605,27.8754754 0.972673265,27.8875247 L0.95049505,27.8843565 Z M30.5584159,27.399604 C30.033472,27.399604 29.6079208,26.9740528 29.6079208,26.4491089 L29.6079208,26.3730693 C29.6079208,25.8481254 30.033472,25.4225742 30.5584159,25.4225742 C31.0833598,25.4225742 31.5089109,25.8481254 31.5089109,26.3730693 L31.5089109,26.4491089 C31.5089109,26.9740528 31.0833598,27.399604 30.5584159,27.399604 Z M0.95049505,24.7572277 C0.425551128,24.7572277 0,24.3316766 0,23.8067326 L0,23.7338614 C7.57894739e-09,23.2089175 0.425551134,22.7833663 0.95049505,22.7833663 C1.47543897,22.7833663 1.90099009,23.2089175 1.9009901,23.7338614 L1.9009901,23.809901 C1.8992444,24.3336072 1.47420415,24.7572307 0.95049505,24.7572277 Z M30.5584159,24.2883168 C30.033472,24.2883168 29.6079208,23.8627657 29.6079208,23.3378218 L29.6079208,23.2617822 C29.6079208,22.7368382 30.033472,22.3112872 30.5584159,22.3112872 C31.0833598,22.3112872 31.5089109,22.7368382 31.5089109,23.2617822 L31.5089109,23.3378218 C31.5089109,23.8627657 31.0833598,24.2883168 30.5584159,24.2883168 Z M0.95049505,21.6427723 C0.425551128,21.6427723 0,21.2172211 0,20.6922772 L0,20.6162376 C-5.05263158e-09,20.2766584 0.181163326,19.9628744 0.47524752,19.7930847 C0.769331715,19.6232952 1.13165838,19.6232952 1.42574258,19.7930847 C1.71982677,19.9628744 1.90099011,20.2766584 1.9009901,20.6162376 L1.9009901,20.6922772 C1.9009901,20.9443642 1.80084894,21.1861263 1.62259654,21.3643787 C1.44434414,21.5426312 1.20258201,21.6427723 0.95049505,21.6427723 Z M30.5584159,21.1738614 C30.033472,21.1738614 29.6079208,20.7483102 29.6079208,20.2233663 L29.6079208,20.1536633 C29.6079208,19.6287194 30.033472,19.2031683 30.5584159,19.2031683 C31.0833598,19.2031683 31.5089109,19.6287194 31.5089109,20.1536633 L31.5089109,20.229703 C31.5054277,20.7521706 31.0808951,21.173873 30.5584159,21.1738614 Z M0.95049505,18.5314851 C0.425551128,18.5314851 0,18.105934 0,17.5809901 L0,17.5049505 C7.57894739e-09,16.9800066 0.425551134,16.5544555 0.95049505,16.5544555 C1.47543897,16.5544555 1.90099009,16.9800066 1.9009901,17.5049505 L1.9009901,17.5809901 C1.9009901,18.105934 1.47543897,18.5314851 0.95049505,18.5314851 Z M30.5584159,18.0625742 C30.033472,18.0625742 29.6079208,17.6370232 29.6079208,17.1120792 L29.6079208,17.0360396 C29.6079208,16.5110957 30.033472,16.0855446 30.5584159,16.0855446 C31.0833598,16.0855446 31.5089109,16.5110957 31.5089109,17.0360396 L31.5089109,17.1120792 C31.5089109,17.6370232 31.0833598,18.0625742 30.5584159,18.0625742 Z M0.95049505,15.4170297 C0.425551128,15.4170297 0,14.9914786 0,14.4665347 L0,14.3904951 C-5.05263158e-09,14.0509159 0.181163326,13.7371318 0.47524752,13.5673422 C0.769331715,13.3975526 1.13165838,13.3975526 1.42574258,13.5673422 C1.71982677,13.7371318 1.90099011,14.0509159 1.9009901,14.3904951 L1.9009901,14.4665347 C1.9009901,14.9914786 1.47543897,15.4170297 0.95049505,15.4170297 Z M30.5584159,14.9576238 C30.033472,14.9576238 29.6079208,14.5320726 29.6079208,14.0071287 L29.6079208,13.9342574 C29.6079208,13.4093135 30.033472,12.9837624 30.5584159,12.9837624 C31.0833598,12.9837624 31.5089109,13.4093135 31.5089109,13.9342574 L31.5089109,14.0071287 C31.5089109,14.5320726 31.0833598,14.9576238 30.5584159,14.9576238 Z M0.95049505,12.3057426 C0.425551128,12.3057426 0,11.8801914 0,11.3552475 L0,11.2823763 C7.57894739e-09,10.7574323 0.425551134,10.3318812 0.95049505,10.3318812 C1.47543897,10.3318812 1.90099009,10.7574323 1.9009901,11.2823763 L1.9009901,11.3584158 C1.8992444,11.882122 1.47420415,12.3057455 0.95049505,12.3057426 Z M30.5584159,11.8368317 C30.033472,11.8368317 29.6079208,11.4112806 29.6079208,10.8863366 L29.6079208,10.810297 C29.6079208,10.2853531 30.033472,9.85980194 30.5584159,9.85980194 C31.0833598,9.85980194 31.5089109,10.2853531 31.5089109,10.810297 L31.5089109,10.8863366 C31.5089109,11.4112806 31.0833598,11.8368317 30.5584159,11.8368317 Z M0.95049505,9.19128716 C0.425551128,9.19128716 0,8.765736 0,8.24079209 L0,8.16475251 C-5.05263158e-09,7.8251733 0.181163326,7.51138919 0.47524752,7.34159961 C0.769331715,7.17181002 1.13165838,7.17181002 1.42574258,7.34159961 C1.71982677,7.51138919 1.90099011,7.8251733 1.9009901,8.16475251 L1.9009901,8.24079209 C1.9009901,8.765736 1.47543897,9.19128716 0.95049505,9.19128716 Z M30.5584159,8.72237626 C30.033472,8.72237626 29.6079208,8.2968251 29.6079208,7.77188119 L29.6079208,7.69584159 C29.6079208,7.17089766 30.033472,6.74534653 30.5584159,6.74534653 C31.0833598,6.74534653 31.5089109,7.17089766 31.5089109,7.69584159 L31.5089109,7.77188119 C31.5089109,8.2968251 31.0833598,8.72237626 30.5584159,8.72237626 Z M0.95049505,6.08633664 C0.425551128,6.08633664 0,5.6607855 0,5.13584159 L0,5.05980198 C7.57894739e-09,4.53485807 0.425551134,4.10930694 0.95049505,4.10930694 C1.47543897,4.10930694 1.90099009,4.53485807 1.9009901,5.05980198 L1.9009901,5.13584159 C1.9009901,5.6607855 1.47543897,6.08633664 0.95049505,6.08633664 Z M30.5584159,5.61108911 C30.033472,5.61108911 29.6079208,5.18553798 29.6079208,4.66059406 L29.6079208,4.59722773 C29.6078172,4.0796189 30.0219007,3.65708484 30.5394059,3.64673267 C31.0643499,3.64673267 31.489901,4.0722838 31.489901,4.59722773 L31.489901,4.67960396 C31.4764549,5.18732839 31.0662203,5.59477244 30.5584159,5.60475248 L30.5584159,5.61108911 Z M1.85346535,3.18732673 C1.48358301,3.18489199 1.14870709,2.96809625 0.995082233,2.63161702 C0.841457374,2.29513779 0.896989004,1.90009537 1.13742574,1.6190099 L1.20079208,1.54930693 C1.41519398,1.25659184 1.7775392,1.11147453 2.13472276,1.17527271 C2.49190631,1.2390709 2.781609,1.50065347 2.88142015,1.84949158 C2.98123131,2.19832971 2.87373649,2.57356024 2.60435643,2.81663366 L2.56633663,2.8609901 C2.38673343,3.06726902 2.12697401,3.18618111 1.85346535,3.18732673 Z M29.3291089,2.85148515 C29.0954725,2.85182791 28.869894,2.76610811 28.6954455,2.61069307 L28.6510891,2.56950495 C28.3152163,2.21526385 28.3022935,1.66418869 28.6211924,1.29459315 C28.9400912,0.924997613 29.4871155,0.857062674 29.8867327,1.13742574 L29.9564357,1.20079208 C30.2439007,1.46464779 30.3409037,1.87738907 30.2010645,2.24167046 C30.0612251,2.60595187 29.7129544,2.84776272 29.3227723,2.85148515 L29.3291089,2.85148515 Z M4.60039604,1.9009901 C4.07545212,1.90711445 3.64493623,1.48652808 3.63881188,0.961584156 C3.63268754,0.436640237 4.0532739,0.00612434611 4.57821782,0 L4.66376238,0 C5.1887063,0 5.61425742,0.425551129 5.61425742,0.950495053 C5.61425742,1.47543897 5.1887063,1.9009901 4.66376238,1.9009901 L4.60039604,1.9009901 Z M26.4617822,1.9009901 L26.3857426,1.9009901 C25.8607986,1.9009901 25.4352475,1.47543897 25.4352475,0.950495053 C25.4352475,0.425551129 25.8607986,0 26.3857426,0 L26.4617822,0 C26.9867261,0 27.4122773,0.425551129 27.4122773,0.950495053 C27.4122773,1.47543897 26.9867261,1.9009901 26.4617822,1.9009901 Z M23.350495,1.9009901 L23.2744555,1.9009901 C22.7495115,1.9009901 22.3239604,1.47543897 22.3239604,0.950495053 C22.3239604,0.425551129 22.7495115,0 23.2744555,0 L23.350495,0 C23.8754389,0 24.3009901,0.425551129 24.3009901,0.950495053 C24.3009901,1.47543897 23.8754389,1.9009901 23.350495,1.9009901 Z M20.2360396,1.9009901 L20.16,1.9009901 C19.635056,1.9009901 19.209505,1.47543897 19.209505,0.950495053 C19.209505,0.425551129 19.635056,0 20.16,0 L20.2360396,0 C20.7609835,0 21.1865346,0.425551129 21.1865346,0.950495053 C21.1865346,1.47543897 20.7609835,1.9009901 20.2360396,1.9009901 Z M17.1247525,1.9009901 L17.0487129,1.9009901 C16.523769,1.9009901 16.0982178,1.47543897 16.0982178,0.950495053 C16.0982178,0.425551129 16.523769,0 17.0487129,0 L17.1247525,0 C17.6496964,0 18.0752475,0.425551129 18.0752475,0.950495053 C18.0752475,1.47543897 17.6496964,1.9009901 17.1247525,1.9009901 Z M14.0102971,1.9009901 L13.9342574,1.9009901 C13.4093135,1.9009901 12.9837624,1.47543897 12.9837624,0.950495053 C12.9837624,0.425551129 13.4093135,0 13.9342574,0 L14.0102971,0 C14.535241,0 14.960792,0.425551129 14.960792,0.950495053 C14.960792,1.47543897 14.535241,1.9009901 14.0102971,1.9009901 Z M10.8990099,1.9009901 L10.8229703,1.9009901 C10.2980264,1.9009901 9.87247524,1.47543897 9.87247524,0.950495053 C9.87247524,0.425551129 10.2980264,0 10.8229703,0 L10.8990099,0 C11.4239538,0 11.849505,0.425551129 11.849505,0.950495053 C11.849505,1.47543897 11.4239538,1.9009901 10.8990099,1.9009901 Z M7.76871287,1.9009901 L7.69267326,1.9009901 C7.16772935,1.9009901 6.74217822,1.47543897 6.74217822,0.950495053 C6.74217822,0.425551129 7.16772935,0 7.69267326,0 L7.76871287,0 C8.2936568,0 8.71920796,0.425551129 8.71920796,0.950495053 C8.71920796,1.47543897 8.2936568,1.9009901 7.76871287,1.9009901 Z M26.9338613,31.5057426 L26.8578218,31.5057426 C26.3328779,31.5057426 25.9073267,31.0801914 25.9073267,30.5552475 C25.9073267,30.0303036 26.3328779,29.6047525 26.8578218,29.6047525 L26.9338613,29.6047525 C27.4588053,29.6047525 27.8843564,30.0303036 27.8843564,30.5552475 C27.8843564,31.0801914 27.4588053,31.5057426 26.9338613,31.5057426 Z" id="Shape" fill="#FFFFFF"></path>
            <g id="Group" transform="translate(2.962963, 8.296296)" fill="#FFFFFF">
                <path d="M4.81720045,15.3227324 C3.47849559,15.4441958 2.1861236,14.7986101 1.47922132,13.6552933 C0.77231904,12.5119766 0.77231904,11.0673292 1.47922132,9.92401238 C2.1861236,8.78069558 3.47849559,8.13510998 4.81720045,8.25657339 C5.32499619,8.25619596 5.82680137,8.36624093 6.28783874,8.57908177 L7.14893617,7.79216126 C5.44297994,6.80040909 3.29567533,7.00031773 1.80210907,8.28993743 C0.308542813,9.57955705 -0.202250451,11.6747827 0.530224657,13.5070871 C1.26269976,15.3393914 3.077078,16.5051154 5.04805909,16.4097605 C7.01904017,16.3144057 8.7124144,14.978979 9.26459124,13.084524 L8.10033592,13.1038746 C7.55950855,14.4427299 6.26116084,15.3201987 4.81720045,15.3227324 Z" id="Shape"></path>
                <path d="M17.2724748,6.58597987 L17.549832,7.57608059 C17.559381,7.60854004 17.5723543,7.63989204 17.5885331,7.66960808 L19.7719149,12.0331467 C19.8399349,12.2373831 20.0211795,12.3829165 20.2352865,12.4052189 C20.4493935,12.4275213 20.6567405,12.3224654 20.7653921,12.136632 C20.8740436,11.9507986 20.8638927,11.7185778 20.7394401,11.5429339 L18.5883091,7.22454644 L17.9432923,5.01536396 L17.7497872,4.32842105 C17.6911636,4.12095596 17.7851769,3.90069625 17.9755431,3.79950728 C18.0953225,3.73334568 18.2388787,3.72596152 18.3648144,3.77948421 C18.4907501,3.83300682 18.5850644,3.94148598 18.6205599,4.07363941 L19.00757,5.42817465 C19.0945351,5.62464421 19.2893773,5.75116514 19.5042329,5.75068312 L21.5715117,5.75068312 C21.7800775,5.75076025 21.9703999,5.63180867 22.0617245,5.44430013 L23.2453304,3.02871217 C23.3331347,2.84978291 23.3169198,2.63729752 23.2029821,2.4737632 C23.0890442,2.31022897 22.8953331,2.22140893 22.6970661,2.24179175 L20.6942889,2.43852185 L18.3496529,2.68040312 L18.0497201,1.60322509 C17.7795631,0.654795545 16.8215345,0.0771606063 15.8566629,0.280940648 L15.2761478,0.400268758 C14.9977471,0.460945103 14.8082375,0.719618872 14.8343113,1.00335946 C14.8505083,1.15498186 14.9294803,1.29288594 15.0520542,1.3835906 C15.1746281,1.47429528 15.3295939,1.50950519 15.4793281,1.48067189 L16.0824188,1.35489362 C16.4809754,1.27496168 16.8744886,1.51303012 16.9886675,1.90315789 L17.3111758,2.9900112 C16.9212594,3.27214029 16.6908351,3.72458796 16.6919597,4.20586787 C16.6935488,4.42290737 16.7184168,4.63915015 16.7661366,4.85088463 L10.9609854,9.62400893 L8.58409853,3.30929448 C8.90021364,3.22246029 9.22443352,3.16842366 9.55162375,3.14804034 L9.87413213,3.12223966 C10.0832904,3.13834552 10.2829511,3.03226703 10.3866768,2.84992783 C10.4904025,2.66758872 10.4795517,2.44175848 10.3588222,2.27020396 C10.2380926,2.09864935 10.0291815,2.01220202 9.82253078,2.04828665 L8.2099888,2.04828665 C7.03928328,2.04828665 6.83932808,2.04828665 6.16528556,2.04828665 C5.76537514,2.04828665 5.52026876,2.1901904 5.52026876,2.4901232 C5.52026876,3.11256438 6.34266518,3.68662931 7.13281078,3.68662931 C7.26183486,3.68579149 7.39043402,3.67174282 7.51659571,3.64470324 L8.89693171,7.28904817 L4.44631579,11.3849048 C4.338734,11.4828797 4.27479496,11.6198046 4.26873734,11.7651877 C4.26267971,11.9105707 4.31500648,12.05234 4.41406495,12.158925 C4.51584974,12.2702747 4.65989037,12.333512 4.81075028,12.3330795 L10.061187,12.2492273 C10.0238397,12.3836945 10.0043222,12.5224859 10.0031355,12.6620381 C10.0042931,13.2943788 10.393862,13.8610299 10.9838536,14.0885511 C11.5738454,14.3160723 12.2430067,14.1577041 12.6684306,13.6898679 C13.0938543,13.2220317 13.1881088,12.5408757 12.9057111,11.9750952 L17.2724748,6.58597987 Z M6.24591267,11.2172004 L9.33554307,8.37590147 L9.98055992,10.0690706 L10.3740201,11.1526988 L6.24591267,11.2172004 Z M11.5447256,13.2135274 C11.2419277,13.2135274 10.9964614,12.9680611 10.9964614,12.6652632 C10.9964614,12.3624652 11.2419277,12.1169989 11.5447256,12.1169989 C11.8475236,12.1169989 12.0929899,12.3624652 12.0929899,12.6652632 C12.0929899,12.8106719 12.0352265,12.9501251 11.9324071,13.0529445 C11.8295875,13.155764 11.6901344,13.2135274 11.5447256,13.2135274 Z" id="Shape"></path>
                <path d="M20.2621277,7.1600448 C20.0081354,7.16028118 19.7546121,7.1818576 19.5042329,7.22454644 L20.0266965,8.26302349 L20.2621277,8.26302349 C21.9304472,8.25814467 23.3767484,9.41636143 23.7365907,11.0454187 C24.0964328,12.674476 23.2725748,14.3341479 21.7574286,15.0324644 C20.2422824,15.7307809 18.4452912,15.2790334 17.4404996,13.9472272 C16.435708,12.6154209 16.4946443,10.7634546 17.5820829,9.49823065 L17.0628444,8.45652859 C15.4653318,9.99159461 15.1808736,12.4439589 16.3845818,14.3039483 C17.5882901,16.1639377 19.9419883,16.9089962 21.996742,16.0804665 C24.0514956,15.2519368 25.2300307,13.0825907 24.8068419,10.9078757 C24.3836533,8.73316067 22.4776339,7.16405339 20.2621277,7.16649499 L20.2621277,7.1600448 Z" id="Shape"></path>
            </g>
        </g>
    </g>
</svg>