<?xml version="1.0" encoding="utf-8"?>
<!-- Generator: Adobe Illustrator 19.2.1, SVG Export Plug-In . SVG Version: 6.00 Build 0)  -->
<!DOCTYPE svg PUBLIC "-//W3C//DTD SVG 1.1//EN" "http://www.w3.org/Graphics/SVG/1.1/DTD/svg11.dtd">
<svg version="1.1" id="Layer_1" xmlns="http://www.w3.org/2000/svg" xmlns:xlink="http://www.w3.org/1999/xlink" x="0px" y="0px"
	 viewBox="0 0 16 16" enable-background="new 0 0 16 16" xml:space="preserve">
<path fill="#666666" d="M13.009,16h-10c-1.657,0-3-1.343-3-3l0-10c0-1.657,1.343-3,3-3l10,0c1.657,0,3,1.343,3,3v10
	C16.009,14.657,14.666,16,13.009,16z"/>
<path fill="#FFFFFF" d="M11.929,4.268v0.393c0,0.325-0.264,0.589-0.589,0.589h-0.393c-0.325,0-0.589-0.264-0.589-0.589V3.482
	c0-0.325-0.264-0.589-0.589-0.589H9.375c-0.325,0-0.589,0.264-0.589,0.589v0.393c0,0.325-0.264,0.589-0.589,0.589H7.804
	c-0.325,0-0.589,0.264-0.589,0.589v0.393c0,0.325-0.264,0.589-0.589,0.589H6.232c-0.325,0-0.589-0.264-0.589-0.589V4.268
	c0-0.325-0.264-0.589-0.589-0.589H4.661c-0.325,0-0.589,0.264-0.589,0.589v0.786c0,0.325-0.264,0.589-0.589,0.589H3.089
	C2.764,5.643,2.5,5.907,2.5,6.232v2.75c0,0.325,0.264,0.589,0.589,0.589h0.393c0.325,0,0.589,0.264,0.589,0.589v0.786
	c0,0.325,0.264,0.589,0.589,0.589h0.393c0.325,0,0.589,0.264,0.589,0.589v0.393c0,0.325,0.264,0.589,0.589,0.589h0.393
	c0.325,0,0.589-0.264,0.589-0.589v-0.393c0-0.325,0.264-0.589,0.589-0.589h0.393c0.325,0,0.589-0.264,0.589-0.589v-0.393
	c0-0.325,0.264-0.589,0.589-0.589h0.393c0.325,0,0.589,0.264,0.589,0.589v1.964c0,0.325,0.264,0.589,0.589,0.589h0.393
	c0.325,0,0.589-0.264,0.589-0.589v-1.179c0-0.325,0.264-0.589,0.589-0.589h0.393c0.325,0,0.589-0.264,0.589-0.589V4.268
	c0-0.325-0.264-0.589-0.589-0.589h-0.393C12.192,3.679,11.929,3.942,11.929,4.268z"/>
</svg>
