<?xml version="1.0" encoding="UTF-8"?>
<svg xmlns="http://www.w3.org/2000/svg" xmlns:xlink="http://www.w3.org/1999/xlink" width="16px" height="24px" viewBox="0 0 16 24" version="1.1">
<g id="surface1">
<path style=" stroke:none;fill-rule:nonzero;fill:#007AC9;fill-opacity:1;" d="M 15.976562 7.988281 C 15.976562 12.417969 7.988281 24 7.988281 24 C 7.988281 24 0 12.417969 0 7.988281 C 0 3.597656 3.558594 0 7.988281 0 C 12.417969 0 15.976562 3.597656 15.976562 7.988281 Z M 15.976562 7.988281 "/>
<path style=" stroke:none;fill-rule:nonzero;fill:rgb(100%,100%,100%);fill-opacity:1;" d="M 7.597656 5.613281 L 6.957031 5.777344 C 6.859375 5.800781 6.730469 5.824219 6.636719 5.824219 C 6.210938 5.824219 5.84375 5.46875 5.84375 5.042969 C 5.84375 4.675781 6.078125 4.367188 6.445312 4.261719 L 7.621094 3.917969 C 7.964844 3.824219 8.222656 3.765625 8.472656 3.765625 L 8.496094 3.765625 C 8.996094 3.765625 9.398438 4.167969 9.398438 4.664062 L 9.398438 11.351562 C 9.398438 11.847656 8.996094 12.25 8.496094 12.25 C 8 12.25 7.597656 11.847656 7.597656 11.351562 Z M 7.597656 5.613281 "/>
</g>
</svg>
