<?xml version="1.0" encoding="UTF-8"?>
<svg width="12px" height="12px" viewBox="0 0 12 12" version="1.1" xmlns="http://www.w3.org/2000/svg" xmlns:xlink="http://www.w3.org/1999/xlink">
    <title>icon-hsl_ferry-12</title>
    <g id="Page-1" stroke="none" stroke-width="1" fill="none" fill-rule="evenodd">
        <g id="icons" transform="translate(-176.000000, -80.000000)">
            <g id="icon-ferry" transform="translate(176.000000, 80.000000)">
                <g id="icon_ferry">
                    <path d="M10.2,11.64 L1.8,11.64 C1.004625,11.64 0.36,10.995375 0.36,10.2 L0.36,1.8 C0.36,1.004625 1.004625,0.36 1.8,0.36 L10.2,0.36 C10.995375,0.36 11.64,1.004625 11.64,1.8 L11.64,10.2 C11.64,10.995375 10.995375,11.64 10.2,11.64 Z" id="Shape" fill="#FFFFFF" fill-rule="nonzero"></path>
                    <path d="M0.000375,1.48575 C0.000375,0.67575 0.675375,0.00075 1.485375,0.00075 L10.484625,0.00075 C11.324625,0.00075 11.999625,0.67575 11.999625,1.48575 L11.999625,10.485 C11.999625,11.325 11.324625,12 10.484625,12 L1.485375,12 C0.675375,12 0.000375,11.325 0.000375,10.485 L0.000375,1.48575 Z M1.815375,10.14 C1.665375,10.14 1.530375,10.26 1.530375,10.425 C1.530375,10.59 1.665375,10.71 1.815375,10.71 L10.184625,10.71 C10.349625,10.71 10.484625,10.59 10.484625,10.425 C10.484625,10.26 10.349625,10.14 10.184625,10.14 L1.815375,10.14 Z M9.614625,6.825375 C9.614625,6.825375 8.414625,6.510375 7.604625,6.330375 C6.899625,6.180375 6.029625,6.075375 5.969625,6.075375 C5.909625,6.075375 5.054625,6.180375 4.334625,6.330375 C3.524625,6.510375 2.324625,6.825375 2.324625,6.825375 L2.654625,9.675 L9.298875,9.675 L9.613875,6.825375 L9.614625,6.825375 Z M4.335,5.760375 C5.055,5.610375 5.925,5.505375 5.97,5.490375 C6.015,5.505375 6.885,5.610375 7.605,5.760375 C8.16,5.880375 8.475,5.955375 8.88,6.060375 L8.88,3.975375 C8.88,3.705375 8.955,3.345375 8.25,3.345375 L6.945,3.345375 L6.945,1.380375 C6.945,1.275375 6.855,1.185375 6.75,1.170375 L5.19,1.170375 C5.085,1.185375 5.01,1.275375 4.995,1.380375 L4.995,3.345 L3.69,3.345 C2.985,3.345 3.06,3.705 3.06,3.975 L3.06,6.06 L4.335,5.76 L4.335,5.760375 Z M5.04,4.44075 C5.04,4.75575 4.8,4.99575 4.485,4.99575 C4.17,4.99575 3.93,4.75575 3.93,4.44075 C3.93,4.12575 4.17,3.88575 4.485,3.88575 C4.8,3.88575 5.04,4.12575 5.04,4.44075 Z M6.525,4.44075 C6.525,4.75575 6.285,4.99575 5.97,4.99575 C5.67,4.99575 5.415,4.75575 5.415,4.44075 C5.415,4.12575 5.67,3.88575 5.97,3.88575 C6.285,3.88575 6.525,4.12575 6.525,4.44075 Z M8.009625,4.44075 C8.009625,4.75575 7.769625,4.99575 7.454625,4.99575 C7.154625,4.99575 6.899625,4.75575 6.899625,4.44075 C6.899625,4.12575 7.154625,3.88575 7.454625,3.88575 C7.769625,3.88575 8.009625,4.12575 8.009625,4.44075 Z" id="Shape" fill="#00B9E4" fill-rule="nonzero"></path>
                </g>
            </g>
        </g>
    </g>
</svg>