<?xml version="1.0" encoding="UTF-8"?>
<svg width="16px" height="22px" viewBox="0 0 16 22" version="1.1" xmlns="http://www.w3.org/2000/svg" xmlns:xlink="http://www.w3.org/1999/xlink">
    <title>icon-stop-bus-small</title>
    <g id="Page-1" stroke="none" stroke-width="1" fill="none" fill-rule="evenodd">
        <g id="icons" transform="translate(-52.000000, -124.000000)">
            <g id="stop-marker-master-alt3" transform="translate(36.000000, 108.000000)">
                <g id="stop-ball/bus-alt" transform="translate(16.800000, 16.800000)">
                    <circle id="Oval" stroke="#FFFFFF" stroke-width="0.8" fill="#007AC9" cx="7.2" cy="7.2" r="7.6"></circle>
                    <g id="icon-bus" transform="translate(2.000000, 2.000000)" stroke-width="1">
                        <g id="icon_bus">
                            <path d="M8.880625,10.088 L1.600625,10.088 C0.9113,10.088 0.352625,9.529325 0.352625,8.84 L0.352625,1.56 C0.352625,0.870675 0.9113,0.312 1.600625,0.312 L8.880625,0.312 C9.56995,0.312 10.128625,0.870675 10.128625,1.56 L10.128625,8.84 C10.128625,9.529325 9.56995,10.088 8.880625,10.088 Z" id="Shape" fill="#FFFFFF" fill-rule="nonzero"></path>
                            <path d="M0.000325,1.28765 C0.000325,0.58565 0.585325,0.00065 1.287325,0.00065 L9.086675,0.00065 C9.814675,0.00065 10.399675,0.58565 10.399675,1.28765 L10.399675,9.087 C10.399675,9.815 9.814675,10.4 9.086675,10.4 L1.287325,10.4 C0.585325,10.4 0.000325,9.815 0.000325,9.087 L0.000325,1.28765 Z M5.213,1.11865 C4.134,1.11865 3.198,1.17065 2.171325,1.31365 C1.859325,1.35265 1.677325,1.53465 1.677325,1.80765 L1.677325,7.891 C1.677325,8.086 1.820325,8.216 1.950325,8.255 L2.340325,8.32 L2.340325,9.139 C2.340325,9.23 2.418325,9.295 2.522325,9.295 L3.146325,9.295 C3.224325,9.295 3.302325,9.23 3.302325,9.139 L3.302325,8.411 C3.809325,8.476 4.498325,8.502 5.187325,8.502 C5.889325,8.502 6.604325,8.476 7.098325,8.411 L7.098325,9.139 C7.098325,9.23 7.189325,9.295 7.267325,9.295 L7.891325,9.295 C7.995325,9.295 8.073325,9.23 8.073325,9.139 L8.073325,8.32 L8.463325,8.255 C8.606325,8.216 8.736325,8.099 8.736325,7.891 L8.736325,1.80765 C8.736325,1.53465 8.554325,1.35265 8.242325,1.31365 C7.202325,1.18365 6.25365,1.11865 5.21365,1.11865 L5.213,1.11865 Z M7.903675,6.305325 C7.162675,6.435325 6.187675,6.565325 5.239,6.565325 C4.238,6.565325 3.289325,6.448325 2.535325,6.279325 C2.327325,6.240325 2.249325,6.162325 2.249325,5.993325 L2.249325,2.19765 C2.249325,2.02865 2.327325,1.91165 2.535325,1.91165 L7.903675,1.93765 C8.111675,1.93765 8.176675,2.05465 8.176675,2.22365 L8.176675,6.019325 C8.176675,6.188325 8.111675,6.279325 7.903675,6.305325 L7.903675,6.305325 Z M2.457,7.345325 C2.47,7.176325 2.626,7.020325 2.808,7.020325 C2.99,7.020325 3.146,7.176325 3.146,7.345325 C3.146,7.540325 2.99,7.696325 2.808,7.696325 C2.613,7.683325 2.457,7.527325 2.457,7.345325 L2.457,7.345325 Z M7.214675,7.345325 C7.227675,7.176325 7.383675,7.020325 7.552675,7.020325 C7.734675,7.020325 7.890675,7.176325 7.890675,7.345325 C7.890675,7.540325 7.734675,7.696325 7.552675,7.696325 C7.370675,7.683325 7.214675,7.527325 7.214675,7.345325 Z" id="Shape" fill="#007AC9" fill-rule="nonzero"></path>
                        </g>
                    </g>
                </g>
                <path d="M23.2,31.2 L24.8,31.2 L24.8,36.8 C24.8,37.2418278 24.4418278,37.6 24,37.6 C23.5581722,37.6 23.2,37.2418278 23.2,36.8 L23.2,31.2 L23.2,31.2 Z" id="Rectangle" fill="#333333"></path>
            </g>
        </g>
    </g>
</svg>