<?xml version="1.0" encoding="UTF-8"?>
<svg width="10px" height="20px" viewBox="0 0 10 20" version="1.1" xmlns="http://www.w3.org/2000/svg" xmlns:xlink="http://www.w3.org/1999/xlink">
    <title>metro-entrance-small</title>
    <g id="Page-1" stroke="none" stroke-width="1" fill="none" fill-rule="evenodd">
        <g id="icons" transform="translate(-26.000000, -30.000000)">
            <g id="metro-entrance-small" transform="translate(26.000000, 30.000000)">
                <g id="metro-entrance">
                    <rect id="Rectangle" fill="#FF6319" x="0" y="0" width="10" height="20" rx="1.2"></rect>
                    <g id="icon-subway">
                        <g id="icon_subway">
                            <g id="Group-3" fill="#FF6319">
                                <path d="M-3.52112676e-06,1.25402113 C-3.52112676e-06,0.580288732 0.561440141,0.0188450704 1.23517254,0.0188450704 L8.72101761,0.0188450704 C9.41975,0.0188450704 9.98115845,0.580288732 9.98115845,1.25402113 L9.98115845,8.73990141 C9.98115845,9.43856338 9.41975,10.000007 8.72101761,10.000007 L1.23517254,10.000007 C0.561440141,10.000007 -3.52112676e-06,9.43856338 -3.52112676e-06,8.73990141 L-3.52112676e-06,1.25402113 Z" id="Fill-1"></path>
                            </g>
                            <path d="M7.19207725,3.79433202 L7.19207725,3.58433791 C7.19207725,3.57196071 7.21721323,3.55961837 7.24231376,3.55961837 L7.24231376,8.6 L8.8,8.6 L8.8,1.2 L6.5011746,1.2 L5.05651164,6.25275884 L5.03141111,6.59865815 L4.99372487,6.59865815 L4.95603862,6.25275884 L3.51141111,1.2 L1.2,1.2 L1.2,8.6 L2.78282222,8.6 L2.78282222,3.55961837 C2.79537249,3.55961837 2.82047301,3.57196071 2.82047301,3.58433791 L2.82047301,3.79433202 L4.22744974,8.6 L5.77258572,8.6 L7.19207725,3.79433202 Z" id="Fill-4" fill="#FFFFFF"></path>
                        </g>
                    </g>
                </g>
            </g>
        </g>
    </g>
</svg>