<?xml version="1.0" encoding="UTF-8"?>
<svg width="16px" height="32px" viewBox="0 0 16 32" version="1.1" xmlns="http://www.w3.org/2000/svg" xmlns:xlink="http://www.w3.org/1999/xlink">
    <title>metro-entrance-large</title>
    <g id="Page-1" stroke="none" stroke-width="1" fill="none" fill-rule="evenodd">
        <g id="icons" transform="translate(-76.000000, -18.000000)">
            <g id="metro-entrance-large" transform="translate(76.000000, 18.000000)">
                <g id="metro-entrance">
                    <rect id="Rectangle" fill="#FF6319" x="0" y="0" width="16" height="32" rx="2.39999986"></rect>
                    <g id="icon-subway">
                        <g id="icon_subway">
                            <g id="Group-3" fill="#FF6319">
                                <path d="M-5.63380282e-06,2.0064338 C-5.63380282e-06,0.928461972 0.898304225,0.0301521127 1.97627606,0.0301521127 L13.9536282,0.0301521127 C15.0716,0.0301521127 15.9698535,0.928461972 15.9698535,2.0064338 L15.9698535,13.9838423 C15.9698535,15.1017014 15.0716,16.0000113 13.9536282,16.0000113 L1.97627606,16.0000113 C0.898304225,16.0000113 -5.63380282e-06,15.1017014 -5.63380282e-06,13.9838423 L-5.63380282e-06,2.0064338 Z" id="Fill-1"></path>
                            </g>
                            <path d="M11.5073236,6.07093124 L11.5073236,5.73494066 C11.5073236,5.71513713 11.5475412,5.69538938 11.587702,5.69538938 L11.587702,13.76 L14.08,13.76 L14.08,1.92 L10.4018794,1.92 L8.09041862,10.0044141 L8.05025778,10.557853 L7.98995979,10.557853 L7.9296618,10.0044141 L5.61825778,1.92 L1.92,1.92 L1.92,13.76 L4.45251556,13.76 L4.45251556,5.69538938 C4.47259598,5.69538938 4.51275682,5.71513713 4.51275682,5.73494066 L4.51275682,6.07093124 L6.76391958,13.76 L9.23613715,13.76 L11.5073236,6.07093124 Z" id="Fill-4" fill="#FFFFFF"></path>
                        </g>
                    </g>
                </g>
            </g>
        </g>
    </g>
</svg>